<svg width="48" height="46" viewBox="0 0 48 46" fill="none" xmlns="http://www.w3.org/2000/svg">
<path d="M28.6227 37.2044C28.6227 39.7626 29.5595 42.1063 31.1098 43.9099C29.6372 44.1869 28.1171 44.3314 26.5647 44.3314C20.2269 44.3314 14.4497 41.9273 10.0977 37.9806V37.9666C10.0977 31.4024 13.9387 25.7362 19.4949 23.0918C21.5831 25.1746 24.0281 26.2968 26.5647 26.2968C29.1025 26.2968 31.5464 25.1746 33.6356 23.0918C35.5858 24.02 37.3247 25.3201 38.7595 26.9016C33.1537 26.9912 28.6227 31.5781 28.6227 37.2044Z" fill="#1EA6C6"/>
<path d="M26.5615 2.35913C31.5916 2.35913 35.6699 6.43628 35.6699 11.4664C35.6699 16.4976 31.5916 23.3777 26.5615 23.3777C21.5314 23.3777 17.4531 16.4976 17.4531 11.4664C17.4531 6.43628 21.5314 2.35913 26.5615 2.35913Z" fill="#FCD09F"/>
<path d="M18.8841 20.1754C19.1633 20.5732 19.4522 20.9462 19.7508 21.2966L18.842 21.7289C15.817 23.168 13.2578 25.4201 11.4391 28.2413C9.96003 30.5365 9.03291 33.1238 8.71058 35.821C5.42363 34.9252 2.45254 33.2639 0 31.0399V31.028C0 25.308 3.34732 20.3705 8.1888 18.0657C10.0085 19.8811 12.1387 20.8589 14.3487 20.8589C15.7965 20.8589 17.2109 20.4395 18.5251 19.6396C18.6404 19.8208 18.7612 19.9998 18.8841 20.1754Z" fill="#EF806F"/>
<path d="M15.9372 11.4661C15.9372 13.3569 16.4288 15.4376 17.3042 17.3931C16.3889 17.9731 15.3896 18.3148 14.3428 18.3148C9.95948 18.3148 6.40625 12.3199 6.40625 7.93546C6.40625 3.55215 9.95948 0 14.3428 0C16.7738 0 18.9503 1.09313 20.4057 2.81477C17.703 4.7423 15.9372 7.90204 15.9372 11.4661Z" fill="#EFC59C"/>
<path d="M38.9169 45.9999C43.7748 45.9999 47.7128 42.0619 47.7128 37.2041C47.7128 32.3462 43.7748 28.4082 38.9169 28.4082C34.0591 28.4082 30.1211 32.3462 30.1211 37.2041C30.1211 42.0619 34.0591 45.9999 38.9169 45.9999Z" fill="#EF806F"/>
<path d="M45.0064 36.3958H32.8438V38.0128H45.0064V36.3958Z" fill="white"/>
<path d="M39.7303 31.1228H38.1133V43.2855H39.7303V31.1228Z" fill="white"/>
</svg>
