<svg width="25" height="24" viewBox="0 0 25 24" fill="none" xmlns="http://www.w3.org/2000/svg">
<path d="M8.76611 17.6445V22.2911C8.76611 22.6157 8.9745 22.9032 9.28307 23.0054C9.36021 23.0305 9.43936 23.0425 9.5175 23.0425C9.75193 23.0425 9.97835 22.9323 10.1226 22.7359L12.8406 19.0371L8.76611 17.6445Z" fill="#001534"/>
<path d="M23.7289 0.139346C23.4984 -0.0239556 23.1959 -0.0459963 22.9454 0.085246L0.40379 11.857C0.137298 11.9962 -0.0199924 12.2808 0.00204826 12.5803C0.0250908 12.8809 0.224459 13.1373 0.507982 13.2345L6.77455 15.3765L20.1202 3.96541L9.79313 16.4074L20.2955 19.997C20.3737 20.0231 20.4558 20.0371 20.538 20.0371C20.6742 20.0371 20.8095 20 20.9287 19.9279C21.119 19.8117 21.2483 19.6163 21.2813 19.3969L24.0364 0.862681C24.0775 0.582163 23.9593 0.303649 23.7289 0.139346Z" fill="#001534"/>
</svg>
