<svg width="14" height="14" viewBox="0 0 14 14" fill="none" xmlns="http://www.w3.org/2000/svg">
<path d="M7 0C3.13395 0 0 3.13395 0 7C0 10.8661 3.13395 14 7 14C10.8661 14 14 10.8661 14 7C14 3.13395 10.8661 0 7 0ZM7 12.8334C3.77839 12.8334 1.16662 10.2216 1.16662 7C1.16662 3.77839 3.77839 1.16662 7 1.16662C10.2216 1.16662 12.8334 3.77839 12.8334 7C12.8334 10.2216 10.2216 12.8334 7 12.8334Z" fill="#241F20"/>
<path d="M7.35662 4.723C7.52433 4.723 7.67825 4.66378 7.81693 4.54533C7.95444 4.42688 8.03888 4.28321 8.06908 4.11551C8.09781 3.94663 8.06204 3.80413 7.95767 3.68568C7.85388 3.56606 7.71783 3.50684 7.54954 3.50684C7.38066 3.50684 7.22703 3.56606 7.08952 3.68568C6.95055 3.80384 6.86611 3.94663 6.83737 4.11551C6.81656 4.28351 6.85672 4.42688 6.95553 4.54533C7.05463 4.66378 7.18891 4.723 7.35662 4.723Z" fill="#241F20"/>
<path d="M8.64751 8.87641C8.63197 8.8984 8.61701 8.91745 8.60177 8.93974C8.51029 9.05584 8.16931 9.46602 7.72688 9.71142C7.72395 9.7126 7.72131 9.71377 7.71984 9.71553C7.68114 9.73605 7.64156 9.75159 7.60227 9.76977C7.48558 9.81169 7.37622 9.82225 7.34103 9.82489C7.24164 9.81199 7.18769 9.7425 7.18769 9.61086C7.18769 9.50208 7.21965 9.28717 7.28416 8.96436L7.35833 8.63863L7.66179 7.18204C7.71105 6.934 7.73743 6.7962 7.7433 6.76893L7.80956 6.42824C7.84855 6.21743 7.86849 6.07817 7.86849 6.01014C7.86849 5.87997 7.83624 5.78116 7.78434 5.70083C7.77965 5.6891 7.7735 5.67737 7.76499 5.66506C7.75737 5.65567 7.74916 5.64746 7.74095 5.63896C7.73186 5.62899 7.72746 5.62049 7.71515 5.61023C7.58585 5.50468 7.46506 5.47419 7.38179 5.46744L7.38325 5.4651C7.38325 5.4651 6.83586 5.42376 6.02489 5.95825C6.01316 5.96587 6.00612 5.97144 5.99528 5.97877C5.77567 6.11775 5.60005 6.25701 5.47838 6.36931C5.38514 6.44906 5.31331 6.52323 5.25995 6.59272L5.2576 6.59595L5.25789 6.59565C5.1887 6.68684 5.15234 6.76952 5.15234 6.84282C5.15234 6.90057 5.19925 6.95833 5.2919 7.01609C5.2919 7.01609 5.64022 6.56633 6.22573 6.27373C6.2697 6.25467 6.38229 6.20805 6.48139 6.18225C6.52742 6.17169 6.61479 6.16349 6.6705 6.20952C6.71038 6.25115 6.73676 6.30891 6.73676 6.39892C6.73676 6.48072 6.72445 6.58011 6.69953 6.69886L6.6403 6.97944L6.56671 7.3301L6.27762 8.71632C6.12985 9.4323 6.05567 9.86066 6.05567 10.0002C6.05567 10.3295 6.23599 10.4942 6.59603 10.4942C6.75934 10.4942 6.92705 10.4646 7.09915 10.4119C7.10032 10.4119 7.10091 10.4124 7.10208 10.413C7.11381 10.4089 7.12466 10.4045 7.13609 10.4004C7.16453 10.3913 7.19327 10.3805 7.22171 10.3696C8.03415 10.0674 8.56893 9.4584 8.73048 9.25433C8.74485 9.23703 8.75716 9.22091 8.76859 9.20537C8.77768 9.19276 8.78355 9.18426 8.78355 9.18426H8.78296C8.82401 9.12386 8.84658 9.07373 8.84658 9.0362C8.846 8.98372 8.77827 8.93123 8.64751 8.87641Z" fill="#241F20"/>
</svg>
