<svg width="30" height="26" viewBox="0 0 30 26" fill="none" xmlns="http://www.w3.org/2000/svg">
<path d="M29.3863 22.4466L16.8506 1.14522C16.4234 0.427144 15.6805 0 14.8572 0C14.0401 0 13.291 0.427144 12.8701 1.14522L0.334367 22.4466C-0.105171 23.1895 -0.111367 24.0809 0.315777 24.83C0.736726 25.5605 1.48579 26 2.32149 26H27.3991C28.2348 26 28.9839 25.5605 29.3986 24.83C29.832 24.0809 29.8258 23.1895 29.3863 22.4466ZM13.5824 9.19613H15.6753V11.169L15.2268 16.6903H14.031L13.5824 11.169V9.19613ZM15.4211 19.9324C15.202 20.1567 14.9402 20.2692 14.6364 20.2692C14.3323 20.2692 14.0706 20.1567 13.8514 19.9324C13.632 19.7082 13.5226 19.4409 13.5226 19.1296C13.5226 18.8189 13.632 18.5511 13.8514 18.3268C14.0706 18.1025 14.3323 17.9901 14.6364 17.9901C14.9402 17.9901 15.202 18.1025 15.4211 18.3268C15.6403 18.5511 15.75 18.8189 15.75 19.1296C15.75 19.4409 15.6403 19.7082 15.4211 19.9324Z" fill="white"/>
</svg>
