<svg width="76" height="18" viewBox="0 0 76 18" fill="none" xmlns="http://www.w3.org/2000/svg">
<path d="M9.36351 0L0.910156 17.976H11.0284L12.2833 15.11H15.151L16.4059 17.976H27.5438V15.79L28.5365 17.976H34.2969L35.2896 15.744V17.976H58.4541L61.2719 15.186L63.9086 17.976L75.8062 18L67.3279 9.04L75.8062 0H64.0939L61.351 2.74L58.7975 0H33.5977L31.4334 4.64L29.2191 0H19.1196V2.114L17.9979 0H9.36351ZM11.3197 2.552H16.254L21.8604 14.744V2.552H27.2629L31.5936 11.292L35.5851 2.552H40.9606V15.452H37.6891L37.6641 5.344L32.8943 15.452H29.9683L25.1714 5.344V15.452H18.4412L17.1655 12.56H10.2729L8.99932 15.45H5.3928L11.3197 2.552ZM43.9552 2.552H57.2575L61.326 6.776L65.5256 2.552H69.5942L63.4113 9.036L69.5942 15.444H65.3404L61.2719 11.172L57.0515 15.444H43.9552V2.552ZM13.7192 4.736L11.4488 9.888H15.9876L13.7192 4.736ZM47.2392 5.224V7.578H54.4959V10.202H47.2392V12.774H55.3783L59.1617 8.988L55.5385 5.222H47.2392V5.224Z" fill="#2478BC"/>
</svg>
