<svg width="28" height="34" viewBox="0 0 28 34" fill="none" xmlns="http://www.w3.org/2000/svg">
<path d="M9.24594 34C4.18572 33.9708 0 23.6412 0 18.3806C0 9.78735 6.44639 7.90606 8.93078 7.90606C10.0504 7.90606 11.2459 8.34573 12.3004 8.73481C13.0377 9.00621 13.8004 9.28638 14.2245 9.28638C14.4784 9.28638 15.0766 9.04805 15.6048 8.83893C16.7313 8.39049 18.133 7.83315 19.7652 7.83315C19.7681 7.83315 19.7721 7.83315 19.7749 7.83315C20.9937 7.83315 24.6893 8.10063 26.911 11.4371L27.4314 12.2192L26.6824 12.7844C25.6124 13.5918 23.6601 15.0645 23.6601 17.9818C23.6601 21.437 25.8711 22.7658 26.9334 23.4049C27.4023 23.687 27.8876 23.9778 27.8876 24.614C27.8876 25.0294 24.5725 33.9485 19.7584 33.9485C18.5804 33.9485 17.7477 33.5944 17.0133 33.2821C16.2701 32.966 15.629 32.6937 14.5697 32.6937C14.0328 32.6937 13.3538 32.9475 12.6349 33.217C11.6526 33.5836 10.5407 34 9.27901 34H9.24594Z" fill="black"/>
<path d="M20.2752 0C20.4006 4.52067 17.1676 7.65691 13.9384 7.46021C13.4063 3.85256 17.1672 0 20.2752 0Z" fill="black"/>
</svg>
