<svg width="43" height="43" viewBox="0 0 43 43" fill="none" xmlns="http://www.w3.org/2000/svg">
<path d="M21.5 43C33.3741 43 43 33.3741 43 21.5C43 9.62588 33.3741 0 21.5 0C9.62588 0 0 9.62588 0 21.5C0 33.3741 9.62588 43 21.5 43Z" fill="#F0F0F0"/>
<path d="M21.4994 0C12.9755 0 5.61044 4.96054 2.13281 12.1522H40.866C37.3884 4.96054 30.0233 0 21.4994 0Z" fill="#338AF3"/>
<path d="M21.4994 43.0001C30.0233 43.0001 37.3884 38.0396 40.8661 30.8479H2.13281C5.61044 38.0396 12.9755 43.0001 21.4994 43.0001Z" fill="#338AF3"/>
<path d="M27.9254 21.5002L25.2996 22.7353L26.6978 25.2783L23.8466 24.7328L23.4853 27.6132L21.4993 25.4947L19.5132 27.6132L19.152 24.7328L16.3008 25.2782L17.6989 22.7353L15.0732 21.5002L17.699 20.265L16.3008 17.7221L19.1519 18.2675L19.5133 15.3872L21.4993 17.5056L23.4854 15.3872L23.8466 18.2675L26.6979 17.7221L25.2997 20.2651L27.9254 21.5002Z" fill="#FFDA44"/>
</svg>
