<svg width="43" height="43" viewBox="0 0 43 43" fill="none" xmlns="http://www.w3.org/2000/svg">
<g clip-path="url(#clip0)">
<path d="M21.5 0V43C33.3746 43 43.0003 33.3741 43.0003 21.5003C43.0003 9.62513 33.3745 0 21.5 0Z" fill="#252F6B"/>
<path d="M21.4997 0C9.62586 0 0 9.6255 0 21.5C0 33.3738 9.62586 42.9996 21.4997 42.9996C33.3741 42.9996 33.3741 0 21.4997 0Z" fill="#273375"/>
<path d="M14.7452 32.9581L16.1951 31.1506L13.9553 31.5563L13.1782 29.3867L12.3336 31.5563L10.0469 31.1506L11.5001 32.9183L9.99121 34.684L12.2911 34.3227L13.0668 36.4475L13.9118 34.3237L16.2575 34.743L14.7452 32.9581Z" fill="#F3F4F5"/>
<path d="M31.8819 34.5547L32.7041 33.5304L31.4344 33.7602L30.9942 32.531L30.5155 33.7602L29.2197 33.5304L30.0433 34.5315L29.1885 35.5326L30.4914 35.3276L30.931 36.5311L31.4097 35.3283L32.739 35.5659L31.8819 34.5547Z" fill="#F3F4F5"/>
<path d="M31.8819 11.9228L32.7041 10.8983L31.4344 11.1284L30.9942 9.89917L30.5155 11.1284L29.2197 10.8983L30.0433 11.9L29.1885 12.9005L30.4914 12.6958L30.931 13.8999L31.4097 12.6964L32.739 12.9337L31.8819 11.9228Z" fill="#F3F4F5"/>
<path d="M37.2009 17.7775L38.0224 16.7529L36.7535 16.9831L36.3132 15.7539L35.8346 16.9831L34.5381 16.7529L35.3616 17.7548L34.5068 18.7555L35.8098 18.5504L36.2493 19.7546L36.728 18.5512L38.0574 18.7885L37.2009 17.7775Z" fill="#F3F4F5"/>
<path d="M27.2819 20.3802L28.1042 19.356L26.8346 19.5862L26.3942 18.3569L25.9156 19.5862L24.6201 19.356L25.4434 20.3571L24.5889 21.3582L25.8918 21.1535L26.3315 22.3566L26.8101 21.1542L28.1395 21.3915L27.2819 20.3802Z" fill="#F3F4F5"/>
<path d="M4.51486 8.32568C4.17743 8.76052 3.85526 9.20697 3.55078 9.66695H5.85549L4.51486 8.32568Z" fill="#29337A"/>
<path d="M15.6182 21.5001H17.6893L15.6182 19.429V21.5001Z" fill="#29337A"/>
<path d="M8.75333 4.18799C8.26004 4.55192 7.78517 4.93791 7.3252 5.34152L8.75333 6.76902V4.18799Z" fill="#29337A"/>
<path d="M6.68066 21.4997H8.75243V19.428L6.68066 21.4997Z" fill="#29337A"/>
<path d="M21.4999 0C19.4597 0 17.4887 0.290221 15.6182 0.821551V6.76913L21.5005 0.887003V0H21.4999Z" fill="#29337A"/>
<path d="M21.5006 19.5177V16.5327H18.5156L21.5006 19.5177Z" fill="#29337A"/>
<path d="M0.887094 21.4999L5.85526 16.5327H0.583528C0.205706 18.1279 0 19.7896 0 21.4999H0.887094Z" fill="#29337A"/>
<path d="M18.5127 9.66678H21.4997V6.68042L18.5127 9.66678Z" fill="#29337A"/>
<path d="M21.5013 20.1449V19.5179L18.5163 16.5329H21.5013V15.4639H16.8203L21.5013 20.1449Z" fill="white"/>
<path d="M5.85722 9.66693H3.55252C3.3224 10.0156 3.10371 10.3724 2.89355 10.7349H7.42116L4.73383 8.04834C4.66021 8.14003 4.58786 8.23271 4.51623 8.32531L5.85722 9.66693Z" fill="white"/>
<path d="M8.75358 19.4284V21.5002H9.82196V17.8645L6.18652 21.5002H6.68181L8.75358 19.4284Z" fill="white"/>
<path d="M15.6188 0.821289C15.2586 0.923506 14.9028 1.0348 14.5508 1.15463V8.33317L21.5012 1.38312V0.88783L15.6188 6.76887V0.821289Z" fill="white"/>
<path d="M8.71544 16.533L8.75311 16.4953L9.78409 15.4644H0.865763C0.76291 15.817 0.668863 16.1732 0.583984 16.533H5.85571L0.88755 21.5002H3.748L8.71544 16.533Z" fill="white"/>
<path d="M0.887695 21.5001L5.85586 16.533L0.887695 21.5001Z" fill="white"/>
<path d="M21.5007 10.7355V9.66713H18.5137L21.5007 6.68077V3.82104L14.5859 10.7355H21.5007Z" fill="white"/>
<path d="M21.5008 6.68066L18.5137 9.66703L21.5008 6.68066Z" fill="white"/>
<path d="M8.75363 6.76973L7.32549 5.34223C6.81903 5.78732 6.33282 6.25574 5.87012 6.74668L8.75363 9.63019L8.78422 9.66141L9.82201 10.6992V3.45239C9.4588 3.68833 9.10131 3.93171 8.75399 4.18834V6.76973H8.75363Z" fill="white"/>
<path d="M15.6182 19.429L17.6893 21.5001H20.418L14.5498 15.6323V21.5001H15.6182V19.429Z" fill="white"/>
<path d="M8.75293 9.63013L8.78352 9.66136L8.75293 9.63013Z" fill="#D32030"/>
<path d="M17.8872 16.5329L16.8192 15.4643H21.5003V10.7354H14.5855L14.5498 10.7717V10.7354H14.5855L21.5003 3.8213V1.38316L14.5495 8.33357V1.15503C12.8694 1.72912 11.2841 2.50374 9.82061 3.45256V10.699L9.85764 10.7353H9.82061V10.699L8.78282 9.66131L8.7889 9.66739H8.75259V9.63035L5.86908 6.74684C5.47328 7.16579 5.09409 7.59962 4.73252 8.04907L7.41977 10.7357H2.89224C2.03674 12.2104 1.35272 13.795 0.865234 15.4645H9.78357L9.82061 15.4269V15.4645H9.78357L8.75259 16.4956V16.5333H8.71491L3.74738 21.5002H6.18553L9.82097 17.8644V21.5002H14.5498V15.6323L20.4177 21.5002H21.2247C21.3166 21.4041 21.4104 21.3087 21.5006 21.21V20.1449L17.8872 16.5329Z" fill="#D32030"/>
<path d="M14.5488 8.33372L21.4996 1.3833L14.5488 8.33372Z" fill="#D32030"/>
<path d="M8.75252 16.5329V16.4949L8.71484 16.5329H8.75252Z" fill="#D32030"/>
<path d="M9.82051 15.4263L9.7832 15.4639H9.82051V15.4263Z" fill="#D32030"/>
<path d="M14.5488 10.7719L14.5849 10.7356H14.5488V10.7719Z" fill="#D32030"/>
<path d="M8.75293 9.66707H8.7896L8.78352 9.66136L8.75293 9.63013V9.66707Z" fill="#D32030"/>
<path d="M9.85726 10.7354L9.82031 10.6987V10.7354H9.85726Z" fill="#D32030"/>
</g>
<defs>
<clipPath id="clip0">
<rect width="43" height="43" fill="white"/>
</clipPath>
</defs>
</svg>
