<svg width="37" height="37" viewBox="0 0 37 37" fill="none" xmlns="http://www.w3.org/2000/svg">
<path d="M18.5 37C8.28805 37 0 28.712 0 18.5C0 8.28805 8.28805 0 18.5 0C28.712 0 37 8.28805 37 18.5C37 28.712 28.712 37 18.5 37ZM5.22931 18.5C5.22931 25.8507 11.1986 31.82 18.5 31.82C21.2627 31.82 23.8774 30.9813 25.9987 29.5013L7.54803 11.0013C6.06801 13.1226 5.22931 15.7373 5.22931 18.5ZM18.5 5.22931C15.7373 5.22931 13.1226 6.06801 11.0013 7.54796L29.452 25.9987C30.9321 23.8773 31.7707 21.2627 31.7707 18.5C31.7707 11.1493 25.8507 5.22931 18.5 5.22931Z" fill="#D15241"/>
</svg>
