<svg width="55" height="36" viewBox="0 0 55 36" fill="none" xmlns="http://www.w3.org/2000/svg">
<path d="M7.43273 15.7207C5.82212 14.5889 4.75564 12.7062 4.75564 10.5841C4.75564 7.11263 7.56332 4.30495 11.0348 4.30495C14.5063 4.30495 17.314 7.11263 17.314 10.5841C17.314 12.7062 16.2584 14.5889 14.6369 15.7207C16.019 16.1995 17.2814 16.9395 18.3478 17.8972C19.817 16.6457 21.5473 15.688 23.4408 15.1221C21.1446 13.7292 19.5993 11.1936 19.5993 8.3097C19.5993 3.91318 23.1579 0.354614 27.5544 0.354614C31.9509 0.354614 35.5095 3.92407 35.5095 8.3097C35.5095 11.1936 33.9751 13.7292 31.668 15.1221C33.5398 15.688 35.2483 16.6348 36.7066 17.8645C37.7731 16.9286 39.0137 16.1995 40.374 15.7315C38.7634 14.5998 37.6969 12.7171 37.6969 10.595C37.6969 7.12351 40.5046 4.31583 43.9761 4.31583C47.4476 4.31583 50.2552 7.12351 50.2552 10.595C50.2552 12.7171 49.1996 14.5998 47.5782 15.7315C51.8985 17.2224 55 21.3251 55 26.1461V26.8643C55 26.8861 54.9782 26.9078 54.9565 26.9078H41.6472C41.7234 27.5064 41.7669 28.1267 41.7669 28.747V29.487C41.7669 32.6864 39.1769 35.2765 35.9774 35.2765H19.1096C15.9102 35.2765 13.3201 32.6864 13.3201 29.487V28.747C13.3201 28.1267 13.3637 27.5064 13.4398 26.9078H0.0435295C0.0217667 26.9078 0 26.8861 0 26.8643V26.1461C0.0217667 21.3143 3.11238 17.2116 7.43273 15.7207ZM15.5728 10.5733C15.5728 8.07028 13.5378 6.03526 11.0348 6.03526C8.53186 6.03526 6.49683 8.07028 6.49683 10.5733C6.49683 13.0436 8.48833 15.0568 10.9478 15.1112C10.9804 15.1112 11.0022 15.1112 11.0348 15.1112C11.0675 15.1112 11.0892 15.1112 11.1219 15.1112C13.5922 15.0677 15.5728 13.0545 15.5728 10.5733ZM33.7901 8.3097C33.7901 4.88172 31.0042 2.09581 27.5762 2.09581C24.1482 2.09581 21.3623 4.88172 21.3623 8.3097C21.3623 11.618 23.9632 14.3277 27.2171 14.5127C27.3368 14.5127 27.4565 14.5127 27.5762 14.5127C27.6959 14.5127 27.8156 14.5127 27.9353 14.5127C31.1892 14.3277 33.7901 11.618 33.7901 8.3097ZM48.5467 10.5733C48.5467 8.07028 46.5117 6.03526 44.0087 6.03526C41.5057 6.03526 39.4707 8.07028 39.4707 10.5733C39.4707 13.0436 41.4622 15.0568 43.9216 15.1112C43.9543 15.1112 43.9761 15.1112 44.0087 15.1112C44.0414 15.1112 44.0631 15.1112 44.0958 15.1112C46.5552 15.0677 48.5467 13.0545 48.5467 10.5733ZM41.3425 25.1558H53.237C52.7473 20.5198 48.8296 16.8851 44.074 16.8524C44.0522 16.8524 44.0305 16.8524 44.0087 16.8524C43.9869 16.8524 43.9652 16.8524 43.9434 16.8524C41.6799 16.8633 39.6122 17.7013 38.0125 19.0616C39.5795 20.7592 40.744 22.8487 41.3425 25.1558ZM15.0831 29.487C15.0831 31.7179 16.9005 33.5353 19.1314 33.5353H35.9992C38.2301 33.5353 40.0475 31.7179 40.0475 29.487V28.747C40.0475 21.989 34.6498 16.4607 27.9353 16.2648C27.8156 16.2757 27.685 16.2757 27.5653 16.2757C27.4456 16.2757 27.315 16.2757 27.1953 16.2648C20.4808 16.4607 15.0831 21.989 15.0831 28.747V29.487ZM13.7881 25.1558C14.3866 22.8596 15.5293 20.8028 17.0855 19.1051C15.4749 17.7122 13.3854 16.8742 11.1001 16.8524C11.0784 16.8524 11.0566 16.8524 11.0348 16.8524C11.0131 16.8524 10.9913 16.8524 10.9695 16.8524C6.21389 16.8851 2.2962 20.5198 1.80649 25.1558H13.7881Z" fill="#001534"/>
</svg>
