<svg width="26" height="23" viewBox="0 0 26 23" fill="none" xmlns="http://www.w3.org/2000/svg">
<path d="M25.2189 7.3469C25.2197 7.34961 25.221 7.35443 25.2222 7.35991C25.2236 7.36687 25.225 7.37617 25.225 7.3871V21.7581C25.225 22.0337 25.0015 22.2573 24.7258 22.2573H0.774194C0.498512 22.2573 0.275 22.0337 0.275 21.7581V7.38905C0.275 7.37744 0.276607 7.36767 0.278172 7.36058C0.279136 7.35622 0.280248 7.35221 0.28104 7.34951C0.284264 7.31759 0.290653 7.28647 0.299648 7.25639C0.306746 7.22694 0.316778 7.19817 0.329551 7.17058C0.332672 7.16096 0.336173 7.15167 0.339866 7.14285L0.342651 7.13619L0.346362 7.13001L3.9391 1.14211L3.93913 1.14207C4.02933 0.991899 4.19168 0.900002 4.36694 0.900002H21.1329H21.1331V1C21.2728 0.999612 21.4024 1.07232 21.4751 1.19161L25.2189 7.3469ZM25.2189 7.3469C25.2156 7.31521 25.2093 7.2843 25.2003 7.25442M25.2189 7.3469L25.2003 7.25442M0.380263 7.36234C0.382797 7.33525 0.388254 7.30855 0.396246 7.28243C0.402289 7.2565 0.411255 7.23116 0.42295 7.20699C0.425484 7.19842 0.428603 7.18984 0.432111 7.18146L0.380263 7.36234ZM0.380263 7.36234C0.380263 7.36688 0.378974 7.37112 0.377673 7.37541M0.380263 7.36234L0.377673 7.37541M25.2003 7.25442C25.1933 7.22528 25.1834 7.19682 25.1709 7.1695L25.2003 7.25442ZM0.377673 7.37541C0.376343 7.37979 0.375 7.38422 0.375 7.38905M0.377673 7.37541L0.375 7.38905M0.375 7.38905V21.7581M0.375 7.38905V21.7581M0.375 21.7581C0.375 21.9785 0.55374 22.1573 0.774194 22.1573M0.375 21.7581L0.774194 22.1573M0.774194 22.1573H24.7258M0.774194 22.1573H24.7258M24.7258 22.1573C24.9463 22.1573 25.125 21.9785 25.125 21.7581M24.7258 22.1573L25.125 21.7581M25.125 21.7581V7.3871M25.125 21.7581V7.3871M25.125 7.3871C25.125 7.38209 25.1237 7.3775 25.1223 7.37296M25.125 7.3871L25.1223 7.37296M25.1223 7.37296C25.1211 7.36884 25.1199 7.36475 25.1197 7.36039L25.1223 7.37296ZM1.65583 6.8879L4.64947 1.89839H20.8505L23.8442 6.8879H17.1411C16.8654 6.8879 16.6419 7.11142 16.6419 7.3871C16.6419 9.5366 14.8995 11.279 12.75 11.279C10.6005 11.279 8.85806 9.5366 8.85806 7.3871C8.85806 7.11142 8.63455 6.8879 8.35887 6.8879H1.65583ZM1.27339 21.2589V7.88629H7.88867C8.13938 10.377 10.2371 12.2819 12.7504 12.2819C15.2637 12.2819 17.3614 10.377 17.6121 7.88629H24.2266V21.2589H1.27339Z" fill="#001534" stroke="#001534" stroke-width="0.2"/>
<path d="M5.16482 14.0738C4.88914 14.0738 4.66562 14.2973 4.66562 14.573V17.7666C4.66562 18.0423 4.88914 18.2658 5.16482 18.2658H20.3342C20.6099 18.2658 20.8334 18.0423 20.8334 17.7666V14.573C20.8334 14.2973 20.6099 14.0738 20.3342 14.0738H5.16482ZM19.835 17.2674H5.66401V15.0722H19.835V17.2674Z" fill="#001534" stroke="black" stroke-width="0.2"/>
</svg>
