<svg width="39" height="45" viewBox="0 0 39 45" fill="none" xmlns="http://www.w3.org/2000/svg">
<path d="M36.3748 44.1398H2.62477C1.17511 44.1398 0 42.9647 0 41.5151V37.8637L38.9996 30.7769V41.5151C38.9996 42.9647 37.8244 44.1398 36.3748 44.1398Z" fill="#CDBFBA"/>
<path d="M29.2342 41.5153H2.62915C1.17712 41.5153 0 40.3382 0 38.8861V6.28418C0 4.83215 1.17712 3.65503 2.62915 3.65503H36.3703C37.8224 3.65503 38.9995 4.83215 38.9995 6.28418V31.7499C38.9995 32.4472 37.4101 33.1159 36.917 33.609L31.0932 39.4328C30.6003 39.9259 29.9315 41.5153 29.2342 41.5153Z" fill="#F9F3F1"/>
<path d="M29.2213 41.5151C29.9186 41.5151 30.5873 41.2381 31.0804 40.745L38.2288 33.5966C38.7219 33.1035 38.9989 32.4348 38.9989 31.7375V30.6724C38.9989 31.8621 38.0345 32.8265 36.8448 32.8265H32.4646C31.2748 32.8265 30.3104 33.7909 30.3104 34.9807V39.3609C30.3104 40.5506 29.346 41.515 28.1562 41.515H29.2213V41.5151Z" fill="#EFE2DD"/>
<path d="M38.9989 6.27907V13.0317H0V6.27907C0 4.83019 1.17502 3.6543 2.62477 3.6543H36.3741C37.8239 3.6543 38.9989 4.83019 38.9989 6.27907Z" fill="#FECE85"/>
<path d="M7.43203 8.23566C6.9314 8.23566 6.50636 8.2354 6.14414 8.2354C5.04349 8.2354 4.14844 7.34035 4.14844 6.24057V3.6543H5.46082V6.24057C5.46082 6.61679 5.76705 6.92301 6.14414 6.92301C6.50636 6.92301 7.79425 8.23566 7.43203 8.23566Z" fill="#FDB441"/>
<path d="M31.2716 8.23591C31.2716 8.23591 30.3462 8.23564 29.9831 8.23564C28.8833 8.23564 27.9883 7.3406 27.9883 6.24082V3.65454H29.3007V6.24082C29.3007 6.61704 29.6069 6.92326 29.9831 6.92326C30.3462 6.92326 31.2716 7.87369 31.2716 8.23591Z" fill="#FDB441"/>
<path d="M8.41332 3.65491V1.99544C8.41332 1.61879 8.10693 1.31239 7.73027 1.31239H7.42903C7.05238 1.31239 6.74598 1.61879 6.74598 1.99544V6.24057C6.74598 6.61723 7.05238 6.92363 7.42903 6.92363C7.79143 6.92363 8.08523 7.21743 8.08523 7.57982C8.08523 7.94221 7.79143 8.23601 7.42903 8.23601C6.32873 8.23601 5.43359 7.34088 5.43359 6.24057V1.99544C5.43359 0.895135 6.32873 0 7.42903 0H7.73027C8.83057 0 9.72571 0.895135 9.72571 1.99544V3.65491H8.41332Z" fill="#554E56"/>
<path d="M32.2493 3.65491V1.99544C32.2493 1.61879 31.9429 1.31239 31.5662 1.31239H31.265C30.8883 1.31239 30.5819 1.61879 30.5819 1.99544V6.24057C30.5819 6.61723 30.8883 6.92363 31.265 6.92363C31.6274 6.92363 31.9212 7.21743 31.9212 7.57982C31.9212 7.94221 31.6274 8.23601 31.265 8.23601C30.1647 8.23601 29.2695 7.34088 29.2695 6.24057V1.99544C29.2695 0.895135 30.1647 0 31.265 0H31.5662C32.6665 0 33.5616 0.895135 33.5616 1.99544V3.65491H32.2493Z" fill="#554E56"/>
<path d="M7.68326 21.3429H4.55855C4.21339 21.3429 3.93359 21.0631 3.93359 20.7179V17.5932C3.93359 17.2481 4.21339 16.9683 4.55855 16.9683H7.68326C8.02841 16.9683 8.30822 17.2481 8.30822 17.5932V20.7179C8.30822 21.0631 8.02841 21.3429 7.68326 21.3429Z" fill="#FEDBA6"/>
<path d="M16.5973 21.3429H13.4726C13.1275 21.3429 12.8477 21.0631 12.8477 20.7179V17.5932C12.8477 17.2481 13.1275 16.9683 13.4726 16.9683H16.5973C16.9425 16.9683 17.2223 17.2481 17.2223 17.5932V20.7179C17.2223 21.0631 16.9425 21.3429 16.5973 21.3429Z" fill="#FEDBA6"/>
<path d="M25.5153 21.3429H22.3906C22.0454 21.3429 21.7656 21.0631 21.7656 20.7179V17.5932C21.7656 17.2481 22.0454 16.9683 22.3906 16.9683H25.5153C25.8604 16.9683 26.1402 17.2481 26.1402 17.5932V20.7179C26.1402 21.0631 25.8604 21.3429 25.5153 21.3429Z" fill="#FEDBA6"/>
<path d="M34.4372 21.3429H31.3125C30.9673 21.3429 30.6875 21.0631 30.6875 20.7179V17.5932C30.6875 17.2481 30.9673 16.9683 31.3125 16.9683H34.4372C34.7823 16.9683 35.0621 17.2481 35.0621 17.5932V20.7179C35.0621 21.0631 34.7823 21.3429 34.4372 21.3429Z" fill="#FEDBA6"/>
<path d="M7.68326 29.4598H4.55855C4.21339 29.4598 3.93359 29.18 3.93359 28.8349V25.7102C3.93359 25.365 4.21339 25.0852 4.55855 25.0852H7.68326C8.02841 25.0852 8.30822 25.365 8.30822 25.7102V28.8349C8.30822 29.18 8.02841 29.4598 7.68326 29.4598Z" fill="#FEDBA6"/>
<path d="M16.6012 29.4598H13.4765C13.1314 29.4598 12.8516 29.18 12.8516 28.8349V25.7102C12.8516 25.365 13.1314 25.0852 13.4765 25.0852H16.6012C16.9464 25.0852 17.2262 25.365 17.2262 25.7102V28.8349C17.2262 29.18 16.9464 29.4598 16.6012 29.4598Z" fill="#FEDBA6"/>
<path d="M23.006 30.1398C22.7401 30.1398 22.4831 30.034 22.2942 29.8451L21.0438 28.5947C20.7875 28.3384 20.7875 27.9229 21.0438 27.6667C21.3 27.4104 21.7155 27.4104 21.9717 27.6667L22.9828 28.6778L25.639 25.4295C25.8684 25.149 26.2818 25.1076 26.5623 25.3369C26.8429 25.5663 26.8844 25.9797 26.655 26.2603L23.7845 29.7706C23.605 29.9903 23.3394 30.1245 23.056 30.1386C23.0393 30.1393 23.0226 30.1398 23.006 30.1398Z" fill="#7ACAA6"/>
<path d="M34.4372 29.6549H31.3125C30.9673 29.6549 30.6875 29.3751 30.6875 29.0299V25.9052C30.6875 25.5601 30.9673 25.2803 31.3125 25.2803H34.4372C34.7823 25.2803 35.0621 25.5601 35.0621 25.9052V29.0299C35.0621 29.3751 34.7823 29.6549 34.4372 29.6549Z" fill="#FEDBA6"/>
<path d="M16.6012 37.5768H13.4765C13.1314 37.5768 12.8516 37.297 12.8516 36.9518V33.8271C12.8516 33.4819 13.1314 33.2021 13.4765 33.2021H16.6012C16.9464 33.2021 17.2262 33.4819 17.2262 33.8271V36.9518C17.2262 37.297 16.9464 37.5768 16.6012 37.5768Z" fill="#FEDBA6"/>
<path d="M25.5231 37.5768H22.3984C22.0532 37.5768 21.7734 37.297 21.7734 36.9518V33.8271C21.7734 33.4819 22.0532 33.2021 22.3984 33.2021H25.5231C25.8683 33.2021 26.1481 33.4819 26.1481 33.8271V36.9518C26.1481 37.297 25.8683 37.5768 25.5231 37.5768Z" fill="#FEDBA6"/>
<path d="M7.05268 35.3891L8.77602 33.6658C9.03228 33.4095 9.03228 32.994 8.77602 32.7379C8.51975 32.4816 8.10425 32.4816 7.84807 32.7379L6.12473 34.4612L4.40139 32.7379C4.14513 32.4816 3.72963 32.4816 3.47345 32.7379C3.21718 32.9941 3.21718 33.4096 3.47345 33.6658L5.19679 35.3891L3.47345 37.1125C3.21718 37.3687 3.21718 37.7842 3.47345 38.0404C3.60154 38.1685 3.76952 38.2326 3.93742 38.2326C4.10532 38.2326 4.27331 38.1686 4.40139 38.0404L6.12473 36.3171L7.84807 38.0404C7.97616 38.1685 8.14415 38.2326 8.31204 38.2326C8.47994 38.2326 8.64793 38.1686 8.77602 38.0404C9.03228 37.7842 9.03228 37.3687 8.77602 37.1125L7.05268 35.3891Z" fill="#EE6161"/>
</svg>
