<svg width="22" height="23" viewBox="0 0 22 23" fill="none" xmlns="http://www.w3.org/2000/svg">
<path d="M19.1641 1.93819H17.1875V0.897737C17.1875 0.514677 16.8797 0.204102 16.5 0.204102C16.1203 0.204102 15.8125 0.514677 15.8125 0.897737V1.93819H6.1875V0.897737C6.1875 0.514677 5.87971 0.204102 5.5 0.204102C5.12029 0.204102 4.8125 0.514677 4.8125 0.897737V1.93819H2.83594C1.27218 1.93819 0 3.22172 0 4.79943V19.5392C0 21.1169 1.27218 22.4004 2.83594 22.4004H19.1641C20.7278 22.4004 22 21.1169 22 19.5392V4.79943C22 3.22172 20.7278 1.93819 19.1641 1.93819ZM2.83594 3.32546H4.8125V4.01909C4.8125 4.40215 5.12029 4.71273 5.5 4.71273C5.87971 4.71273 6.1875 4.40215 6.1875 4.01909V3.32546H15.8125V4.01909C15.8125 4.40215 16.1203 4.71273 16.5 4.71273C16.8797 4.71273 17.1875 4.40215 17.1875 4.01909V3.32546H19.1641C19.9696 3.32546 20.625 3.98667 20.625 4.79943V6.44682H1.375V4.79943C1.375 3.98667 2.03036 3.32546 2.83594 3.32546ZM19.1641 21.0132H2.83594C2.03036 21.0132 1.375 20.3519 1.375 19.5392V7.83409H20.625V19.5392C20.625 20.3519 19.9696 21.0132 19.1641 21.0132Z" fill="#333333"/>
</svg>
