<svg width="34" height="34" viewBox="0 0 34 34" fill="none" xmlns="http://www.w3.org/2000/svg">
<circle cx="17" cy="17" r="17" fill="#FFCA26"/>
<g clip-path="url(#clip0)">
<path d="M21.1882 17.7881C21.1882 19.7233 19.614 21.2975 17.6788 21.2975C15.7437 21.2975 14.1701 19.7233 14.1701 17.7881C14.1701 15.853 15.7437 14.2788 17.6788 14.2788C19.614 14.2788 21.1882 15.8536 21.1882 17.7881ZM28.5588 12.805V22.7725C28.5588 24.1013 27.4815 25.1786 26.1527 25.1786H9.20498C7.87618 25.1786 6.79883 24.1013 6.79883 22.7725V12.805C6.79883 11.4762 7.87618 10.3988 9.20498 10.3988H12.1645V9.56632C12.1645 8.40355 13.1065 7.46094 14.2699 7.46094H21.0877C22.2511 7.46094 23.1931 8.40355 23.1931 9.56632V10.3982H26.1527C27.4815 10.3988 28.5588 11.4762 28.5588 12.805ZM22.9928 17.7881C22.9928 14.858 20.6089 12.4741 17.6788 12.4741C14.7493 12.4741 12.3655 14.858 12.3655 17.7881C12.3655 20.7182 14.7493 23.1021 17.6788 23.1021C20.6089 23.1021 22.9928 20.7182 22.9928 17.7881Z" fill="white"/>
</g>
<defs>
<clipPath id="clip0">
<rect width="21.76" height="21.76" fill="white" transform="translate(6.79883 5.43994)"/>
</clipPath>
</defs>
</svg>
