<svg width="43" height="43" viewBox="0 0 43 43" fill="none" xmlns="http://www.w3.org/2000/svg">
<g clip-path="url(#clip0)">
<path d="M21.501 42.9998C33.3746 42.9998 43 33.3743 43 21.5008C43 9.62716 33.3746 0.00170898 21.501 0.00170898C9.6274 0.00170898 0.00195312 9.62716 0.00195312 21.5008C0.00195312 33.3743 9.6274 42.9998 21.501 42.9998Z" fill="white"/>
<path d="M0 21.5001C0 29.5813 4.46103 36.6175 11.0522 40.2902V2.70898C4.46103 6.38206 0 13.4179 0 21.5001Z" fill="#D32027"/>
<path d="M21.4996 42.9996C21.2522 42.9996 21.0141 42.9911 20.7715 42.9871C21.0127 42.9951 21.2553 42.9996 21.4996 42.9996Z" fill="white"/>
<path d="M21.4998 0C21.493 0 21.4873 0.000363114 21.4805 0.000363114C21.4871 0.000363114 21.4932 0 21.4998 0C33.3743 0 33.3743 43 21.4998 43C25.2856 43 28.8402 42.0179 31.9301 40.3002V2.69948C28.8401 0.981768 25.2855 0 21.4998 0Z" fill="#E7E7E7"/>
<path d="M31.9297 2.69946V40.2998C38.5307 36.6297 42.9996 29.588 42.9996 21.5001C42.9996 13.4112 38.5308 6.36954 31.9297 2.69946Z" fill="#B52025"/>
<path d="M21.4994 0C21.4925 0 21.4868 0 21.48 0C17.6949 0.0033588 14.1403 0.988577 11.0518 2.70901V40.29C13.9464 41.9029 17.2512 42.8696 20.7712 42.9867C21.014 42.9908 21.2519 42.9993 21.4994 42.9993C33.3737 42.9996 33.3737 0 21.4994 0Z" fill="#F3F1F2"/>
<path d="M29.8432 21.1114C29.5475 20.829 28.9408 20.8602 28.8325 20.3907C28.6893 19.2376 29.2199 18.5661 29.5546 17.7955C27.8606 18.1916 26.5251 18.8438 26.5265 16.9305C25.5539 18.1197 24.5083 19.3088 24.0764 19.093C23.4631 18.7325 24.6651 15.6718 24.7965 14.0477C24.2031 14.3186 23.0665 14.9126 23.0665 14.9126C23.0665 14.9126 22.0335 12.8921 21.4866 11.8954V11.8845C21.4846 11.8865 21.4846 11.8882 21.4839 11.89C21.4825 11.8886 21.4825 11.8866 21.4812 11.8845V11.8954C20.9336 12.8921 19.9013 14.9126 19.9013 14.9126C19.9013 14.9126 18.764 14.3186 18.1713 14.0477C18.302 15.6721 19.5041 18.7328 18.8906 19.093C18.4585 19.3092 17.4132 18.1197 16.4413 16.9305C16.4413 18.8438 15.1065 18.1917 13.4132 17.7955C13.7473 18.5657 14.2779 19.2372 14.1333 20.3907C14.0267 20.8602 13.4197 20.829 13.124 21.1114C15.0892 23.076 18.4952 24.535 16.8728 26.157L21.2469 25.7489C21.3901 27.227 20.9274 29.0408 21.329 30.05C21.4231 30.05 21.3922 30.05 21.4808 30.05C21.4822 30.05 21.4842 30.05 21.4863 30.05C21.5745 30.05 21.5419 30.05 21.6353 30.05C22.0451 29.0044 21.577 27.2272 21.7202 25.7489L26.0936 26.157C24.4728 24.535 27.8787 23.076 29.8432 21.1114Z" fill="#D32027"/>
</g>
<defs>
<clipPath id="clip0">
<rect width="43" height="43" fill="white"/>
</clipPath>
</defs>
</svg>
