<svg width="24" height="24" viewBox="0 0 24 24" fill="none" xmlns="http://www.w3.org/2000/svg">
<path d="M10.4535 14.7097C10.6673 14.7097 10.8406 14.5364 10.8406 14.3226C10.8406 14.1088 10.6673 13.9355 10.4535 13.9355C10.2397 13.9355 10.0664 14.1088 10.0664 14.3226C10.0664 14.5364 10.2397 14.7097 10.4535 14.7097Z" fill="white"/>
<path d="M13.5473 14.7097C13.761 14.7097 13.9343 14.5364 13.9343 14.3226C13.9343 14.1088 13.761 13.9355 13.5473 13.9355C13.3335 13.9355 13.1602 14.1088 13.1602 14.3226C13.1602 14.5364 13.3335 14.7097 13.5473 14.7097Z" fill="white"/>
<path d="M10.8398 17.0323V17.8064H12.3882C13.2422 17.8064 13.9366 17.112 13.9366 16.2581H13.1624C13.1624 16.685 12.8152 17.0323 12.3882 17.0323H10.8398Z" fill="white"/>
<path d="M12.2748 12.8876C11.8486 12.4614 11.614 11.8947 11.614 11.292V10.8387H10.8398V11.292C10.8398 12.1014 11.1549 12.8624 11.7275 13.4349L12.2748 12.8876Z" fill="white"/>
<path d="M11.6211 0H12.3953V1.54839H11.6211V0Z" fill="white"/>
<path d="M8.96875 0.985901L9.6128 0.556277L10.3874 1.7175L9.74336 2.14712L8.96875 0.985901Z" fill="white"/>
<path d="M6.69141 2.20978L7.23884 1.66234L8.78727 3.21077L8.23983 3.7582L6.69141 2.20978Z" fill="white"/>
<path d="M13.6172 1.72205L14.3918 0.560825L15.0358 0.990449L14.2612 2.15167L13.6172 1.72205Z" fill="white"/>
<path d="M15.207 3.21149L16.7555 1.66306L17.3029 2.2105L15.7545 3.75892L15.207 3.21149Z" fill="white"/>
<path d="M22.8387 13.1613C22.3347 13.1613 21.9089 13.4861 21.7486 13.9355H20.112C20.0187 12.0182 19.2437 10.2372 18.0027 8.86721L18.7854 8.08451C19.1652 8.35509 19.6281 8.51612 20.129 8.51612C21.4099 8.51612 22.4516 7.47444 22.4516 6.19354C22.4516 4.91263 21.4099 3.87096 20.129 3.87096C18.8481 3.87096 17.8065 4.91263 17.8065 6.19354C17.8065 6.69444 17.9675 7.15741 18.2381 7.53715L17.4588 8.31676C16.5604 7.49496 15.4754 6.87212 14.2672 6.52063C14.6415 5.80296 14.9365 4.9467 14.4538 3.91934C14.0501 3.06076 13.2445 2.45767 12.3511 2.34502C11.5746 2.24747 10.7923 2.48515 10.2085 2.99922C9.62477 3.51367 9.29032 4.25457 9.29032 5.03225C9.29032 5.62799 9.50206 6.1018 9.74129 6.51754C8.52929 6.86863 7.44116 7.49302 6.54077 8.31638L5.76194 7.53754C6.03252 7.15741 6.19355 6.69444 6.19355 6.19354C6.19355 4.91263 5.15187 3.87096 3.87097 3.87096C2.59006 3.87096 1.54839 4.91263 1.54839 6.19354C1.54839 7.47444 2.59006 8.51612 3.87097 8.51612C4.37187 8.51612 4.83484 8.35509 5.21458 8.08451L5.99613 8.86644C4.75548 10.236 3.9809 12.0162 3.888 13.9355H2.25135C2.0911 13.4861 1.66529 13.1613 1.16129 13.1613C0.521032 13.1613 0 13.6823 0 14.3226C0 14.9628 0.521032 15.4839 1.16129 15.4839C1.66529 15.4839 2.0911 15.1591 2.25135 14.7097H3.88335C3.95342 16.2132 4.42723 17.6319 5.23664 18.8404L4.06606 19.7055C3.79974 19.4895 3.46529 19.3548 3.09677 19.3548C2.24284 19.3548 1.54839 20.0493 1.54839 20.9032C1.54839 21.7572 2.24284 22.4516 3.09677 22.4516C3.95071 22.4516 4.64516 21.7572 4.64516 20.9032C4.64516 20.6984 4.60335 20.5037 4.53058 20.3249L5.69768 19.4621C6.16568 20.0334 6.71419 20.5467 7.33781 20.9822C6.63252 21.6693 6.09987 22.5306 5.82116 23.5064L5.68026 24H18.3197L18.1788 23.5064C17.9001 22.531 17.3675 21.6693 16.6622 20.9822C17.2858 20.5467 17.8339 20.0334 18.3023 19.4621L19.4694 20.3249C19.3966 20.5037 19.3548 20.6984 19.3548 20.9032C19.3548 21.7572 20.0493 22.4516 20.9032 22.4516C21.7572 22.4516 22.4516 21.7572 22.4516 20.9032C22.4516 20.0493 21.7572 19.3548 20.9032 19.3548C20.5347 19.3548 20.2003 19.4895 19.9339 19.7055L18.7634 18.8404C19.5724 17.6319 20.0466 16.2135 20.1166 14.7097H21.7486C21.9089 15.1591 22.3347 15.4839 22.8387 15.4839C23.479 15.4839 24 14.9628 24 14.3226C24 13.6823 23.479 13.1613 22.8387 13.1613ZM3.09677 21.6774C2.66981 21.6774 2.32258 21.3302 2.32258 20.9032C2.32258 20.4762 2.66981 20.129 3.09677 20.129C3.52374 20.129 3.87097 20.4762 3.87097 20.9032C3.87097 21.3302 3.52374 21.6774 3.09677 21.6774ZM20.9032 20.129C21.3302 20.129 21.6774 20.4762 21.6774 20.9032C21.6774 21.3302 21.3302 21.6774 20.9032 21.6774C20.4763 21.6774 20.129 21.3302 20.129 20.9032C20.129 20.4762 20.4763 20.129 20.9032 20.129ZM20.129 4.64515C20.983 4.64515 21.6774 5.3396 21.6774 6.19354C21.6774 7.04747 20.983 7.74192 20.129 7.74192C19.2751 7.74192 18.5806 7.04747 18.5806 6.19354C18.5806 5.3396 19.2751 4.64515 20.129 4.64515ZM10.7206 3.57986C11.0791 3.26399 11.5246 3.09676 11.9973 3.09676C12.0825 3.09676 12.168 3.10218 12.2543 3.11302C12.8868 3.19276 13.4609 3.62825 13.7528 4.24876C14.1716 5.13986 13.7686 5.84631 13.3417 6.59457C13.1214 6.98128 12.9105 7.35173 12.8203 7.74231H12.3871V6.1227C12.8365 5.96244 13.1613 5.53663 13.1613 5.03263V4.64554H12.3871V5.03263C12.3871 5.24592 12.2137 5.41973 12 5.41973C11.7863 5.41973 11.6129 5.24592 11.6129 5.03263V4.64554H10.8387V5.03263C10.8387 5.53663 11.1635 5.96244 11.6129 6.1227V7.74192H11.1875C11.0973 7.25147 10.8511 6.84812 10.6088 6.45715C10.3289 6.0058 10.0645 5.57922 10.0645 5.03225C10.0645 4.47676 10.3037 3.9476 10.7206 3.57986ZM15.4839 14.7097C15.9108 14.7097 16.2581 15.0569 16.2581 15.4839C16.2581 15.9108 15.9108 16.2581 15.4839 16.2581V14.7097ZM16.1903 13.4613L16.0719 14.0528C15.8903 13.9781 15.6921 13.9355 15.4839 13.9355H15.4738C15.4235 13.2836 14.9938 12.7192 14.3655 12.5094C13.6452 12.2694 13.1613 11.5978 13.1613 10.8387H12.3871C12.3871 11.9315 13.0839 12.8981 14.1209 13.2441C14.4732 13.3614 14.7097 13.6901 14.7097 14.0613V16.6452C14.7097 17.7124 13.8414 18.5806 12.7742 18.5806H11.2258C10.1586 18.5806 9.29032 17.7124 9.29032 16.6452V13.1613C9.29032 12.7343 9.63755 12.3871 10.0645 12.3871V11.6129C9.21058 11.6129 8.51613 12.3073 8.51613 13.1613V13.9355C8.30787 13.9355 8.10929 13.9781 7.92774 14.0532L7.78142 13.3227C7.7551 13.1899 7.74194 13.0544 7.74194 12.9193C7.74194 12.2307 8.08413 11.5916 8.65664 11.2099L8.83084 11.0938L8.87535 10.9819C9.19548 10.181 9.88723 9.58683 10.7137 9.37625C10.9924 9.79121 11.4646 10.0645 12 10.0645C12.5528 10.0645 13.0347 9.77147 13.3088 9.33483C14.981 9.59573 16.2581 11.0601 16.2581 12.7777C16.2581 13.0064 16.2352 13.2364 16.1903 13.4613ZM13.8275 20.2432L13.6634 21.0631L12.8036 20.5471L13.5778 20.16L13.8275 20.2432ZM10.4222 20.16L11.1964 20.5471L10.3366 21.0631L10.1725 20.2432L10.4222 20.16ZM11.8521 22.4516H12.1475L12.5346 23.2258H11.4646L11.8521 22.4516ZM12.108 21.6774H11.892L11.7128 21.1397L12 20.9675L12.2872 21.1397L12.108 21.6774ZM13.075 19.5461L12 20.0833L10.925 19.5461L10.9928 19.3432C11.0694 19.3498 11.1472 19.3548 11.2258 19.3548H12.7742C12.8528 19.3548 12.9306 19.3498 13.0076 19.3428L13.075 19.5461ZM8.51613 16.2581C8.08916 16.2581 7.74194 15.9108 7.74194 15.4839C7.74194 15.0569 8.08916 14.7097 8.51613 14.7097V16.2581ZM12.7742 8.51612C12.7742 8.94309 12.427 9.29031 12 9.29031C11.573 9.29031 11.2258 8.94309 11.2258 8.51612H12.7742ZM3.87097 7.74192C3.01703 7.74192 2.32258 7.04747 2.32258 6.19354C2.32258 5.3396 3.01703 4.64515 3.87097 4.64515C4.7249 4.64515 5.41935 5.3396 5.41935 6.19354C5.41935 7.04747 4.7249 7.74192 3.87097 7.74192ZM1.16129 14.7097C0.947613 14.7097 0.774194 14.5359 0.774194 14.3226C0.774194 14.1093 0.947613 13.9355 1.16129 13.9355C1.37497 13.9355 1.54839 14.1093 1.54839 14.3226C1.54839 14.5359 1.37497 14.7097 1.16129 14.7097ZM4.64516 14.3226C4.64516 10.9831 6.94839 8.03844 10.1563 7.20773C10.327 7.50773 10.4516 7.79689 10.4516 8.12902V8.51612C10.4516 8.5587 10.4609 8.59857 10.464 8.63999C9.4649 8.91328 8.62723 9.62592 8.20452 10.5813C7.42955 11.1089 6.96774 11.9806 6.96774 12.9193C6.96774 13.1048 6.98632 13.2913 7.02271 13.4741L7.248 14.5997C7.07226 14.851 6.96774 15.1548 6.96774 15.4839C6.96774 16.3378 7.66219 17.0322 8.51613 17.0322H8.5471C8.68761 18.007 9.34645 18.8141 10.236 19.1651L10.1458 19.4361L9.51871 19.6451C8.94929 19.8348 8.42787 20.1178 7.956 20.4627C5.87961 19.0947 4.64516 16.8201 4.64516 14.3226ZM9.43587 20.5088L9.79239 22.2917L11.0323 21.5477L11.1945 22.0347L10.5995 23.2258H6.73548C7.23174 21.9948 8.20568 21.0186 9.43587 20.5088ZM17.2649 23.2258H13.4009L12.8055 22.0347L12.9677 21.5477L14.2076 22.2917L14.5641 20.5088C15.7943 21.0186 16.7683 21.9948 17.2649 23.2258ZM16.044 20.4623C15.5721 20.1174 15.0507 19.8344 14.4813 19.6448L13.8542 19.4357L13.764 19.1648C14.6535 18.8141 15.3128 18.0066 15.4529 17.0319H15.4839C16.3378 17.0319 17.0323 16.3374 17.0323 15.4835C17.0323 15.1544 16.9274 14.8506 16.752 14.5997L16.9494 13.613C17.0044 13.3382 17.0323 13.0568 17.0323 12.7777C17.0323 10.7175 15.5299 8.95315 13.5414 8.58696C13.5422 8.56296 13.5484 8.54012 13.5484 8.51612V8.12902C13.5484 7.8596 13.6974 7.54799 13.8801 7.21741C17.0675 8.06089 19.3548 11.0001 19.3548 14.3226C19.3548 16.8201 18.1204 19.0947 16.044 20.4623ZM22.8387 14.7097C22.625 14.7097 22.4516 14.5359 22.4516 14.3226C22.4516 14.1093 22.625 13.9355 22.8387 13.9355C23.0524 13.9355 23.2258 14.1093 23.2258 14.3226C23.2258 14.5359 23.0524 14.7097 22.8387 14.7097Z" fill="white"/>
</svg>
