<svg width="50" height="34" viewBox="0 0 50 34" fill="none" xmlns="http://www.w3.org/2000/svg">
<path d="M37.2929 28.28C37.1832 27.7645 37.4348 27.2419 37.9051 27.0041C42.0668 24.9009 44.8193 21.2544 44.8193 17.1079C44.8193 11.9466 40.5546 7.56074 34.6156 5.96094C27.0105 6.31289 20.9824 11.2183 20.9824 17.2189C20.9824 23.4481 27.4781 28.4979 35.4909 28.4979C35.5105 28.4979 35.5303 28.4979 35.5499 28.4979C35.9451 28.4966 36.3123 28.7036 36.5099 29.0459C36.6828 29.3456 36.8554 29.5955 37.0679 29.8556L37.5883 29.367C37.4567 28.9291 37.3463 28.5313 37.2929 28.28Z" fill="#FFE07D"/>
<path d="M43.3896 26.6822C47.369 24.6711 50.001 21.1844 50.001 17.2194C50.001 10.9902 43.5053 5.94043 35.4925 5.94043C34.4041 5.94043 33.3441 6.03428 32.3242 6.21094C38.8132 7.33467 43.6646 11.8363 43.6646 17.2194C43.6646 21.1844 41.0326 24.6711 37.0531 26.6822C36.6033 26.9096 36.3628 27.4093 36.4677 27.9022C36.6122 28.5817 36.8263 29.2421 37.0694 29.8561C39.1638 32.4489 43.0139 33.1579 44.6113 33.3441C44.8976 33.3775 45.094 33.0646 44.9384 32.8221C44.3447 31.8973 43.2479 29.9883 42.8041 27.9021C42.6992 27.4093 42.9397 26.9096 43.3896 26.6822Z" fill="#FFE07D"/>
<path d="M15.8925 0.205078C6.86436 1.37207 0 7.46846 0 14.8181C0 18.3074 1.55166 21.515 4.14756 24.0468C4.45273 24.3444 4.56992 24.787 4.45772 25.1983C3.65117 28.1569 1.90537 30.8309 0.853809 32.2589C1.20293 32.608 1.72256 32.7255 2.1875 32.5594C4.82607 31.6169 6.02051 30.6071 7.98027 28.5207C8.48232 27.9862 9.26943 27.8358 9.93584 28.1417C10.3808 28.3459 10.8375 28.536 11.3048 28.7118C11.8759 28.9267 12.4898 29.0302 13.0968 28.9674C13.2277 28.9538 13.3619 28.9619 13.494 28.9933C14.2912 29.1823 15.0614 29.3232 15.8992 29.4302L19.5278 29.313C27.1716 27.1996 32.6447 21.5271 32.6447 14.8596C32.6447 7.98418 26.8251 2.1665 18.8067 0.218652L15.8925 0.205078Z" fill="#95D6A4"/>
<path d="M7.41886 27.9587C5.27735 30.2386 4.04972 31.2331 0.853525 32.2588C0.715244 32.4465 0.588486 32.6136 0.478037 32.756C0.288779 32.9999 0.467588 33.3538 0.776182 33.3461C2.88546 33.2934 8.80274 32.8213 12.3856 29.2987C12.6773 29.0119 13.0958 28.8986 13.4939 28.993C13.493 28.9914 13.4919 28.9897 13.491 28.9881C12.0364 28.6439 10.6558 28.1682 9.37159 27.5788C8.70616 27.2735 7.92013 27.425 7.41886 27.9587Z" fill="#78C2A4"/>
<path d="M19.0607 0C17.9812 0 16.923 0.0708984 15.8926 0.204883C24.9113 1.37803 31.785 7.47344 31.785 14.8179C31.785 22.1605 24.9147 28.2546 15.8994 29.43C16.9279 29.5637 17.9833 29.6358 19.0607 29.6358C29.5877 29.6358 38.1214 23.0017 38.1214 14.818C38.1214 6.63428 29.5877 0 19.0607 0Z" fill="#95D6A4"/>
<path d="M7.31943 16.5949C8.34693 16.5949 9.17988 15.762 9.17988 14.7345C9.17988 13.707 8.34693 12.874 7.31943 12.874C6.29194 12.874 5.45898 13.707 5.45898 14.7345C5.45898 15.762 6.29194 16.5949 7.31943 16.5949Z" fill="#F0F7FF"/>
<path d="M14.7804 16.5949C15.8079 16.5949 16.6408 15.762 16.6408 14.7345C16.6408 13.707 15.8079 12.874 14.7804 12.874C13.7529 12.874 12.9199 13.707 12.9199 14.7345C12.9199 15.762 13.7529 16.5949 14.7804 16.5949Z" fill="#F0F7FF"/>
<path d="M22.2394 16.5949C23.2669 16.5949 24.0998 15.762 24.0998 14.7345C24.0998 13.707 23.2669 12.874 22.2394 12.874C21.2119 12.874 20.3789 13.707 20.3789 14.7345C20.3789 15.762 21.2119 16.5949 22.2394 16.5949Z" fill="#F0F7FF"/>
<path d="M29.7003 16.5949C30.7278 16.5949 31.5607 15.762 31.5607 14.7345C31.5607 13.707 30.7278 12.874 29.7003 12.874C28.6728 12.874 27.8398 13.707 27.8398 14.7345C27.8398 15.762 28.6728 16.5949 29.7003 16.5949Z" fill="#F0F7FF"/>
</svg>
