<svg width="38" height="38" viewBox="0 0 38 38" fill="none" xmlns="http://www.w3.org/2000/svg">
<path d="M32.5113 0.8H32.5111L5.48921 0.8L5.489 0.8C4.24581 0.80134 3.05392 1.29579 2.17486 2.17486C1.29579 3.05392 0.80134 4.24581 0.8 5.489V5.48921L0.8 24.1331L0.8 24.1334C0.80134 25.3766 1.29578 26.5685 2.17483 27.4476C3.05389 28.3267 4.24577 28.8212 5.48898 28.8227H5.48921H10.4673V36.4704C10.4673 36.622 10.5146 36.7699 10.6024 36.8934C10.6903 37.017 10.8145 37.1101 10.9577 37.1599C11.1009 37.2096 11.2561 37.2135 11.4016 37.1711C11.5472 37.1286 11.6759 37.0419 11.7699 36.9229L11.77 36.9229L18.1668 28.823H32.5108H32.511C33.7542 28.8215 34.9461 28.327 35.8252 27.4479C36.7042 26.5688 37.1987 25.3769 37.2 24.1337V24.1335V5.48921V5.489C37.1987 4.24586 36.7043 3.05402 35.8253 2.17497C34.9463 1.29591 33.7545 0.801423 32.5113 0.8ZM17.2408 27.6401L17.2407 27.6402L11.9275 34.3682V28.0927V28.0926C11.9274 27.8991 11.8504 27.7135 11.7136 27.5767C11.5768 27.4399 11.3912 27.3629 11.1977 27.3628H11.1976H5.48944C4.63315 27.3618 3.81222 27.0212 3.20676 26.4157C2.60132 25.8102 2.26078 24.9893 2.25985 24.133C2.25985 24.133 2.25985 24.133 2.25985 24.1329V5.48942C2.25985 5.48939 2.25985 5.48935 2.25985 5.48931C2.26078 4.63309 2.60133 3.81221 3.20677 3.20677C3.81221 2.60133 4.63309 2.26078 5.48931 2.25985C5.48935 2.25985 5.48939 2.25985 5.48942 2.25985H32.5109C32.5109 2.25985 32.511 2.25985 32.511 2.25985C33.3672 2.26078 34.1881 2.60133 34.7935 3.20677C35.399 3.81224 35.7396 4.63317 35.7405 5.48942V24.1329C35.7396 24.9892 35.399 25.8102 34.7935 26.4157C34.1881 27.0212 33.3671 27.3618 32.5109 27.3628H17.8138C17.8138 27.3628 17.8137 27.3628 17.8137 27.3628C17.7035 27.3628 17.5947 27.3877 17.4955 27.4358C17.3962 27.4838 17.3092 27.5537 17.2408 27.6401Z" fill="#001534" stroke="#001534" stroke-width="0.4"/>
</svg>
