<svg width="35" height="35" viewBox="0 0 35 35" fill="none" xmlns="http://www.w3.org/2000/svg">
<path d="M17.4936 0C22.3244 0 26.6983 1.96356 29.8733 5.12458C33.0356 8.29915 35 12.6712 35 17.5C35 22.3288 33.0356 26.7008 29.8733 29.8754C26.6974 33.0364 22.3244 35 17.4936 35C12.6628 35 8.28985 33.0364 5.12753 29.8754C1.95165 26.7008 0 22.3297 0 17.5C0 12.6712 1.9508 8.29915 5.12669 5.12458C8.28985 1.96356 12.6628 0 17.4936 0ZM26.416 16.5449C26.9408 16.5449 27.3579 16.9754 27.3579 17.5C27.3579 18.0246 26.9408 18.4551 26.416 18.4551H17.5208H17.4936C17.1435 18.4551 16.834 18.2534 16.673 17.9712L16.6594 17.9576L16.6458 17.9305V17.917L16.6323 17.8898L16.6187 17.8627V17.8492L16.6051 17.822L16.5916 17.8085V17.7814L16.578 17.7542V17.7407L16.5644 17.7136V17.6864V17.6729V17.6593L16.5509 17.6458V17.6186V17.5915V17.5678V17.5542V17.5271V17.5V6.10678C16.5509 5.5822 16.968 5.16525 17.4928 5.16525C18.0176 5.16525 18.4483 5.5822 18.4483 6.10678V16.5449H26.416ZM28.5278 6.47034C25.7021 3.64576 21.7997 1.91017 17.4936 1.91017C13.1876 1.91017 9.28518 3.64492 6.45944 6.47034C3.64726 9.29492 1.89739 13.1958 1.89739 17.5C1.89739 21.8042 3.64642 25.7051 6.45944 28.5305C9.28518 31.3551 13.1876 33.0907 17.4936 33.0907C21.7997 33.0907 25.7021 31.3551 28.5278 28.5305C31.3536 25.7059 33.1035 21.8051 33.1035 17.5C33.1035 13.1958 31.3544 9.29492 28.5278 6.47034Z" fill="#001534"/>
</svg>
