<svg width="30" height="38" viewBox="0 0 30 38" fill="none" xmlns="http://www.w3.org/2000/svg">
<path d="M20.378 6.55273H2.96156C1.32733 6.55273 0 7.88006 0 9.51429V34.5034C0 36.1376 1.32733 37.465 2.96156 37.465H20.378C22.0122 37.465 23.3395 36.1376 23.3395 34.5034V9.51429C23.3319 7.88006 22.0045 6.55273 20.378 6.55273ZM21.2603 34.4957C21.2603 34.9868 20.8613 35.3857 20.3703 35.3857H2.95389C2.46285 35.3857 2.06388 34.9868 2.06388 34.4957V9.51429C2.06388 9.02326 2.46285 8.62429 2.95389 8.62429H20.3703C20.8613 8.62429 21.2603 9.02326 21.2603 9.51429V34.4957Z" fill="black"/>
<path d="M27.0381 0H9.62171C7.98749 0 6.66016 1.32733 6.66016 2.96156C6.66016 3.53699 7.1205 3.99734 7.69593 3.99734C8.27137 3.99734 8.73171 3.53699 8.73171 2.96156C8.73171 2.47052 9.13068 2.07156 9.62171 2.07156H27.0381C27.5292 2.07156 27.9281 2.47052 27.9281 2.96156V27.9507C27.9281 28.4417 27.5292 28.8407 27.0381 28.8407C26.4627 28.8407 26.0024 29.301 26.0024 29.8764C26.0024 30.4519 26.4627 30.9122 27.0381 30.9122C28.6724 30.9122 29.9997 29.5849 29.9997 27.9507V2.96156C29.9997 1.32733 28.6724 0 27.0381 0Z" fill="black"/>
</svg>
