<svg width="22" height="22" viewBox="0 0 22 22" fill="none" xmlns="http://www.w3.org/2000/svg">
<path d="M11 0C4.93442 0 0 4.93442 0 11C0 17.0656 4.93442 22 11 22C17.0656 22 22 17.0656 22 11C22 4.93442 17.0656 0 11 0Z" fill="#01CCB1"/>
<path d="M16.5747 8.66898L10.6164 14.6273C10.4377 14.8061 10.203 14.8959 9.96833 14.8959C9.73366 14.8959 9.49899 14.8061 9.32025 14.6273L6.34108 11.6481C5.98266 11.2897 5.98266 10.7104 6.34108 10.352C6.69949 9.99357 7.27883 9.99357 7.63724 10.352L9.96833 12.6831L15.2786 7.37282C15.637 7.0144 16.2163 7.0144 16.5747 7.37282C16.9332 7.73123 16.9332 8.31057 16.5747 8.66898Z" fill="#FAFAFA"/>
</svg>
