<svg width="22" height="24" viewBox="0 0 22 24" fill="none" xmlns="http://www.w3.org/2000/svg">
<path d="M3 6.75C3 4.131 5.131 2 7.74999 2H16.883C16.554 0.848999 15.505 0 14.25 0H2.75C1.233 0 0 1.233 0 2.75V18.25C0 19.767 1.233 21 2.75 21H3V6.75Z" fill="#001534" fill-opacity="0.8"/>
<path d="M19.25 3.99997H7.75C6.233 3.99997 5 5.23297 5 6.74997V21.25C5 22.767 6.233 24 7.75 24H19.25C20.767 24 22 22.767 22 21.25V6.74997C22 5.23297 20.767 3.99997 19.25 3.99997ZM17.25 21H9.75C9.336 21 9 20.664 9 20.25C9 19.836 9.336 19.5 9.75 19.5H17.25C17.664 19.5 18 19.836 18 20.25C18 20.664 17.664 21 17.25 21ZM17.25 17H9.75C9.336 17 9 16.664 9 16.25C9 15.836 9.336 15.5 9.75 15.5H17.25C17.664 15.5 18 15.836 18 16.25C18 16.664 17.664 17 17.25 17ZM17.25 13.5H9.75C9.336 13.5 9 13.164 9 12.75C9 12.336 9.336 12 9.75 12H17.25C17.664 12 18 12.336 18 12.75C18 13.164 17.664 13.5 17.25 13.5ZM17.25 9.49997H9.75C9.336 9.49997 9 9.16397 9 8.74997C9 8.33597 9.336 7.99997 9.75 7.99997H17.25C17.664 7.99997 18 8.33597 18 8.74997C18 9.16397 17.664 9.49997 17.25 9.49997Z" fill="#001534" fill-opacity="0.8"/>
</svg>
