<svg width="45" height="29" viewBox="0 0 45 29" fill="none" xmlns="http://www.w3.org/2000/svg">
<path d="M3.33334 0H41.6666C43.5074 0 44.9999 1.49252 44.9999 3.33334V25C44.9999 26.8408 43.5074 28.3333 41.6666 28.3333H3.33334C1.49252 28.3332 0 26.8408 0 25V3.33334C0 1.49252 1.49252 0 3.33334 0Z" fill="#4398D1"/>
<path d="M41.6667 0H41C33.1333 13.9658 18.4343 23.5458 9.46094 28.3332H41.6667C43.5075 28.3332 45.0001 26.8407 45.0001 24.9999V3.33334C45.0001 1.49252 43.5075 0 41.6667 0Z" fill="#3E8CC7"/>
<path d="M12.5013 4.16699H4.16797V10.8337H12.5013V4.16699Z" fill="#FDB62F"/>
<path d="M6.66799 6.66602H4.16797V8.33264H6.66799V6.66602Z" fill="#FD7B2F"/>
<path d="M12.5 6.66602H10V8.33264H12.5V6.66602Z" fill="#FD7B2F"/>
<path d="M36.6666 24.1663C38.9678 24.1663 40.8333 22.3008 40.8333 19.9997C40.8333 17.6985 38.9678 15.833 36.6666 15.833C34.3655 15.833 32.5 17.6985 32.5 19.9997C32.5 22.3008 34.3655 24.1663 36.6666 24.1663Z" fill="#FDB62F"/>
<path d="M31.6666 24.1663C33.9678 24.1663 35.8333 22.3008 35.8333 19.9997C35.8333 17.6985 33.9678 15.833 31.6666 15.833C29.3655 15.833 27.5 17.6985 27.5 19.9997C27.5 22.3008 29.3655 24.1663 31.6666 24.1663Z" fill="#DE4C3C"/>
<path d="M8.33199 16.666H3.33203V18.3326H8.33199V16.666Z" fill="#87CED9"/>
<path d="M16.664 16.666H11.6641V18.3326H16.664V16.666Z" fill="#87CED9"/>
<path d="M25 16.666H20V18.3326H25V16.666Z" fill="#87CED9"/>
<path d="M24.9987 21.666H3.33203V23.3326H24.9987V21.666Z" fill="#87CED9"/>
<path d="M30.8307 4.16602H29.1641V7.49935H30.8307V4.16602Z" fill="#87CED9"/>
<path d="M34.1666 4.16602H32.5V7.49935H34.1666V4.16602Z" fill="#87CED9"/>
<path d="M37.4987 4.16602H35.832V7.49935H37.4987V4.16602Z" fill="#87CED9"/>
<path d="M40.8307 4.16602H39.1641V7.49935H40.8307V4.16602Z" fill="#87CED9"/>
</svg>
