<svg width="26" height="29" viewBox="0 0 26 29" fill="none" xmlns="http://www.w3.org/2000/svg">
<path d="M5.35603 0C4.37388 0 3.57031 0.803571 3.57031 1.78571V26.7857C3.57031 27.7679 4.37388 28.5714 5.35603 28.5714H23.2132C24.1953 28.5714 24.9989 27.7679 24.9989 26.7857V7.14286L17.856 0H5.35603Z" fill="#E2E5E7"/>
<path d="M19.6412 7.14286H24.9983L17.8555 0V5.35714C17.8555 6.33929 18.659 7.14286 19.6412 7.14286Z" fill="#B0B7BD"/>
<path d="M25.0017 12.5002L19.6445 7.14307H25.0017V12.5002Z" fill="#CAD1D8"/>
<path d="M21.4286 23.2145C21.4286 23.7056 21.0268 24.1074 20.5357 24.1074H0.892857C0.401786 24.1074 0 23.7056 0 23.2145V14.2859C0 13.7949 0.401786 13.3931 0.892857 13.3931H20.5357C21.0268 13.3931 21.4286 13.7949 21.4286 14.2859V23.2145Z" fill="#84BD5A"/>
<path d="M6.26843 18.2031L7.51039 16.6468C7.88182 16.1611 8.60325 16.7816 8.19611 17.2459C7.76843 17.7531 7.31843 18.3031 6.88986 18.8665L8.34611 20.6798C8.73896 21.2156 7.95414 21.729 7.56843 21.2004L6.25414 19.5156L4.96218 21.237C4.59789 21.7575 3.79075 21.1727 4.19789 20.687L5.63272 18.8665C5.18272 18.3022 4.747 17.7531 4.31218 17.2459C3.86307 16.7102 4.69789 16.1611 5.02647 16.662L6.26843 18.2031Z" fill="white"/>
<path d="M9.22656 16.9172C9.22656 16.6814 9.42656 16.4814 9.67656 16.4814C9.90513 16.4814 10.098 16.6823 10.098 16.9172V20.4939H12.04C12.7391 20.4939 12.7542 21.4288 12.04 21.4288H9.67746C9.42746 21.4288 9.22746 21.2511 9.22746 20.9939V16.9172H9.22656Z" fill="white"/>
<path d="M13.3954 17.56C13.5597 16.1743 15.6508 15.9252 16.6365 16.6823C17.1222 17.0743 16.6079 17.6957 16.1793 17.3814C15.6508 17.0466 14.4516 16.8894 14.3016 17.6305C14.1088 18.8019 17.2141 18.1314 17.1641 20.0305C17.1141 21.8439 14.4874 21.8859 13.5016 21.0725C13.265 20.8796 13.2731 20.5662 13.4016 20.3725C13.5874 20.1877 13.7936 20.1234 14.0374 20.3234C14.6222 20.7225 16.1293 21.0225 16.2356 20.0082C16.1436 18.9528 13.174 19.5877 13.3954 17.56Z" fill="white"/>
<path d="M20.5346 24.1077H3.57031V25.0006H20.5346C21.0257 25.0006 21.4275 24.5988 21.4275 24.1077V23.2148C21.4275 23.7059 21.0257 24.1077 20.5346 24.1077Z" fill="#CAD1D8"/>
</svg>
