<svg width="18" height="20" viewBox="0 0 18 20" fill="none" xmlns="http://www.w3.org/2000/svg">
<path d="M14.0007 20H3.33398C2.80355 20 2.29484 19.7893 1.91977 19.4142C1.5447 19.0391 1.33398 18.5304 1.33398 18V5.33334C1.33398 5.15653 1.40422 4.98696 1.52925 4.86193C1.65427 4.73691 1.82384 4.66667 2.00065 4.66667C2.17746 4.66667 2.34703 4.73691 2.47206 4.86193C2.59708 4.98696 2.66732 5.15653 2.66732 5.33334V18C2.66732 18.1768 2.73756 18.3464 2.86258 18.4714C2.9876 18.5964 3.15717 18.6667 3.33398 18.6667H14.0007C14.1775 18.6667 14.347 18.5964 14.4721 18.4714C14.5971 18.3464 14.6673 18.1768 14.6673 18V5.33334C14.6673 5.15653 14.7376 4.98696 14.8626 4.86193C14.9876 4.73691 15.1572 4.66667 15.334 4.66667C15.5108 4.66667 15.6804 4.73691 15.8054 4.86193C15.9304 4.98696 16.0007 5.15653 16.0007 5.33334V18C16.0007 18.5304 15.7899 19.0391 15.4149 19.4142C15.0398 19.7893 14.5311 20 14.0007 20Z" fill="#A4A4A4"/>
<path d="M16.6667 4.00001H0.666667C0.489856 4.00001 0.320286 3.92977 0.195262 3.80474C0.0702379 3.67972 0 3.51015 0 3.33334C0 3.15653 0.0702379 2.98696 0.195262 2.86193C0.320286 2.73691 0.489856 2.66667 0.666667 2.66667H16.6667C16.8435 2.66667 17.013 2.73691 17.1381 2.86193C17.2631 2.98696 17.3333 3.15653 17.3333 3.33334C17.3333 3.51015 17.2631 3.67972 17.1381 3.80474C17.013 3.92977 16.8435 4.00001 16.6667 4.00001Z" fill="#A4A4A4"/>
<path d="M11.334 4C11.1572 4 10.9876 3.92976 10.8626 3.80474C10.7376 3.67971 10.6673 3.51014 10.6673 3.33333V1.33333H6.66732V3.33333C6.66732 3.51014 6.59708 3.67971 6.47206 3.80474C6.34703 3.92976 6.17746 4 6.00065 4C5.82384 4 5.65427 3.92976 5.52925 3.80474C5.40422 3.67971 5.33398 3.51014 5.33398 3.33333V0.666667C5.33398 0.489856 5.40422 0.320286 5.52925 0.195262C5.65427 0.0702379 5.82384 0 6.00065 0H11.334C11.5108 0 11.6804 0.0702379 11.8054 0.195262C11.9304 0.320286 12.0007 0.489856 12.0007 0.666667V3.33333C12.0007 3.51014 11.9304 3.67971 11.8054 3.80474C11.6804 3.92976 11.5108 4 11.334 4Z" fill="#A4A4A4"/>
<path d="M8.66667 16.6667C8.48986 16.6667 8.32029 16.5964 8.19526 16.4714C8.07024 16.3464 8 16.1768 8 16V6.66667C8 6.48986 8.07024 6.32029 8.19526 6.19526C8.32029 6.07024 8.48986 6 8.66667 6C8.84348 6 9.01305 6.07024 9.13807 6.19526C9.2631 6.32029 9.33333 6.48986 9.33333 6.66667V16C9.33333 16.1768 9.2631 16.3464 9.13807 16.4714C9.01305 16.5964 8.84348 16.6667 8.66667 16.6667Z" fill="#A4A4A4"/>
<path d="M12.0007 15.3333C11.8238 15.3333 11.6543 15.2631 11.5292 15.1381C11.4042 15.013 11.334 14.8435 11.334 14.6667V7.99999C11.334 7.82318 11.4042 7.65361 11.5292 7.52859C11.6543 7.40357 11.8238 7.33333 12.0007 7.33333C12.1775 7.33333 12.347 7.40357 12.4721 7.52859C12.5971 7.65361 12.6673 7.82318 12.6673 7.99999V14.6667C12.6673 14.8435 12.5971 15.013 12.4721 15.1381C12.347 15.2631 12.1775 15.3333 12.0007 15.3333Z" fill="#A4A4A4"/>
<path d="M5.33268 15.3333C5.15587 15.3333 4.9863 15.2631 4.86128 15.1381C4.73625 15.013 4.66602 14.8435 4.66602 14.6667V7.99999C4.66602 7.82318 4.73625 7.65361 4.86128 7.52859C4.9863 7.40357 5.15587 7.33333 5.33268 7.33333C5.50949 7.33333 5.67906 7.40357 5.80409 7.52859C5.92911 7.65361 5.99935 7.82318 5.99935 7.99999V14.6667C5.99935 14.8435 5.92911 15.013 5.80409 15.1381C5.67906 15.2631 5.50949 15.3333 5.33268 15.3333Z" fill="#A4A4A4"/>
</svg>
