<svg width="17" height="21" viewBox="0 0 17 21" fill="none" xmlns="http://www.w3.org/2000/svg">
<path d="M16.0242 2.12083H11.9037V0.305043C11.9037 0.22414 11.8718 0.146552 11.8151 0.089345C11.7584 0.0321384 11.6815 0 11.6013 0H4.72519C4.64502 4.61823e-05 4.56815 0.0321993 4.51146 0.089396C4.45476 0.146593 4.4229 0.224155 4.42285 0.305043V2.12083H0.302343C0.222157 2.12083 0.145255 2.15297 0.0885544 2.21018C0.031854 2.26738 0 2.34497 0 2.42588V4.62933C4.57736e-05 4.71022 0.0319144 4.78778 0.0886048 4.84498C0.145295 4.90217 0.222171 4.93433 0.302343 4.93437H1.03177L1.8576 20.3671C1.8618 20.4451 1.89544 20.5184 1.95161 20.5721C2.00779 20.6258 2.08222 20.6557 2.1596 20.6558H14.1669C14.2443 20.6558 14.3187 20.6259 14.3749 20.5722C14.4311 20.5184 14.4647 20.4451 14.4688 20.3671L15.2948 4.93437H16.0242C16.1044 4.93437 16.1813 4.90224 16.238 4.84503C16.2947 4.78782 16.3265 4.71023 16.3265 4.62933V2.42588C16.3266 2.38581 16.3188 2.34613 16.3036 2.30911C16.2884 2.27209 16.2661 2.23846 16.238 2.21013C16.21 2.1818 16.1766 2.15933 16.1399 2.14401C16.1032 2.12868 16.0639 2.12081 16.0242 2.12083ZM5.02754 0.610086H11.299V2.12083H5.02754V0.610086ZM13.8805 20.0457H2.44604L1.63732 4.93437H14.6894L13.8805 20.0457ZM15.7219 4.32429H0.604687V2.73092H4.71932H4.72519C4.72519 2.73092 4.72899 2.73092 4.73107 2.73092H11.5956H11.6013C11.6013 2.73092 11.6053 2.73092 11.6072 2.73092H15.7219V4.32429Z" fill="#DB000D"/>
<path d="M5.16956 16.0027C5.24973 16.0026 5.32662 15.9705 5.38331 15.9133C5.44001 15.8561 5.47188 15.7785 5.47192 15.6976V8.35192C5.47192 8.27101 5.44007 8.19343 5.38336 8.13622C5.32666 8.07901 5.24975 8.04688 5.16956 8.04688C5.08936 8.04688 5.01245 8.07901 4.95575 8.13622C4.89904 8.19343 4.86719 8.27101 4.86719 8.35192V15.6976C4.86719 15.7785 4.89904 15.8561 4.95575 15.9133C5.01245 15.9705 5.08936 16.0027 5.16956 16.0027Z" fill="#DB000D"/>
<path d="M8.16174 16.0027C8.24192 16.0026 8.3188 15.9705 8.3755 15.9133C8.43219 15.8561 8.46407 15.7785 8.46411 15.6976V8.35192C8.46411 8.27101 8.43225 8.19343 8.37555 8.13622C8.31884 8.07901 8.24194 8.04688 8.16174 8.04688C8.08155 8.04688 8.00464 8.07901 7.94794 8.13622C7.89123 8.19343 7.85938 8.27101 7.85938 8.35192V15.6976C7.85942 15.7785 7.89129 15.8561 7.94799 15.9133C8.00468 15.9705 8.08156 16.0026 8.16174 16.0027Z" fill="#DB000D"/>
<path d="M11.1578 16.0027C11.238 16.0027 11.3148 15.9705 11.3715 15.9133C11.4282 15.8561 11.4601 15.7785 11.4601 15.6976V8.35192C11.4601 8.27101 11.4282 8.19343 11.3715 8.13622C11.3148 8.07901 11.238 8.04688 11.1578 8.04688C11.0776 8.04688 11.0007 8.07901 10.944 8.13622C10.8873 8.19343 10.8555 8.27101 10.8555 8.35192V15.6976C10.8555 15.7785 10.8873 15.8561 10.944 15.9133C11.0007 15.9705 11.0776 16.0027 11.1578 16.0027Z" fill="#DB000D"/>
</svg>
