<svg width="22" height="27" viewBox="0 0 22 27" fill="none" xmlns="http://www.w3.org/2000/svg">
<path d="M14.1519 9.42041C13.8156 9.42041 13.543 9.693 13.543 10.0293V21.5382C13.543 21.8743 13.8156 22.1471 14.1519 22.1471C14.4882 22.1471 14.7608 21.8743 14.7608 21.5382V10.0293C14.7608 9.693 14.4882 9.42041 14.1519 9.42041Z" fill="#001534"/>
<path d="M6.96831 9.42041C6.63197 9.42041 6.35938 9.693 6.35938 10.0293V21.5382C6.35938 21.8743 6.63197 22.1471 6.96831 22.1471C7.30465 22.1471 7.57724 21.8743 7.57724 21.5382V10.0293C7.57724 9.693 7.30465 9.42041 6.96831 9.42041Z" fill="#001534"/>
<path d="M1.72947 7.74089V22.7437C1.72947 23.6304 2.05463 24.4632 2.62264 25.0607C3.18805 25.6599 3.9749 26 4.79839 26.0015H16.3196C17.1433 26 17.9301 25.6599 18.4953 25.0607C19.0633 24.4632 19.3885 23.6304 19.3885 22.7437V7.74089C20.5176 7.44118 21.2493 6.35033 21.0983 5.1917C20.947 4.0333 19.9601 3.16676 18.7917 3.16652H15.674V2.40536C15.6776 1.76527 15.4245 1.15063 14.9714 0.698449C14.5182 0.246507 13.9026 -0.005153 13.2625 8.00086e-05H7.85541C7.21532 -0.005153 6.59973 0.246507 6.1466 0.698449C5.69347 1.15063 5.44038 1.76527 5.44395 2.40536V3.16652H2.32627C1.15788 3.16676 0.170981 4.0333 0.0196993 5.1917C-0.131344 6.35033 0.600325 7.44118 1.72947 7.74089ZM16.3196 24.7836H4.79839C3.75726 24.7836 2.94733 23.8892 2.94733 22.7437V7.79441H18.1706V22.7437C18.1706 23.8892 17.3607 24.7836 16.3196 24.7836ZM6.66181 2.40536C6.65777 2.08829 6.78241 1.78311 7.00743 1.55928C7.23221 1.33545 7.5381 1.21247 7.85541 1.21794H13.2625C13.5798 1.21247 13.8857 1.33545 14.1105 1.55928C14.3355 1.78287 14.4602 2.08829 14.4561 2.40536V3.16652H6.66181V2.40536ZM2.32627 4.38439H18.7917C19.397 4.38439 19.8878 4.8751 19.8878 5.48047C19.8878 6.08583 19.397 6.57654 18.7917 6.57654H2.32627C1.7209 6.57654 1.23019 6.08583 1.23019 5.48047C1.23019 4.8751 1.7209 4.38439 2.32627 4.38439Z" fill="#001534"/>
<path d="M10.5582 9.42041C10.2218 9.42041 9.94922 9.693 9.94922 10.0293V21.5382C9.94922 21.8743 10.2218 22.1471 10.5582 22.1471C10.8945 22.1471 11.1671 21.8743 11.1671 21.5382V10.0293C11.1671 9.693 10.8945 9.42041 10.5582 9.42041Z" fill="#001534"/>
</svg>
