<svg width="43" height="43" viewBox="0 0 43 43" fill="none" xmlns="http://www.w3.org/2000/svg">
<g clip-path="url(#clip0)">
<path d="M21.5 43C33.3741 43 43 33.3741 43 21.5C43 9.62588 33.3741 0 21.5 0C9.62588 0 0 9.62588 0 21.5C0 33.3741 9.62588 43 21.5 43Z" fill="#27273D"/>
<path d="M21.4941 42.9983C33.3683 42.9983 42.9941 33.3724 42.9941 21.4983C42.9941 9.62417 33.3683 -0.00170898 21.4941 -0.00170898C9.62002 -0.00170898 -0.00585938 9.62417 -0.00585938 21.4983C-0.00585938 33.3724 9.62002 42.9983 21.4941 42.9983Z" fill="#DB1B1B"/>
<path d="M22.6413 42.4178C23.2754 42.5681 23.9179 42.6916 24.573 42.7839C22.5917 43.0665 20.5808 43.0738 18.5975 42.8058C17.929 42.7162 17.2711 42.5955 16.6238 42.4438L16.5113 42.4178C14.1828 41.8633 11.9639 40.9219 9.94709 39.6329C5.15513 36.5764 1.76676 31.7485 0.521525 26.2029C0.376512 25.5551 0.261454 24.8972 0.17635 24.2293C0.0624151 23.3239 0.00547352 22.4123 0.00586134 21.4998C0.00586134 20.833 0.0358158 20.174 0.0957246 19.5228C0.155354 18.8568 0.251936 18.1992 0.367834 17.5525C1.05261 13.8989 2.67187 10.4848 5.06793 7.6428C7.46399 4.80079 10.5552 2.6277 14.0405 1.33514C14.8479 1.03617 15.6728 0.786559 16.5105 0.587679L16.623 0.561643C17.2702 0.411031 17.9281 0.289534 18.5966 0.197151C20.58 -0.070884 22.5908 -0.0635358 24.5721 0.218987C23.9179 0.31137 23.2754 0.434827 22.6405 0.585159C21.8028 0.784314 20.9779 1.03421 20.1705 1.33346C19.6364 1.53166 19.1098 1.75338 18.5958 1.98938C15.4853 3.43209 12.7647 5.5972 10.6604 8.30434C8.55619 11.0115 7.12932 14.1823 6.49869 17.5525C6.3786 18.2009 6.28621 18.8585 6.22658 19.5262C6.16612 20.1762 6.13616 20.8341 6.13672 21.4998C6.13564 22.4111 6.19174 23.3216 6.30469 24.2259C6.38979 24.8944 6.50485 25.5523 6.64987 26.1996C7.48479 29.9337 9.30349 33.3766 11.9174 36.171C13.8101 38.2002 16.0773 39.8443 18.5941 41.0127C19.1081 41.2512 19.6347 41.4704 20.1688 41.6686C20.977 41.9683 21.8027 42.2185 22.6413 42.4178Z" fill="#BC1919"/>
<path d="M43.0059 21.4999C43.0073 22.4113 42.9512 23.3218 42.8379 24.226H16.623V42.4423L16.5105 42.4162C14.9214 42.0388 13.3811 41.4797 11.9199 40.75V24.2277H0.176349C0.0624847 23.3229 0.0055432 22.4119 0.0058607 21.4999C0.0058607 20.8331 0.0358151 20.1741 0.095724 19.5229H11.9199V2.25237C13.3813 1.52369 14.9216 0.96518 16.5105 0.587803L16.623 0.561768V19.5246H42.916C42.9759 20.1758 43.0059 20.8342 43.0059 21.4999Z" fill="white"/>
<path d="M16.623 39.9706V42.444L16.5105 42.4179C14.9214 42.0405 13.3811 41.4814 11.9199 40.7517V36.1729C13.3021 37.6528 14.8852 38.9312 16.623 39.9706Z" fill="#E8E8E8"/>
<path d="M6.30721 24.2277H0.176349C0.0624846 23.3229 0.0055432 22.4119 0.0058607 21.4999C0.0058607 20.8331 0.0358151 20.1741 0.095724 19.5229H6.22658C6.16611 20.1752 6.13616 20.8342 6.13672 21.4999C6.1364 22.4119 6.19334 23.3229 6.30721 24.2277Z" fill="#E8E8E8"/>
<path d="M16.623 0.559326V3.03351C14.8849 4.07211 13.3016 5.3503 11.9199 6.83044V2.25245C13.3814 1.52377 14.9217 0.965259 16.5105 0.587881L16.623 0.559326Z" fill="#E8E8E8"/>
<path d="M35.8282 11.4538C36.5833 11.4538 37.1955 10.8416 37.1955 10.0865C37.1955 9.33139 36.5833 8.71924 35.8282 8.71924C35.0731 8.71924 34.4609 9.33139 34.4609 10.0865C34.4609 10.8416 35.0731 11.4538 35.8282 11.4538Z" fill="#E24242"/>
<path d="M33.815 9.04068C34.3498 9.04068 34.7834 8.60714 34.7834 8.07234C34.7834 7.53754 34.3498 7.104 33.815 7.104C33.2802 7.104 32.8467 7.53754 32.8467 8.07234C32.8467 8.60714 33.2802 9.04068 33.815 9.04068Z" fill="#E24242"/>
</g>
<defs>
<clipPath id="clip0">
<rect width="43" height="43" fill="white"/>
</clipPath>
</defs>
</svg>
