<svg width="32" height="34" viewBox="0 0 32 34" fill="none" xmlns="http://www.w3.org/2000/svg">
<path d="M30.4571 17.1068C30.323 16.8322 30.323 16.5174 30.4571 16.2429L31.701 13.6984C32.3935 12.2816 31.8448 10.593 30.4518 9.8539L27.95 8.52645C27.68 8.38328 27.495 8.12847 27.4422 7.82761L26.9529 5.03794C26.6804 3.48472 25.2437 2.441 23.6826 2.66187L20.8783 3.05854C20.5756 3.10127 20.2763 3.00396 20.0567 2.79156L18.0212 0.822389C16.8878 -0.274097 15.1122 -0.274162 13.9789 0.822389L11.9433 2.79175C11.7236 3.00422 11.4243 3.10134 11.1217 3.05874L8.31744 2.66207C6.75582 2.44106 5.31959 3.48492 5.04713 5.03813L4.55783 7.82768C4.50501 8.1286 4.31996 8.38335 4.05011 8.52658L1.54826 9.85403C0.155283 10.5931 -0.393416 12.2818 0.299101 13.6986L1.54286 16.243C1.67704 16.5176 1.67704 16.8324 1.54286 17.1069L0.299036 19.6513C-0.393481 21.0681 0.155217 22.7567 1.5482 23.4958L4.05004 24.8233C4.31996 24.9664 4.50501 25.2212 4.55783 25.5221L5.04713 28.3118C5.29516 29.7257 6.50759 30.7174 7.90103 30.7172C8.03827 30.7172 8.17753 30.7076 8.3175 30.6878L11.1218 30.2911C11.4242 30.2482 11.7237 30.3457 11.9433 30.5581L13.9789 32.5273C14.5457 33.0756 15.2727 33.3497 16 33.3496C16.7271 33.3495 17.4546 33.0754 18.0211 32.5273L20.0567 30.5581C20.2764 30.3457 20.5757 30.2486 20.8783 30.2911L23.6826 30.6878C25.2444 30.9087 26.6804 29.8649 26.9529 28.3117L27.4422 25.5222C27.4951 25.2212 27.6801 24.9665 27.95 24.8233L30.4518 23.4958C31.8448 22.7568 32.3935 21.068 31.701 19.6513L30.4571 17.1068ZM29.5503 21.7966L27.0484 23.1241C26.2508 23.5474 25.7037 24.3002 25.5477 25.1897L25.0584 27.9793C24.9662 28.5048 24.4804 28.8578 23.952 28.7832L21.1477 28.3866C20.2534 28.2599 19.3685 28.5477 18.7194 29.1755L16.6838 31.1446C16.3004 31.5155 15.6997 31.5155 15.3161 31.1446L13.2806 29.1755C12.732 28.6448 12.0149 28.3572 11.2662 28.3572C11.1291 28.3572 10.9908 28.3669 10.8523 28.3865L8.04804 28.7832C7.52005 28.8578 7.03382 28.5048 6.94159 27.9793L6.45223 25.1896C6.29616 24.3001 5.74916 23.5472 4.95145 23.124L2.4496 21.7966C1.97829 21.5465 1.79265 20.9752 2.02694 20.4959L3.27076 17.9514C3.66731 17.1401 3.66731 16.2095 3.27076 15.3982L2.02694 12.8537C1.79265 12.3744 1.97829 11.8031 2.4496 11.553L4.95145 10.2256C5.74909 9.80225 6.29616 9.04942 6.45216 8.15993L6.94146 5.37032C7.03369 4.84481 7.51947 4.49178 8.04791 4.56642L10.8522 4.9631C11.7462 5.08965 12.6314 4.80195 13.2805 4.17412L15.3161 2.20495C15.6995 1.83407 16.3002 1.83407 16.6837 2.20495L18.7193 4.17412C19.3683 4.80202 20.2535 5.08965 21.1476 4.9631L23.9518 4.56642C24.4799 4.49171 24.9661 4.84481 25.0583 5.37032L25.5476 8.16C25.7036 9.04948 26.2506 9.80238 27.0484 10.2256L29.5502 11.553C30.0215 11.8031 30.2072 12.3744 29.9729 12.8537L28.729 15.3981C28.3325 16.2094 28.3325 17.1401 28.729 17.9513L29.9729 20.4958C30.2072 20.9752 30.0216 21.5466 29.5503 21.7966Z" fill="#001534"/>
<path d="M23.0273 9.64789C22.6518 9.27232 22.0428 9.27232 21.6672 9.64789L8.97308 22.3421C8.59751 22.7177 8.59751 23.3266 8.97308 23.7022C9.16087 23.89 9.40701 23.9839 9.65309 23.9839C9.89918 23.9839 10.1454 23.89 10.3331 23.7022L23.0272 11.008C23.4029 10.6324 23.4029 10.0235 23.0273 9.64789Z" fill="#001534"/>
<path d="M12.1533 8.01953C10.2089 8.01953 8.62695 9.60147 8.62695 11.5459C8.62695 13.4903 10.2089 15.0722 12.1533 15.0722C14.0977 15.0722 15.6797 13.4903 15.6797 11.5459C15.6797 9.60147 14.0977 8.01953 12.1533 8.01953ZM12.1533 13.1487C11.2695 13.1487 10.5505 12.4297 10.5505 11.5458C10.5505 10.662 11.2695 9.94297 12.1533 9.94297C13.0371 9.94297 13.7562 10.662 13.7562 11.5458C13.7562 12.4297 13.0371 13.1487 12.1533 13.1487Z" fill="#001534"/>
<path d="M19.8467 18.2783C17.9023 18.2783 16.3203 19.8603 16.3203 21.8047C16.3203 23.7491 17.9023 25.331 19.8467 25.331C21.7911 25.331 23.373 23.7491 23.373 21.8047C23.373 19.8603 21.7911 18.2783 19.8467 18.2783ZM19.8467 23.4075C18.9628 23.4075 18.2438 22.6885 18.2438 21.8047C18.2438 20.9209 18.9628 20.2018 19.8467 20.2018C20.7305 20.2018 21.4495 20.9209 21.4495 21.8047C21.4495 22.6885 20.7305 23.4075 19.8467 23.4075Z" fill="#001534"/>
</svg>
