<svg width="25" height="22" viewBox="0 0 25 22" fill="none" xmlns="http://www.w3.org/2000/svg">
<path d="M20.1348 6.08364C19.0634 1.77742 14.7349 -0.837147 10.4668 0.243814C7.13138 1.08859 4.70948 3.99708 4.45994 7.45752C2.09164 7.85156 0.488341 10.108 0.8789 12.4974C1.22609 14.6217 3.05045 16.1773 5.18429 16.1688H8.80602V14.7072H5.18429C3.58411 14.7072 2.2869 13.3984 2.2869 11.7839C2.2869 10.1695 3.58411 8.86067 5.18429 8.86067C5.58435 8.86067 5.90863 8.5335 5.90863 8.12986C5.90501 4.49732 8.82083 1.54959 12.4212 1.54598C15.5379 1.54283 18.2209 3.76587 18.8237 6.85094C18.8833 7.15898 19.1311 7.3943 19.4394 7.43559C21.4197 7.72011 22.7964 9.57038 22.5144 11.5683C22.2612 13.3623 20.743 14.6981 18.9469 14.7072H16.0495V16.1688H18.9469C21.7472 16.1602 24.0104 13.8629 24.0019 11.0376C23.9949 8.68578 22.3993 6.64175 20.1348 6.08364Z" fill="#01B7F2"/>
<path d="M12.9346 21.2259L15.832 18.3027L14.8107 17.2723L13.1447 18.9458L13.1447 11.9374H11.696V18.9458L10.0372 17.2723L9.01587 18.3027L11.9133 21.2259C12.1958 21.5093 12.6521 21.5093 12.9346 21.2259Z" fill="#01B7F2"/>
</svg>
