<svg width="31" height="32" viewBox="0 0 31 32" fill="none" xmlns="http://www.w3.org/2000/svg">
<path d="M0.851352 24.8331H1.01916L9.11506 23.0713C9.27275 23.045 9.41888 22.9719 9.53449 22.8615L23.2513 9.14469C24.2533 8.14484 24.8124 6.78488 24.8034 5.36945C24.8052 3.94301 24.248 2.5727 23.2513 1.55221C22.2515 0.55019 20.8915 -0.00887046 19.476 0.000202334C18.0515 -0.0124032 16.6851 0.564482 15.7008 1.5942L2.02584 15.311C1.90524 15.408 1.81732 15.5398 1.77413 15.6885L0.0123996 23.7844C-0.0356942 24.075 0.0577636 24.3712 0.264109 24.5814C0.418989 24.7395 0.630072 24.8299 0.851352 24.8331ZM19.476 1.67811C21.4916 1.67795 23.1255 3.31177 23.1257 5.32729C23.1257 5.34135 23.1256 5.3554 23.1255 5.36945C23.1392 6.32964 22.7604 7.25386 22.0768 7.92822L16.9173 2.7267C17.597 2.05121 18.5177 1.67385 19.476 1.67811ZM15.7427 3.94325L20.9022 9.10278L8.94717 21.0158L3.78764 15.8982L15.7427 3.94325ZM3.1165 17.5762L7.26927 21.729L1.94193 22.9035L3.1165 17.5762Z" fill="#001534"/>
<path d="M29.5747 29.3638H1.46981C1.00646 29.3638 0.630859 29.7394 0.630859 30.2027C0.630859 30.6661 1.00646 31.0417 1.46981 31.0417H29.5747C30.038 31.0417 30.4136 30.6661 30.4136 30.2027C30.4136 29.7394 30.038 29.3638 29.5747 29.3638Z" fill="#001534"/>
</svg>
