<svg width="22" height="16" viewBox="0 0 22 16" fill="none" xmlns="http://www.w3.org/2000/svg">
<path d="M14.582 8.55005L21.999 13.2389V3.66315L14.582 8.55005Z" fill="#001534" fill-opacity="0.8"/>
<path d="M0 3.66315V13.2389L7.41698 8.55005L0 3.66315Z" fill="#001534" fill-opacity="0.8"/>
<path d="M20.6254 0.874512H1.37481C0.688661 0.874512 0.144144 1.38603 0.0410156 2.04467L11.0001 9.26502L21.9592 2.04467C21.8561 1.38603 21.3115 0.874512 20.6254 0.874512Z" fill="#001534" fill-opacity="0.8"/>
<path d="M13.3251 9.38046L11.3794 10.662C11.2639 10.7376 11.1333 10.7748 11.0013 10.7748C10.8693 10.7748 10.7386 10.7376 10.6231 10.662L8.67744 9.37909L0.0449219 14.8394C0.1508 15.4925 0.692567 15.9999 1.37596 15.9999H20.6266C21.31 15.9999 21.8517 15.4925 21.9576 14.8394L13.3251 9.38046Z" fill="#001534" fill-opacity="0.8"/>
</svg>
