<svg width="25" height="25" viewBox="0 0 25 25" fill="none" xmlns="http://www.w3.org/2000/svg">
<circle cx="12.5" cy="12.5" r="12.5" fill="#001534" fill-opacity="0.8"/>
<path d="M14.1838 6.1653L13.6303 6.01356C13.559 5.9898 13.4888 5.99727 13.4206 6.03591C13.3521 6.07458 13.3059 6.13263 13.2822 6.20997L9.95302 17.7325C9.92926 17.8098 9.9367 17.8828 9.97537 17.9511C10.014 18.0196 10.072 18.0657 10.1494 18.0895L10.7028 18.2413C10.7742 18.2652 10.8441 18.2577 10.9126 18.219C10.981 18.1802 11.0272 18.1223 11.0509 18.0451L14.3801 6.5224C14.4038 6.44506 14.3965 6.37209 14.3577 6.3036C14.319 6.23514 14.2612 6.18903 14.1838 6.1653Z" fill="white"/>
<path d="M9.19458 8.41463C9.19458 8.33729 9.16479 8.2688 9.1053 8.20934L8.65898 7.76306C8.59949 7.70357 8.53103 7.67374 8.45369 7.67374C8.37635 7.67374 8.30785 7.7036 8.2484 7.76306L4.08928 11.9222C4.0297 11.9817 4 12.0501 4 12.1275C4 12.2048 4.02979 12.2733 4.08928 12.3327L8.24836 16.4918C8.30782 16.5514 8.37619 16.5811 8.45366 16.5811C8.53112 16.5811 8.59949 16.5513 8.65895 16.4918L9.10527 16.0458C9.16475 15.9863 9.19455 15.9179 9.19455 15.8404C9.19455 15.7632 9.16475 15.6947 9.10527 15.6352L5.59767 12.1275L9.1053 8.61993C9.16488 8.56047 9.19458 8.49197 9.19458 8.41463Z" fill="white"/>
<path d="M20.2437 11.922L16.0845 7.76293C16.025 7.70347 15.9565 7.67361 15.8793 7.67361C15.8018 7.67361 15.7336 7.70347 15.6739 7.76293L15.2278 8.20918C15.1683 8.26867 15.1387 8.33704 15.1387 8.41447C15.1387 8.49191 15.1683 8.56031 15.2278 8.61977L18.7355 12.1274L15.2278 15.6352C15.1683 15.6947 15.1387 15.7632 15.1387 15.8404C15.1387 15.9178 15.1683 15.9863 15.2278 16.0458L15.6739 16.4918C15.7336 16.5514 15.8019 16.581 15.8793 16.581C15.9566 16.581 16.025 16.5513 16.0845 16.4918L20.2437 12.3327C20.3032 12.2733 20.3329 12.2047 20.3329 12.1273C20.3329 12.05 20.3032 11.9815 20.2437 11.922Z" fill="white"/>
</svg>
