<svg width="22" height="25" viewBox="0 0 22 25" fill="none" xmlns="http://www.w3.org/2000/svg">
<path d="M10.9995 5.39078C9.42957 5.4605 7.94178 6.14792 6.8307 7.31693C5.71962 8.48594 5.06627 10.0513 5 11.703C5.01224 13.3766 5.62575 14.9833 6.71735 16.2005C7.09289 16.5155 7.40117 16.9101 7.62212 17.3587C7.84308 17.8074 7.97174 18.2999 7.99974 18.8043C7.99974 19.0136 8.07875 19.2143 8.21939 19.3623C8.36003 19.5103 8.55078 19.5934 8.74967 19.5934H13.2493C13.4482 19.5934 13.6389 19.5103 13.7796 19.3623C13.9202 19.2143 13.9992 19.0136 13.9992 18.8043C14.0227 18.3028 14.148 17.8124 14.3666 17.366C14.5852 16.9196 14.8921 16.5276 15.2666 16.2163C15.8294 15.6256 16.2729 14.9213 16.5706 14.1457C16.8683 13.3702 17.014 12.5393 16.9989 11.703C16.9996 10.8469 16.8381 9.99912 16.5239 9.20932C16.2097 8.41951 15.7492 7.70347 15.1691 7.10298C14.6181 6.5389 13.9652 6.09674 13.2491 5.80266C12.5329 5.50857 11.768 5.36852 10.9995 5.39078ZM14.2542 15.0801C13.4046 15.8405 12.8125 16.8705 12.5668 18.0153H9.43211C9.18872 16.8812 8.61135 15.8567 7.78226 15.088C6.9699 14.1665 6.51274 12.9598 6.49987 11.703C6.55296 10.4654 7.04406 9.29345 7.87667 8.41744C8.70928 7.54142 9.82318 7.02471 10.9995 6.96885C11.57 6.94803 12.1387 7.04917 12.671 7.26617C13.2034 7.48316 13.6884 7.81149 14.0967 8.2313C14.5386 8.68245 14.8902 9.22199 15.1311 9.81819C15.3719 10.4144 15.497 11.0552 15.4991 11.703C15.5123 12.3264 15.4071 12.9463 15.1894 13.5262C14.9718 14.1061 14.6461 14.6345 14.2317 15.0801H14.2542Z" fill="white"/>
<path d="M13.25 20.608H8.75C8.55109 20.608 8.36032 20.7149 8.21967 20.9051C8.07902 21.0954 8 21.3535 8 21.6226C8 21.8917 8.07902 22.1498 8.21967 22.34C8.36032 22.5303 8.55109 22.6372 8.75 22.6372H13.25C13.4489 22.6372 13.6397 22.5303 13.7803 22.34C13.921 22.1498 14 21.8917 14 21.6226C14 21.3535 13.921 21.0954 13.7803 20.9051C13.6397 20.7149 13.4489 20.608 13.25 20.608Z" fill="white"/>
<path d="M12.3333 22.6372H9.66667C9.48986 22.6372 9.32029 22.7441 9.19526 22.9344C9.07024 23.1247 9 23.3827 9 23.6518C9 23.9209 9.07024 24.179 9.19526 24.3693C9.32029 24.5595 9.48986 24.6664 9.66667 24.6664H12.3333C12.5101 24.6664 12.6797 24.5595 12.8047 24.3693C12.9298 24.179 13 23.9209 13 23.6518C13 23.3827 12.9298 23.1247 12.8047 22.9344C12.6797 22.7441 12.5101 22.6372 12.3333 22.6372Z" fill="white"/>
<path d="M11 3.35919C11.2652 3.35919 11.5196 3.27902 11.7071 3.13631C11.8946 2.9936 12 2.80004 12 2.59822V1.07628C12 0.874457 11.8946 0.680901 11.7071 0.538191C11.5196 0.395481 11.2652 0.315308 11 0.315308C10.7348 0.315308 10.4804 0.395481 10.2929 0.538191C10.1054 0.680901 10 0.874457 10 1.07628V2.59822C10 2.80004 10.1054 2.9936 10.2929 3.13631C10.4804 3.27902 10.7348 3.35919 11 3.35919Z" fill="white"/>
<path d="M2.25 10.4616H0.75C0.551088 10.4616 0.360322 10.5685 0.21967 10.7588C0.0790176 10.9491 0 11.2072 0 11.4763C0 11.7454 0.0790176 12.0034 0.21967 12.1937C0.360322 12.384 0.551088 12.4909 0.75 12.4909H2.25C2.44891 12.4909 2.63968 12.384 2.78033 12.1937C2.92098 12.0034 3 11.7454 3 11.4763C3 11.2072 2.92098 10.9491 2.78033 10.7588C2.63968 10.5685 2.44891 10.4616 2.25 10.4616Z" fill="white"/>
<path d="M21.25 10.4616H19.75C19.5511 10.4616 19.3603 10.5685 19.2197 10.7588C19.079 10.9491 19 11.2072 19 11.4763C19 11.7454 19.079 12.0034 19.2197 12.1937C19.3603 12.384 19.5511 12.4909 19.75 12.4909H21.25C21.4489 12.4909 21.6397 12.384 21.7803 12.1937C21.921 12.0034 22 11.7454 22 11.4763C22 11.2072 21.921 10.9491 21.7803 10.7588C21.6397 10.5685 21.4489 10.4616 21.25 10.4616Z" fill="white"/>
<path d="M18.7447 3.61871C18.5801 3.45249 18.3576 3.35919 18.1256 3.35919C17.8937 3.35919 17.6711 3.45249 17.5066 3.61871L16.2597 4.87705C16.1774 4.96001 16.1121 5.05872 16.0675 5.16747C16.023 5.27622 16 5.39287 16 5.51068C16 5.62849 16.023 5.74514 16.0675 5.85389C16.1121 5.96265 16.1774 6.06135 16.2597 6.14431C16.3418 6.22703 16.4391 6.29247 16.5461 6.33688C16.653 6.38129 16.7676 6.4038 16.8832 6.40312C16.9987 6.4038 17.1133 6.38129 17.2203 6.33688C17.3272 6.29247 17.4245 6.22703 17.5066 6.14431L18.7447 4.87705C18.9082 4.70984 19 4.48365 19 4.24788C19 4.01211 18.9082 3.78592 18.7447 3.61871Z" fill="white"/>
<path d="M5.73639 6.14044C5.81992 6.05623 5.88622 5.95605 5.93146 5.84567C5.97671 5.73529 6 5.61689 6 5.49731C6 5.37774 5.97671 5.25934 5.93146 5.14896C5.88622 5.03858 5.81992 4.9384 5.73639 4.85419L4.47088 3.577C4.3004 3.4286 4.08109 3.35106 3.8568 3.35987C3.63251 3.36867 3.41974 3.46318 3.26103 3.6245C3.10231 3.78582 3.00933 4.00207 3.00066 4.23004C2.992 4.45801 3.06829 4.68091 3.21429 4.85419L4.47088 6.14044C4.55416 6.22439 4.65292 6.29081 4.7615 6.33588C4.87008 6.38096 4.98635 6.40381 5.10363 6.40312C5.22092 6.40381 5.33719 6.38096 5.44577 6.33588C5.55435 6.29081 5.65311 6.22439 5.73639 6.14044Z" fill="white"/>
</svg>
