<svg width="26" height="23" viewBox="0 0 26 23" fill="none" xmlns="http://www.w3.org/2000/svg">
<path d="M19.3299 1.08296L19.33 1.08298L24.9164 6.64151C25.1624 6.88634 25.1634 7.28439 24.9186 7.53045L19.3322 13.1451C19.1527 13.3256 18.8821 13.3801 18.6466 13.2829C18.4113 13.1859 18.2579 12.9563 18.2579 12.7019V9.87642C17.5821 9.85531 16.9078 9.95996 16.2698 10.1856L16.2696 10.1857C14.7887 10.7046 13.5166 11.8259 12.4913 13.5306L19.3299 1.08296ZM19.3299 1.08296C19.15 0.90396 18.8799 0.850662 18.6453 0.948158C18.4108 1.04563 18.2579 1.2747 18.2579 1.52866V4.25375C15.445 4.39045 14.0236 5.55696 13.7891 5.76759C12.3317 6.96437 11.3365 8.63166 10.9749 10.4824C10.7942 11.3766 10.7618 12.2945 10.8795 13.1992L10.8795 13.1995L10.8799 13.2025C10.8799 13.2025 10.8799 13.2025 10.8799 13.2026C10.8811 13.2117 10.8825 13.2208 10.8838 13.2288L10.8838 13.2288L10.884 13.2303L10.9964 13.876C10.9964 13.876 10.9964 13.876 10.9964 13.876C11.0413 14.1346 11.2424 14.3382 11.5005 14.3863L11.5005 14.3863C11.7589 14.4344 12.0196 14.3168 12.1547 14.0917C12.1547 14.0916 12.1547 14.0916 12.1547 14.0916L12.4912 13.5307L19.3299 1.08296ZM14.5356 6.6521L14.5989 6.72949C14.6123 6.71848 14.6249 6.70713 14.637 6.69533C14.6807 6.6554 16.0019 5.47675 18.8816 5.49824H18.8824H18.8863C19.2335 5.49824 19.5151 5.21661 19.5153 4.86947V4.86939V3.04105L23.5842 7.0894L19.5153 11.1785V9.30478C19.5153 8.99632 19.2914 8.73334 18.9867 8.68423C18.5244 8.60971 17.3001 8.49254 15.8538 8.99936C14.397 9.50977 13.129 10.4855 12.0719 11.9005C12.0861 11.5065 12.1317 11.1139 12.2083 10.7267L12.2083 10.7267C12.5251 9.12502 13.329 7.78075 14.5993 6.72913L14.5356 6.6521ZM14.5356 6.6521C14.5469 6.6428 14.5577 6.6331 14.5682 6.62277L14.5356 6.6521Z" fill="white" stroke="white" stroke-width="0.2"/>
<path d="M3.64318 3.99131L3.64307 3.99131C2.12881 3.99302 0.901714 5.22012 0.9 6.73438V6.73449L0.9 19.3288L0.9 19.329C0.901714 20.8432 2.12881 22.0703 3.64307 22.072H3.64318H20.9482H20.9483C22.4626 22.0703 23.6896 20.8432 23.6914 19.329V19.3288V17.0947C23.6914 16.7475 23.4099 16.4661 23.0627 16.4661C22.7157 16.4661 22.4341 16.7475 22.4341 17.0947V19.3287C22.4333 20.1491 21.7685 20.8138 20.9481 20.8148H3.6433C2.82292 20.8138 2.15829 20.1492 2.15727 19.3288C2.15727 19.3288 2.15727 19.3288 2.15727 19.3287V6.73461C2.15727 6.73458 2.15727 6.73454 2.15727 6.73451C2.15829 5.91417 2.82286 5.2496 3.6432 5.24858C3.64323 5.24858 3.64327 5.24858 3.6433 5.24858L7.29924 5.24858C7.64646 5.24858 7.92788 4.96716 7.92788 4.61995C7.92788 4.27273 7.64646 3.99131 7.29924 3.99131L3.64318 3.99131Z" fill="white" stroke="white" stroke-width="0.2"/>
</svg>
