<svg width="22" height="19" viewBox="0 0 22 19" fill="none" xmlns="http://www.w3.org/2000/svg">
<path d="M11.0195 5.91318L14.1162 9.00988L14.131 8.84767C14.131 7.22066 12.8087 5.89844 11.1817 5.89844L11.0195 5.91318Z" fill="#C4C4C4"/>
<path d="M11.1792 3.93229C13.8925 3.93229 16.0946 6.13439 16.0946 8.84768C16.0946 9.48177 15.9668 10.0864 15.7456 10.6418L18.6211 13.5173C20.1056 12.2786 21.2754 10.6762 21.998 8.84768C20.2924 4.53199 16.0995 1.47461 11.1793 1.47461C9.80294 1.47461 8.48565 1.72036 7.26172 2.16275L9.38516 4.28126C9.94054 4.065 10.5451 3.93229 11.1792 3.93229Z" fill="#C4C4C4"/>
<path d="M1.35025 1.25342L3.59166 3.49484L4.03898 3.94215C2.4169 5.21032 1.13399 6.89631 0.367188 8.84769C2.06793 13.1634 6.26565 16.2208 11.181 16.2208C12.7048 16.2208 14.1598 15.9258 15.4919 15.39L15.9097 15.8079L18.7754 18.6784L20.0288 17.4299L2.60367 0L1.35025 1.25342ZM6.78669 6.68494L8.30555 8.20379C8.26131 8.41517 8.23182 8.6265 8.23182 8.84769C8.23182 10.4747 9.55404 11.7969 11.181 11.7969C11.4022 11.7969 11.6136 11.7674 11.8201 11.7232L13.3389 13.242C12.6852 13.5665 11.9577 13.7631 11.181 13.7631C8.46775 13.7631 6.26565 11.561 6.26565 8.84769C6.26565 8.07107 6.46228 7.34358 6.78669 6.68494Z" fill="#C4C4C4"/>
</svg>
