<svg width="21" height="21" viewBox="0 0 21 21" fill="none" xmlns="http://www.w3.org/2000/svg">
<path d="M11.1028 0.613122L13.4052 5.6131C13.5053 5.91309 13.8056 6.11309 14.106 6.21309L19.3114 7.01309C20.2123 7.01309 20.5126 8.01308 19.912 8.61308L16.108 12.5131C15.9078 12.7131 15.8077 13.1131 15.8077 13.4131L16.7087 18.813C16.8088 19.613 16.0079 20.313 15.3072 19.913L10.6023 17.313C10.302 17.113 10.0017 17.113 9.70137 17.313L4.99647 19.913C4.29574 20.313 3.3948 19.713 3.59501 18.813L4.49595 13.4131C4.59605 13.1131 4.39584 12.7131 4.19563 12.5131L0.391672 8.61308C-0.108849 8.01308 0.191463 7.01309 0.992298 6.91309L6.19772 6.11309C6.49803 6.11309 6.79835 5.8131 6.89845 5.5131L9.20085 0.513123C9.70137 -0.186874 10.7024 -0.186874 11.1028 0.613122Z" fill="#FFC107"/>
</svg>
