<svg width="20" height="14" viewBox="0 0 20 14" fill="none" xmlns="http://www.w3.org/2000/svg">
<path d="M7.77778 12.8333C7.77778 13.4777 8.30011 14 8.94444 14H11.0556C11.6999 14 12.2222 13.4777 12.2222 12.8333C12.2222 12.189 11.6999 11.6667 11.0556 11.6667H8.94444C8.30011 11.6667 7.77778 12.189 7.77778 12.8333ZM1.16667 0C0.522333 0 0 0.522334 0 1.16667C0 1.811 0.522334 2.33333 1.16667 2.33333H18.8333C19.4777 2.33333 20 1.811 20 1.16667C20 0.522334 19.4777 0 18.8333 0H1.16667ZM3.33333 7C3.33333 7.64433 3.85567 8.16667 4.5 8.16667H15.5C16.1443 8.16667 16.6667 7.64433 16.6667 7C16.6667 6.35567 16.1443 5.83333 15.5 5.83333H4.5C3.85567 5.83333 3.33333 6.35567 3.33333 7Z" fill="#001534"/>
</svg>
