<svg width="43" height="43" viewBox="0 0 43 43" fill="none" xmlns="http://www.w3.org/2000/svg">
<g clip-path="url(#clip0)">
<path d="M21.5 43C33.3741 43 43 33.3741 43 21.5C43 9.62588 33.3741 0 21.5 0C9.62588 0 0 9.62588 0 21.5C0 33.3741 9.62588 43 21.5 43Z" fill="#F0F0F0"/>
<path d="M43.0003 21.4999C43.0003 12.2556 37.1657 4.37496 28.9785 1.33716V41.6627C37.1657 38.6248 43.0003 30.7441 43.0003 21.4999Z" fill="#D80027"/>
<path d="M0 21.4999C0 30.7441 5.83465 38.6248 14.0218 41.6626V1.33716C5.83465 4.37496 0 12.2556 0 21.4999Z" fill="#0052B4"/>
</g>
<defs>
<clipPath id="clip0">
<rect width="43" height="43" fill="white"/>
</clipPath>
</defs>
</svg>
