<svg width="43" height="43" viewBox="0 0 43 43" fill="none" xmlns="http://www.w3.org/2000/svg">
<g clip-path="url(#clip0)">
<path d="M21.5 43C33.3741 43 43 33.3741 43 21.5C43 9.62588 33.3741 0 21.5 0C9.62588 0 0 9.62588 0 21.5C0 33.3741 9.62588 43 21.5 43Z" fill="#00B564"/>
<path d="M41.6679 14.0346H1.33105C4.36709 5.83943 12.2499 0 21.4999 0C30.7499 0 38.6327 5.83943 41.6679 14.0346Z" fill="#1C1C2B"/>
<path d="M41.6682 28.9629H1.33136C-0.447693 24.1458 -0.447693 18.8517 1.33136 14.0347H41.6682C41.9675 14.8421 42.2174 15.6669 42.4165 16.5046C43.3978 20.6406 43.1375 24.9741 41.6682 28.9629Z" fill="#DB1B1B"/>
<path d="M21.4999 43C17.1069 43.0001 12.8191 41.6549 9.21342 39.1454C5.60771 36.6359 2.85693 33.0824 1.33105 28.9629H41.6679C41.3555 29.8087 40.9894 30.6337 40.5719 31.4329C38.7549 34.9209 36.016 37.8437 32.6533 39.8832C29.2906 41.9227 25.4328 43.0008 21.4999 43Z" fill="#F7BB38"/>
<path d="M24.3134 0.181408C16.3029 1.22953 9.67994 6.68432 6.95801 14.0388H1.33105C4.36709 5.83944 12.2499 2.20809e-06 21.4999 2.20809e-06C22.4407 -0.000421642 23.3805 0.0601743 24.3134 0.181408Z" fill="#14141E"/>
<path d="M5.62716 21.4999C5.62421 24.0471 6.07497 26.5745 6.95831 28.9636H1.33136C-0.447693 24.1466 -0.447693 18.8525 1.33136 14.0354H6.95831C6.66078 14.8426 6.41257 15.6672 6.21505 16.5045C5.82444 18.141 5.62713 19.8175 5.62716 21.4999Z" fill="#C61A1A"/>
<path d="M24.3131 42.817C19.9382 43.3897 15.4929 42.605 11.5785 40.569C7.66414 38.5329 4.46952 35.3438 2.42676 31.4329C2.011 30.6334 1.64634 29.8085 1.33496 28.9629H6.96191C8.32075 32.6328 10.6549 35.8626 13.7131 38.3044C16.7713 40.7462 20.4376 42.3075 24.3173 42.8203L24.3131 42.817Z" fill="#DDA431"/>
<path d="M35.834 11.3858C36.6721 11.3858 37.3516 10.7063 37.3516 9.86818C37.3516 9.03004 36.6721 8.35059 35.834 8.35059C34.9959 8.35059 34.3164 9.03004 34.3164 9.86818C34.3164 10.7063 34.9959 11.3858 35.834 11.3858Z" fill="#32314B"/>
<path d="M33.8943 8.44712C34.488 8.44712 34.9693 7.96582 34.9693 7.37212C34.9693 6.77841 34.488 6.29712 33.8943 6.29712C33.3006 6.29712 32.8193 6.77841 32.8193 7.37212C32.8193 7.96582 33.3006 8.44712 33.8943 8.44712Z" fill="#32314B"/>
</g>
<defs>
<clipPath id="clip0">
<rect width="43" height="43" fill="white"/>
</clipPath>
</defs>
</svg>
