<svg width="28" height="27" viewBox="0 0 28 27" fill="none" xmlns="http://www.w3.org/2000/svg">
<path d="M26.276 17.9413C26.7627 16.5498 27.0282 15.0554 27.0282 13.5C27.0282 11.9446 26.7627 10.4502 26.276 9.0587C26.2641 9.0169 26.2501 8.97613 26.233 8.93691C24.356 3.73185 19.3634 0 13.5141 0C7.66478 0 2.67211 3.73185 0.795175 8.93691C0.778127 8.97626 0.763921 9.0169 0.752168 9.0587C0.265532 10.4502 0 11.9446 0 13.5C0 15.0554 0.265532 16.5498 0.752168 17.9413C0.76405 17.9831 0.778127 18.0239 0.795175 18.0631C2.67224 23.2683 7.66478 27 13.5141 27C19.3634 27 24.356 23.2681 26.233 18.0631C26.2501 18.0239 26.2641 17.9832 26.276 17.9413ZM13.5141 25.0649C12.9994 25.0649 12.1697 24.1345 11.4761 22.0558C11.1414 21.0527 10.8734 19.8996 10.6781 18.6452H16.3501C16.1548 19.8996 15.8868 21.0526 15.5522 22.0558C14.8585 24.1345 14.0288 25.0649 13.5141 25.0649ZM10.443 16.71C10.3499 15.6781 10.3007 14.6016 10.3007 13.5C10.3007 12.3984 10.3499 11.3219 10.443 10.29H16.585C16.6781 11.3219 16.7273 12.3984 16.7273 13.5C16.7273 14.6016 16.6781 15.6781 16.585 16.71H10.443ZM1.93712 13.5001C1.93712 12.3867 2.09584 11.3097 2.39121 10.2901H8.49999C8.40946 11.3433 8.36348 12.4226 8.36348 13.5001C8.36348 14.5777 8.40933 15.657 8.49999 16.7101H2.39121C2.09584 15.6904 1.93712 14.6135 1.93712 13.5001ZM13.5141 1.93521C14.0288 1.93521 14.8587 2.86565 15.5522 4.94432C15.8868 5.94741 16.155 7.10053 16.3501 8.3548H10.678C10.8732 7.1004 11.1412 5.94741 11.476 4.94432C12.1697 2.86565 12.9994 1.93521 13.5141 1.93521ZM18.5281 10.2901H24.6369C24.9322 11.3097 25.091 12.3867 25.091 13.5001C25.091 14.6135 24.9322 15.6905 24.6369 16.7101H18.5281C18.6186 15.657 18.6646 14.5777 18.6646 13.5001C18.6646 12.4226 18.6186 11.3433 18.5281 10.2901ZM23.8799 8.35493H18.3058C17.9612 5.98147 17.3701 3.85209 16.5409 2.33721C19.756 3.20793 22.4197 5.43096 23.8799 8.35493ZM10.4872 2.33708C9.65795 3.85196 9.06683 5.98134 8.72226 8.35493H3.14815C4.60845 5.43096 7.27203 3.20793 10.4872 2.33708ZM3.14815 18.6452H8.72226C9.06683 21.0187 9.65795 23.148 10.4872 24.663C7.27203 23.7922 4.60845 21.5693 3.14815 18.6452ZM16.5409 24.663C17.3701 23.1482 17.9612 21.0188 18.3058 18.6452H23.8799C22.4197 21.5693 19.756 23.7922 16.5409 24.663Z" fill="white"/>
</svg>
