<svg width="39" height="39" viewBox="0 0 39 39" fill="none" xmlns="http://www.w3.org/2000/svg">
<path d="M35.0586 17.5273C35.0586 27.2067 27.2106 35.0547 17.5312 35.0547C7.85035 35.0547 0.00390625 27.2067 0.00390625 17.5273C0.00390625 7.84645 7.85035 0 17.5312 0C20.2728 0 22.8671 0.629585 25.1776 1.75072C29.4172 3.81003 32.7031 7.527 34.1886 12.0612C34.7531 13.7809 35.0586 15.6185 35.0586 17.5273Z" fill="#4DA0DC"/>
<path d="M25.175 1.75105C24.4044 1.5355 23.6275 1.32614 22.8304 1.27033C22.0768 1.21761 21.3139 1.30292 20.5912 1.52308C20.4129 1.57738 20.2144 1.63783 20.0501 1.551C19.9306 1.48742 19.8609 1.36181 19.7663 1.26725C19.4732 0.977259 18.9956 1.01445 18.5955 1.11062C17.7693 1.30828 16.9822 1.66946 16.2924 2.16461C16.0534 2.33617 16.0088 2.67314 16.1983 2.89814C16.3125 3.03368 16.4537 3.12809 16.6293 3.12495C17.341 3.11409 17.403 1.60219 18.09 1.79446C18.304 2.29687 18.2016 2.92027 17.8372 3.32809C17.508 3.69806 16.9772 3.87278 16.4901 3.78507C16.3944 3.76782 16.298 3.78184 16.2145 3.8318C15.6785 4.15256 15.0239 4.27117 14.4085 4.16576C14.2032 4.13059 14.0211 4.26415 13.973 4.46676C13.8171 5.12229 13.2392 5.67967 12.5634 5.76111C12.1555 5.81072 11.6051 5.79211 11.4934 6.1891C11.4407 6.38137 11.5353 6.58917 11.7043 6.69614C11.9788 6.87447 12.3137 6.80161 12.5835 6.65586C13.393 6.22165 14.007 5.12841 14.8971 5.35482C15.4911 5.50678 15.7655 6.18599 16.2509 6.5597C16.4168 6.68686 16.7859 6.5504 16.6231 6.42015C16.2649 6.27127 15.8307 5.99216 15.9857 5.59673C16.0772 5.36257 16.33 5.23851 16.5781 5.27418C17.3038 5.37654 18.2079 5.77658 18.4529 6.50543C18.609 6.73076 18.6265 6.13327 18.8126 6.05883C19.0514 5.96269 19.3274 5.95958 19.5445 5.82003C19.8764 5.60759 19.9601 5.15479 20.2284 4.86325C20.8207 4.21818 21.9248 4.66942 22.5048 5.32535C22.7575 5.61067 22.9824 5.96269 22.9483 6.34262C22.0334 6.06658 21.0502 6.0185 20.1136 6.20613C19.9058 6.59534 20.2377 7.15052 20.6796 7.1536C20.9541 7.15516 21.2084 6.98147 21.4875 7.00783C21.5821 7.01714 21.6705 7.05744 21.7496 7.11019C22.4272 7.55987 21.9729 8.32282 21.4348 8.32746C20.7029 8.22513 19.9617 8.19102 19.2236 8.22666C19.0607 8.23444 18.9103 8.29335 18.7893 8.38949C18.6668 8.48565 18.5738 8.61901 18.5288 8.77406C17.3968 8.30577 16.2664 7.83745 15.1344 7.36915C14.5483 7.12569 13.9016 6.87758 13.2938 7.06211C12.9635 7.16135 12.6843 7.37846 12.4083 7.5847C11.6516 8.14758 10.8576 8.65776 10.0311 9.11056C9.65274 9.31836 9.25422 9.5246 8.98906 9.86576C8.78282 10.1309 8.67426 10.455 8.57504 10.776C8.21395 11.9311 7.92496 13.1601 8.38798 14.3484C8.51287 14.6688 8.70361 14.9651 8.95121 15.2038C10.2067 16.4145 11.6325 15.4858 13.0208 15.5428C13.4752 15.5614 13.9187 15.687 14.3575 15.8111C14.5746 15.8731 14.8041 15.9429 14.9468 16.1165C15.2476 16.4809 14.9948 17.0237 15.0197 17.4951C15.0677 18.3712 16.0633 18.8954 16.3331 19.7296C16.6246 20.6305 15.995 21.5703 15.9919 22.5177C15.9888 23.2962 16.4044 24.0064 16.8076 24.6716L18.6529 27.7172C18.7661 27.9032 18.9196 28.0629 19.115 28.1591C19.7787 28.4848 20.292 27.8474 20.523 27.2643C20.723 26.7588 20.8874 26.1696 21.3681 25.9168C21.6752 25.7556 22.1078 25.7261 22.2365 25.4051C22.3078 25.2298 22.2536 25.0329 22.2505 24.8438C22.2319 23.8234 23.5872 23.3939 24.0865 22.5038C24.7052 21.3982 23.8632 19.8413 24.5982 18.8101C24.775 18.5635 25.0246 18.3774 25.203 18.134C25.8372 17.264 25.4247 15.8886 26.4109 15.197C26.6296 15.0435 26.7661 14.7876 26.7614 14.5209C26.7505 13.9875 26.2047 13.9068 25.7907 13.9843C25.4495 14.0464 25.0867 14.1658 24.7719 14.0216C24.4943 13.8944 24.3423 13.5982 24.2059 13.3253C23.5546 12.0119 22.8118 10.7419 21.9868 9.53079C21.8178 9.27958 22.1295 8.97878 22.3668 9.16483C22.9126 9.59282 23.3344 10.2193 23.6786 10.8349C24.2059 11.7762 24.6943 12.8089 25.6046 13.3858C25.7348 13.4695 25.8884 13.5424 26.0388 13.5067C26.1566 13.4788 26.2481 13.3873 26.3319 13.3005C26.5645 13.0617 26.7986 12.8229 27.0312 12.5825C27.3429 12.2631 27.6623 11.9312 27.8329 11.5172C28.0051 11.1048 27.9957 10.5837 27.6918 10.255C27.3879 9.9262 26.7583 9.9262 26.5443 10.3185C25.876 9.89365 25.1425 9.37727 25.0758 8.56162C25.065 8.43604 25.1223 8.30577 25.2355 8.24994C25.4247 8.15691 25.5984 8.33213 25.7255 8.47943C26.4621 9.32611 27.5755 9.83009 28.6951 9.82387C28.9215 9.82232 29.1851 9.81768 29.3278 9.9929C29.5123 10.2209 29.3681 10.6085 29.5712 10.8194C29.6844 10.9373 29.8643 10.9528 30.0132 11.0179C30.1931 11.0985 30.3264 11.2536 30.4536 11.4025C31.032 12.0832 31.6367 12.8244 31.7158 13.7145C31.7561 14.1534 31.722 14.7116 32.119 14.9055C32.7771 14.9079 32.04 12.623 32.1817 11.4839C32.2116 11.2439 32.5315 11.1931 32.6297 11.4142C32.8147 11.8305 33.0549 12.2367 33.3906 12.429C33.8542 12.6942 34.0883 12.4383 34.186 12.0615C32.7005 7.52732 29.4146 3.81033 25.175 1.75105Z" fill="#FEDA6F"/>
<path d="M3.91937 27.3555C3.88837 26.6283 3.8558 25.8948 3.65886 25.1954C3.50845 24.6636 3.26188 24.1208 3.38129 23.5812C3.43091 23.3594 3.53946 23.1547 3.58132 22.933C3.65111 22.5608 3.53015 22.1825 3.47123 21.8088C3.37354 21.1978 3.44331 20.5605 3.67282 19.9867C3.75345 19.782 3.85269 19.5525 3.755 19.3556C3.61079 19.0672 3.15489 19.0904 2.96416 18.8299C2.79823 18.6051 2.87266 18.2236 2.63386 18.0809C2.48035 17.9879 2.271 18.0499 2.11439 17.9646C2.00118 17.9041 1.93916 17.7786 1.88643 17.6607C1.42743 16.645 1.27082 15.5704 0.887795 14.5423C0.77615 14.243 0.582316 14.0336 0.36677 13.9639C0.129511 15.1145 0.00390625 16.307 0.00390625 17.5273C0.00390625 19.9371 0.490822 22.2337 1.37005 24.324C2.21362 25.4947 3.27429 26.5662 3.43556 27.9464C3.60768 28.1805 3.78757 28.41 3.97365 28.6349C3.95504 28.2084 3.93644 27.782 3.91937 27.3555Z" fill="#FEDA6F"/>
<path opacity="0.25" d="M34.6014 21.4987C32.8034 29.2637 25.8409 35.0568 17.53 35.0568C7.84768 35.0568 0 27.2044 0 17.5267C0 12.4814 2.12819 7.936 5.54063 4.73926C5.24249 6.01424 5.08653 7.34901 5.08653 8.72029C5.08653 18.3981 12.9296 26.2457 22.6119 26.2457C27.249 26.2457 31.4687 24.4433 34.6014 21.4987Z" fill="#4288B9"/>
<path d="M24.2714 18.8075C19.9787 20.0801 17.5295 24.5932 18.8041 28.8923C20.0767 33.185 24.5917 35.6404 28.8844 34.3678C33.1835 33.0933 35.6307 28.5738 34.3581 24.2811C33.0836 19.982 28.5704 17.5329 24.2714 18.8075ZM27.2847 28.9718C25.9659 29.3628 24.5847 28.6132 24.1938 27.2945C23.8027 25.9755 24.5503 24.5881 25.8692 24.1971C27.1881 23.8061 28.5774 24.56 28.9684 25.8789C29.3594 27.1977 28.6036 28.5808 27.2847 28.9718Z" fill="#DBD8DD"/>
<path d="M38.1653 25.093L37.1089 21.5296L34.2594 21.8434C33.8468 21.1855 33.3606 20.5811 32.8095 20.06L33.7177 17.3408L30.4415 15.5679L28.6549 17.8055C27.9176 17.6275 27.1519 17.5475 26.3711 17.5678L25.0853 15L21.522 16.0564L21.8376 18.9118C21.176 19.3126 20.5776 19.7971 20.0524 20.3558L17.3349 19.4535L15.5602 22.7239L17.7919 24.5122C17.6139 25.2494 17.5357 26.0212 17.5619 26.8002L15 28.0841L16.0564 31.6474L18.9042 31.3278C19.3068 31.9952 19.7912 32.5936 20.344 33.1206L19.4458 35.8303L22.7179 37.6109L24.5046 35.3734C25.2476 35.5496 26.0134 35.6296 26.79 35.6169L28.0783 38.1712L31.6415 37.1148L31.3236 34.2729C31.9816 33.8602 32.5859 33.3741 33.107 32.823L35.8245 33.7253L37.6033 30.4473L35.3598 28.6625C35.5437 27.9235 35.6238 27.1578 35.6034 26.377L38.1653 25.093ZM23.278 20.3398L23.6354 21.5452C21.7709 22.6354 20.6557 24.6995 20.7597 26.8628L19.5484 27.2219C19.2938 24.3996 20.773 21.6647 23.278 20.3398ZM27.216 33.6228C24.3919 33.8714 21.6628 32.3905 20.3381 29.8855L21.5435 29.5282C22.6353 31.3985 24.6954 32.5215 26.8586 32.4174L27.216 33.6228ZM22.8429 27.6972C22.2311 25.6333 23.4042 23.4624 25.4681 22.8505C27.5378 22.2369 29.7046 23.4177 30.3165 25.4816C30.9283 27.5455 29.7552 29.7164 27.6855 30.33C25.6216 30.9419 23.4548 29.7611 22.8429 27.6972ZM29.8855 32.8314L29.5264 31.6201C31.3968 30.5282 32.5137 28.4699 32.4098 26.3067L33.6152 25.9493C33.8697 28.7716 32.3888 31.5007 29.8855 32.8314ZM31.6142 23.6448C30.5223 21.7744 28.4641 20.6575 26.3067 20.7597L25.9476 19.5484C28.764 19.2956 31.5007 20.7806 32.8255 23.2857L31.6142 23.6448Z" fill="#F1F1F1"/>
</svg>
