<svg width="28" height="18" viewBox="0 0 28 18" fill="none" xmlns="http://www.w3.org/2000/svg">
<path d="M3.78388 7.82273C2.96394 7.24655 2.421 6.2881 2.421 5.20777C2.421 3.44045 3.85036 2.01108 5.61768 2.01108C7.385 2.01108 8.81436 3.44045 8.81436 5.20777C8.81436 6.2881 8.27697 7.24655 7.45148 7.82273C8.15508 8.0665 8.79774 8.44323 9.34068 8.93077C10.0886 8.29365 10.9695 7.80611 11.9335 7.51802C10.7645 6.80888 9.9778 5.51802 9.9778 4.04987C9.9778 1.81164 11.7894 0 14.0277 0C16.2659 0 18.0775 1.81718 18.0775 4.04987C18.0775 5.51802 17.2964 6.80888 16.1219 7.51802C17.0748 7.80611 17.9446 8.28811 18.687 8.91415C19.2299 8.43769 19.8615 8.0665 20.554 7.82827C19.7341 7.25209 19.1911 6.29364 19.1911 5.21331C19.1911 3.44599 20.6205 2.01662 22.3878 2.01662C24.1551 2.01662 25.5845 3.44599 25.5845 5.21331C25.5845 6.29364 25.0471 7.25209 24.2216 7.82827C26.421 8.58728 28 10.6759 28 13.1302V13.4959C28 13.507 27.9889 13.518 27.9778 13.518H21.2022C21.241 13.8227 21.2631 14.1385 21.2631 14.4543V14.8311C21.2631 16.4599 19.9446 17.7784 18.3158 17.7784H9.72849C8.09968 17.7784 6.78112 16.4599 6.78112 14.8311V14.4543C6.78112 14.1385 6.80328 13.8227 6.84206 13.518H0.0221004C0.0110207 13.518 -5.91278e-05 13.507 -5.91278e-05 13.4959V13.1302C0.0110207 10.6704 1.58443 8.58174 3.78388 7.82273ZM7.92794 5.20223C7.92794 3.92799 6.89192 2.89197 5.61768 2.89197C4.34344 2.89197 3.30743 3.92799 3.30743 5.20223C3.30743 6.45985 4.32128 7.48478 5.57336 7.51248C5.58998 7.51248 5.60106 7.51248 5.61768 7.51248C5.6343 7.51248 5.64538 7.51248 5.662 7.51248C6.91962 7.49032 7.92794 6.46539 7.92794 5.20223ZM17.2022 4.04987C17.2022 2.30471 15.7839 0.886428 14.0388 0.886428C12.2936 0.886428 10.8753 2.30471 10.8753 4.04987C10.8753 5.73408 12.1994 7.11359 13.8559 7.20777C13.9169 7.20777 13.9778 7.20777 14.0388 7.20777C14.0997 7.20777 14.1606 7.20777 14.2216 7.20777C15.8781 7.11359 17.2022 5.73408 17.2022 4.04987ZM24.7147 5.20223C24.7147 3.92799 23.6787 2.89197 22.4044 2.89197C21.1302 2.89197 20.0942 3.92799 20.0942 5.20223C20.0942 6.45985 21.108 7.48478 22.3601 7.51248C22.3767 7.51248 22.3878 7.51248 22.4044 7.51248C22.421 7.51248 22.4321 7.51248 22.4487 7.51248C23.7008 7.49032 24.7147 6.46539 24.7147 5.20223ZM21.0471 12.6261H27.1025C26.8532 10.2659 24.8587 8.41553 22.4377 8.39891C22.4266 8.39891 22.4155 8.39891 22.4044 8.39891C22.3933 8.39891 22.3823 8.39891 22.3712 8.39891C21.2188 8.40445 20.1662 8.83104 19.3518 9.52357C20.1496 10.3878 20.7424 11.4515 21.0471 12.6261ZM7.67863 14.8311C7.67863 15.9668 8.60384 16.892 9.73957 16.892H18.3268C19.4626 16.892 20.3878 15.9668 20.3878 14.8311V14.4543C20.3878 11.0139 17.6399 8.19946 14.2216 8.09974C14.1606 8.10528 14.0942 8.10528 14.0332 8.10528C13.9723 8.10528 13.9058 8.10528 13.8448 8.09974C10.4266 8.19946 7.67863 11.0139 7.67863 14.4543V14.8311ZM7.01935 12.6261C7.32405 11.4571 7.90578 10.41 8.69802 9.54573C7.87807 8.83658 6.81436 8.40999 5.65092 8.39891C5.63984 8.39891 5.62876 8.39891 5.61768 8.39891C5.6066 8.39891 5.59552 8.39891 5.58444 8.39891C3.16338 8.41553 1.16892 10.2659 0.919611 12.6261H7.01935Z" fill="#001534"/>
</svg>
