<svg width="31" height="26" viewBox="0 0 31 26" fill="none" xmlns="http://www.w3.org/2000/svg">
<path d="M15.5499 25.3301C15.1555 25.331 14.7648 25.2541 14.4004 25.1037C14.0359 24.9532 13.7048 24.7323 13.4261 24.4535L3.15604 14.1942C2.34474 13.3749 1.70476 12.4026 1.27338 11.3338C0.841991 10.265 0.627829 9.12113 0.643367 7.96884C0.651184 6.91287 0.867472 5.8688 1.27984 4.89646C1.69221 3.92411 2.29256 3.04259 3.0465 2.30239C3.80045 1.56218 4.69317 0.977841 5.67353 0.582829C6.65389 0.187816 7.70264 -0.010103 8.75969 0.00040729C9.83566 -0.0104197 10.9029 0.194714 11.898 0.603641C12.8931 1.01257 13.7959 1.61696 14.5528 2.38098L15.5499 3.37703L16.3675 2.56027C17.7793 1.11257 19.6684 0.22503 21.6851 0.0620375C23.7017 -0.100955 25.7091 0.471644 27.3355 1.67378C28.2613 2.38601 29.0246 3.2871 29.5746 4.31707C30.1245 5.34703 30.4485 6.48222 30.5249 7.64704C30.6013 8.81185 30.4284 9.97957 30.0177 11.0724C29.607 12.1653 28.968 13.1582 28.1431 13.985L17.6737 24.4535C17.395 24.7323 17.0639 24.9532 16.6994 25.1037C16.3349 25.2541 15.9442 25.331 15.5499 25.3301ZM8.71981 1.98256C7.13495 1.98094 5.61164 2.59535 4.4722 3.69577C3.89129 4.2541 3.42933 4.92395 3.11406 5.6651C2.79878 6.40625 2.6367 7.2034 2.63755 8.00868C2.62881 8.89449 2.79617 9.77322 3.12993 10.5939C3.46369 11.4146 3.95721 12.161 4.58188 12.7897L14.8519 23.0491C14.9446 23.1425 15.0549 23.2166 15.1764 23.2671C15.2979 23.3177 15.4282 23.3437 15.5599 23.3437C15.6915 23.3437 15.8218 23.3177 15.9433 23.2671C16.0648 23.2166 16.1751 23.1425 16.2678 23.0491L26.7472 12.5706C27.3623 11.9431 27.8376 11.1927 28.1418 10.3687C28.4459 9.54472 28.5721 8.66575 28.5121 7.78955C28.4588 6.90437 28.2147 6.04114 27.7966 5.25893C27.3784 4.47672 26.7959 3.794 26.0891 3.2575C24.8489 2.34402 23.3185 1.91209 21.7831 2.0422C20.2477 2.17231 18.812 2.85557 17.7435 3.9647L16.2578 5.48867C16.1651 5.58203 16.0548 5.65613 15.9333 5.70669C15.8118 5.75726 15.6815 5.7833 15.5499 5.7833C15.4183 5.7833 15.2879 5.75726 15.1664 5.70669C15.0449 5.65613 14.9346 5.58203 14.8419 5.48867L13.1469 3.79537C11.9794 2.63923 10.4036 1.9881 8.75969 1.98256H8.71981Z" fill="#101820"/>
</svg>
