<svg width="33" height="33" viewBox="0 0 33 33" fill="none" xmlns="http://www.w3.org/2000/svg">
<path d="M29.9062 0H3.09375C1.3851 0 0 1.3851 0 3.09375V29.9062C0 31.6149 1.3851 33 3.09375 33H29.9062C31.6149 33 33 31.6149 33 29.9062V3.09375C33 1.3851 31.6149 0 29.9062 0ZM30.9375 29.9062C30.9375 30.4758 30.4758 30.9375 29.9062 30.9375H3.09375C2.52418 30.9375 2.0625 30.4758 2.0625 29.9062V3.09375C2.0625 2.52418 2.52418 2.0625 3.09375 2.0625H29.9062C30.4758 2.0625 30.9375 2.52418 30.9375 3.09375V29.9062Z" fill="#001534" fill-opacity="0.15"/>
<path d="M22.3857 17.8306C21.9834 17.4307 21.3339 17.4307 20.9316 17.8306L18.5597 20.2025L14.1357 15.7784C13.7334 15.3785 13.0839 15.3785 12.6816 15.7784L5.46286 22.9972C5.06415 23.4039 5.07053 24.0568 5.47723 24.4555C5.6664 24.641 5.91977 24.7466 6.18473 24.7503H26.8097C27.3792 24.7536 27.8436 24.2946 27.847 23.725C27.8486 23.448 27.7386 23.182 27.5419 22.9869L22.3857 17.8306Z" fill="#001534" fill-opacity="0.15"/>
<path d="M19.5938 14.4375C21.3024 14.4375 22.6875 13.0524 22.6875 11.3438C22.6875 9.63512 21.3024 8.25 19.5938 8.25C17.8851 8.25 16.5 9.63512 16.5 11.3438C16.5 13.0524 17.8851 14.4375 19.5938 14.4375Z" fill="#001534" fill-opacity="0.15"/>
</svg>
