<svg width="52" height="51" viewBox="0 0 52 51" fill="none" xmlns="http://www.w3.org/2000/svg">
<path d="M35.2966 16.4528V24.2859C35.2966 24.5213 35.3902 24.7471 35.5567 24.9137C35.7232 25.0802 35.949 25.1737 36.1845 25.1737C36.4199 25.1737 36.6458 25.0802 36.8123 24.9137C36.9788 24.7471 37.0723 24.5213 37.0723 24.2859V16.4528C37.0705 14.9812 36.4851 13.5704 35.4446 12.5298C34.404 11.4892 32.9932 10.9038 31.5216 10.902H30.6269C31.5396 10.028 32.1698 8.90087 32.4364 7.66566C32.703 6.43045 32.5938 5.14372 32.1228 3.9711C31.6519 2.79848 30.8408 1.79364 29.7939 1.08592C28.7471 0.3782 27.5123 0 26.2487 0C24.985 0 23.7503 0.3782 22.7034 1.08592C21.6565 1.79364 20.8454 2.79848 20.3745 3.9711C19.9036 5.14372 19.7944 6.43045 20.061 7.66566C20.3276 8.90087 20.9578 10.028 21.8704 10.902H20.9758C19.5042 10.9038 18.0934 11.4892 17.0528 12.5298C16.0122 13.5704 15.4268 14.9812 15.425 16.4528V24.2859C15.425 24.5213 15.5186 24.7471 15.6851 24.9137C15.8516 25.0802 16.0774 25.1737 16.3129 25.1737C16.5484 25.1737 16.7742 25.0802 16.9407 24.9137C17.1072 24.7471 17.2007 24.5213 17.2007 24.2859V16.4528C17.2021 15.4521 17.6003 14.4929 18.308 13.7855C19.0157 13.0781 19.9752 12.6803 20.9758 12.6794H31.5216C32.5222 12.6803 33.4816 13.0781 34.1893 13.7855C34.8971 14.4929 35.2953 15.4521 35.2966 16.4528ZM21.6959 6.34925C21.6959 5.4488 21.9629 4.56857 22.4632 3.81987C22.9635 3.07117 23.6745 2.48763 24.5064 2.14304C25.3383 1.79845 26.2537 1.70829 27.1369 1.88396C28.02 2.05963 28.8313 2.49324 29.468 3.12996C30.1047 3.76667 30.5383 4.5779 30.714 5.46105C30.8896 6.3442 30.7995 7.25961 30.4549 8.09152C30.1103 8.92343 29.5268 9.63448 28.7781 10.1347C28.0294 10.635 27.1491 10.902 26.2487 10.902C25.0416 10.9007 23.8844 10.4206 23.0309 9.56706C22.1774 8.71354 21.6973 7.55631 21.6959 6.34925Z" fill="black"/>
<path d="M30.4014 16.4341V23.847C30.4014 24.0825 30.4949 24.3083 30.6614 24.4748C30.8279 24.6413 31.0537 24.7349 31.2892 24.7349C31.5247 24.7349 31.7505 24.6413 31.917 24.4748C32.0835 24.3083 32.1771 24.0825 32.1771 23.847V16.4341C32.1771 16.1987 32.0835 15.9728 31.917 15.8063C31.7505 15.6398 31.5247 15.5463 31.2892 15.5463C31.0537 15.5463 30.8279 15.6398 30.6614 15.8063C30.4949 15.9728 30.4014 16.1987 30.4014 16.4341Z" fill="black"/>
<path d="M22.0905 23.847V16.4341C22.0957 16.3142 22.0766 16.1944 22.0343 16.082C21.992 15.9696 21.9274 15.8669 21.8444 15.7802C21.7613 15.6935 21.6616 15.6244 21.5512 15.5773C21.4407 15.5301 21.3219 15.5058 21.2018 15.5058C21.0817 15.5058 20.9629 15.5301 20.8524 15.5773C20.742 15.6244 20.6423 15.6935 20.5592 15.7802C20.4762 15.8669 20.4116 15.9696 20.3693 16.082C20.327 16.1944 20.3079 16.3142 20.3131 16.4341V23.847C20.3231 24.076 20.4211 24.2923 20.5867 24.4508C20.7522 24.6093 20.9726 24.6977 21.2018 24.6977C21.431 24.6977 21.6514 24.6093 21.8169 24.4508C21.9825 24.2923 22.0805 24.076 22.0905 23.847Z" fill="black"/>
<path d="M18.6697 32.8848H13.2138V22.6948C13.2117 21.6897 12.9535 20.7017 12.4638 19.8239C11.9741 18.9461 11.2689 18.2076 10.4147 17.6778C11.628 16.9863 12.5785 15.913 13.1183 14.625C13.6581 13.3371 13.7568 11.9068 13.3991 10.5569C13.0414 9.20694 12.2474 8.0132 11.1406 7.16153C10.0339 6.30986 8.67661 5.84807 7.28012 5.84807C5.88362 5.84807 4.52632 6.30986 3.41959 7.16153C2.31285 8.0132 1.51881 9.20694 1.16112 10.5569C0.80343 11.9068 0.902165 13.3371 1.44195 14.625C1.98174 15.913 2.93227 16.9863 4.14553 17.6778C3.29039 18.207 2.58418 18.9453 2.09355 19.8231C1.60291 20.7009 1.34404 21.6892 1.34135 22.6948V35.367C1.34315 36.7182 1.88069 38.0135 2.83611 38.9689C3.79153 39.9244 5.08685 40.4619 6.43802 40.4637H15.2352V49.4439C15.2452 49.6728 15.3432 49.8891 15.5088 50.0476C15.6743 50.2061 15.8947 50.2946 16.1239 50.2946C16.3531 50.2946 16.5734 50.2061 16.739 50.0476C16.9046 49.8891 17.0026 49.6728 17.0126 49.4439V39.5775C17.0126 39.3419 16.9191 39.1159 16.7526 38.9491C16.5862 38.7824 16.3604 38.6884 16.1247 38.688H6.44479C5.56461 38.6875 4.7206 38.3377 4.09821 37.7153C3.47583 37.0929 3.12597 36.2489 3.12552 35.3687V22.6948C3.12552 21.5925 3.56342 20.5354 4.34287 19.7559C5.12233 18.9764 6.1795 18.5386 7.28181 18.5386C8.38413 18.5386 9.4413 18.9764 10.2208 19.7559C11.0002 20.5354 11.4381 21.5925 11.4381 22.6948V33.7726C11.4379 33.8894 11.4607 34.005 11.5052 34.1129C11.5497 34.2208 11.6151 34.3189 11.6975 34.4015C11.78 34.4841 11.878 34.5497 11.9858 34.5944C12.0936 34.6392 12.2092 34.6622 12.326 34.6622H18.6697C19.2224 34.6626 19.7524 34.8823 20.1434 35.273C20.5344 35.6637 20.7545 36.1935 20.7554 36.7462V49.4422C20.7554 49.6776 20.849 49.9035 21.0155 50.07C21.182 50.2365 21.4078 50.33 21.6433 50.33C21.8788 50.33 22.1046 50.2365 22.2711 50.07C22.4376 49.9035 22.5311 49.6776 22.5311 49.4422V36.7462C22.5298 35.7225 22.1225 34.7411 21.3987 34.0173C20.6748 33.2934 19.6934 32.8861 18.6697 32.8848ZM2.73074 12.2135C2.73074 11.313 2.99775 10.4328 3.49802 9.68408C3.99828 8.93538 4.70933 8.35185 5.54124 8.00726C6.37315 7.66267 7.28856 7.57251 8.17171 7.74818C9.05486 7.92385 9.86609 8.35746 10.5028 8.99417C11.1395 9.63089 11.5731 10.4421 11.7488 11.3253C11.9245 12.2084 11.8343 13.1238 11.4897 13.9557C11.1451 14.7876 10.5616 15.4987 9.81289 15.999C9.06419 16.4992 8.18396 16.7662 7.28351 16.7662C6.07586 16.7649 4.91812 16.2843 4.0645 15.4301C3.21089 14.5758 2.73118 13.4177 2.73074 12.2101V12.2135Z" fill="black"/>
<path d="M48.3448 17.6761C49.5576 16.9846 50.5077 15.9115 51.0471 14.624C51.5866 13.3364 51.6852 11.9065 51.3275 10.5571C50.9698 9.20763 50.176 8.01433 49.0696 7.16298C47.9631 6.31163 46.6063 5.85001 45.2102 5.85001C43.8142 5.85001 42.4573 6.31163 41.3509 7.16298C40.2445 8.01433 39.4507 9.20763 39.093 10.5571C38.7353 11.9065 38.8339 13.3364 39.3734 14.624C39.9128 15.9115 40.8629 16.9846 42.0757 17.6761C41.2215 18.2059 40.5163 18.9445 40.0265 19.8222C39.5368 20.7 39.2787 21.688 39.2766 22.6931V32.8848H33.8207C32.797 32.8861 31.8156 33.2934 31.0917 34.0173C30.3678 34.7411 29.9606 35.7225 29.9592 36.7462V49.4422C29.9592 49.6776 30.0528 49.9035 30.2193 50.07C30.3858 50.2365 30.6116 50.33 30.8471 50.33C31.0826 50.33 31.3084 50.2365 31.4749 50.07C31.6414 49.9035 31.7349 49.6776 31.7349 49.4422V36.7462C31.7356 36.4721 31.7903 36.2008 31.8958 35.9478C32.0013 35.6948 32.1556 35.465 32.3499 35.2717C32.5442 35.0783 32.7747 34.9251 33.0283 34.8208C33.2818 34.7165 33.5533 34.6632 33.8275 34.6639H40.1712C40.2879 34.6639 40.4035 34.6408 40.5114 34.5961C40.6192 34.5514 40.7171 34.4858 40.7996 34.4032C40.8821 34.3206 40.9474 34.2225 40.9919 34.1146C41.0365 34.0067 41.0593 33.8911 41.059 33.7743V22.6948C41.059 21.5925 41.4969 20.5353 42.2764 19.7559C43.0558 18.9764 44.113 18.5385 45.2153 18.5385C46.3176 18.5385 47.3748 18.9764 48.1543 19.7559C48.9337 20.5353 49.3716 21.5925 49.3716 22.6948V35.367C49.3712 36.2472 49.0213 37.0912 48.3989 37.7136C47.7765 38.336 46.9325 38.6858 46.0524 38.6863H36.3656C36.13 38.6867 35.9042 38.7807 35.7377 38.9474C35.5713 39.1142 35.4778 39.3402 35.4778 39.5758V49.4422C35.4878 49.6711 35.5858 49.8874 35.7514 50.0459C35.9169 50.2044 36.1373 50.2929 36.3665 50.2929C36.5957 50.2929 36.816 50.2044 36.9816 50.0459C37.1472 49.8874 37.2452 49.6711 37.2552 49.4422V40.462H46.0524C47.4044 40.462 48.7012 39.9255 49.658 38.9702C50.6149 38.015 51.1535 36.7191 51.1558 35.367V22.6948C51.1527 21.6883 50.8929 20.6992 50.401 19.821C49.9092 18.9428 49.2015 18.2046 48.3448 17.6761ZM40.6609 12.2101C40.6609 11.3096 40.9279 10.4294 41.4281 9.68069C41.9284 8.93199 42.6395 8.34845 43.4714 8.00386C44.3033 7.65928 45.2187 7.56912 46.1018 7.74479C46.985 7.92046 47.7962 8.35407 48.4329 8.99078C49.0697 9.6275 49.5033 10.4387 49.6789 11.3219C49.8546 12.205 49.7644 13.1204 49.4198 13.9523C49.0753 14.7843 48.4917 15.4953 47.743 15.9956C46.9943 16.4958 46.1141 16.7628 45.2136 16.7628C44.0066 16.7615 42.8493 16.2814 41.9958 15.4279C41.1423 14.5744 40.6622 13.4171 40.6609 12.2101Z" fill="black"/>
</svg>
