<svg width="43" height="43" viewBox="0 0 43 43" fill="none" xmlns="http://www.w3.org/2000/svg">
<g clip-path="url(#clip0)">
<path d="M21.5 43C33.3741 43 43 33.3741 43 21.5C43 9.62588 33.3741 0 21.5 0C9.62588 0 0 9.62588 0 21.5C0 33.3741 9.62588 43 21.5 43Z" fill="#27273D"/>
<path d="M41.6679 14.0355H1.33105C4.36709 5.84027 12.2499 0 21.4999 0C30.7499 0 38.6327 5.84027 41.6679 14.0355Z" fill="#E88032"/>
<path d="M41.6672 28.9641H1.33038C-0.44867 24.147 -0.44867 18.8529 1.33038 14.0359H41.6672C41.9665 14.8433 42.2164 15.6681 42.4155 16.5059C43.3968 20.6418 43.1365 24.9753 41.6672 28.9641Z" fill="white"/>
<path d="M21.4999 43.0004C17.107 43.0005 12.8193 41.6555 9.21361 39.1461C5.6079 36.6368 2.85707 33.0835 1.33105 28.9641H41.6679C41.3555 29.8099 40.9894 30.6349 40.5719 31.4341C38.7548 34.9219 36.0159 37.8446 32.6531 39.8839C29.2904 41.9233 25.4327 43.0012 21.4999 43.0004Z" fill="#00B564"/>
<path d="M24.3134 0.182246C16.3029 1.22953 9.67994 6.68516 6.95801 14.0397H1.33105C4.36709 5.84027 12.2499 2.59732e-07 21.4999 2.59732e-07C22.4407 -0.00014511 23.3805 0.0607314 24.3134 0.182246Z" fill="#D8712B"/>
<path d="M5.62618 21.5004C5.62323 24.0476 6.07399 26.575 6.95734 28.9641H1.33038C-0.44867 24.147 -0.44867 18.8529 1.33038 14.0359H6.95734C6.65977 14.8434 6.41156 15.6682 6.21407 16.5059C5.82353 18.142 5.62621 19.8183 5.62618 21.5004Z" fill="#E2E2E2"/>
<path d="M24.3134 42.8182C23.3805 42.9397 22.4407 43.0006 21.4999 43.0004C17.107 43.0005 12.8193 41.6555 9.21361 39.1461C5.6079 36.6368 2.85707 33.0835 1.33105 28.9641H6.95801C8.31684 32.634 10.651 35.8638 13.7092 38.3056C16.7674 40.7474 20.4337 42.3087 24.3134 42.8215V42.8182Z" fill="#049B53"/>
<path d="M34.2686 9.46793C35.0238 9.46793 35.6359 8.85578 35.6359 8.10066C35.6359 7.34554 35.0238 6.7334 34.2686 6.7334C33.5135 6.7334 32.9014 7.34554 32.9014 8.10066C32.9014 8.85578 33.5135 9.46793 34.2686 9.46793Z" fill="#EF9050"/>
<path d="M32.2574 7.05533C32.7922 7.05533 33.2257 6.62179 33.2257 6.08699C33.2257 5.55219 32.7922 5.11865 32.2574 5.11865C31.7226 5.11865 31.2891 5.55219 31.2891 6.08699C31.2891 6.62179 31.7226 7.05533 32.2574 7.05533Z" fill="#EF9050"/>
<path d="M21.497 28.2067C25.2012 28.2067 28.204 25.2039 28.204 21.4997C28.204 17.7955 25.2012 14.7927 21.497 14.7927C17.7929 14.7927 14.79 17.7955 14.79 21.4997C14.79 25.2039 17.7929 28.2067 21.497 28.2067Z" fill="#3E436D"/>
<path d="M26.7811 20.9548L26.4678 20.885C26.4678 20.8598 26.4619 20.8347 26.4586 20.8103L26.7425 20.6608C26.7906 20.636 26.8287 20.5955 26.8505 20.546C26.8724 20.4964 26.8766 20.4409 26.8626 20.3887L26.7005 19.7823C26.6864 19.73 26.655 19.6841 26.6113 19.652C26.5676 19.62 26.5144 19.6037 26.4603 19.606L26.1403 19.6194C26.1311 19.5959 26.1218 19.5724 26.1117 19.5489L26.3469 19.333C26.3869 19.2966 26.4132 19.2475 26.4215 19.194C26.4297 19.1406 26.4194 19.0859 26.3922 19.0391L26.0781 18.4948C26.0512 18.448 26.009 18.4118 25.9585 18.3922C25.9081 18.3726 25.8525 18.3709 25.801 18.3873L25.4953 18.4831C25.4802 18.4629 25.4642 18.4436 25.4491 18.4243L25.6213 18.153C25.6503 18.1072 25.6629 18.0529 25.6569 17.999C25.651 17.9452 25.6269 17.8949 25.5885 17.8566L25.1451 17.4131C25.1067 17.3748 25.0565 17.3506 25.0026 17.3447C24.9487 17.3387 24.8944 17.3513 24.8486 17.3804L24.5773 17.5534L24.5186 17.5072L24.6143 17.2015C24.6307 17.15 24.629 17.0944 24.6094 17.0439C24.5899 16.9935 24.5537 16.9513 24.5068 16.9243L23.9626 16.6102C23.9158 16.5831 23.8611 16.5728 23.8076 16.581C23.7541 16.5893 23.7051 16.6156 23.6686 16.6556L23.4528 16.8907L23.3822 16.8622L23.3957 16.5422C23.3979 16.4881 23.3817 16.4348 23.3496 16.3912C23.3176 16.3475 23.2716 16.3161 23.2193 16.302L22.6129 16.1399C22.5608 16.1261 22.5055 16.1304 22.4562 16.1522C22.4069 16.1741 22.3665 16.2121 22.3417 16.26L22.1922 16.5456L22.1174 16.5363L22.0477 16.2231C22.0362 16.1702 22.0069 16.1228 21.9648 16.0889C21.9226 16.055 21.8701 16.0365 21.8159 16.0366H21.1877C21.1336 16.0365 21.0811 16.055 21.0389 16.0889C20.9967 16.1228 20.9675 16.1702 20.9559 16.2231L20.8862 16.5363L20.8115 16.5456L20.662 16.26C20.6372 16.2119 20.5966 16.1738 20.5471 16.1519C20.4976 16.1301 20.4421 16.1258 20.3899 16.1399L19.7835 16.302C19.7312 16.3161 19.6853 16.3475 19.6532 16.3912C19.6212 16.4348 19.6049 16.4881 19.6071 16.5422L19.6206 16.8622L19.55 16.8907L19.3342 16.6556C19.2978 16.6156 19.2487 16.5893 19.1952 16.581C19.1418 16.5728 19.0871 16.5831 19.0403 16.6102L18.496 16.9243C18.4492 16.9513 18.4129 16.9935 18.3934 17.0439C18.3738 17.0944 18.3721 17.15 18.3885 17.2015L18.4843 17.5072L18.4255 17.5534L18.1551 17.3854C18.1093 17.3564 18.055 17.3438 18.0011 17.3497C17.9472 17.3557 17.8969 17.3798 17.8586 17.4182L17.4152 17.8616C17.3768 17.8999 17.3527 17.9502 17.3467 18.0041C17.3408 18.058 17.3534 18.1123 17.3824 18.1581L17.5546 18.4293C17.5395 18.4487 17.5235 18.468 17.5084 18.4881L17.2027 18.3924C17.1511 18.376 17.0956 18.3777 17.0451 18.3972C16.9947 18.4168 16.9525 18.453 16.9255 18.4999L16.6114 19.0441C16.5843 19.0909 16.574 19.1456 16.5822 19.1991C16.5905 19.2526 16.6168 19.3016 16.6568 19.3381L16.8919 19.5539C16.8819 19.5774 16.8726 19.6009 16.8634 19.6244L16.5434 19.611C16.4893 19.6088 16.436 19.625 16.3924 19.6571C16.3487 19.6891 16.3173 19.7351 16.3032 19.7874L16.1411 20.3937C16.1283 20.4453 16.1332 20.4996 16.1549 20.5481C16.1767 20.5965 16.2141 20.6362 16.2612 20.6608L16.5451 20.8095C16.5451 20.8338 16.5392 20.859 16.5358 20.8842L16.2226 20.9539C16.1697 20.9654 16.1223 20.9947 16.0884 21.0369C16.0545 21.0791 16.036 21.1316 16.0361 21.1857V21.8139C16.036 21.868 16.0545 21.9206 16.0884 21.9627C16.1223 22.0049 16.1697 22.0342 16.2226 22.0457L16.5358 22.1154C16.5358 22.1406 16.5417 22.1658 16.5451 22.1902L16.2612 22.3405C16.2131 22.3653 16.175 22.4058 16.1531 22.4553C16.1313 22.5049 16.127 22.5604 16.1411 22.6126L16.3032 23.219C16.3173 23.2713 16.3487 23.3172 16.3924 23.3493C16.436 23.3813 16.4893 23.3976 16.5434 23.3953L16.8634 23.3819C16.8726 23.4054 16.8819 23.4289 16.8919 23.4524L16.6568 23.6683C16.6168 23.7047 16.5905 23.7538 16.5822 23.8073C16.574 23.8607 16.5843 23.9154 16.6114 23.9622L16.9255 24.5065C16.9525 24.5533 16.9947 24.5895 17.0451 24.6091C17.0956 24.6287 17.1511 24.6304 17.2027 24.614L17.5084 24.5182C17.5235 24.5384 17.5395 24.5577 17.5546 24.577L17.3866 24.8474C17.3576 24.8932 17.345 24.9475 17.3509 25.0014C17.3569 25.0553 17.381 25.1056 17.4194 25.1439L17.8628 25.5873C17.9011 25.6257 17.9514 25.6498 18.0053 25.6558C18.0592 25.6617 18.1135 25.6491 18.1593 25.6201L18.4305 25.4479L18.4893 25.4941L18.3936 25.7998C18.3772 25.8513 18.3789 25.9069 18.3984 25.9574C18.418 26.0078 18.4542 26.05 18.5011 26.077L19.0453 26.3911C19.0921 26.4182 19.1468 26.4285 19.2003 26.4203C19.2538 26.412 19.3028 26.3857 19.3392 26.3457L19.5551 26.1106L19.6256 26.1391L19.6122 26.4591C19.6099 26.5132 19.6262 26.5665 19.6582 26.6101C19.6903 26.6538 19.7363 26.6852 19.7886 26.6993L20.3949 26.8614C20.4465 26.8742 20.5008 26.8693 20.5492 26.8476C20.5977 26.8258 20.6374 26.7883 20.662 26.7413L20.8106 26.4574L20.8854 26.4667L20.9551 26.7799C20.9666 26.8328 20.9959 26.8801 21.0381 26.9141C21.0802 26.948 21.1328 26.9664 21.1869 26.9664H21.8151C21.8692 26.9664 21.9217 26.948 21.9639 26.9141C22.0061 26.8801 22.0354 26.8328 22.0469 26.7799L22.1166 26.4667L22.1913 26.4574L22.3417 26.7413C22.3665 26.7894 22.407 26.8275 22.4565 26.8494C22.506 26.8712 22.5615 26.8755 22.6138 26.8614L23.2202 26.6993C23.2725 26.6852 23.3184 26.6538 23.3505 26.6101C23.3825 26.5665 23.3988 26.5132 23.3965 26.4591L23.3831 26.1391L23.4536 26.1106L23.6695 26.3457C23.7059 26.3857 23.755 26.412 23.8084 26.4203C23.8619 26.4285 23.9166 26.4182 23.9634 26.3911L24.5076 26.077C24.5545 26.05 24.5907 26.0078 24.6103 25.9574C24.6298 25.9069 24.6316 25.8513 24.6151 25.7998L24.5194 25.4941L24.5782 25.4479L24.8494 25.6201C24.8952 25.6491 24.9495 25.6617 25.0034 25.6558C25.0573 25.6498 25.1076 25.6257 25.1459 25.5873L25.5894 25.1439C25.6277 25.1056 25.6518 25.0553 25.6578 25.0014C25.6637 24.9475 25.6512 24.8932 25.6221 24.8474L25.4491 24.5762C25.4642 24.5568 25.4802 24.5375 25.4953 24.5174L25.801 24.6131C25.8525 24.6295 25.9081 24.6278 25.9585 24.6083C26.009 24.5887 26.0512 24.5525 26.0781 24.5056L26.3922 23.9614C26.4194 23.9146 26.4297 23.8599 26.4215 23.8064C26.4132 23.7529 26.3869 23.7039 26.3469 23.6674L26.1117 23.4516C26.1218 23.4281 26.1311 23.4046 26.1403 23.3811L26.4603 23.3945C26.5144 23.3967 26.5676 23.3805 26.6113 23.3484C26.655 23.3164 26.6864 23.2704 26.7005 23.2181L26.8626 22.6118C26.8764 22.5596 26.8721 22.5043 26.8502 22.455C26.8284 22.4057 26.7904 22.3653 26.7425 22.3405L26.4569 22.191C26.4569 22.1666 26.4628 22.1415 26.4661 22.1163L26.7794 22.0466C26.8323 22.035 26.8796 22.0058 26.9136 21.9636C26.9475 21.9214 26.9659 21.8689 26.9659 21.8148V21.1865C26.966 21.1327 26.9478 21.0803 26.9142 21.0382C26.8806 20.996 26.8337 20.9666 26.7811 20.9548Z" fill="white"/>
<path d="M22.5289 21.4995C22.5305 21.519 22.5305 21.5387 22.5289 21.5583C22.5273 21.6123 22.5206 21.666 22.5087 21.7187C22.4923 21.795 22.4669 21.8692 22.4331 21.9396C22.4055 21.9985 22.3723 22.0548 22.334 22.1075C22.2881 22.1694 22.2351 22.2258 22.1761 22.2755C22.1383 22.3093 22.0976 22.3397 22.0544 22.3662C21.9887 22.4084 21.9182 22.4425 21.8444 22.4678C21.7711 22.4952 21.6946 22.513 21.6168 22.5207C21.5399 22.5308 21.4619 22.5308 21.385 22.5207C21.3238 22.5146 21.2633 22.5025 21.2044 22.4846C21.1297 22.4629 21.0581 22.4319 20.9911 22.3922C20.9407 22.3641 20.893 22.3315 20.8483 22.2948C20.7875 22.2458 20.733 22.1894 20.6863 22.1268C20.6437 22.0751 20.6071 22.0187 20.5771 21.9589C20.542 21.8891 20.5157 21.8151 20.499 21.7388C20.4839 21.68 20.4752 21.6198 20.4729 21.5591C20.4713 21.5395 20.4713 21.5199 20.4729 21.5003C20.4732 21.4418 20.4783 21.3834 20.4881 21.3256C20.4961 21.2732 20.5094 21.2218 20.5275 21.1719C20.5512 21.0977 20.5846 21.0268 20.6266 20.9611C20.6549 20.9125 20.6881 20.8669 20.7257 20.8251C20.7767 20.7659 20.8345 20.7129 20.8979 20.6672C21.0184 20.5797 21.1561 20.5188 21.3019 20.4883C21.3313 20.4833 21.359 20.4791 21.3858 20.4757C21.4127 20.4724 21.4623 20.469 21.5017 20.469C21.5412 20.469 21.5798 20.469 21.6176 20.4757C21.6639 20.4799 21.7098 20.4883 21.7545 20.5009C21.8307 20.5193 21.9041 20.5475 21.9729 20.5849C22.0292 20.6131 22.0825 20.6471 22.1316 20.6865C22.1946 20.7327 22.2511 20.7873 22.2996 20.8486C22.3348 20.8887 22.3657 20.9323 22.392 20.9788C22.432 21.0455 22.4639 21.1169 22.4869 21.1913C22.5013 21.2354 22.5123 21.2806 22.5196 21.3265C22.5273 21.3838 22.5304 21.4417 22.5289 21.4995Z" fill="#3E436D"/>
<path d="M22.5289 21.4995C22.5305 21.519 22.5305 21.5387 22.5289 21.5583C22.5273 21.6123 22.5206 21.666 22.5087 21.7187C22.4923 21.795 22.4669 21.8692 22.4331 21.9396C22.4055 21.9985 22.3723 22.0548 22.334 22.1075C22.2881 22.1694 22.2351 22.2258 22.1761 22.2755C22.1383 22.3093 22.0976 22.3397 22.0544 22.3662C21.9887 22.4084 21.9182 22.4425 21.8444 22.4678C21.7711 22.4952 21.6946 22.513 21.6168 22.5207C21.5399 22.5308 21.4619 22.5308 21.385 22.5207C21.3238 22.5146 21.2633 22.5025 21.2044 22.4846C21.1297 22.4629 21.0581 22.4319 20.9911 22.3922C20.9407 22.3641 20.893 22.3315 20.8483 22.2948C20.7875 22.2458 20.733 22.1894 20.6863 22.1268C20.6437 22.0751 20.6071 22.0187 20.5771 21.9589C20.542 21.8891 20.5157 21.8151 20.499 21.7388C20.4839 21.68 20.4752 21.6198 20.4729 21.5591C20.4713 21.5395 20.4713 21.5199 20.4729 21.5003C20.4732 21.4418 20.4783 21.3834 20.4881 21.3256C20.4961 21.2732 20.5094 21.2218 20.5275 21.1719C20.5512 21.0977 20.5846 21.0268 20.6266 20.9611C20.6549 20.9125 20.6881 20.8669 20.7257 20.8251C20.7767 20.7659 20.8345 20.7129 20.8979 20.6672C21.0184 20.5797 21.1561 20.5188 21.3019 20.4883C21.3313 20.4833 21.359 20.4791 21.3858 20.4757C21.4127 20.4724 21.4623 20.469 21.5017 20.469C21.5412 20.469 21.5798 20.469 21.6176 20.4757C21.6639 20.4799 21.7098 20.4883 21.7545 20.5009C21.8307 20.5193 21.9041 20.5475 21.9729 20.5849C22.0292 20.6131 22.0825 20.6471 22.1316 20.6865C22.1946 20.7327 22.2511 20.7873 22.2996 20.8486C22.3348 20.8887 22.3657 20.9323 22.392 20.9788C22.432 21.0455 22.4639 21.1169 22.4869 21.1913C22.5013 21.2354 22.5123 21.2806 22.5196 21.3265C22.5273 21.3838 22.5304 21.4417 22.5289 21.4995Z" fill="#3E436D"/>
<path d="M20.0708 21.5582H17.191C17.16 21.5582 17.1303 21.5459 17.1084 21.524C17.0865 21.5021 17.0742 21.4724 17.0742 21.4414C17.0742 21.4105 17.0865 21.3808 17.1084 21.3589C17.1303 21.337 17.16 21.3247 17.191 21.3247H20.0775C20.0719 21.3828 20.0696 21.4411 20.0708 21.4994V21.5582Z" fill="#3E436D"/>
<path d="M20.2049 22.1081L17.5484 23.1789C17.5348 23.1843 17.5203 23.1871 17.5056 23.1873C17.4785 23.1874 17.4522 23.178 17.4312 23.1607C17.4103 23.1435 17.396 23.1195 17.3908 23.0928C17.3856 23.0662 17.3899 23.0386 17.4029 23.0148C17.4159 22.9909 17.4367 22.9724 17.4619 22.9623L20.1242 21.8906C20.1453 21.9652 20.1723 22.0379 20.2049 22.1081Z" fill="#3E436D"/>
<path d="M17.4476 19.8068C17.4595 19.7783 17.4821 19.7557 17.5104 19.7436C17.5388 19.7315 17.5708 19.731 17.5996 19.7421L20.2451 20.8079C20.2068 20.8758 20.1745 20.9469 20.1485 21.0204L17.5131 19.9588C17.4843 19.9472 17.4613 19.9248 17.4491 19.8963C17.4368 19.8678 17.4363 19.8357 17.4476 19.8068Z" fill="#3E436D"/>
<path d="M20.5616 22.5827L18.5141 24.6285C18.5032 24.6397 18.4901 24.6486 18.4757 24.6547C18.4612 24.6607 18.4457 24.6638 18.4301 24.6638C18.4069 24.6638 18.3843 24.657 18.365 24.6442C18.3457 24.6313 18.3306 24.6131 18.3217 24.5918C18.3127 24.5704 18.3102 24.5469 18.3146 24.5241C18.3189 24.5014 18.3299 24.4804 18.3461 24.4639L20.3945 22.4155C20.4454 22.4759 20.5013 22.5318 20.5616 22.5827Z" fill="#3E436D"/>
<path d="M18.3909 18.4935C18.3794 18.4827 18.3703 18.4697 18.364 18.4553C18.3577 18.4408 18.3545 18.4253 18.3545 18.4095C18.3545 18.3938 18.3577 18.3782 18.364 18.3637C18.3703 18.3493 18.3794 18.3363 18.3909 18.3255C18.4127 18.304 18.4422 18.292 18.4728 18.292C18.5034 18.292 18.5328 18.304 18.5547 18.3255L20.6056 20.3764C20.5454 20.4251 20.4893 20.4784 20.4376 20.536L18.3909 18.4935Z" fill="#3E436D"/>
<path d="M20.8392 22.7693C20.9076 22.8062 20.9793 22.8366 21.0534 22.86L19.9985 25.4786C19.9896 25.5002 19.9744 25.5187 19.955 25.5317C19.9356 25.5447 19.9127 25.5516 19.8893 25.5517C19.8744 25.5513 19.8597 25.5484 19.8457 25.5433C19.8172 25.5312 19.7945 25.5084 19.7826 25.4799C19.7707 25.4513 19.7704 25.4192 19.7818 25.3904L20.8392 22.7693Z" fill="#3E436D"/>
<path d="M19.8365 17.4864C19.8293 17.472 19.8251 17.4562 19.8244 17.4401C19.8236 17.424 19.8262 17.4079 19.8319 17.3929C19.8377 17.3779 19.8466 17.3642 19.8579 17.3528C19.8693 17.3413 19.8829 17.3324 19.8979 17.3265C19.913 17.3207 19.929 17.318 19.9451 17.3187C19.9612 17.3194 19.977 17.3235 19.9915 17.3306C20.0059 17.3377 20.0187 17.3478 20.029 17.3602C20.0394 17.3725 20.047 17.3869 20.0515 17.4024L21.1433 20.1143C21.0678 20.1332 20.9942 20.1587 20.9232 20.1907L19.8365 17.4864Z" fill="#3E436D"/>
<path d="M21.4987 20.0719C21.4592 20.0719 21.4206 20.0719 21.3828 20.0761V17.1921C21.3828 17.1613 21.395 17.1319 21.4168 17.1101C21.4385 17.0884 21.468 17.0762 21.4987 17.0762C21.5294 17.0762 21.5589 17.0884 21.5807 17.1101C21.6024 17.1319 21.6146 17.1613 21.6146 17.1921V20.0719C21.5768 20.0719 21.5382 20.0719 21.4987 20.0719Z" fill="#3E436D"/>
<path d="M21.4987 22.9319C21.5382 22.9319 21.5768 22.9319 21.6146 22.9277V25.8076C21.6146 25.8383 21.6024 25.8678 21.5807 25.8895C21.5589 25.9112 21.5294 25.9235 21.4987 25.9235C21.468 25.9235 21.4385 25.9112 21.4168 25.8895C21.395 25.8678 21.3828 25.8383 21.3828 25.8076V22.9277C21.4206 22.9277 21.4592 22.9319 21.4987 22.9319Z" fill="#3E436D"/>
<path d="M22.1169 20.2091C22.0468 20.1754 21.974 20.1473 21.8994 20.1251L22.9971 17.4007C23.0015 17.385 23.0091 17.3704 23.0195 17.3579C23.0298 17.3453 23.0427 17.3351 23.0573 17.3278C23.0718 17.3205 23.0877 17.3163 23.104 17.3156C23.1203 17.3148 23.1365 17.3174 23.1517 17.3233C23.1669 17.3292 23.1806 17.3382 23.1921 17.3497C23.2036 17.3612 23.2126 17.3751 23.2185 17.3902C23.2243 17.4054 23.2269 17.4217 23.2261 17.438C23.2253 17.4542 23.2211 17.4701 23.2138 17.4847L22.1169 20.2091Z" fill="#3E436D"/>
<path d="M23.2696 25.3907C23.2755 25.405 23.2785 25.4203 23.2784 25.4358C23.2783 25.4512 23.2752 25.4665 23.2692 25.4807C23.2631 25.4949 23.2544 25.5078 23.2433 25.5186C23.2323 25.5294 23.2193 25.5379 23.2049 25.5436C23.191 25.549 23.1762 25.5518 23.1613 25.552C23.1381 25.5518 23.1155 25.5448 23.0964 25.5318C23.0773 25.5188 23.0624 25.5004 23.0538 25.4789L21.9922 22.8435C22.0652 22.8172 22.1357 22.7846 22.203 22.7461L23.2696 25.3907Z" fill="#3E436D"/>
<path d="M22.415 20.3986L24.4424 18.3712C24.4647 18.3495 24.4947 18.3375 24.5258 18.3379C24.5569 18.3383 24.5866 18.351 24.6083 18.3733C24.63 18.3956 24.642 18.4256 24.6416 18.4567C24.6412 18.4878 24.6285 18.5175 24.6062 18.5392L22.5805 20.5657C22.5302 20.5054 22.4748 20.4495 22.415 20.3986Z" fill="#3E436D"/>
<path d="M24.6469 24.4226C24.6692 24.4448 24.6817 24.4751 24.6817 24.5066C24.6817 24.5381 24.6692 24.5683 24.6469 24.5905C24.6247 24.6128 24.5945 24.6253 24.563 24.6253C24.5315 24.6253 24.5012 24.6128 24.479 24.5905L22.4541 22.5657C22.5117 22.514 22.565 22.4578 22.6137 22.3977L24.6469 24.4226Z" fill="#3E436D"/>
<path d="M22.7598 20.8281L25.4473 19.7438C25.4752 19.736 25.505 19.7389 25.531 19.7518C25.5569 19.7648 25.5771 19.787 25.5876 19.8141C25.5981 19.8411 25.5981 19.8711 25.5877 19.8982C25.5773 19.9252 25.5572 19.9475 25.5312 19.9605L22.8437 21.0422C22.8224 20.9684 22.7943 20.8967 22.7598 20.8281Z" fill="#3E436D"/>
<path d="M25.6547 23.1147C25.6459 23.1361 25.631 23.1544 25.6119 23.1673C25.5928 23.1803 25.5703 23.1874 25.5472 23.1878C25.532 23.1874 25.517 23.1846 25.5027 23.1794L22.8018 22.0876C22.8334 22.0167 22.8595 21.9434 22.8799 21.8684L25.5909 22.9602C25.6053 22.9661 25.6184 22.9748 25.6294 22.9857C25.6404 22.9967 25.6491 23.0098 25.655 23.0241C25.661 23.0385 25.664 23.0539 25.664 23.0695C25.6639 23.085 25.6608 23.1004 25.6547 23.1147Z" fill="#3E436D"/>
<path d="M25.9243 21.4407C25.9243 21.4719 25.9119 21.5018 25.8899 21.5238C25.8678 21.5459 25.8379 21.5583 25.8068 21.5583H22.9269C22.9269 21.539 22.9269 21.5188 22.9269 21.4995C22.9267 21.4411 22.9231 21.3828 22.916 21.3248H25.8026C25.8182 21.3241 25.8339 21.3266 25.8486 21.3321C25.8633 21.3376 25.8767 21.3461 25.8881 21.3569C25.8994 21.3677 25.9085 21.3807 25.9147 21.3951C25.921 21.4095 25.9242 21.425 25.9243 21.4407Z" fill="#3E436D"/>
</g>
<defs>
<clipPath id="clip0">
<rect width="43" height="43" fill="white"/>
</clipPath>
</defs>
</svg>
