<svg width="43" height="43" viewBox="0 0 43 43" fill="none" xmlns="http://www.w3.org/2000/svg">
<g clip-path="url(#clip0)">
<path d="M29.4814 21.5003H43.0003C43.0003 9.6255 33.3745 0 21.5 0C27.4371 0 29.4818 10.7498 29.4814 21.5003Z" fill="#BB2029"/>
<path d="M0 21.5003H30.4051C30.4055 10.7498 27.4367 0 21.4997 0C9.62586 0 0 9.6255 0 21.5003Z" fill="#CD2029"/>
<path d="M29.0289 21.5002C29.0289 32.25 27.4374 42.9999 21.5 42.9999C33.3746 42.9999 43.0003 33.3741 43.0003 21.5002H29.0289Z" fill="#E4E4E4"/>
<path d="M30.4051 21.5002H0C0 33.3741 9.62586 42.9999 21.4997 42.9999C27.4367 42.9999 30.4051 32.25 30.4051 21.5002Z" fill="#F3F4F5"/>
</g>
<defs>
<clipPath id="clip0">
<rect width="43" height="43" fill="white"/>
</clipPath>
</defs>
</svg>
