<svg width="31" height="30" viewBox="0 0 31 30" fill="none" xmlns="http://www.w3.org/2000/svg">
<path fill-rule="evenodd" clip-rule="evenodd" d="M15.8413 0C24.1286 0 30.8569 6.72129 30.8569 15C30.8569 23.2787 24.1286 30 15.8413 30C7.55397 30 0.825684 23.2787 0.825684 15C0.825684 6.72129 7.55397 0 15.8413 0ZM15.8413 5.625C13.2926 5.625 12.973 5.63578 11.972 5.68143C10.9731 5.72695 10.2909 5.88545 9.69388 6.11719C9.07677 6.35678 8.55339 6.67734 8.03166 7.19854C7.50992 7.71973 7.18902 8.24256 6.94918 8.85902C6.71721 9.45533 6.5586 10.1368 6.51297 11.1347C6.46734 12.1346 6.45654 12.4539 6.45654 15C6.45654 17.5461 6.46734 17.8654 6.51297 18.8653C6.5586 19.8632 6.71721 20.5447 6.94918 21.141C7.18902 21.7574 7.50992 22.2803 8.03166 22.8015C8.55339 23.3227 9.07677 23.6433 9.69388 23.8829C10.2909 24.1146 10.9731 24.273 11.972 24.3186C12.973 24.3642 13.2926 24.375 15.8413 24.375C18.39 24.375 18.7096 24.3642 19.7106 24.3186C20.7095 24.273 21.3918 24.1146 21.9887 23.8829C22.6058 23.6433 23.1292 23.3227 23.651 22.8015C24.1727 22.2803 24.4936 21.7574 24.7334 21.141C24.9654 20.5447 25.124 19.8632 25.1696 18.8653C25.2153 17.8654 25.2261 17.5461 25.2261 15C25.2261 12.4539 25.2153 12.1346 25.1696 11.1347C25.124 10.1368 24.9654 9.45533 24.7334 8.85902C24.4936 8.24256 24.1727 7.71973 23.651 7.19854C23.1292 6.67734 22.6058 6.35678 21.9887 6.11719C21.3918 5.88545 20.7095 5.72695 19.7106 5.68143C18.7096 5.63578 18.39 5.625 15.8413 5.625ZM15.8413 7.3142C18.3472 7.3142 18.644 7.32375 19.6336 7.36887C20.5486 7.41059 21.0455 7.56328 21.3762 7.69166C21.8142 7.8617 22.1269 8.0649 22.4552 8.39297C22.7837 8.72098 22.987 9.03334 23.1573 9.47092C23.2858 9.80127 23.4387 10.2976 23.4804 11.2117C23.5256 12.2003 23.5351 12.4968 23.5351 15C23.5351 17.5032 23.5256 17.7997 23.4804 18.7883C23.4387 19.7024 23.2858 20.1987 23.1573 20.5291C22.987 20.9667 22.7837 21.279 22.4552 21.607C22.1269 21.9352 21.8142 22.1383 21.3762 22.3083C21.0455 22.4367 20.5486 22.5895 19.6336 22.6311C18.6441 22.6763 18.3473 22.6858 15.8413 22.6858C13.3353 22.6858 13.0385 22.6763 12.049 22.6311C11.134 22.5895 10.6372 22.4367 10.3065 22.3083C9.86837 22.1383 9.55574 21.9352 9.22734 21.607C8.89893 21.279 8.69557 20.9667 8.52536 20.5291C8.39684 20.1987 8.24393 19.7024 8.20217 18.7883C8.157 17.7997 8.1475 17.5032 8.1475 15C8.1475 12.4968 8.157 12.2003 8.20217 11.2117C8.24393 10.2976 8.39684 9.80127 8.52536 9.47092C8.69557 9.03334 8.89893 8.72098 9.22734 8.39297C9.55574 8.0649 9.86837 7.8617 10.3065 7.69166C10.6372 7.56328 11.134 7.41059 12.049 7.36887C13.0387 7.32375 13.3355 7.3142 15.8413 7.3142ZM15.8413 10.1858C13.1797 10.1858 11.0221 12.3412 11.0221 15C11.0221 17.6588 13.1797 19.8142 15.8413 19.8142C18.5029 19.8142 20.6605 17.6588 20.6605 15C20.6605 12.3412 18.5029 10.1858 15.8413 10.1858ZM15.8413 18.125C14.1136 18.125 12.7131 16.7259 12.7131 15C12.7131 13.2741 14.1136 11.875 15.8413 11.875C17.569 11.875 18.9695 13.2741 18.9695 15C18.9695 16.7259 17.569 18.125 15.8413 18.125ZM21.9771 9.99562C21.9771 10.617 21.4729 11.1206 20.8509 11.1206C20.229 11.1206 19.7248 10.617 19.7248 9.99562C19.7248 9.3743 20.229 8.87062 20.8509 8.87062C21.4729 8.87062 21.9771 9.3743 21.9771 9.99562Z" fill="#001534"/>
</svg>
