<svg width="39" height="39" viewBox="0 0 39 39" fill="none" xmlns="http://www.w3.org/2000/svg">
<path d="M22.1856 2.2871C20.926 0.100051 18.1316 -0.649328 15.9439 0.613374C14.4799 1.45919 13.603 3.03579 13.6587 4.72841C13.6587 4.72856 13.6589 4.72871 13.6589 4.72879C13.6589 4.72909 13.6587 4.72917 13.6587 4.72948L13.7799 8.29265L10.7532 6.40655C9.31823 5.51062 7.51516 5.48053 6.04893 6.32627C3.86645 7.586 3.11441 10.3867 4.3752 12.5714C5.22102 14.0342 6.76076 14.8532 8.343 14.8532C9.11736 14.8532 9.90064 14.6568 10.6192 14.2428L20.5141 8.52992C22.6967 7.26912 23.4465 4.46958 22.1856 2.2871Z" fill="#FFEA80"/>
<path d="M15.9439 0.61343C14.48 1.45924 13.603 3.03585 13.6588 4.72847C13.6588 4.72862 13.6589 4.72877 13.6589 4.72885C13.6589 4.72915 13.6588 4.72923 13.6588 4.72953L13.7799 8.2927L15.5704 11.3843L20.5142 8.5299C22.6967 7.26903 23.4465 4.46948 22.1857 2.287C20.9261 0.100031 18.1317 -0.649349 15.9439 0.61343Z" fill="#FFDF40"/>
<path d="M19.4238 39H7.99805C7.36704 39 6.85547 38.4884 6.85547 37.8574V23.9941C6.85547 23.3631 7.36704 22.8516 7.99805 22.8516H19.4238C20.6859 22.8516 21.709 23.8746 21.709 25.1367V36.7149C21.709 37.9769 20.6859 39 19.4238 39Z" fill="#FF7C44"/>
<path d="M36.5625 37.8574C36.5625 38.4884 36.0509 39 35.4199 39H23.9941C22.732 39 21.709 37.9769 21.709 36.7149V25.1367C21.709 23.8746 22.732 22.8516 23.9941 22.8516H35.4199C36.0509 22.8516 36.5625 23.3631 36.5625 23.9941V37.8574Z" fill="#FF4A57"/>
<path d="M37.8574 11.4258H36.7148V10.2832C36.7148 9.65166 36.2038 9.14062 35.5723 9.14062C34.9407 9.14062 34.4297 9.65166 34.4297 10.2832V11.4258H33.2871C32.6556 11.4258 32.1445 11.9368 32.1445 12.5684C32.1445 13.1999 32.6556 13.7109 33.2871 13.7109H34.4297V14.8535C34.4297 15.4851 34.9407 15.9961 35.5723 15.9961C36.2038 15.9961 36.7148 15.4851 36.7148 14.8535V13.7109H37.8574C38.489 13.7109 39 13.1999 39 12.5684C39 11.9368 38.489 11.4258 37.8574 11.4258Z" fill="#FFDF40"/>
<path d="M30.8496 15.9961H29.707V14.8535C29.707 14.222 29.196 13.7109 28.5645 13.7109C27.9329 13.7109 27.4219 14.222 27.4219 14.8535V15.9961H26.2793C25.6478 15.9961 25.1367 16.5071 25.1367 17.1387C25.1367 17.7702 25.6478 18.2813 26.2793 18.2813H27.4219V19.4238C27.4219 20.0554 27.9329 20.5664 28.5645 20.5664C29.196 20.5664 29.707 20.0554 29.707 19.4238V18.2813H30.8496C31.4812 18.2813 31.9922 17.7702 31.9922 17.1387C31.9922 16.5071 31.4812 15.9961 30.8496 15.9961Z" fill="#FFDF40"/>
<path d="M23.9941 39H19.4238V22.8516H23.9941V39Z" fill="#FFDF40"/>
<path d="M15.8793 16.4771L3.01387 23.9038C2.88148 23.675 -0.0269141 18.6493 0.157422 18.968C-0.1625 18.4195 0.0203125 17.7111 0.56875 17.4141L12.4516 10.5586L15.6085 12.9545L15.8793 16.4771Z" fill="#FF7C44"/>
<path d="M32.6973 6.76491L19.8318 14.1917L16.3711 12.1346L16.3812 8.27319L28.264 1.41771C28.5383 1.25775 28.8582 1.21197 29.1324 1.30346C29.4295 1.37194 29.6808 1.55482 29.8408 1.82897C29.9732 2.05786 32.8816 7.08353 32.6973 6.76491Z" fill="#FF4A57"/>
<path d="M19.8341 14.1919L17.8575 15.3345L15.8809 16.4771L12.4531 10.5586L16.3835 8.27344L19.8341 14.1919Z" fill="#FFDF40"/>
<path d="M16.3802 8.27344L14.4238 9.41084L17.8542 15.3345L19.8308 14.1919L16.3802 8.27344Z" fill="#FFBE40"/>
<path d="M21.709 22.8516H23.9941V39H21.709V22.8516Z" fill="#FFBE40"/>
</svg>
