<svg width="43" height="43" viewBox="0 0 43 43" fill="none" xmlns="http://www.w3.org/2000/svg">
<g clip-path="url(#clip0)">
<path d="M21.5 43C33.3741 43 43 33.3741 43 21.5C43 9.62588 33.3741 0 21.5 0C9.62588 0 0 9.62588 0 21.5C0 33.3741 9.62588 43 21.5 43Z" fill="#F7BB38"/>
<path d="M14.0355 1.33179V41.6686C5.84027 38.6326 0 30.7498 0 21.4998C0 12.2498 5.84027 4.36698 14.0355 1.33179Z" fill="#00B564"/>
<path d="M28.9634 1.33195V41.6688C24.1463 43.4479 18.8522 43.4479 14.0352 41.6688V1.33195C14.8427 1.03412 15.6675 0.785632 16.5051 0.587851C20.6411 -0.393438 24.9746 -0.133146 28.9634 1.33615V1.33195Z" fill="white"/>
<path d="M43.0002 21.4998C43.0003 25.8927 41.6553 30.1804 39.1459 33.7861C36.6365 37.3918 33.0832 40.1426 28.9639 41.6686V1.33179C29.8097 1.64418 30.6347 2.01025 31.4338 2.42778C34.9217 4.24486 37.8444 6.98382 39.8837 10.3466C41.9231 13.7093 43.001 17.567 43.0002 21.4998Z" fill="#E88032"/>
<path d="M16.5051 0.587891V42.4205C15.6674 42.2216 14.8426 41.972 14.0352 41.673V1.33199C14.8427 1.03416 15.6675 0.785671 16.5051 0.587891Z" fill="#E0E0E0"/>
<path d="M31.4338 2.42778V40.5726C30.6344 40.9884 29.8094 41.3531 28.9639 41.6644V1.33179C29.8097 1.64418 30.6347 2.01025 31.4338 2.42778Z" fill="#D67330"/>
<path d="M37.3487 15.3405C38.1038 15.3405 38.716 14.7283 38.716 13.9732C38.716 13.2181 38.1038 12.606 37.3487 12.606C36.5936 12.606 35.9814 13.2181 35.9814 13.9732C35.9814 14.7283 36.5936 15.3405 37.3487 15.3405Z" fill="#EF9050"/>
<path d="M37.3492 12.0929C37.884 12.0929 38.3175 11.6594 38.3175 11.1246C38.3175 10.5898 37.884 10.1562 37.3492 10.1562C36.8144 10.1562 36.3809 10.5898 36.3809 11.1246C36.3809 11.6594 36.8144 12.0929 37.3492 12.0929Z" fill="#EF9050"/>
<path d="M4.86018 21.504C4.85769 24.9625 5.69061 28.3704 7.28809 31.4379C8.88557 34.5053 11.2003 37.1415 14.0355 39.1222V41.6686C5.84027 38.6326 0 30.7498 0 21.4998C0 12.2498 5.84027 4.36698 14.0355 1.33179V3.88575C11.2002 5.86636 8.88539 8.50255 7.2879 11.57C5.69041 14.6375 4.85755 18.0455 4.86018 21.504Z" fill="#00A053"/>
<path d="M16.5051 40.6172C18.8164 41.8118 21.3265 42.574 23.9117 42.8663C23.1108 42.9554 22.3055 43 21.4997 42.9999C19.8177 43.0012 18.1414 42.8053 16.5051 42.4162C15.6674 42.2173 14.8426 41.9677 14.0352 41.6687V39.1223C14.8237 39.6759 15.649 40.1753 16.5051 40.6172Z" fill="#E0E0E0"/>
<path d="M16.5051 2.39104C15.649 2.83294 14.8237 3.33239 14.0352 3.88596V1.33199C14.8427 1.03416 15.6675 0.785671 16.5051 0.587891C18.1413 0.197342 19.8176 3.08725e-05 21.4997 4.83534e-09C22.3182 -1.72165e-05 23.1361 0.0459667 23.9495 0.137734C21.351 0.426468 18.8276 1.19025 16.5051 2.39104Z" fill="#E0E0E0"/>
<path d="M16.5051 0.587891V2.39104C15.649 2.83294 14.8237 3.33239 14.0352 3.88596V1.33199C14.8427 1.03416 15.6675 0.785671 16.5051 0.587891Z" fill="#CCCCCC"/>
<path d="M14.0352 39.1223C14.8237 39.6759 15.649 40.1753 16.5051 40.6172V42.4162C15.6674 42.2173 14.8426 41.9677 14.0352 41.6687V39.1223Z" fill="#CCCCCC"/>
</g>
<defs>
<clipPath id="clip0">
<rect width="43" height="43" fill="white"/>
</clipPath>
</defs>
</svg>
