<svg width="48" height="35" viewBox="0 0 48 35" fill="none" xmlns="http://www.w3.org/2000/svg">
<path d="M47.0587 34.1243L42.555 25.0014V0.577399C42.555 0.25983 42.2952 0 41.9776 0H5.19731C4.87974 0 4.61991 0.25983 4.61991 0.577399V25.0014L0.0584616 34.1724C-0.0281482 34.3552 -0.0185249 34.567 0.0873316 34.7305C0.193188 34.8941 0.376031 35 0.578121 35H46.5583C46.8759 35 47.1357 34.7402 47.1357 34.4226C47.1357 34.3167 47.1068 34.2109 47.0587 34.1243ZM5.77461 1.1548H41.3905V24.5587H5.77461V1.1548ZM17.1591 33.4891L18.0637 31.68H29.092L29.987 33.4891H17.1591ZM31.4497 33.8548C31.4401 33.826 31.4305 33.7971 31.4112 33.7778L29.9677 30.8523C29.8715 30.6599 29.6694 30.5348 29.4481 30.5348H17.7076C17.4863 30.5348 17.2842 30.6599 17.188 30.8523L15.7156 33.8163C15.706 33.826 15.706 33.8452 15.6963 33.8548H1.51158L5.563 25.7231H41.6216L45.6345 33.8548H31.4497Z" fill="black"/>
</svg>
