<svg width="38" height="34" viewBox="0 0 38 34" fill="none" xmlns="http://www.w3.org/2000/svg">
<path d="M21.5087 31.6396H16.4796L17.0545 29.0287C17.0545 29.0287 17.0545 29.0287 17.0545 29.0287C17.1439 28.6228 16.8905 28.2188 16.4855 28.128C16.4854 28.128 16.4854 28.128 16.4854 28.128L21.5087 31.6396ZM21.5087 31.6396L20.9337 29.0287C20.8444 28.6229 21.0977 28.2189 21.5028 28.128L21.5028 28.128C21.9086 28.0371 22.3083 28.2953 22.3977 28.7016L23.0447 31.6396H24.6923C25.1076 31.6396 25.4421 31.9789 25.4421 32.3948C25.4421 32.8106 25.1076 33.15 24.6923 33.15H24.6485H24.6049H24.5616H24.5184H24.4755H24.4327H24.3902H24.3479H24.3058H24.2639H24.2222H24.1807H24.1395H24.0984H24.0575H24.0169H23.9764H23.9361H23.8961H23.8562H23.8165H23.7771H23.7378H23.6988H23.6599H23.6212H23.5827H23.5444H23.5063H23.4685H23.4307H23.3932H23.3559H23.3188H23.2818H23.245H23.2085H23.1721H23.1359H23.0999H23.064H23.0284H22.9929H22.9576H22.9225H22.8876H22.8529H22.8183H22.7839H22.7497H22.7157H22.6818H22.6481H22.6146H22.5813H22.5481H22.5151H22.4823H22.4496H22.4172H22.3849H22.3527H22.3207H22.2889H22.2573H22.2258H22.1945H22.1633H22.1324H22.1015H22.0709H22.0404H22.01H21.9798H21.9498H21.9199H21.8902H21.8607H21.8313H21.802H21.7729H21.744H21.7152H21.6866H21.6581H21.6297H21.6015H21.5735H21.5456H21.5179H21.4903H21.4628H21.4355H21.4083H21.3813H21.3544H21.3277H21.3011H21.2746H21.2483H21.2221H21.1961H21.1702H21.1444H21.1188H21.0933H21.0679H21.0427H21.0176H20.9926H20.9678H20.9431H20.9185H20.894H20.8697H20.8455H20.8214H20.7975H20.7737H20.75H20.7264H20.7029H20.6796H20.6564H20.6333H20.6104H20.5875H20.5648H20.5422H20.5197H20.4973H20.475H20.4528H20.4308H20.4089H20.3871H20.3653H20.3438H20.3223H20.3009H20.2796H20.2585H20.2374H20.2164H20.1956H20.1749H20.1542H20.1337H20.1132H20.0929H20.0727H20.0525H20.0325H20.0126H19.9927H19.973H19.9533H19.9338H19.9143H19.895H19.8757H19.8565H19.8374H19.8184H19.7995H19.7807H19.762H19.7433H19.7248H19.7063H19.6879H19.6696H19.6514H19.6332H19.6152H19.5972H19.5793H19.5615H19.5438H19.5261H19.5085H19.491H19.4736H19.4562H19.439H19.4218H19.4046H19.3876H19.3706H19.3537H19.3368H19.32H19.3033H19.2867H19.2701H19.2536H19.2372H19.2208H19.2045H19.1882H19.172H19.1559H19.1398H19.1238H19.1079H19.092H19.0761H19.0604H19.0446H19.029H19.0134H18.9978H18.9823H18.9669H18.9515H18.9361H18.9208H18.9056H18.8904H18.8752H18.8601H18.845H18.83H18.815H18.8001H18.7852H18.7704H18.7556H18.7408H18.7261H18.7114H18.6968H18.6822H18.6676H18.6531H18.6386H18.6241H18.6097H18.5953H18.581H18.5666H18.5523H18.5381H18.5238H18.5096H18.4954H18.4813H18.4672H18.4531H18.439H18.4249H18.4109H18.3969H18.3829H18.3689H18.355H18.3411H18.3272H18.3133H18.2994H18.2855H18.2717H18.2579H18.2441H18.2303H18.2165H18.2027H18.189H18.1752H18.1615H18.1477H18.134H18.1203H18.1066H18.0929H18.0792H18.0655H18.0518H18.0381H18.0244H18.0107H17.997H17.9834H17.9697H17.956H17.9423H17.9286H17.9149H17.9012H17.8875H17.8738H17.8601H17.8463H17.8326H17.8188H17.8051H17.7913H17.7775H17.7637H17.7499H17.7361H17.7223H17.7084H17.6946H17.6807H17.6668H17.6528H17.6389H17.6249H17.611H17.597H17.5829H17.5689H17.5548H17.5407H17.5266H17.5124H17.4983H17.4841H17.4698H17.4556H17.4413H17.427H17.4126H17.3982H17.3838H17.3693H17.3549H17.3403H17.3258H17.3112H17.2965H17.2819H17.2672H17.2524H17.2376H17.2228H17.2079H17.193H17.178H17.163H17.148H17.1329H17.1177H17.1025H17.0873H17.072H17.0567H17.0413H17.0258H17.0103H16.9948H16.9792H16.9635H16.9478H16.932H16.9162H16.9003H16.8844H16.8684H16.8524H16.8362H16.8201H16.8038H16.7875H16.7711H16.7547H16.7382H16.7216H16.705H16.6883H16.6716H16.6547H16.6378H16.6208H16.6038H16.5867H16.5695H16.5522H16.5349H16.5175H16.5H16.4824H16.4648H16.4471H16.4293H16.4114H16.3934H16.3754H16.3573H16.3391H16.3208H16.3024H16.284H16.2654H16.2468H16.2281H16.2093H16.1904H16.1714H16.1523H16.1332H16.1139H16.0946H16.0751H16.0556H16.0359H16.0162H15.9964H15.9765H15.9565H15.9363H15.9161H15.8958H15.8754H15.8549H15.8343H15.8135H15.7927H15.7718H15.7508H15.7296H15.7084H15.687H15.6655H15.644H15.6223H15.6005H15.5786H15.5565H15.5344H15.5122H15.4898H15.4673H15.4447H15.422H15.3992H15.3763H15.3532H15.33H15.3067H15.2833H15.2597H15.236H15.2122H15.1883H15.1643H15.1401H15.1158H15.0914H15.0668H15.0421H15.0173H14.9924H14.9673H14.9421H14.9168H14.8913H14.8657H14.8399H14.814H14.788H14.7619H14.7356H14.7091H14.6826H14.6559H14.629H14.602H14.5749H14.5476H14.5202H14.4926H14.4649H14.437H14.409H14.3808H14.3525H14.3241H14.2955H14.2667H14.2378H14.2087H14.1795H14.1501H14.1206H14.0909H14.0611H14.0311H14.0009H13.9706H13.9402H13.9095H13.8787H13.8478H13.8166H13.7854H13.7539H13.7223H13.6905H13.6586H13.6265H13.5942H13.5617H13.5291H13.4963H13.4634H13.4303H13.397H13.3635H13.3298H13.296C12.8807 33.15 12.5462 32.8106 12.5462 32.3948C12.5462 31.979 12.8807 31.6396 13.296 31.6396H14.9435H21.5087ZM30.939 26.9168L30.939 26.9169C30.1383 27.7249 30.7105 29.1095 31.8408 29.1095C32.9841 29.1095 33.5351 27.7166 32.7426 26.9168C32.2445 26.4142 31.4373 26.414 30.939 26.9168ZM36.931 22.691L36.8244 22.7965L36.9309 22.6909C34.1176 19.8523 29.5639 19.8526 26.7509 22.691C26.4587 22.9858 26.4587 23.4632 26.7509 23.758C27.0438 24.0535 27.5192 24.0536 27.8122 23.758C30.0393 21.5108 33.6428 21.5111 35.8696 23.758C36.1625 24.0535 36.638 24.0535 36.9309 23.758C37.223 23.4632 37.223 22.9858 36.931 22.691ZM34.7041 26.0046C34.9964 25.7098 34.9964 25.2324 34.7041 24.9376C33.1217 23.3408 30.5597 23.341 28.9775 24.9375C28.5054 25.4139 28.8442 26.2263 29.5081 26.2263C29.7003 26.2263 29.8925 26.1522 30.0388 26.0046C31.0351 24.9994 32.6467 24.9995 33.6429 26.0046C33.9358 26.3002 34.4113 26.3002 34.7041 26.0046ZM24.9172 27.2493C25.3326 27.2493 25.667 26.9099 25.667 26.4941C25.667 26.0782 25.3326 25.7389 24.9172 25.7389H3.39922C2.82189 25.7389 2.34961 25.2643 2.34961 24.6785V23.0269H23.1928C23.6081 23.0269 23.9426 22.6875 23.9426 22.2717C23.9426 21.8559 23.6081 21.5165 23.1928 21.5165H2.34961V3.4208C2.34961 2.83499 2.82189 2.3604 3.39922 2.3604H34.5891C35.1664 2.3604 35.6387 2.83499 35.6387 3.4208V18.1978C35.6387 18.6136 35.9731 18.953 36.3885 18.953C36.8038 18.953 37.1383 18.6136 37.1383 18.1978V3.4208C37.1383 2.00438 35.9961 0.85 34.5891 0.85H3.39922C1.99217 0.85 0.85 2.00438 0.85 3.4208V24.6785C0.85 26.0949 1.99217 27.2493 3.39922 27.2493H24.9172Z" fill="#001534" stroke="#001534" stroke-width="0.3"/>
</svg>
