<svg width="26" height="30" viewBox="0 0 26 30" fill="none" xmlns="http://www.w3.org/2000/svg">
<path d="M5.57196 0C4.55055 0 3.71484 0.835702 3.71484 1.85712V27.8567C3.71484 28.8782 4.55055 29.7139 5.57196 29.7139H24.1431C25.1645 29.7139 26.0002 28.8782 26.0002 27.8567V7.42846L18.5718 0H5.57196Z" fill="#E2E5E7"/>
<path d="M20.4274 7.42846H25.9988L18.5703 0V5.57135C18.5703 6.59276 19.406 7.42846 20.4274 7.42846Z" fill="#B0B7BD"/>
<path d="M26.001 13.0001L20.4297 7.42871H26.001V13.0001Z" fill="#CAD1D8"/>
<path d="M22.2854 24.1428C22.2854 24.6536 21.8675 25.0714 21.3568 25.0714H0.928558C0.417851 25.0714 0 24.6536 0 24.1428V14.8573C0 14.3466 0.417851 13.9287 0.928558 13.9287H21.3568C21.8675 13.9287 22.2854 14.3466 22.2854 14.8573V24.1428Z" fill="#50BEE8"/>
<path d="M6.37984 17.593C6.37984 16.969 7.3604 16.969 7.3604 17.593V20.5254C7.3604 21.6916 6.80327 22.3974 5.51907 22.3974C4.88765 22.3974 4.36116 22.2256 3.90059 21.6322C3.52174 21.1791 4.23487 20.5263 4.62115 21.0008C4.93315 21.3871 5.26743 21.4762 5.59335 21.4614C6.00842 21.4465 6.37334 21.2599 6.38077 20.5254V17.593H6.37984Z" fill="white"/>
<path d="M8.66406 17.5936C8.66406 17.3485 8.8572 17.0811 9.1692 17.0811H10.8842C11.8499 17.0811 12.7191 17.7273 12.7191 18.966C12.7191 20.1397 11.8499 20.7934 10.8842 20.7934H9.64462V21.774C9.64462 22.1008 9.43662 22.2856 9.1692 22.2856C8.92406 22.2856 8.66406 22.1008 8.66406 21.774V17.5936ZM9.64462 18.0161V19.8658H10.8842C11.382 19.8658 11.7757 19.4266 11.7757 18.966C11.7757 18.447 11.382 18.0161 10.8842 18.0161H9.64462Z" fill="white"/>
<path d="M18.0236 21.7141C17.4962 22.1524 16.8499 22.3381 16.1971 22.3381C14.6372 22.3381 13.5312 21.4476 13.5312 19.6797C13.5312 18.181 14.6975 17.0156 16.2631 17.0156C16.8499 17.0156 17.4953 17.2153 17.9558 17.6684C18.408 18.1132 17.7553 18.7743 17.3105 18.3815C17.0356 18.1141 16.6493 17.9135 16.2631 17.9135C15.3652 17.9135 14.497 18.6332 14.497 19.6797C14.497 20.7791 15.224 21.4476 16.1971 21.4476C16.6493 21.4476 17.0356 21.313 17.3105 21.1134V20.2006H16.1971C15.536 20.2006 15.6029 19.2943 16.1971 19.2943H17.6819C17.9568 19.2943 18.2084 19.5023 18.2084 19.7326V21.3139C18.2084 21.4476 18.1499 21.5721 18.0236 21.7141Z" fill="white"/>
<path d="M21.3574 25.0711H3.71484V25.9997H21.3574C21.8682 25.9997 22.286 25.5818 22.286 25.0711V24.1426C22.286 24.6533 21.8682 25.0711 21.3574 25.0711Z" fill="#CAD1D8"/>
</svg>
