<svg width="60" height="60" viewBox="0 0 60 60" fill="none" xmlns="http://www.w3.org/2000/svg">
<path d="M51.1149 22.0626H0.887388C0.69037 22.0626 0.501422 21.9844 0.362109 21.8451C0.222796 21.7058 0.144531 21.5168 0.144531 21.3198V15.9014C0.144529 15.7735 0.177557 15.6477 0.240417 15.5363C0.303277 15.4249 0.393838 15.3316 0.503331 15.2655L25.6119 0.106758C25.7277 0.0369126 25.8604 0 25.9956 0C26.1308 0 26.2635 0.0369126 26.3793 0.106758L51.4982 15.2655C51.6077 15.3316 51.6983 15.4249 51.7612 15.5363C51.824 15.6477 51.857 15.7735 51.857 15.9014V21.3198C51.857 21.5167 51.7789 21.7055 51.6397 21.8448C51.5006 21.9841 51.3118 22.0624 51.1149 22.0626ZM1.63099 20.5769H50.3721V16.3204L25.9967 1.6103L1.63099 16.3189V20.5769Z" fill="black"/>
<path d="M26.0016 16.5755C25.1229 16.5755 24.2639 16.3149 23.5332 15.8267C22.8026 15.3385 22.2331 14.6446 21.8968 13.8328C21.5605 13.0209 21.4725 12.1276 21.644 11.2657C21.8154 10.4038 22.2386 9.61216 22.8599 8.99079C23.4813 8.36942 24.273 7.94626 25.1348 7.77483C25.9967 7.60339 26.89 7.69138 27.7019 8.02766C28.5138 8.36394 29.2077 8.93342 29.6959 9.66407C30.1841 10.3947 30.4447 11.2537 30.4447 12.1325C30.4433 13.3104 29.9747 14.4397 29.1418 15.2727C28.3089 16.1056 27.1796 16.5741 26.0016 16.5755ZM26.0016 9.17443C25.4167 9.17443 24.845 9.34787 24.3586 9.67282C23.8723 9.99778 23.4933 10.4596 23.2694 11C23.0456 11.5404 22.987 12.135 23.1011 12.7087C23.2152 13.2823 23.4969 13.8093 23.9105 14.2229C24.3241 14.6365 24.851 14.9181 25.4247 15.0322C25.9983 15.1463 26.593 15.0878 27.1333 14.8639C27.6737 14.6401 28.1356 14.2611 28.4605 13.7747C28.7855 13.2884 28.9589 12.7166 28.9589 12.1317C28.958 11.3477 28.6461 10.5961 28.0917 10.0417C27.5373 9.4873 26.7857 9.17541 26.0016 9.17443Z" fill="black"/>
<path d="M46.7788 26.755H38.8741C38.4486 26.7544 38.0407 26.5851 37.7399 26.2841C37.4391 25.9832 37.2699 25.5752 37.2695 25.1497V21.3195C37.2695 21.1225 37.3478 20.9336 37.4871 20.7942C37.6264 20.6549 37.8154 20.5767 38.0124 20.5767H47.6406C47.8376 20.5767 48.0265 20.6549 48.1658 20.7942C48.3051 20.9336 48.3834 21.1225 48.3834 21.3195V25.1519C48.3824 25.577 48.213 25.9844 47.9123 26.2849C47.6115 26.5854 47.204 26.7544 46.7788 26.755ZM38.756 22.0601V25.1497C38.756 25.1813 38.7685 25.2116 38.7908 25.234C38.813 25.2564 38.8433 25.2691 38.8748 25.2693H46.7788C46.8104 25.2691 46.8407 25.2564 46.8629 25.234C46.8852 25.2116 46.8977 25.1813 46.8977 25.1497V22.0624L38.756 22.0601Z" fill="black"/>
<path d="M46.104 41.7605H39.5475C39.3505 41.7605 39.1616 41.6822 39.0223 41.5429C38.883 41.4036 38.8047 41.2146 38.8047 41.0176V26.0119C38.8047 25.8149 38.883 25.6259 39.0223 25.4866C39.1616 25.3473 39.3505 25.269 39.5475 25.269H46.104C46.301 25.269 46.49 25.3473 46.6293 25.4866C46.7686 25.6259 46.8469 25.8149 46.8469 26.0119V41.0176C46.8469 41.2146 46.7686 41.4036 46.6293 41.5429C46.49 41.6822 46.301 41.7605 46.104 41.7605ZM40.2904 40.2748H45.3611V26.7548H40.2904V40.2748Z" fill="black"/>
<path d="M47.6406 46.455H38.0124C37.8154 46.455 37.6264 46.3767 37.4871 46.2374C37.3478 46.0981 37.2695 45.9091 37.2695 45.7121V41.8797C37.2699 41.4542 37.4391 41.0462 37.7399 40.7453C38.0407 40.4443 38.4486 40.275 38.8741 40.2744H46.7788C47.2044 40.275 47.6122 40.4443 47.9131 40.7453C48.2139 41.0462 48.383 41.4542 48.3834 41.8797V45.7121C48.3834 45.9091 48.3051 46.0981 48.1658 46.2374C48.0265 46.3767 47.8376 46.455 47.6406 46.455ZM38.7552 44.9693H46.8977V41.8797C46.8977 41.8481 46.8852 41.8178 46.8629 41.7954C46.8407 41.773 46.8104 41.7603 46.7788 41.7601H38.8741C38.8425 41.7603 38.8123 41.773 38.79 41.7954C38.7677 41.8178 38.7552 41.8481 38.7552 41.8797V44.9693Z" fill="black"/>
<path d="M29.9539 26.755H22.0499C21.6244 26.7544 21.2165 26.5851 20.9157 26.2841C20.6149 25.9832 20.4457 25.5752 20.4453 25.1497V21.3195C20.4453 21.1225 20.5236 20.9336 20.6629 20.7942C20.8022 20.6549 20.9912 20.5767 21.1882 20.5767H30.8156C31.0126 20.5767 31.2016 20.6549 31.3409 20.7942C31.4802 20.9336 31.5585 21.1225 31.5585 21.3195V25.1519C31.5575 25.577 31.3881 25.9844 31.0873 26.2849C30.7866 26.5854 30.379 26.7544 29.9539 26.755ZM21.931 22.0624V25.1519C21.931 25.1835 21.9435 25.2138 21.9658 25.2362C21.9881 25.2586 22.0183 25.2713 22.0499 25.2715H29.9539C29.9855 25.2713 30.0157 25.2586 30.038 25.2362C30.0602 25.2138 30.0727 25.1835 30.0727 25.1519V22.0624H21.931Z" fill="black"/>
<path d="M29.2683 41.7605H22.7311C22.5341 41.7605 22.3452 41.6822 22.2059 41.5429C22.0665 41.4036 21.9883 41.2146 21.9883 41.0176V26.0119C21.9883 25.8149 22.0665 25.6259 22.2059 25.4866C22.3452 25.3473 22.5341 25.269 22.7311 25.269H29.2683C29.4653 25.269 29.6542 25.3473 29.7936 25.4866C29.9329 25.6259 30.0111 25.8149 30.0111 26.0119V41.0176C30.0111 41.2146 29.9329 41.4036 29.7936 41.5429C29.6542 41.6822 29.4653 41.7605 29.2683 41.7605ZM23.474 40.2748H28.5254V26.7548H23.474V40.2748Z" fill="black"/>
<path d="M30.8156 46.455H21.1882C20.9912 46.455 20.8022 46.3767 20.6629 46.2374C20.5236 46.0981 20.4453 45.9091 20.4453 45.7121V41.8797C20.4457 41.4542 20.6149 41.0462 20.9157 40.7453C21.2165 40.4443 21.6244 40.275 22.0499 40.2744H29.9539C30.3794 40.275 30.7873 40.4443 31.0881 40.7453C31.3889 41.0462 31.5581 41.4542 31.5585 41.8797V45.7121C31.5585 45.9091 31.4802 46.0981 31.3409 46.2374C31.2016 46.3767 31.0126 46.455 30.8156 46.455ZM21.9303 44.9693H30.0727V41.8797C30.0727 41.8481 30.0602 41.8178 30.038 41.7954C30.0157 41.773 29.9855 41.7603 29.9539 41.7601H22.0499C22.0183 41.7603 21.9881 41.773 21.9658 41.7954C21.9435 41.8178 21.931 41.8481 21.931 41.8797L21.9303 44.9693Z" fill="black"/>
<path d="M13.8687 26.755H5.96395C5.53844 26.7544 5.13054 26.5851 4.82973 26.2841C4.52892 25.9832 4.35977 25.5752 4.35938 25.1497V21.3195C4.35938 21.1225 4.43764 20.9336 4.57695 20.7942C4.71627 20.6549 4.90521 20.5767 5.10223 20.5767H14.7304C14.9274 20.5767 15.1164 20.6549 15.2557 20.7942C15.395 20.9336 15.4733 21.1225 15.4733 21.3195V25.1519C15.4723 25.577 15.3029 25.9844 15.0021 26.2849C14.7014 26.5854 14.2938 26.7544 13.8687 26.755ZM5.84509 22.0624V25.1519C5.84509 25.1835 5.85759 25.2138 5.87986 25.2362C5.90213 25.2586 5.93236 25.2713 5.96395 25.2715H13.8687C13.9003 25.2713 13.9305 25.2586 13.9528 25.2362C13.975 25.2138 13.9875 25.1835 13.9875 25.1519V22.0624H5.84509Z" fill="black"/>
<path d="M13.2215 41.7605H6.61004C6.41303 41.7605 6.22408 41.6822 6.08477 41.5429C5.94545 41.4036 5.86719 41.2146 5.86719 41.0176V26.0119C5.86719 25.8149 5.94545 25.6259 6.08477 25.4866C6.22408 25.3473 6.41303 25.269 6.61004 25.269H13.2215C13.4185 25.269 13.6074 25.3473 13.7468 25.4866C13.8861 25.6259 13.9643 25.8149 13.9643 26.0119V41.0176C13.9643 41.2146 13.8861 41.4036 13.7468 41.5429C13.6074 41.6822 13.4185 41.7605 13.2215 41.7605ZM7.3529 40.2748H12.4786V26.7548H7.3529V40.2748Z" fill="black"/>
<path d="M14.7304 46.455H5.10223C4.90521 46.455 4.71627 46.3767 4.57695 46.2374C4.43764 46.0981 4.35937 45.9091 4.35938 45.7121V41.8797C4.35977 41.4542 4.52892 41.0462 4.82973 40.7453C5.13054 40.4443 5.53844 40.275 5.96395 40.2744H13.8687C14.2942 40.275 14.7021 40.4443 15.0029 40.7453C15.3037 41.0462 15.4729 41.4542 15.4733 41.8797V45.7121C15.4733 45.9091 15.395 46.0981 15.2557 46.2374C15.1164 46.3767 14.9274 46.455 14.7304 46.455ZM5.84509 44.9693H13.9875V41.8797C13.9875 41.8481 13.975 41.8178 13.9528 41.7954C13.9305 41.773 13.9003 41.7603 13.8687 41.7601H5.96395C5.93236 41.7603 5.90213 41.773 5.87986 41.7954C5.85759 41.8178 5.84509 41.8481 5.84509 41.8797V44.9693Z" fill="black"/>
<path d="M51.2571 52.0001H0.742857C0.545839 52.0001 0.356891 51.9219 0.217578 51.7825C0.078265 51.6432 0 51.4543 0 51.2573V45.7126C0 45.5156 0.078265 45.3266 0.217578 45.1873C0.356891 45.048 0.545839 44.9697 0.742857 44.9697H51.2571C51.4542 44.9697 51.6431 45.048 51.7824 45.1873C51.9217 45.3266 52 45.5156 52 45.7126V51.2573C52 51.4543 51.9217 51.6432 51.7824 51.7825C51.6431 51.9219 51.4542 52.0001 51.2571 52.0001ZM1.48571 50.5144H50.5143V46.4554H1.48571V50.5144Z" fill="black"/>
<path d="M47.5 35C40.6072 35 35 40.6072 35 47.5C35 54.3928 40.6072 60 47.5 60C54.3928 60 60 54.3928 60 47.5C60 40.6072 54.3928 35 47.5 35Z" fill="#001534"/>
<path d="M52.9674 48.5422H48.5402V52.9693C48.5402 53.5444 48.0737 54.0109 47.4986 54.0109C46.9236 54.0109 46.457 53.5444 46.457 52.9693V48.5422H42.0299C41.4548 48.5422 40.9883 48.0757 40.9883 47.5006C40.9883 46.9255 41.4548 46.459 42.0299 46.459H46.457V42.0318C46.457 41.4568 46.9236 40.9902 47.4986 40.9902C48.0737 40.9902 48.5402 41.4568 48.5402 42.0318V46.459H52.9674C53.5424 46.459 54.009 46.9255 54.009 47.5006C54.009 48.0757 53.5424 48.5422 52.9674 48.5422Z" fill="#FAFAFA"/>
</svg>
