<svg width="65" height="51" viewBox="0 0 65 51" fill="none" xmlns="http://www.w3.org/2000/svg">
<path d="M50.8813 0H2.5763C1.15926 0 0 1.15926 0 2.5762V35.4237C0 36.8406 1.15926 38 2.5763 38H50.8813C52.2982 38 53.4576 36.8407 53.4576 35.4237V2.5762C53.4576 1.15926 52.2983 0 50.8813 0ZM1.9322 2.5762C1.9322 2.22716 2.22716 1.9322 2.5762 1.9322H50.8812C51.2302 1.9322 51.5252 2.22716 51.5252 2.5762V5.79649H1.9322V2.5762ZM51.5255 35.4237C51.5254 35.7727 51.2305 36.0677 50.8813 36.0677H2.5763C2.22726 36.0677 1.9323 35.7727 1.9323 35.4237V15.4576H51.5255V35.4237ZM51.5255 13.5254H1.9322V7.7288H51.5254V13.5254H51.5255Z" fill="black"/>
<path d="M43.4767 21.8979C41.9677 21.8979 40.6022 22.5085 39.6123 23.4953C38.6218 22.5085 37.2562 21.8979 35.7479 21.8979C32.724 21.8979 30.2734 24.3493 30.2734 27.3724C30.2734 30.3951 32.7241 32.8469 35.7479 32.8469C37.2563 32.8469 38.6218 32.2364 39.6123 31.2496C40.6023 32.2364 41.9677 32.8469 43.4767 32.8469C46.4994 32.8469 48.9512 30.395 48.9512 27.3724C48.9514 24.3493 46.4994 21.8979 43.4767 21.8979ZM43.4767 30.915C42.5332 30.915 41.6451 30.5478 40.9764 29.8812C40.599 29.5056 40.1057 29.3176 39.6123 29.3176C39.119 29.3176 38.6256 29.5056 38.2487 29.8812C37.5796 30.5478 36.6907 30.915 35.7478 30.915C33.7944 30.915 32.2054 29.326 32.2054 27.3725C32.2054 25.419 33.7943 23.8302 35.7478 23.8302C36.6906 23.8302 37.5795 24.1973 38.2487 24.8639C38.6256 25.24 39.1195 25.4275 39.6123 25.4275C40.1064 25.4275 40.5991 25.2395 40.9764 24.8639C41.645 24.1973 42.5332 23.8302 43.4767 23.8302C45.4301 23.8302 47.0191 25.419 47.0191 27.3725C47.0191 29.326 45.4302 30.915 43.4767 30.915Z" fill="black"/>
<path d="M21.2557 23.8306H5.79813C5.26481 23.8306 4.83203 24.2634 4.83203 24.7967C4.83203 25.3299 5.26491 25.7628 5.79813 25.7628H21.2557C21.7891 25.7628 22.2218 25.3299 22.2218 24.7967C22.2218 24.2632 21.7891 23.8306 21.2557 23.8306Z" fill="black"/>
<path d="M12.8841 28.3389H5.79813C5.26481 28.3389 4.83203 28.7717 4.83203 29.305C4.83203 29.8382 5.26491 30.2711 5.79813 30.2711H12.8842C13.4175 30.2711 13.8503 29.8382 13.8503 29.305C13.8503 28.7717 13.4174 28.3389 12.8841 28.3389Z" fill="black"/>
<path d="M52.5 26C45.6072 26 40 31.6072 40 38.5C40 45.3928 45.6072 51 52.5 51C59.3928 51 65 45.3928 65 38.5C65 31.6072 59.3928 26 52.5 26Z" fill="#001534"/>
<path d="M57.9674 39.5417H53.5402V43.9688C53.5402 44.5439 53.0737 45.0105 52.4986 45.0105C51.9236 45.0105 51.457 44.5439 51.457 43.9688V39.5417H47.0299C46.4548 39.5417 45.9883 39.0752 45.9883 38.5001C45.9883 37.925 46.4548 37.4585 47.0299 37.4585H51.457V33.0313C51.457 32.4563 51.9236 31.9897 52.4986 31.9897C53.0737 31.9897 53.5402 32.4563 53.5402 33.0313V37.4585H57.9674C58.5424 37.4585 59.009 37.925 59.009 38.5001C59.009 39.0752 58.5424 39.5417 57.9674 39.5417Z" fill="#FAFAFA"/>
</svg>
