<svg width="9" height="11" viewBox="0 0 9 11" fill="none" xmlns="http://www.w3.org/2000/svg">
<path fill-rule="evenodd" clip-rule="evenodd" d="M7.50591 10.1584H0.848128C0.388396 10.1584 0.0161133 9.78527 0.0161133 9.32512V5.15839C0.0161133 4.69824 0.388812 4.32471 0.848128 4.32471H1.26414V3.07502C1.26414 1.46429 2.56837 0.158386 4.17702 0.158386C5.78566 0.158386 7.0899 1.46429 7.0899 3.07502V4.32471H7.50591C7.96564 4.32471 8.33792 4.69782 8.33792 5.15839V9.32512C8.33792 9.78485 7.96523 10.1584 7.50591 10.1584ZM5.84146 3.07502C5.84146 2.15472 5.09607 1.40849 4.17702 1.40849C3.25797 1.40849 2.51257 2.15472 2.51257 3.07502V4.32471H5.84146V3.07502Z" fill="black"/>
</svg>
