<svg width="28" height="39" viewBox="0 0 28 39" fill="none" xmlns="http://www.w3.org/2000/svg">
<path d="M13.5211 0C7.81374 0.00700896 3.18865 4.63203 3.18164 10.3395V16.7022C3.18164 17.1415 3.53776 17.4976 3.97701 17.4976H7.1584C7.59766 17.4976 7.95377 17.1415 7.95377 16.7022V10.3395C7.9537 7.26464 10.4464 4.77206 13.5211 4.77206C16.5959 4.77206 19.0885 7.26464 19.0885 10.3395V16.7022C19.0885 17.1415 19.4447 17.4976 19.8839 17.4976H23.0652C23.5045 17.4976 23.8606 17.1415 23.8606 16.7022V10.3395C23.8536 4.63203 19.2285 0.00700896 13.5211 0Z" fill="#455A64"/>
<path d="M3.97669 15.9067H23.0649C25.2612 15.9067 27.0416 17.6872 27.0416 19.8834V34.1996C27.0416 36.3959 25.2612 38.1764 23.0649 38.1764H3.97669C1.78042 38.1764 0 36.3959 0 34.1997V19.8835C0 17.6872 1.78042 15.9067 3.97669 15.9067Z" fill="#FFCA26"/>
<path d="M17.4983 24.6556C17.5076 22.4593 15.7347 20.6714 13.5384 20.6621C11.3422 20.6529 9.5542 22.4258 9.54496 24.6221C9.53855 26.1402 10.397 27.5294 11.7576 28.2028L11.1435 32.4977C11.082 32.9326 11.3847 33.335 11.8197 33.3965C11.8565 33.4017 11.8937 33.4044 11.9309 33.4044H15.1123C15.5516 33.4088 15.9113 33.0564 15.9157 32.6171C15.916 32.5766 15.9134 32.5361 15.9076 32.4961L15.2936 28.2012C16.6375 27.5287 17.4896 26.1583 17.4983 24.6556Z" fill="#455A64"/>
</svg>
