<svg width="31" height="38" viewBox="0 0 31 38" fill="none" xmlns="http://www.w3.org/2000/svg">
<path d="M29.5597 6.61744C30.0697 6.85936 30.3962 7.3719 30.3999 7.93639V15.6777C30.3096 22.7457 26.9631 29.3767 21.3306 33.6476L16.3227 37.612C15.6636 38.1293 14.7363 38.1293 14.0772 37.612L9.06928 33.6476C3.43685 29.3766 0.0902069 22.7457 0 15.6777V7.93639C0.00373072 7.3719 0.330217 6.85945 0.840178 6.61744L13.8404 0.311372C14.6992 -0.103791 15.7007 -0.103791 16.5594 0.311372L29.5597 6.61744Z" fill="#FFCA26"/>
<path d="M15.2015 23.6446C19.3989 23.6446 22.8015 20.2571 22.8015 16.0784C22.8015 11.8997 19.3989 8.51221 15.2015 8.51221C11.0042 8.51221 7.60156 11.8997 7.60156 16.0784C7.60156 20.2571 11.0042 23.6446 15.2015 23.6446Z" fill="white"/>
<path d="M13.8183 19.3455C13.5943 19.3458 13.3794 19.2567 13.2213 19.0981L11.8391 17.716C11.5094 17.3863 11.5094 16.8516 11.8391 16.5219C12.1688 16.1921 12.7035 16.1921 13.0332 16.5219L13.8183 17.307L17.3668 13.7585C17.697 13.4316 18.2292 13.4329 18.5578 13.7614C18.8864 14.09 18.8878 14.6223 18.5609 14.9525L14.4154 19.098C14.2572 19.2567 14.0423 19.3458 13.8183 19.3455Z" fill="#24AE5F"/>
</svg>
