<svg width="35" height="26" viewBox="0 0 35 26" fill="none" xmlns="http://www.w3.org/2000/svg">
<path d="M31.7187 0H3.28127C1.47187 0 0 1.45785 0 3.25002V22.75C0 24.5422 1.47187 26 3.28127 26H31.7187C33.5281 26 35 24.5422 35 22.75V3.25002C35 1.45785 33.5281 0 31.7187 0ZM31.7187 2.16665C31.8673 2.16665 32.0087 2.19719 32.1379 2.25052L17.5 14.8165L2.86198 2.25052C2.99122 2.19726 3.1326 2.16665 3.2812 2.16665H31.7187ZM31.7187 23.8333H3.28127C2.6778 23.8333 2.18749 23.3477 2.18749 22.7499V4.53962L16.7833 17.0688C16.9895 17.2455 17.2447 17.3333 17.5 17.3333C17.7553 17.3333 18.0105 17.2455 18.2167 17.0688L32.8125 4.53962V22.75C32.8124 23.3477 32.3222 23.8333 31.7187 23.8333Z" fill="#001534"/>
</svg>
