<svg width="42" height="25" viewBox="0 0 42 25" fill="none" xmlns="http://www.w3.org/2000/svg">
<g clip-path="url(#clip0)">
<path d="M15.2559 2.67334H27.1818V22.326H15.2559V2.67334Z" fill="#F26122"/>
<path d="M21.1668 22.3271C19.006 24.0561 16.3137 24.9994 13.5375 25C11.8979 24.9856 10.2771 24.6507 8.76798 24.0146C7.25881 23.3785 5.89079 22.4536 4.7421 21.2927C3.59341 20.1319 2.68657 18.7578 2.0734 17.2491C1.46023 15.7404 1.15276 14.1266 1.16855 12.5C1.15303 10.8734 1.4607 9.25976 2.07396 7.75118C2.68723 6.2426 3.59409 4.86867 4.74272 3.70787C5.89136 2.54707 7.25927 1.62214 8.76831 0.985937C10.2774 0.34973 11.898 0.0147049 13.5375 0C16.3137 0 19.0059 0.94375 21.1668 2.67292C19.6951 3.86086 18.5086 5.35925 17.6937 7.05913C16.8789 8.75902 16.4561 10.6177 16.4561 12.5C16.4561 14.3823 16.8789 16.241 17.6937 17.9409C18.5086 19.6408 19.6951 21.1391 21.1668 22.3271Z" fill="#EA1D25"/>
<path d="M41.1996 12.5C41.2151 14.1266 40.9075 15.7402 40.2942 17.2488C39.6809 18.7574 38.7741 20.1313 37.6254 21.2921C36.4768 22.4529 35.1089 23.3779 33.5999 24.0141C32.0908 24.6503 30.4702 24.9853 28.8306 25C26.0538 24.9997 23.3607 24.0564 21.1992 22.3271C22.6707 21.1389 23.8568 19.6405 24.6715 17.9406C25.4861 16.2407 25.9088 14.3822 25.9088 12.5C25.9088 10.6178 25.4861 8.75925 24.6715 7.05939C23.8568 5.35954 22.6707 3.86108 21.1992 2.67292C23.3601 0.943884 26.0524 0.000641375 28.8285 0C30.4684 0.0141596 32.0893 0.348798 33.5987 0.984788C35.1081 1.62078 36.4764 2.54565 37.6253 3.70653C38.7742 4.86742 39.6813 6.24155 40.2946 7.75039C40.9079 9.25923 41.2154 10.8732 41.1996 12.5Z" fill="#F69E1E"/>
</g>
<defs>
<clipPath id="clip0">
<rect width="42" height="25" fill="white"/>
</clipPath>
</defs>
</svg>
