<svg width="18" height="33" viewBox="0 0 18 33" fill="none" xmlns="http://www.w3.org/2000/svg">
<path d="M10.4 30.3006C10.3999 30.5742 10.3195 30.8416 10.1688 31.0693C10.018 31.297 9.80363 31.4747 9.55259 31.5797C9.30154 31.6848 9.02521 31.7124 8.75857 31.659C8.49193 31.6057 8.24707 31.4738 8.05488 31.2802C7.86271 31.0866 7.73182 30.84 7.67863 30.5716C7.62544 30.3032 7.6523 30.0249 7.75585 29.7718C7.8594 29.5187 8.03505 29.3021 8.26073 29.1496C8.48642 28.997 8.75198 28.9152 9.02383 28.9148L9.06552 28.9147L9.06679 28.916C9.23342 28.9194 9.39812 28.9537 9.55266 29.0172C9.72046 29.0861 9.87286 29.1881 10.001 29.3172C10.1291 29.4463 10.2303 29.5998 10.2988 29.7687C10.3673 29.9375 10.4017 30.1183 10.4 30.3006ZM10.4 30.3006C10.4 30.3008 10.4 30.3009 10.4 30.3011L10.3 30.3002H10.4C10.4 30.3003 10.4 30.3005 10.4 30.3006ZM3.93 0.899999L3.92945 0.900001C3.12705 0.904387 2.35892 1.22794 1.79179 1.80012C1.2247 2.37228 0.904343 3.14685 0.9 3.95561V3.95615L0.899999 29.6534L0.900001 29.654C0.904343 30.4627 1.2247 31.2373 1.79179 31.8095C2.35892 32.3816 3.12704 32.7052 3.92945 32.7096H3.93L14.12 32.7096L14.1205 32.7096C14.9229 32.7052 15.6911 32.3816 16.2582 31.8095C16.8253 31.2373 17.1456 30.4627 17.15 29.654V29.6534L17.15 3.95615L17.15 3.95561C17.1456 3.14685 16.8253 2.37228 16.2582 1.80012C15.6911 1.22794 14.9229 0.904387 14.1205 0.9H14.12L3.93 0.899999ZM1.864 29.6534V28.8575H16.185V29.6534L16.185 29.6537C16.1857 29.928 16.1328 30.1997 16.0293 30.4533C15.9258 30.7068 15.7737 30.9372 15.5818 31.1312C15.39 31.3253 15.1621 31.4791 14.9112 31.5841C14.6604 31.689 14.3915 31.7429 14.12 31.7428H14.12H3.93H3.9299C3.65834 31.7431 3.38937 31.6892 3.13843 31.5843C2.88748 31.4795 2.65947 31.3256 2.46749 31.1316C2.27551 30.9375 2.12334 30.7071 2.01977 30.4535C1.91619 30.1999 1.86324 29.9281 1.864 29.6537V29.6534ZM9.02519 29.8866L9.05177 29.8866C9.12271 29.8914 9.19138 29.915 9.25088 29.9551C9.31813 30.0004 9.37068 30.0649 9.40174 30.1406C9.43281 30.2163 9.44095 30.2996 9.4251 30.38C9.40925 30.4604 9.37016 30.5341 9.31289 30.5919C9.25563 30.6497 9.18279 30.6889 9.10362 30.7048C9.02446 30.7207 8.9424 30.7125 8.86777 30.6813L8.82921 30.7736L8.86777 30.6813C8.79313 30.6501 8.7292 30.5973 8.68415 30.5292C8.63915 30.4613 8.61506 30.3814 8.61499 30.2995C8.6157 30.1896 8.65938 30.0847 8.73625 30.0074C8.81315 29.9302 8.91703 29.8868 9.02519 29.8866ZM3.93017 1.87082H14.1198C14.6047 1.87259 15.0739 2.04486 15.4466 2.35818C15.7886 2.64568 16.0298 3.03546 16.1362 3.46973H1.91376C2.02023 3.03546 2.26138 2.64568 2.6034 2.35818C2.97612 2.04486 3.44532 1.87259 3.93017 1.87082ZM7.75099 2.18436C7.62287 2.18436 7.50018 2.23572 7.40986 2.32685C7.31956 2.41795 7.26899 2.54132 7.26899 2.66977C7.26899 2.79822 7.31956 2.92159 7.40986 3.01269C7.50018 3.10382 7.62287 3.15518 7.75099 3.15518H10.3C10.4281 3.15518 10.5508 3.10382 10.6411 3.01269C10.7314 2.92159 10.782 2.79822 10.782 2.66977C10.782 2.54132 10.7314 2.41795 10.6411 2.32685C10.5508 2.23572 10.4281 2.18436 10.3 2.18436H7.75099ZM1.864 4.44156H16.185V27.8877H1.864V4.44156Z" fill="#333333" stroke="#333333" stroke-width="0.2"/>
</svg>
