<svg width="42" height="13" viewBox="0 0 42 13" fill="none" xmlns="http://www.w3.org/2000/svg">
<path d="M15.0352 12.105L17.1177 0.390625H20.3717L18.3542 12.105H15.0352Z" fill="#3C58BF"/>
<path d="M15.0352 12.105L17.7034 0.390625H20.3717L18.3542 12.105H15.0352Z" fill="#293688"/>
<path d="M30.133 0.520639C29.4822 0.260319 28.4409 0 27.1393 0C23.8853 0 21.5425 1.627 21.5425 3.96988C21.5425 5.72703 23.1695 6.63815 24.4711 7.22387C25.7727 7.80959 26.1631 8.20007 26.1631 8.72071C26.1631 9.50167 25.1219 9.89215 24.2107 9.89215C22.9091 9.89215 22.1933 9.69691 21.0869 9.24135L20.6313 9.04611L20.1758 11.7144C20.9567 12.0398 22.3885 12.3652 23.8853 12.3652C27.3346 12.3652 29.6124 10.7382 29.6124 8.26515C29.6124 6.89847 28.7663 5.85719 26.8139 5.01116C25.6425 4.42544 24.9266 4.10004 24.9266 3.51432C24.9266 2.99368 25.5123 2.47304 26.8139 2.47304C27.9203 2.47304 28.7013 2.66828 29.287 2.9286L29.6124 3.05876L30.133 0.520639Z" fill="#3C58BF"/>
<path d="M30.133 0.520639C29.4822 0.260319 28.4409 0 27.1393 0C23.8853 0 22.1282 1.627 22.1282 3.96988C22.1282 5.72703 23.1695 6.63815 24.4711 7.22387C25.7727 7.80959 26.1631 8.20007 26.1631 8.72071C26.1631 9.50167 25.1219 9.89215 24.2107 9.89215C22.9091 9.89215 22.1933 9.69691 21.0869 9.24135L20.6313 9.04611L20.1758 11.7144C20.9567 12.0398 22.3885 12.3652 23.8853 12.3652C27.3346 12.3652 29.6124 10.7382 29.6124 8.26515C29.6124 6.89847 28.7663 5.85719 26.8139 5.01116C25.6425 4.42544 24.9266 4.10004 24.9266 3.51432C24.9266 2.99368 25.5123 2.47304 26.8139 2.47304C27.9203 2.47304 28.7013 2.66828 29.287 2.9286L29.6124 3.05876L30.133 0.520639Z" fill="#293688"/>
<path d="M35.7293 0.390625C34.9484 0.390625 34.3626 0.455706 34.0372 1.23667L29.1562 12.105H32.6706L33.3214 10.1526H37.4865L37.877 12.105H41.0008L38.2674 0.390625H35.7293ZM34.2325 8.20022C34.4277 7.6145 35.5341 4.75098 35.5341 4.75098C35.5341 4.75098 35.7944 4.0351 35.9896 3.57954L36.1849 4.6859C36.1849 4.6859 36.8357 7.6145 36.9658 8.2653H34.2325V8.20022Z" fill="#3C58BF"/>
<path d="M36.5103 0.390625C35.7293 0.390625 35.1436 0.455706 34.8182 1.23667L29.1562 12.105H32.6706L33.3214 10.1526H37.4865L37.877 12.105H41.0008L38.2674 0.390625H36.5103ZM34.2325 8.20022C34.4928 7.54942 35.5341 4.75098 35.5341 4.75098C35.5341 4.75098 35.7944 4.0351 35.9896 3.57954L36.1849 4.6859C36.1849 4.6859 36.8357 7.6145 36.9658 8.2653H34.2325V8.20022Z" fill="#293688"/>
<path d="M9.04506 8.59056L8.71966 6.89848C8.13394 4.94608 6.24662 2.79844 4.16406 1.75717L7.09266 12.17H10.607L15.8785 0.455566H12.3641L9.04506 8.59056Z" fill="#3C58BF"/>
<path d="M9.04506 8.59056L8.71966 6.89848C8.13394 4.94608 6.24662 2.79844 4.16406 1.75717L7.09266 12.17H10.607L15.8785 0.455566H13.0149L9.04506 8.59056Z" fill="#293688"/>
<path d="M0 0.390625L0.585719 0.520785C4.75084 1.49698 7.61435 3.97002 8.72071 6.89862L7.54927 1.36682C7.35403 0.585865 6.76831 0.390625 6.05243 0.390625H0Z" fill="#FFBC00"/>
<path d="M0 0.390625C4.16512 1.36682 7.61435 3.90494 8.72071 6.83354L7.61435 2.21286C7.41911 1.4319 6.76831 0.976345 6.05243 0.976345L0 0.390625Z" fill="#F7981D"/>
<path d="M0 0.390625C4.16512 1.36682 7.61435 3.90494 8.72071 6.83354L7.93975 4.29542C7.74451 3.51446 7.48419 2.7335 6.57307 2.4081L0 0.390625Z" fill="#ED7C00"/>
<path d="M12.3004 8.19989L10.0877 5.98717L9.04638 8.46021L8.78607 6.83321C8.20035 4.88081 6.31303 2.73317 4.23047 1.69189L7.15907 12.1047H10.6734L12.3004 8.19989Z" fill="#051244"/>
<path d="M18.3542 12.1047L15.5558 9.24121L15.0352 12.1047H18.3542Z" fill="#051244"/>
<path d="M25.8377 8.06982C26.0981 8.33014 26.2282 8.52539 26.1631 8.78571C26.1631 9.56666 25.1219 9.95714 24.2107 9.95714C22.9091 9.95714 22.1933 9.7619 21.0869 9.30634L20.6313 9.1111L20.1758 11.7794C20.9567 12.1048 22.3885 12.4302 23.8853 12.4302C25.9679 12.4302 27.66 11.8445 28.6362 10.8032L25.8377 8.06982Z" fill="#051244"/>
<path d="M29.6133 12.1046H32.672L33.3228 10.1522H37.488L37.8784 12.1046H41.0023L39.8959 7.35374L35.9911 3.5791L36.1864 4.62038C36.1864 4.62038 36.8372 7.54898 36.9673 8.19978H34.234C34.4943 7.54898 35.5356 4.75054 35.5356 4.75054C35.5356 4.75054 35.7959 4.03466 35.9911 3.5791" fill="#051244"/>
</svg>
