<svg width="43" height="43" viewBox="0 0 43 43" fill="none" xmlns="http://www.w3.org/2000/svg">
<path d="M43 21.5C43 33.374 33.374 43 21.5 43C9.62595 43 0 33.374 0 21.5C0 21.5051 21.5 0.00235156 21.5 0C33.374 0 43 9.62595 43 21.5Z" fill="#0052B4"/>
<path d="M21.4424 21.5002H21.4999C21.4999 21.4808 21.4999 21.462 21.4999 21.4426C21.4808 21.4619 21.4616 21.481 21.4424 21.5002Z" fill="#F0F0F0"/>
<path d="M21.5 11.2174C21.5 7.4343 21.5 4.9555 21.5 0H21.4964C9.62394 0.00201563 0 9.62704 0 21.5H11.2174V15.1835L17.534 21.5H21.4426C21.4617 21.4809 21.4809 21.4617 21.5001 21.4425C21.5001 19.994 21.5001 18.7016 21.5001 17.5341L15.1834 11.2174H21.5Z" fill="#F0F0F0"/>
<path d="M10.8776 2.8042C7.51495 4.71896 4.71945 7.51446 2.80469 10.8771V21.4999H8.41342V8.4131V8.41293H21.5004C21.5004 6.64397 21.5004 4.95873 21.5004 2.8042H10.8776Z" fill="#D80027"/>
<path d="M21.5003 18.8559L13.8617 11.2173C13.8617 11.2173 11.2178 11.2175 11.2178 11.2173V11.2175L21.5002 21.4998H21.5003C21.5003 21.4998 21.5003 19.6768 21.5003 18.8559Z" fill="#D80027"/>
<path d="M37.2325 15.9536L37.6965 17.3819H39.1982L37.9833 18.2645L38.4474 19.6927L37.2325 18.8101L36.0175 19.6927L36.4816 18.2645L35.2666 17.3819H36.7683L37.2325 15.9536Z" fill="#D80027"/>
<path d="M31.8647 26.2361L32.5609 28.3785H34.8134L32.9909 29.7025L33.6872 31.8448L31.8647 30.5208L30.0422 31.8448L30.7385 29.7025L28.916 28.3785H31.1686L31.8647 26.2361Z" fill="#D80027"/>
<path d="M32.0675 9.40991L32.6476 11.1953H34.5248L33.006 12.2985L33.5862 14.0838L32.0675 12.9803L30.5489 14.0838L31.129 12.2985L29.6104 11.1953H31.4874L32.0675 9.40991Z" fill="#D80027"/>
<path d="M26.9018 15.8911L27.5979 18.0336H29.8505L28.028 19.3575L28.7243 21.4998L26.9018 20.1758L25.0794 21.4998L25.7756 19.3575L23.9531 18.0336H26.2057L26.9018 15.8911Z" fill="#D80027"/>
</svg>
