<svg width="64" height="64" viewBox="0 0 64 64" fill="none" xmlns="http://www.w3.org/2000/svg">
<path d="M24.5 62C24.1038 62 23.7186 62.1067 23.4396 62.2927C23.1606 62.4788 23 62.736 23 62.9998C23 63.2628 23.1606 63.5208 23.4396 63.7069C23.7186 63.8929 24.1055 64 24.5 64C24.8945 64 25.2814 63.8929 25.5604 63.7069C25.8394 63.5208 26 63.2628 26 62.9998C26 62.7368 25.8394 62.4788 25.5604 62.2927C25.2814 62.1067 24.8945 62 24.5 62Z" fill="url(#paint0_linear)"/>
<path d="M18.0002 49C17.4479 49 17 49.5403 17 50.2065V62.7935C17 63.4597 17.4479 64 18.0002 64C18.5525 64 19 63.4597 19 62.7935V50.2065C19 49.5403 18.5525 49 18.0002 49Z" fill="url(#paint1_linear)"/>
<path d="M30.0348 10C28.9757 10 27.9801 10.4148 27.2314 11.1679C26.4822 11.9206 26.0696 12.9215 26.0701 13.9862C26.0701 16.2281 25.2648 18.3478 23.7945 20.0162C23.889 19.5586 23.9388 19.0849 23.9388 18.5995C23.9388 14.753 20.8264 11.6236 17.0002 11.6236C13.174 11.6236 10.0612 14.753 10.0612 18.5995C10.0612 19.0849 10.111 19.5586 10.2055 20.0162C8.79141 18.4077 7.93038 16.2968 7.93038 13.9862C7.93038 11.7882 6.15166 10 3.96519 10C1.77872 10 0 11.7882 0 13.9862C0 20.6199 3.78262 26.59 9.70474 29.4214V42.2204C9.70474 42.2267 9.70377 42.233 9.70377 42.2398V62.7547C9.70377 63.4426 10.2587 64 10.943 64C11.6273 64 12.1818 63.4426 12.1818 62.7547V43.4856H23.3926V57.7719C23.3926 58.4598 23.9476 59.0177 24.6318 59.0177C25.3161 59.0177 25.8711 58.4598 25.8711 57.7719V28.5592C27.012 27.8552 28.0672 27.0189 29.0154 26.0656C32.23 22.834 34 18.5445 34 13.9862C34 11.7882 32.2213 10 30.0348 10ZM17.0002 14.1147C19.4598 14.1147 21.4608 16.1264 21.4608 18.5995C21.4608 21.0721 19.4598 23.0838 17.0002 23.0838C14.5402 23.0838 12.5392 21.0721 12.5392 18.5995C12.5392 16.1264 14.5402 14.1147 17.0002 14.1147ZM27.2633 24.3038C26.3035 25.2682 25.2159 26.0934 24.0299 26.7565C23.6367 26.976 23.3926 27.3928 23.3926 27.845V40.994H12.1827V28.6137C12.1827 28.1113 11.8825 27.6581 11.4215 27.4643C5.98846 25.1825 2.478 19.892 2.478 13.9862C2.478 13.162 3.14484 12.4916 3.96471 12.4916C4.78457 12.4916 5.45189 13.1625 5.45189 13.9862C5.45189 20.3876 10.6326 25.5953 16.9998 25.5953H17.0002C20.0797 25.5953 22.9781 24.387 25.1621 22.1919C27.3457 19.9972 28.5481 17.083 28.5481 13.9862C28.5481 13.587 28.7026 13.2117 28.9835 12.9293C29.2643 12.6469 29.6377 12.4916 30.0348 12.4916C30.8547 12.4916 31.5215 13.162 31.522 13.9862C31.522 17.879 30.0091 21.5429 27.2633 24.3038Z" fill="url(#paint2_linear)"/>
<path d="M60.0353 27C58.9762 27 57.9801 27.4153 57.2314 28.1688C56.4822 28.9229 56.0701 29.925 56.0701 30.991C56.0701 33.2356 55.2652 35.3579 53.795 37.0283C53.889 36.5701 53.9388 36.0959 53.9388 35.6099C53.9388 31.7587 50.8264 28.6256 47.0002 28.6256C43.174 28.6256 40.0612 31.7587 40.0612 35.6099C40.0612 36.0959 40.111 36.5701 40.2055 37.0283C38.7914 35.4178 37.9304 33.3044 37.9304 30.991C37.9304 28.7903 36.1517 27 33.9652 27C31.7787 27 30 28.7903 30 30.991C30 32.5118 30.1995 34.0209 30.5932 35.4773C30.7724 36.1417 31.4528 36.5345 32.1138 36.3532C32.7744 36.1724 33.1637 35.4871 32.9841 34.8227C32.6485 33.5798 32.478 32.2905 32.478 30.991C32.478 30.1658 33.1453 29.4942 33.9652 29.4942C34.7851 29.4946 35.4519 30.1658 35.4519 30.991C35.4519 37.4002 40.6326 42.6142 46.9998 42.6142H47.0002C50.0797 42.6142 52.9781 41.4039 55.1621 39.2066C57.3457 37.0093 58.5481 34.0916 58.5481 30.9906C58.5481 30.5914 58.7026 30.2155 58.9835 29.9328C59.2643 29.6501 59.6377 29.4942 60.0348 29.4942C60.8547 29.4942 61.5215 30.1658 61.522 30.991C61.5215 34.8885 60.0091 38.5569 57.2629 41.3211C56.304 42.2866 55.2159 43.1128 54.0299 43.7762C53.6367 43.9965 53.3926 44.4138 53.3926 44.8666V58.0315H42.1827V45.6362C42.1827 45.1332 41.8825 44.6794 41.4215 44.4854C40.2127 43.977 39.0752 43.3039 38.0408 42.4855C37.5028 42.0595 36.7241 42.1536 36.3008 42.6951C35.878 43.2362 35.971 44.0204 36.5091 44.4464C37.4999 45.2307 38.572 45.9004 39.7047 46.4444V59.2593C39.7043 59.2656 39.7038 59.272 39.7038 59.2788V62.7532C39.7038 63.4419 40.2583 64 40.9425 64C41.6268 64 42.1818 63.4419 42.1818 62.7532V60.5256H53.3926V62.7532C53.3926 63.4419 53.9476 64 54.6318 64C55.3161 64 55.8706 63.4419 55.8706 62.7532V45.5816C57.012 44.8768 58.0672 44.0389 59.0154 43.0846C62.2295 39.8495 64 35.5543 64 30.9906C64 28.7903 62.2213 27 60.0353 27ZM47.0002 31.1197C49.4598 31.1197 51.4608 33.1338 51.4608 35.6099C51.4608 38.0855 49.4598 40.0996 47.0002 40.0996C44.5406 40.0996 42.5396 38.0855 42.5396 35.6099C42.5396 33.1338 44.5406 31.1197 47.0002 31.1197Z" fill="url(#paint3_linear)"/>
<path d="M34.7234 39.4354C34.2625 38.9827 33.3366 38.864 32.6557 39.1694C31.9742 39.4756 31.795 40.0903 32.2553 40.543L32.2722 40.5597C32.5591 40.8454 33.031 41 33.5123 41C33.7957 41 34.0832 40.9463 34.337 40.8338C35.0213 40.5307 35.2058 39.9167 34.7496 39.4621L34.7234 39.4354Z" fill="url(#paint4_linear)"/>
<path d="M56 16C56.5522 16 57 15.4706 57 14.8172V13.1832C57 12.5299 56.5522 12 56 12C55.4478 12 55 12.5299 55 13.1832V14.8172C55 15.4706 55.4478 16 56 16Z" fill="url(#paint5_linear)"/>
<path d="M56 24C56.5522 24 57 23.4701 57 22.8168V21.1828C57 20.5299 56.5522 20 56 20C55.4478 20 55 20.5299 55 21.1828V22.8168C55 23.4701 55.4478 24 56 24Z" fill="url(#paint6_linear)"/>
<path d="M59.1832 19H60.8172C61.4706 19 62 18.5525 62 18.0002C62 17.4479 61.4706 17 60.8172 17H59.1832C58.5299 17 58 17.4479 58 18.0002C58 18.5525 58.5299 19 59.1832 19Z" fill="url(#paint7_linear)"/>
<path d="M51.1831 19H52.8169C53.4702 19 54 18.5525 54 18.0002C54 17.4479 53.4702 17 52.8169 17H51.1831C50.5298 17 50 17.4479 50 18.0002C50 18.5525 50.5298 19 51.1831 19Z" fill="url(#paint8_linear)"/>
<path d="M43.0002 4C43.5525 4 44 3.47012 44 2.81678V1.18322C44 0.529881 43.5525 0 43.0002 0C42.4479 0 42 0.529881 42 1.18322V2.81678C42 3.47012 42.4475 4 43.0002 4Z" fill="url(#paint9_linear)"/>
<path d="M43.0002 12C43.5525 12 44 11.4702 44 10.8169V9.18308C44 8.52982 43.5525 8 43.0002 8C42.4479 8 42 8.52982 42 9.18308V10.8169C42 11.4702 42.4475 12 43.0002 12Z" fill="url(#paint10_linear)"/>
<path d="M46.1828 7H47.8168C48.4701 7 49 6.55208 49 5.9998C49 5.44753 48.4701 5 47.8168 5H46.1828C45.5294 5 45 5.44753 45 5.9998C45 6.55208 45.5294 7 46.1828 7Z" fill="url(#paint11_linear)"/>
<path d="M38.1831 7H39.8169C40.4702 7 41 6.55208 41 5.9998C41 5.44753 40.4702 5 39.8169 5H38.1831C37.5298 5 37 5.44753 37 5.9998C37 6.55208 37.5298 7 38.1831 7Z" fill="url(#paint12_linear)"/>
<defs>
<linearGradient id="paint0_linear" x1="24.5" y1="62" x2="24.5" y2="64" gradientUnits="userSpaceOnUse">
<stop stop-color="#00B564"/>
<stop offset="1" stop-color="#21C1F3"/>
</linearGradient>
<linearGradient id="paint1_linear" x1="18" y1="49" x2="18" y2="64" gradientUnits="userSpaceOnUse">
<stop stop-color="#00B564"/>
<stop offset="1" stop-color="#21C1F3"/>
</linearGradient>
<linearGradient id="paint2_linear" x1="17" y1="10" x2="17" y2="64" gradientUnits="userSpaceOnUse">
<stop stop-color="#00B564"/>
<stop offset="1" stop-color="#21C1F3"/>
</linearGradient>
<linearGradient id="paint3_linear" x1="47" y1="27" x2="47" y2="64" gradientUnits="userSpaceOnUse">
<stop stop-color="#00B564"/>
<stop offset="1" stop-color="#21C1F3"/>
</linearGradient>
<linearGradient id="paint4_linear" x1="33.5" y1="39" x2="33.5" y2="41" gradientUnits="userSpaceOnUse">
<stop stop-color="#00B564"/>
<stop offset="1" stop-color="#21C1F3"/>
</linearGradient>
<linearGradient id="paint5_linear" x1="56" y1="12" x2="56" y2="16" gradientUnits="userSpaceOnUse">
<stop stop-color="#00B564"/>
<stop offset="1" stop-color="#21C1F3"/>
</linearGradient>
<linearGradient id="paint6_linear" x1="56" y1="20" x2="56" y2="24" gradientUnits="userSpaceOnUse">
<stop stop-color="#00B564"/>
<stop offset="1" stop-color="#21C1F3"/>
</linearGradient>
<linearGradient id="paint7_linear" x1="60" y1="17" x2="60" y2="19" gradientUnits="userSpaceOnUse">
<stop stop-color="#00B564"/>
<stop offset="1" stop-color="#21C1F3"/>
</linearGradient>
<linearGradient id="paint8_linear" x1="52" y1="17" x2="52" y2="19" gradientUnits="userSpaceOnUse">
<stop stop-color="#00B564"/>
<stop offset="1" stop-color="#21C1F3"/>
</linearGradient>
<linearGradient id="paint9_linear" x1="43" y1="0" x2="43" y2="4" gradientUnits="userSpaceOnUse">
<stop stop-color="#00B564"/>
<stop offset="1" stop-color="#21C1F3"/>
</linearGradient>
<linearGradient id="paint10_linear" x1="43" y1="8" x2="43" y2="12" gradientUnits="userSpaceOnUse">
<stop stop-color="#00B564"/>
<stop offset="1" stop-color="#21C1F3"/>
</linearGradient>
<linearGradient id="paint11_linear" x1="47" y1="5" x2="47" y2="7" gradientUnits="userSpaceOnUse">
<stop stop-color="#00B564"/>
<stop offset="1" stop-color="#21C1F3"/>
</linearGradient>
<linearGradient id="paint12_linear" x1="39" y1="5" x2="39" y2="7" gradientUnits="userSpaceOnUse">
<stop stop-color="#00B564"/>
<stop offset="1" stop-color="#21C1F3"/>
</linearGradient>
</defs>
</svg>
