<svg width="9" height="14" viewBox="0 0 9 14" fill="none" xmlns="http://www.w3.org/2000/svg">
<path d="M1.30523 14C1.37429 14 1.44268 13.9865 1.5065 13.9601C1.57031 13.9337 1.6283 13.895 1.67715 13.8463L8.15831 7.37147C8.25688 7.27297 8.31226 7.13939 8.31226 7.00011C8.31226 6.86083 8.25688 6.72725 8.15831 6.62875L1.67715 0.153948C1.62833 0.105157 1.57037 0.0664488 1.50658 0.0400344C1.44278 0.01362 1.37441 1.62748e-05 1.30535 1.45937e-08C1.23629 -1.62456e-05 1.16791 0.0135553 1.1041 0.0399397C1.0403 0.0663241 0.982318 0.105005 0.933476 0.153773C0.884634 0.202541 0.845887 0.260442 0.819445 0.324169C0.793004 0.387897 0.779385 0.456203 0.779368 0.525188C0.779352 0.594173 0.792938 0.662486 0.81935 0.726226C0.845762 0.789966 0.884483 0.847885 0.933301 0.896676L7.04288 6.99994L0.933301 13.1032C0.859717 13.1767 0.8096 13.2703 0.789292 13.3722C0.768983 13.4741 0.779396 13.5798 0.819213 13.6758C0.85903 13.7718 0.926463 13.8538 1.01298 13.9116C1.09949 13.9693 1.20119 14 1.30523 14Z" fill="black"/>
</svg>
