<svg width="30" height="32" viewBox="0 0 30 32" fill="none" xmlns="http://www.w3.org/2000/svg">
<path d="M19.589 26.0153C19.589 29.1066 17.0829 31.6124 13.9916 31.6124C10.9004 31.6124 8.39453 29.1066 8.39453 26.0153C8.39453 22.924 10.9004 20.418 13.9916 20.418C17.0829 20.418 19.589 22.924 19.589 26.0153Z" fill="#FFA000"/>
<path d="M23.7992 14.7106C19.0555 14.0332 15.3924 9.95414 15.3924 5.02602C15.3924 3.62655 15.6916 2.29882 16.222 1.09382C15.5056 0.926001 14.7613 0.828125 13.9929 0.828125C8.5918 0.828125 4.1979 5.22177 4.1979 10.6231V14.5243C4.1979 17.2935 2.9847 19.9075 0.856285 21.7069C0.312075 22.1714 0 22.8502 0 23.5666C0 24.9171 1.09841 26.0155 2.44869 26.0155H25.5371C26.8876 26.0155 27.9861 24.9171 27.9861 23.5666C27.9861 22.8502 27.674 22.1714 27.1157 21.6944C25.0503 19.9467 23.8525 17.4096 23.7992 14.7106Z" fill="#FFCA26"/>
<path d="M29.3561 5.91145C29.3561 9.1762 26.7094 11.8227 23.4446 11.8227C20.1799 11.8227 17.5332 9.1762 17.5332 5.91145C17.5332 2.6467 20.1799 0 23.4446 0C26.7094 0 29.3561 2.6467 29.3561 5.91145Z" fill="#FF7170"/>
</svg>
