<svg width="60" height="60" viewBox="0 0 60 60" fill="none" xmlns="http://www.w3.org/2000/svg">
<circle cx="30" cy="30" r="30" fill="#F9F9F9"/>
<path d="M41.9564 29.6942C41.8249 29.1392 41.4174 28.6931 40.8768 28.5135L32.8167 25.8263L38.5409 14.3779C38.9002 13.6575 38.6852 12.7816 38.0323 12.3099C37.3761 11.8398 36.4777 11.9105 35.9098 12.4815L19.4815 28.9097C19.0788 29.3124 18.9136 29.8948 19.0436 30.4483C19.1751 31.0033 19.5826 31.4494 20.1232 31.629L28.1833 34.3162L22.4591 45.7646C22.0998 46.4849 22.3148 47.3609 22.9677 47.8326C23.6217 48.3013 24.5183 48.2327 25.0902 47.661L41.5185 31.2328C41.9212 30.8301 42.0864 30.2477 41.9564 29.6942Z" fill="#C4C4C4"/>
</svg>
