<svg width="47" height="26" viewBox="0 0 47 26" fill="none" xmlns="http://www.w3.org/2000/svg">
<path d="M47 0V25.1719H0V0H47Z" fill="#58935E"/>
<path d="M40.9168 3.08008H5.98824C5.98824 4.84405 4.58785 6.15527 2.92188 6.20427V18.9676C4.58785 19.0166 5.98824 20.4258 5.98824 22.1898H40.9168C40.9168 20.4258 42.2192 19.0166 43.8852 18.9676V6.20427C42.2192 6.15527 40.9168 4.84405 40.9168 3.08008Z" fill="#7FD695"/>
<path d="M38.8839 10.585C39.2797 10.585 39.6666 10.7023 39.9957 10.9222C40.3248 11.1421 40.5813 11.4546 40.7327 11.8203C40.8842 12.1859 40.9238 12.5883 40.8466 12.9765C40.7694 13.3647 40.5788 13.7212 40.2989 14.0011C40.0191 14.281 39.6625 14.4715 39.2743 14.5488C38.8862 14.626 38.4838 14.5863 38.1181 14.4349C37.7525 14.2834 37.44 14.0269 37.2201 13.6979C37.0002 13.3688 36.8828 12.9819 36.8828 12.5861C36.8827 12.3233 36.9345 12.063 37.035 11.8202C37.1356 11.5774 37.283 11.3568 37.4688 11.1709C37.6546 10.9851 37.8752 10.8377 38.1181 10.7372C38.3609 10.6366 38.6211 10.5849 38.8839 10.585Z" fill="#61B257"/>
<path d="M23.4996 3.18018C25.3599 3.18018 27.1785 3.73182 28.7253 4.76535C30.272 5.79888 31.4776 7.26788 32.1895 8.98658C32.9014 10.7053 33.0877 12.5965 32.7248 14.4211C32.3619 16.2456 31.466 17.9216 30.1506 19.237C28.8352 20.5525 27.1592 21.4483 25.3346 21.8112C23.5101 22.1741 21.6189 21.9879 19.9002 21.276C18.1815 20.564 16.7125 19.3585 15.6789 17.8117C14.6454 16.2649 14.0938 14.4464 14.0938 12.5861C14.0937 11.3509 14.337 10.1277 14.8097 8.98655C15.2824 7.84537 15.9752 6.80846 16.8486 5.93504C17.722 5.06161 18.7589 4.36878 19.9001 3.8961C21.0413 3.42342 22.2644 3.18015 23.4996 3.18018ZM30.3311 12.5861C30.3311 11.2349 29.9304 9.91413 29.1798 8.7907C28.4291 7.66727 27.3622 6.79166 26.1139 6.27461C24.8656 5.75755 23.4921 5.62226 22.1669 5.88586C20.8417 6.14945 19.6245 6.80008 18.6691 7.75548C17.7137 8.71088 17.063 9.92813 16.7994 11.2533C16.5358 12.5785 16.6711 13.9521 17.1882 15.2003C17.7052 16.4486 18.5808 17.5156 19.7043 18.2662C20.8277 19.0169 22.1485 19.4175 23.4996 19.4175C25.3114 19.4175 27.0491 18.6978 28.3302 17.4166C29.6114 16.1355 30.3311 14.3979 30.3311 12.5861Z" fill="#61B257"/>
<path d="M8.11343 10.585C8.50925 10.5848 8.89625 10.702 9.22546 10.9217C9.55467 11.1415 9.81132 11.454 9.96293 11.8196C10.1145 12.1853 10.1543 12.5876 10.0772 12.9759C10.0001 13.3641 9.80959 13.7208 9.52976 14.0008C9.24994 14.2807 8.89338 14.4714 8.50517 14.5487C8.11696 14.626 7.71455 14.5864 7.34884 14.435C6.98312 14.2835 6.67053 14.0271 6.4506 13.698C6.23067 13.3689 6.11328 12.9819 6.11328 12.5861C6.1132 12.0555 6.32388 11.5466 6.69897 11.1713C7.07405 10.7961 7.58284 10.5851 8.11343 10.585Z" fill="#61B257"/>
<path d="M5.86183 18.9676V6.20427C7.5278 6.15527 8.92819 4.84405 8.92819 3.08008H5.98824C5.98824 4.84405 4.58785 6.15527 2.92188 6.20427V18.9676C4.58785 19.0166 5.98824 20.4258 5.98824 22.1898H8.92819C8.92819 20.4258 7.5278 19.0166 5.86183 18.9676Z" fill="#6DB57C"/>
<path d="M25.8684 10.6258H25.0403C24.9607 10.3157 24.8368 10.0187 24.6725 9.74385H25.8681C26.024 9.74385 26.1736 9.6819 26.2839 9.57163C26.3941 9.46136 26.4561 9.31181 26.4561 9.15586C26.4561 8.99992 26.3941 8.85036 26.2839 8.74009C26.1736 8.62982 26.024 8.56787 25.8681 8.56787H21.1329C20.977 8.56787 20.8274 8.62982 20.7171 8.74009C20.6069 8.85036 20.5449 8.99992 20.5449 9.15586C20.5449 9.31181 20.6069 9.46136 20.7171 9.57163C20.8274 9.6819 20.977 9.74385 21.1329 9.74385H22.4879C23.0746 9.74385 23.5796 10.1358 23.8052 10.6258H21.1329C20.977 10.6258 20.8274 10.6878 20.7171 10.7981C20.6069 10.9083 20.5449 11.0579 20.5449 11.2138C20.5449 11.3698 20.6069 11.5193 20.7171 11.6296C20.8274 11.7399 20.977 11.8018 21.1329 11.8018H23.8052C23.5798 12.2918 23.0746 12.5858 22.4879 12.5858H21.1329C21.0137 12.5905 20.8985 12.63 20.8015 12.6994C20.7045 12.7688 20.6299 12.865 20.587 12.9763C20.544 13.0876 20.5346 13.209 20.5598 13.3256C20.5851 13.4422 20.6439 13.5488 20.7291 13.6323L24.1159 16.838C24.1717 16.891 24.2374 16.9325 24.3093 16.9601C24.3812 16.9878 24.4578 17.001 24.5347 16.999C24.6117 16.997 24.6875 16.9799 24.7579 16.9487C24.8283 16.9174 24.8918 16.8726 24.9448 16.8167C24.9978 16.7609 25.0394 16.6952 25.067 16.6233C25.0946 16.5515 25.1078 16.4749 25.1059 16.3979C25.1039 16.3209 25.0868 16.2451 25.0555 16.1747C25.0242 16.1044 24.9794 16.0408 24.9236 15.9878L22.6089 13.8154C23.1759 13.7828 23.7176 13.5699 24.1551 13.2076C24.5925 12.8454 24.9027 12.3528 25.0404 11.8018H25.8684C26.0243 11.8018 26.1739 11.7399 26.2842 11.6296C26.3944 11.5193 26.4564 11.3698 26.4564 11.2138C26.4564 11.0579 26.3944 10.9083 26.2842 10.7981C26.1739 10.6878 26.0243 10.6258 25.8684 10.6258Z" fill="white"/>
</svg>
