<svg width="26" height="29" viewBox="0 0 26 29" fill="none" xmlns="http://www.w3.org/2000/svg">
<path d="M5.43752 0C4.44063 0 3.625 0.815633 3.625 1.81252V27.1878C3.625 28.1846 4.44063 29.0003 5.43752 29.0003H23.5627C24.5596 29.0003 25.3752 28.1846 25.3752 27.1878V7.25007L18.1251 0H5.43752Z" fill="#E2E5E7"/>
<path d="M19.9375 7.25007H25.3751L18.125 0V5.43755C18.125 6.43444 18.9406 7.25007 19.9375 7.25007Z" fill="#B0B7BD"/>
<path d="M25.3751 12.688L19.9375 7.25049H25.3751V12.688Z" fill="#CAD1D8"/>
<path d="M21.7502 23.5631C21.7502 24.0615 21.3424 24.4693 20.844 24.4693H0.906259C0.407816 24.4693 0 24.0615 0 23.5631V14.5005C0 14.0021 0.407816 13.5942 0.906259 13.5942H20.844C21.3424 13.5942 21.7502 14.0021 21.7502 14.5005V23.5631Z" fill="#F15642"/>
<path d="M3.94922 17.1707C3.94922 16.9314 4.13772 16.6704 4.44132 16.6704H6.11518C7.05768 16.6704 7.90594 17.3012 7.90594 18.5101C7.90594 19.6556 7.05768 20.2936 6.11518 20.2936H4.90532V21.2506C4.90532 21.5696 4.70232 21.75 4.44132 21.75C4.20206 21.75 3.94922 21.5696 3.94922 21.2506V17.1707ZM4.90532 17.583V19.3883H6.11518C6.60093 19.3883 6.98518 18.9596 6.98518 18.5101C6.98518 18.0035 6.60093 17.583 6.11518 17.583H4.90532Z" fill="white"/>
<path d="M9.32447 21.7507C9.08522 21.7507 8.82422 21.6202 8.82422 21.3021V17.1858C8.82422 16.9257 9.08522 16.7363 9.32447 16.7363H10.9838C14.2953 16.7363 14.2228 21.7507 11.0491 21.7507H9.32447ZM9.78123 17.6208V20.8671H10.9838C12.9404 20.8671 13.0274 17.6208 10.9838 17.6208H9.78123Z" fill="white"/>
<path d="M15.3972 17.6783V18.8301H17.245C17.506 18.8301 17.767 19.0911 17.767 19.344C17.767 19.5832 17.506 19.779 17.245 19.779H15.3972V21.3006C15.3972 21.5544 15.2168 21.7492 14.9631 21.7492C14.6441 21.7492 14.4492 21.5544 14.4492 21.3006V17.1844C14.4492 16.9243 14.645 16.7349 14.9631 16.7349H17.5069C17.8259 16.7349 18.0144 16.9243 18.0144 17.1844C18.0144 17.4164 17.8259 17.6774 17.5069 17.6774H15.3972V17.6783Z" fill="white"/>
<path d="M20.8439 24.4692H3.625V25.3755H20.8439C21.3424 25.3755 21.7502 24.9677 21.7502 24.4692V23.563C21.7502 24.0614 21.3424 24.4692 20.8439 24.4692Z" fill="#CAD1D8"/>
</svg>
