<svg width="52" height="51" viewBox="0 0 52 51" fill="none" xmlns="http://www.w3.org/2000/svg">
<path d="M12.6582 10.8668H14.1348C14.7618 10.8662 15.3629 10.6168 15.8063 10.1735C16.2496 9.73009 16.499 9.12895 16.4996 8.50194V5.89921C16.499 5.2722 16.2496 4.67105 15.8063 4.2277C15.3629 3.78434 14.7618 3.53498 14.1348 3.53436H12.6582C12.0319 3.53622 11.4318 3.78608 10.9893 4.22927C10.5468 4.67247 10.2978 5.2729 10.2969 5.89921V8.50428C10.2984 9.13018 10.5477 9.73002 10.9901 10.1727C11.4326 10.6154 12.0323 10.8649 12.6582 10.8668ZM11.6422 5.89686C11.6425 5.62749 11.7496 5.36925 11.9401 5.17877C12.1306 4.9883 12.3888 4.88116 12.6582 4.88085H14.1348C14.4041 4.88116 14.6624 4.9883 14.8529 5.17877C15.0433 5.36925 15.1505 5.62749 15.1508 5.89686V8.50194C15.1505 8.77131 15.0433 9.02956 14.8529 9.22003C14.6624 9.4105 14.4041 9.51765 14.1348 9.51796H12.6582C12.3888 9.51765 12.1306 9.4105 11.9401 9.22003C11.7496 9.02956 11.6425 8.77131 11.6422 8.50194V5.89686Z" fill="black"/>
<path d="M37.8651 10.8668H39.3417C39.9676 10.8649 40.5673 10.6154 41.0098 10.1727C41.4522 9.73002 41.7015 9.13018 41.703 8.50428V5.89921C41.7021 5.27209 41.4525 4.67095 41.0089 4.22762C40.5654 3.7843 39.9641 3.53498 39.337 3.53436H37.8604C37.2334 3.53498 36.6323 3.78434 36.1889 4.22769C35.7456 4.67105 35.4962 5.2722 35.4956 5.89921V8.50428C35.4968 9.13169 35.7471 9.73295 36.1914 10.1759C36.6357 10.6189 37.2377 10.8674 37.8651 10.8668ZM36.8491 5.89686C36.8494 5.62749 36.9566 5.36925 37.147 5.17877C37.3375 4.9883 37.5958 4.88116 37.8651 4.88085H39.3417C39.6113 4.88085 39.8698 4.98785 40.0605 5.17836C40.2513 5.36887 40.3586 5.62729 40.3589 5.89686V8.50194C40.3586 8.77151 40.2513 9.02994 40.0605 9.22044C39.8698 9.41095 39.6113 9.51796 39.3417 9.51796H37.8651C37.5958 9.51765 37.3375 9.4105 37.147 9.22003C36.9566 9.02956 36.8494 8.77131 36.8491 8.50194V5.89686Z" fill="black"/>
<path d="M14.1348 20.3098H12.6582C12.0319 20.3116 11.4318 20.5615 10.9893 21.0047C10.5468 21.4479 10.2978 22.0483 10.2969 22.6746V25.2808C10.2978 25.908 10.5474 26.5091 10.991 26.9524C11.4345 27.3958 12.0358 27.6451 12.6629 27.6457H14.1395C14.7656 27.6438 15.3656 27.3939 15.8079 26.9507C16.2503 26.5075 16.499 25.907 16.4996 25.2808V22.6746C16.499 22.0476 16.2496 21.4464 15.8063 21.0031C15.3629 20.5597 14.7618 20.3104 14.1348 20.3098ZM15.1508 25.2808C15.1505 25.5502 15.0433 25.8085 14.8529 25.9989C14.6624 26.1894 14.4041 26.2966 14.1348 26.2969H12.6582C12.3888 26.2966 12.1306 26.1894 11.9401 25.9989C11.7496 25.8085 11.6425 25.5502 11.6422 25.2808V22.6746C11.6425 22.4052 11.7496 22.147 11.9401 21.9565C12.1306 21.766 12.3888 21.6589 12.6582 21.6586H14.1348C14.4041 21.6589 14.6624 21.766 14.8529 21.9565C15.0433 22.147 15.1505 22.4052 15.1508 22.6746V25.2808Z" fill="black"/>
<path d="M39.3419 20.3098H37.8653C37.2383 20.3104 36.6372 20.5597 36.1938 21.0031C35.7505 21.4464 35.5011 22.0476 35.5005 22.6746V25.2808C35.5011 25.9079 35.7505 26.509 36.1938 26.9524C36.6372 27.3957 37.2383 27.6451 37.8653 27.6457H39.3419C39.9682 27.6438 40.5683 27.394 41.0108 26.9508C41.4533 26.5076 41.7023 25.9071 41.7032 25.2808V22.6746C41.7023 22.0483 41.4533 21.4479 41.0108 21.0047C40.5683 20.5615 39.9682 20.3116 39.3419 20.3098ZM40.3591 25.2808C40.3588 25.5504 40.2515 25.8088 40.0607 25.9993C39.87 26.1899 39.6115 26.2969 39.3419 26.2969H37.8653C37.596 26.2966 37.3377 26.1894 37.1472 25.9989C36.9568 25.8085 36.8496 25.5502 36.8493 25.2808V22.6746C36.8496 22.4052 36.9568 22.147 37.1472 21.9565C37.3377 21.766 37.596 21.6589 37.8653 21.6586H39.3419C39.6115 21.6586 39.87 21.7656 40.0607 21.9561C40.2515 22.1466 40.3588 22.405 40.3591 22.6746V25.2808Z" fill="black"/>
<path d="M48.5 0H3.5C2.60207 0.000930657 1.74119 0.358043 1.10626 0.992975C0.471325 1.62791 0.114212 2.48879 0.113281 3.38672V38.3367C0.114212 39.2346 0.471325 40.0955 1.10626 40.7305C1.74119 41.3654 2.60207 41.7225 3.5 41.7234H19.8781V48.9785H14.968C14.794 48.9858 14.6295 49.06 14.5089 49.1857C14.3884 49.3114 14.3211 49.4788 14.3211 49.6529C14.3211 49.8271 14.3884 49.9945 14.5089 50.1202C14.6295 50.2459 14.794 50.3201 14.968 50.3274H37.032C37.206 50.3201 37.3705 50.2459 37.491 50.1202C37.6116 49.9945 37.6789 49.8271 37.6789 49.6529C37.6789 49.4788 37.6116 49.3114 37.491 49.1857C37.3705 49.06 37.206 48.9858 37.032 48.9785H32.1219V41.7234H48.5C49.3979 41.7225 50.2588 41.3654 50.8937 40.7305C51.5287 40.0955 51.8858 39.2346 51.8867 38.3367V3.38672C51.8858 2.48879 51.5287 1.62791 50.8937 0.992975C50.2588 0.358043 49.3979 0.000930657 48.5 0ZM50.5379 33.5508H45.1473V30.4078C45.147 30.2889 45.1155 30.1722 45.0558 30.0693C44.9962 29.9665 44.9105 29.8811 44.8074 29.8219L41.3504 27.8449C41.1999 27.7593 41.0223 27.7347 40.8542 27.7761C40.6861 27.8175 40.5403 27.9219 40.4469 28.0676L38.6094 30.9504L36.773 28.0676C36.6796 27.9219 36.5338 27.8175 36.3657 27.7761C36.1976 27.7347 36.02 27.7593 35.8695 27.8449L32.4125 29.8219C32.3094 29.8811 32.2237 29.9665 32.1641 30.0693C32.1044 30.1722 32.0729 30.2889 32.0727 30.4078V33.5508H26.682V18.1242H50.5367L50.5379 33.5508ZM33.4168 33.5508V30.7992L35.9762 29.3355L38.0352 32.5676C38.0963 32.6631 38.1805 32.7418 38.2801 32.7963C38.3796 32.8507 38.4912 32.8793 38.6047 32.8793C38.7181 32.8793 38.8298 32.8507 38.9293 32.7963C39.0288 32.7418 39.1131 32.6631 39.1742 32.5676L41.2344 29.3355L43.7937 30.7992V33.5508H33.4168ZM8.20859 33.5508V30.7992L10.7656 29.3355L12.8258 32.5676C12.891 32.6576 12.9766 32.7309 13.0756 32.7815C13.1746 32.832 13.2842 32.8584 13.3953 32.8584C13.5065 32.8584 13.616 32.832 13.715 32.7815C13.814 32.7309 13.8997 32.6576 13.9648 32.5676L16.025 29.3355L18.5832 30.7992V33.5508H8.20859ZM19.5945 29.8219L16.1387 27.8449C15.9882 27.7593 15.8106 27.7347 15.6425 27.7761C15.4744 27.8175 15.3286 27.9219 15.2352 28.0676L13.3977 30.9504L11.5602 28.0676C11.4667 27.9219 11.3209 27.8175 11.1528 27.7761C10.9847 27.7347 10.8071 27.7593 10.6566 27.8449L7.19961 29.8219C7.09652 29.8811 7.01084 29.9665 6.95118 30.0693C6.89153 30.1722 6.86 30.2889 6.85977 30.4078V33.5508H1.46914V18.1242H25.3285V33.5508H19.9379V30.4078C19.9374 30.2884 19.9053 30.1713 19.8448 30.0683C19.7842 29.9654 19.6975 29.8803 19.5934 29.8219H19.5945ZM18.5855 16.7754H8.20742V14.0238L10.7656 12.5602L12.827 15.7887C12.8921 15.8787 12.9777 15.952 13.0767 16.0026C13.1757 16.0531 13.2853 16.0795 13.3965 16.0795C13.5076 16.0795 13.6172 16.0531 13.7162 16.0026C13.8152 15.952 13.9008 15.8787 13.966 15.7887L16.0262 12.5566L18.5844 14.0203L18.5855 16.7754ZM43.7937 16.7754H33.4156V14.0238L35.975 12.5602L38.034 15.7887C38.0951 15.8842 38.1794 15.9629 38.2789 16.0173C38.3784 16.0718 38.4901 16.1004 38.6035 16.1004C38.717 16.1004 38.8286 16.0718 38.9281 16.0173C39.0277 15.9629 39.1119 15.8842 39.173 15.7887L41.2344 12.5602L43.7937 14.0238V16.7754ZM50.5367 3.38672V16.7754H45.1461V13.6324C45.1461 13.5135 45.1147 13.3966 45.055 13.2937C44.9953 13.1908 44.9095 13.1055 44.8062 13.0465L41.3492 11.0695C41.1987 10.9839 41.0212 10.9593 40.8531 11.0007C40.685 11.0421 40.5392 11.1465 40.4457 11.2922L38.6082 14.175L36.7719 11.2922C36.6784 11.1465 36.5326 11.0421 36.3645 11.0007C36.1964 10.9593 36.0188 10.9839 35.8684 11.0695L32.4113 13.0465C32.3081 13.1055 32.2223 13.1908 32.1626 13.2937C32.1029 13.3966 32.0715 13.5135 32.0715 13.6324V16.7754H26.6809V1.34883H48.5C49.0401 1.34976 49.5578 1.5648 49.9396 1.94681C50.3214 2.32882 50.5361 2.84663 50.5367 3.38672ZM1.46328 3.38672C1.4639 2.84663 1.67865 2.32882 2.06044 1.94681C2.44223 1.5648 2.95991 1.34976 3.5 1.34883H25.3227V16.7754H19.932V13.6324C19.9324 13.5134 19.9011 13.3964 19.8414 13.2935C19.7817 13.1905 19.6957 13.1053 19.5922 13.0465L16.1363 11.0695C15.9859 10.9839 15.8083 10.9593 15.6402 11.0007C15.4721 11.0421 15.3263 11.1465 15.2328 11.2922L13.3953 14.175L11.5578 11.2922C11.4643 11.1465 11.3185 11.0421 11.1504 11.0007C10.9824 10.9593 10.8048 10.9839 10.6543 11.0695L7.19844 13.0465C7.09519 13.1055 7.00938 13.1908 6.9497 13.2937C6.89002 13.3966 6.85859 13.5135 6.85859 13.6324V16.7754H1.46797L1.46328 3.38672ZM30.773 48.9785H21.227V41.7234H30.773V48.9785ZM48.5 40.3746H3.5C2.95971 40.374 2.44172 40.1591 2.05968 39.777C1.67763 39.395 1.46273 38.877 1.46211 38.3367V34.8996H50.5367V38.3367C50.5361 38.8768 50.3214 39.3946 49.9396 39.7766C49.5578 40.1586 49.0401 40.3737 48.5 40.3746Z" fill="black"/>
</svg>
