<svg width="52" height="35" viewBox="0 0 52 35" fill="none" xmlns="http://www.w3.org/2000/svg">
<path d="M49.5268 0H2.47317C1.10854 0 0.00172582 1.10531 4.1553e-06 2.47005V31.8348C-0.00247073 33.1983 1.1009 34.3055 2.46424 34.308H2.47317H49.5268C50.8903 34.3105 51.9975 33.2071 52 31.8438C52 31.8407 52 31.8378 52 31.8348V2.46994C51.9983 1.10531 50.8916 0 49.5268 0ZM29.3908 3.65078H22.6093C22.029 3.65121 21.5582 3.18098 21.5578 2.60068C21.5574 2.02037 22.0276 1.5496 22.6079 1.54917H22.6093H29.3908C29.9711 1.54874 30.4419 2.01897 30.4423 2.59928C30.4428 3.17959 29.9725 3.65035 29.3922 3.65078C29.3918 3.65078 29.3912 3.65078 29.3908 3.65078Z" fill="#FFCA26"/>
<path d="M2.32422 5.57275V31.8385C2.32422 31.9187 2.38921 31.9838 2.46948 31.9838H49.5308C49.611 31.9838 49.6761 31.9188 49.6761 31.8385V5.57275H2.32422Z" fill="#EEEFEE"/>
<path d="M10.0684 17.4946V19.2633C12.3088 20.4473 12.8047 20.4048 15.1909 19.2633V17.4946H10.0684Z" fill="#F4BB87"/>
<path d="M21.0347 25.335V23.917C21.0348 22.5261 20.2555 21.2524 19.0168 20.6195L15.1929 18.6035L12.6316 19.8668L10.0703 18.6042L6.24641 20.6201C5.00778 21.253 4.22841 22.5268 4.22852 23.9176V25.3356L21.0347 25.335Z" fill="#575B6D"/>
<path d="M12.9061 25.335L15.1909 18.6035L12.6297 19.8667L10.0684 18.6035L12.3538 25.335H12.9061Z" fill="#EEEFEE"/>
<path d="M12.9477 20.784H12.3154L11.7148 19.7243L13.5469 19.7212L12.9477 20.784Z" fill="#DA364C"/>
<path d="M12.9064 25.3345L13.5482 23.4384L12.9477 20.7832H12.3147L11.7148 23.4384L12.3559 25.3345H12.9064Z" fill="#EF5261"/>
<path d="M10.0684 18.6035L12.6297 19.7215L10.5877 20.9587L10.0684 18.6035Z" fill="#DBD8DD"/>
<path d="M15.1922 18.6035L12.6309 19.7215L14.6728 20.9587L15.1922 18.6035Z" fill="#DBD8DD"/>
<path d="M9.14405 21.3468L12.0389 25.335H12.3547L10.07 18.6035L8.49219 20.5801L9.6089 20.6493L9.14405 21.3468Z" fill="#414451"/>
<path d="M13.2234 25.335L16.1182 21.3468L15.6534 20.6493L16.7702 20.5801L15.1924 18.6035L12.9082 25.335H13.2234Z" fill="#414451"/>
<path d="M9.08682 13.7045V15.4021C9.00665 15.45 8.91508 15.4754 8.82179 15.4757C8.4483 15.4757 8.14453 15.0571 8.14453 14.5479C8.14453 14.0387 8.4483 13.6284 8.82179 13.6284C8.9153 13.6293 9.00698 13.6556 9.08682 13.7045Z" fill="#F4BB87"/>
<path d="M16.1699 13.7045V15.4021C16.2501 15.45 16.3417 15.4754 16.4349 15.4757C16.8084 15.4757 17.1122 15.0571 17.1122 14.5479C17.1122 14.0387 16.8084 13.6284 16.4349 13.6284C16.3414 13.6293 16.2498 13.6556 16.1699 13.7045Z" fill="#F4BB87"/>
<path d="M9.65518 11.3147C9.4574 11.5182 9.28836 11.7477 9.15288 11.997C8.94531 12.513 8.83771 13.0637 8.83577 13.6198C8.7569 14.4903 8.87914 15.3672 9.1928 16.183C9.35044 16.6425 9.61063 17.06 9.95378 17.4038C10.3404 17.802 10.7716 18.1545 11.2386 18.4545C12.0856 18.9986 13.1727 18.9969 14.0181 18.4501C14.4825 18.1485 14.913 17.7977 15.3022 17.4038C15.6458 17.0613 15.9046 16.6432 16.0581 16.183C16.3782 15.3688 16.5032 14.4909 16.4235 13.6198C16.4215 13.0637 16.3139 12.513 16.1064 11.997C16.0141 11.7556 15.8925 11.5264 15.7443 11.3147C13.6858 10.4649 11.647 10.2455 9.65518 11.3147Z" fill="#FED19A"/>
<path d="M16.4162 13.3571C16.4162 13.3571 18.3929 9.57941 15.4282 8.53759C15.4282 8.53759 12.6379 5.32433 9.19838 8.97199C9.19838 8.97199 7.37331 11.2308 8.83435 13.5321C8.83435 13.5321 9.49891 11.2948 10.3151 11.1648C11.8441 11.9032 13.6332 11.8709 15.1346 11.078C15.34 11.9427 15.7841 12.7323 16.4162 13.3571Z" fill="#414451"/>
<path d="M24.1992 7.91455H46.7654V9.30845H24.1992V7.91455Z" fill="white"/>
<path d="M24.1992 11.9214H46.7654V13.3153H24.1992V11.9214Z" fill="white"/>
<path d="M24.1992 15.9277H46.7654V17.3216H24.1992V15.9277Z" fill="white"/>
<path d="M24.1992 19.9341H46.7654V21.328H24.1992V19.9341Z" fill="white"/>
<path d="M24.1992 23.9409H46.7654V25.3348H24.1992V23.9409Z" fill="white"/>
<path d="M4.22852 27.9473H46.7645V29.3412H4.22852V27.9473Z" fill="white"/>
</svg>
