<svg width="38" height="33" viewBox="0 0 38 33" fill="none" xmlns="http://www.w3.org/2000/svg">
<path d="M36.6429 5.42857H32.5714V1.35714C32.5714 0.997206 32.4284 0.652012 32.1739 0.397498C31.9194 0.142985 31.5742 0 31.2143 0H1.35714C0.997206 0 0.652012 0.142985 0.397498 0.397498C0.142984 0.652012 0 0.997206 0 1.35714V25.7857C0 26.1457 0.142984 26.4908 0.397498 26.7454C0.652012 26.9999 0.997206 27.1429 1.35714 27.1429H5.42857V31.2143C5.42857 31.5742 5.57156 31.9194 5.82607 32.1739C6.08058 32.4284 6.42578 32.5714 6.78571 32.5714H36.6429C37.0028 32.5714 37.348 32.4284 37.6025 32.1739C37.857 31.9194 38 31.5742 38 31.2143V6.78571C38 6.42578 37.857 6.08058 37.6025 5.82607C37.348 5.57156 37.0028 5.42857 36.6429 5.42857ZM2.71429 24.4286V2.71429H29.8571V5.42857H6.78571C6.42578 5.42857 6.08058 5.57156 5.82607 5.82607C5.57156 6.08058 5.42857 6.42578 5.42857 6.78571V24.4286H2.71429ZM35.2857 29.8571H8.14286V8.14286H35.2857V29.8571Z" fill="#7C7C7C"/>
<path d="M24.5361 14.9286C24.3395 14.9123 24.1418 14.9391 23.9566 15.0071C23.7714 15.0751 23.6033 15.1826 23.4639 15.3222L18.7275 20.0586L16.8818 19.1357C16.5978 18.992 16.2722 18.9526 15.9621 19.0245C15.652 19.0965 15.3771 19.2752 15.1854 19.5293L11.1139 24.9579C10.958 25.1603 10.8624 25.4027 10.8382 25.6571C10.8139 25.9115 10.862 26.1676 10.9768 26.3959C11.0917 26.6242 11.2686 26.8154 11.4874 26.9476C11.7061 27.0797 11.9577 27.1474 12.2132 27.1429H31.2132C31.4619 27.1417 31.7054 27.0723 31.9173 26.9422C32.1292 26.812 32.3012 26.6262 32.4147 26.4049C32.5281 26.1836 32.5786 25.9354 32.5605 25.6874C32.5425 25.4394 32.4567 25.2011 32.3125 24.9986L25.5268 15.4986C25.4131 15.3372 25.2655 15.2027 25.0944 15.1042C24.9233 15.0058 24.7327 14.9458 24.5361 14.9286ZM14.9275 24.4286L16.6918 22.0807L18.3882 22.9357C18.6427 23.0613 18.9301 23.104 19.21 23.0577C19.49 23.0115 19.7484 22.8786 19.9489 22.6779L24.2511 18.3757L28.5804 24.4286H14.9275Z" fill="#7C7C7C"/>
<path d="M13.5698 16.2857C15.0688 16.2857 16.284 15.0705 16.284 13.5714C16.284 12.0724 15.0688 10.8571 13.5698 10.8571C12.0707 10.8571 10.8555 12.0724 10.8555 13.5714C10.8555 15.0705 12.0707 16.2857 13.5698 16.2857Z" fill="#7C7C7C"/>
</svg>
