<svg width="9" height="14" viewBox="0 0 9 14" fill="none" xmlns="http://www.w3.org/2000/svg">
<path d="M7.75898 14C7.68992 14 7.62153 13.9865 7.55771 13.9601C7.4939 13.9337 7.43591 13.895 7.38706 13.8463L0.905904 7.37147C0.807329 7.27297 0.751953 7.13939 0.751953 7.00011C0.751953 6.86083 0.807329 6.72725 0.905904 6.62875L7.38706 0.153948C7.43588 0.105157 7.49384 0.0664488 7.55763 0.0400344C7.62143 0.01362 7.6898 1.62748e-05 7.75886 1.45937e-08C7.82792 -1.62456e-05 7.8963 0.0135553 7.96011 0.0399397C8.02391 0.0663241 8.08189 0.105005 8.13073 0.153773C8.17957 0.202541 8.21832 0.260442 8.24476 0.324169C8.27121 0.387897 8.28482 0.456203 8.28484 0.525188C8.28486 0.594173 8.27127 0.662486 8.24486 0.726226C8.21845 0.789966 8.17973 0.847885 8.13091 0.896676L2.02133 6.99994L8.13091 13.1032C8.20449 13.1767 8.25461 13.2703 8.27492 13.3722C8.29523 13.4741 8.28481 13.5798 8.245 13.6758C8.20518 13.7718 8.13775 13.8538 8.05123 13.9116C7.96472 13.9693 7.86301 14 7.75898 14Z" fill="black"/>
</svg>
