<svg width="29" height="36" viewBox="0 0 29 36" fill="none" xmlns="http://www.w3.org/2000/svg">
<path d="M0 1.91756V34.0824C0 35.1415 0.858516 36 1.91756 36H26.4024C27.4615 36 28.32 35.1415 28.32 34.0824V8.45677L19.8633 0H1.91763C0.858586 0 0 0.858516 0 1.91756Z" fill="#EAECF0"/>
<path d="M19.8633 0L28.32 8.45677H21.3122C20.5121 8.45677 19.8634 7.80806 19.8634 7.00791V0H19.8633Z" fill="#DF705D"/>
<path d="M14.4483 5.43364H3.51003C3.20994 5.43364 2.9668 5.19043 2.9668 4.8904C2.9668 4.59031 3.21001 4.34717 3.51003 4.34717H14.4483C14.7484 4.34717 14.9915 4.59038 14.9915 4.8904C14.9916 5.19043 14.7484 5.43364 14.4483 5.43364Z" fill="#676E84"/>
<path d="M14.4483 9.00737H3.51003C3.20994 9.00737 2.9668 8.76416 2.9668 8.46413C2.9668 8.16404 3.21001 7.9209 3.51003 7.9209H14.4483C14.7484 7.9209 14.9915 8.16411 14.9915 8.46413C14.9916 8.76416 14.7484 9.00737 14.4483 9.00737Z" fill="#676E84"/>
<path d="M14.1589 29.9448C18.6424 29.9448 22.2769 26.3103 22.2769 21.8269C22.2769 17.3435 18.6424 13.709 14.1589 13.709C9.67554 13.709 6.04102 17.3435 6.04102 21.8269C6.04102 26.3103 9.67554 29.9448 14.1589 29.9448Z" fill="#759CE7"/>
<path d="M14.1593 13.709C13.5023 13.709 12.8637 13.7876 12.252 13.9349C15.815 14.7929 18.4626 18.0005 18.4626 21.8269C18.4626 25.6533 15.815 28.8609 12.252 29.7189C12.8637 29.8662 13.5023 29.9448 14.1593 29.9448C18.6427 29.9448 22.2772 26.3103 22.2772 21.8269C22.2772 17.3435 18.6427 13.709 14.1593 13.709Z" fill="#5881CC"/>
<path d="M20.1948 21.2924C20.526 21.571 20.526 22.0824 20.1948 22.361C19.1543 23.2362 16.8435 24.8789 14.1601 24.8789C11.4767 24.8789 9.16594 23.2362 8.12538 22.361C7.79414 22.0824 7.79414 21.571 8.12538 21.2924C9.16594 20.4172 11.4767 18.7744 14.1601 18.7744C16.8435 18.7744 19.1543 20.4172 20.1948 21.2924Z" fill="white"/>
<path d="M20.194 21.2924C19.1533 20.4172 16.8427 18.7744 14.1593 18.7744C13.4961 18.7744 12.856 18.875 12.252 19.0392C14.0924 19.5396 15.5959 20.6334 16.3794 21.2923C16.7106 21.5709 16.7106 22.0823 16.3794 22.3609C15.5959 23.0198 14.0923 24.1136 12.252 24.614C12.856 24.7783 13.4961 24.8788 14.1593 24.8788C16.8427 24.8788 19.1534 23.236 20.194 22.3608C20.5253 22.0824 20.5253 21.571 20.194 21.2924Z" fill="#EAECF0"/>
<path d="M14.1614 23.2886C14.9689 23.2886 15.6235 22.6339 15.6235 21.8264C15.6235 21.0189 14.9689 20.3643 14.1614 20.3643C13.3538 20.3643 12.6992 21.0189 12.6992 21.8264C12.6992 22.6339 13.3538 23.2886 14.1614 23.2886Z" fill="#4A4E67"/>
</svg>
