<svg width="54" height="72" viewBox="0 0 54 72" fill="none" xmlns="http://www.w3.org/2000/svg">
<circle cx="27" cy="27" r="26.5" fill="#E1E1E1" stroke="#F2F2F2"/>
<mask id="mask0" mask-type="alpha" maskUnits="userSpaceOnUse" x="2" y="13" width="48" height="59">
<path d="M20.7874 36.9522C22.6244 38.1665 24.8219 38.7422 27.0302 38.5876C29.2385 38.4329 31.3308 37.5569 32.9741 36.0988C34.6174 34.6407 35.7174 32.6844 36.099 30.541C36.4807 28.3977 36.1221 26.1904 35.0802 24.2705C34.0384 22.3505 32.3732 20.8282 30.3496 19.9456C28.326 19.0631 26.0602 18.871 23.9127 19.4C21.7653 19.9291 19.8595 21.1487 18.4986 22.865C17.1377 24.5813 16.3999 26.6957 16.4026 28.8716C16.4046 30.4684 16.8054 32.0403 17.5699 33.4492C18.3345 34.8581 19.4393 36.061 20.7874 36.9522Z" fill="white"/>
<path d="M34.2772 37.8345C32.0766 39.7293 29.2506 40.7739 26.325 40.7739C23.3994 40.7739 20.5734 39.7293 18.3729 37.8345C12.9391 40.2819 9.22998 45.2649 9.22998 51.4693V54.3114H43.4201V51.4693C43.4201 45.2509 39.711 40.2819 34.2772 37.8345Z" fill="white"/>
</mask>
<g mask="url(#mask0)">
<circle cx="27" cy="27" r="27" fill="#F2F2F2"/>
</g>
</svg>
