<svg width="29" height="26" viewBox="0 0 29 26" fill="none" xmlns="http://www.w3.org/2000/svg">
<path d="M0.193756 8.54256C0.187765 10.7612 1.05255 12.8937 2.60255 14.4827C2.62303 14.5173 2.64781 14.5492 2.6763 14.5775L12.7446 24.6357C12.965 24.8558 13.2266 25.0305 13.5145 25.1496C13.8025 25.2688 14.1111 25.3301 14.4227 25.3301C14.7344 25.3301 15.043 25.2688 15.3309 25.1496C15.6188 25.0305 15.8805 24.8558 16.1008 24.6357L26.1698 14.5775C27.3675 13.3856 28.1839 11.8653 28.5157 10.2093C28.8474 8.55334 28.6795 6.83624 28.0332 5.2757C27.3869 3.71517 26.2913 2.38147 24.8853 1.44367C23.4794 0.505869 21.8263 0.00620168 20.1357 0.00800824H20.1286C18.163 0.00926913 16.2577 0.686274 14.7329 1.92529C14.648 1.99401 14.5421 2.03152 14.4328 2.03152C14.3236 2.03152 14.2177 1.99401 14.1328 1.92529C12.8809 0.902993 11.3642 0.256893 9.75908 0.0621872C8.15397 -0.132519 6.5265 0.132177 5.06611 0.825467C3.60573 1.51876 2.37247 2.61213 1.5099 3.97832C0.647322 5.34451 0.190901 6.92733 0.193756 8.54256Z" fill="#DE2C27"/>
</svg>
