<svg width="35" height="35" viewBox="0 0 35 35" fill="none" xmlns="http://www.w3.org/2000/svg">
<path d="M34.1 14.3807C34.1 10.8859 31.2566 8.04245 27.7614 8.04245C27.0086 8.04245 26.2892 8.18068 25.6198 8.42284C23.8734 6.35378 21.5295 4.94952 18.9412 4.37726V3.86719C18.9412 2.23106 17.6101 0.9 15.9736 0.9C14.3375 0.9 13.0064 2.23107 13.0064 3.86719V4.54947C7.86936 5.98924 4.08584 10.7011 4.08584 16.2923V25.7498H3.86719C2.23106 25.7498 0.9 27.0809 0.9 28.7174C0.9 30.3535 2.23107 31.6845 3.86719 31.6845H12.5053C12.9741 33.5402 14.6324 34.8704 16.6109 34.8704C18.5895 34.8704 20.2481 33.5402 20.7165 31.6845H28.7174C30.3539 31.6845 31.6845 30.3535 31.6845 28.7174C31.6845 27.0809 30.3539 25.7498 28.7174 25.7498H28.4987V20.6765C31.6478 20.3098 34.1 17.6266 34.1 14.3807ZM32.6257 14.3807C32.6257 17.0628 30.4436 19.2447 27.7614 19.2447C25.0796 19.2447 22.8974 17.0629 22.8974 14.3807C22.8974 11.6985 25.0796 9.51671 27.7614 9.51671C30.4436 9.51671 32.6257 11.6985 32.6257 14.3807ZM14.4807 3.86719C14.4807 3.04409 15.1502 2.37427 15.9736 2.37427C16.7971 2.37427 17.4665 3.04409 17.4665 3.86719V4.14382C17.0787 4.1064 16.687 4.08584 16.2923 4.08584C15.674 4.08584 15.0717 4.14491 14.4807 4.23494V3.86719ZM16.6109 33.3961C15.4557 33.3961 14.4747 32.6982 14.0607 31.6845H19.1612C18.7471 32.6982 17.7661 33.3961 16.6109 33.3961ZM28.7174 27.2244C29.5408 27.2244 30.2103 27.8943 30.2103 28.7174C30.2103 29.5405 29.5408 30.2103 28.7174 30.2103H3.86719C3.04375 30.2103 2.37427 29.5405 2.37427 28.7174C2.37427 27.8943 3.04375 27.2244 3.86719 27.2244H4.82316C5.2307 27.2244 5.56011 26.8941 5.56011 26.4871V16.2923C5.56011 10.3747 10.3747 5.56011 16.2923 5.56011C19.3484 5.56011 22.2133 6.85512 24.2497 9.11304C22.5485 10.2502 21.4228 12.1846 21.4228 14.3807C21.4228 17.6266 23.8753 20.3098 27.0241 20.6765V26.4871C27.0241 26.8941 27.3539 27.2244 27.7614 27.2244H28.7174Z" fill="#001534" stroke="#001534" stroke-width="0.2"/>
<path d="M25.6067 16.5362L25.5359 16.6068C25.6798 16.7511 25.8686 16.8229 26.057 16.8229C26.2454 16.8229 26.4345 16.7507 26.5783 16.6069C26.5783 16.6069 26.5783 16.6069 26.5783 16.6069L28.2832 14.9024L28.2832 14.9024C28.4215 14.764 28.4991 14.5764 28.4991 14.381V11.9455C28.4991 11.5384 28.1692 11.2086 27.7618 11.2086C27.3544 11.2086 27.0249 11.5385 27.0249 11.9455V14.076L25.536 15.5645C25.2479 15.8522 25.2479 16.3192 25.536 16.6069L25.6067 16.5362ZM25.6067 16.5362C25.731 16.6609 25.894 16.7229 26.057 16.7229C26.2199 16.7229 26.3833 16.6605 26.5076 16.5362L25.6067 15.6353C25.3577 15.8839 25.3577 16.2875 25.6067 16.5362Z" fill="#001534" stroke="#001534" stroke-width="0.2"/>
<path d="M18.2026 25.7496H16.9283C16.5209 25.7496 16.191 26.0799 16.191 26.4869C16.191 26.894 16.5209 27.2242 16.9283 27.2242H18.2026C18.6101 27.2242 18.9399 26.894 18.9399 26.4869C18.9399 26.0799 18.6101 25.7496 18.2026 25.7496Z" fill="#001534" stroke="#001534" stroke-width="0.2"/>
<path d="M14.5923 25.7496H8.00841C7.60094 25.7496 7.27109 26.0799 7.27109 26.4869C7.27109 26.894 7.60094 27.2242 8.00841 27.2242H14.5923C14.9998 27.2242 15.3296 26.894 15.3296 26.4869C15.3296 26.0799 14.9998 25.7496 14.5923 25.7496Z" fill="#001534" stroke="#001534" stroke-width="0.2"/>
</svg>
