<svg width="32" height="32" viewBox="0 0 32 32" fill="none" xmlns="http://www.w3.org/2000/svg">
<path d="M7.41652 21.3563C9.06924 22.4606 11.0123 23.05 13 23.05C14.3198 23.05 15.6267 22.7901 16.846 22.285C18.0653 21.7799 19.1732 21.0397 20.1064 20.1064C21.0397 19.1732 21.7799 18.0653 22.285 16.846C22.7901 15.6267 23.05 14.3198 23.05 13C23.05 11.0123 22.4606 9.06924 21.3563 7.41652C20.252 5.76381 18.6824 4.47568 16.846 3.71502C15.0096 2.95435 12.9889 2.75533 11.0393 3.14311C9.08984 3.53089 7.2991 4.48806 5.89358 5.89358C4.48806 7.2991 3.53089 9.08984 3.14311 11.0393C2.75533 12.9889 2.95435 15.0096 3.71502 16.846C4.47568 18.6824 5.76381 20.252 7.41652 21.3563ZM8.58322 6.38982C9.89059 5.51626 11.4276 5.05 13 5.05C15.1085 5.05 17.1306 5.88759 18.6215 7.37851C20.1124 8.86942 20.95 10.8915 20.95 13C20.95 14.5724 20.4837 16.1094 19.6102 17.4168C18.7366 18.7242 17.495 19.7431 16.0423 20.3448C14.5897 20.9466 12.9912 21.104 11.449 20.7972C9.90689 20.4905 8.49033 19.7333 7.37851 18.6215C6.26668 17.5097 5.50951 16.0931 5.20276 14.551C4.89601 13.0088 5.05345 11.4103 5.65516 9.95767C6.25688 8.505 7.27585 7.26338 8.58322 6.38982Z" fill="#001534" stroke="#001534" stroke-width="0.1"/>
<path d="M27.9999 29.0499C28.138 29.0507 28.2749 29.0242 28.4028 28.972C28.5307 28.9197 28.647 28.8428 28.7452 28.7454C28.8436 28.6478 28.9217 28.5317 28.975 28.4037C29.0283 28.2758 29.0557 28.1386 29.0557 27.9999C29.0557 27.8613 29.0283 27.7241 28.975 27.5961C28.9217 27.4682 28.8436 27.3521 28.7453 27.2546C28.7452 27.2545 28.7452 27.2545 28.7452 27.2544L20.7453 19.2546C20.6474 19.1567 20.5312 19.0791 20.4033 19.0261C20.2754 18.9731 20.1384 18.9458 19.9999 18.9458C19.8615 18.9458 19.7244 18.9731 19.5966 19.0261C19.4687 19.0791 19.3525 19.1567 19.2546 19.2546C19.1567 19.3525 19.0791 19.4687 19.0261 19.5966C18.9731 19.7244 18.9458 19.8615 18.9458 19.9999C18.9458 20.1384 18.9731 20.2754 19.0261 20.4033C19.0791 20.5312 19.1567 20.6474 19.2546 20.7453L27.2546 28.7453L27.2547 28.7454C27.3528 28.8428 27.4692 28.9197 27.5971 28.972C27.725 29.0242 27.8619 29.0507 27.9999 29.0499ZM27.9999 29.0499C27.9998 29.0499 27.9997 29.0499 27.9997 29.0499L27.9999 28.9999L28.0002 29.0499C28.0001 29.0499 28 29.0499 27.9999 29.0499Z" fill="#001534" stroke="#001534" stroke-width="0.1"/>
</svg>
