<svg width="28" height="29" viewBox="0 0 28 29" fill="none" xmlns="http://www.w3.org/2000/svg">
<path d="M22.0898 18.8047C20.4112 18.8047 18.9197 19.6204 17.9903 20.8761L9.98869 16.7869C10.1229 16.3309 10.1953 15.8486 10.1953 15.3496C10.1953 14.6738 10.0628 14.0285 9.82296 13.4378L18.2092 8.39918C19.1449 9.49744 20.5373 10.1953 22.0898 10.1953C24.9007 10.1953 27.1875 7.9085 27.1875 5.09766C27.1875 2.28681 24.9007 0 22.0898 0C19.279 0 16.9922 2.28681 16.9922 5.09766C16.9922 5.74732 17.1146 6.36884 17.3371 6.94074L8.92996 11.992C7.99494 10.9261 6.62361 10.252 5.09766 10.252C2.28681 10.252 0 12.5388 0 15.3496C0 18.1605 2.28681 20.4473 5.09766 20.4473C6.80379 20.4473 8.31666 19.6047 9.24245 18.3138L17.2208 22.3911C17.0723 22.8688 16.9922 23.3764 16.9922 23.9023C16.9922 26.7132 19.279 29 22.0898 29C24.9007 29 27.1875 26.7132 27.1875 23.9023C27.1875 21.0915 24.9007 18.8047 22.0898 18.8047ZM22.0898 1.69922C23.9637 1.69922 25.4883 3.22376 25.4883 5.09766C25.4883 6.97155 23.9637 8.49609 22.0898 8.49609C20.2159 8.49609 18.6914 6.97155 18.6914 5.09766C18.6914 3.22376 20.2159 1.69922 22.0898 1.69922ZM5.09766 18.748C3.22376 18.748 1.69922 17.2235 1.69922 15.3496C1.69922 13.4757 3.22376 11.9512 5.09766 11.9512C6.97155 11.9512 8.49609 13.4757 8.49609 15.3496C8.49609 17.2235 6.97155 18.748 5.09766 18.748ZM22.0898 27.3008C20.2159 27.3008 18.6914 25.7762 18.6914 23.9023C18.6914 22.0284 20.2159 20.5039 22.0898 20.5039C23.9637 20.5039 25.4883 22.0284 25.4883 23.9023C25.4883 25.7762 23.9637 27.3008 22.0898 27.3008Z" fill="#001534"/>
</svg>
