<svg width="43" height="43" viewBox="0 0 43 43" fill="none" xmlns="http://www.w3.org/2000/svg">
<path d="M21.5 43C33.3741 43 43 33.3741 43 21.5C43 9.62588 33.3741 0 21.5 0C9.62588 0 0 9.62588 0 21.5C0 33.3741 9.62588 43 21.5 43Z" fill="#F0F0F0"/>
<path d="M0 21.5001C0 9.62595 9.62595 0 21.5 0C33.374 0 43 9.62595 43 21.5001" fill="#D80027"/>
<path d="M13.0876 11.2172C13.0876 8.08477 15.2891 5.46798 18.2289 4.82592C17.777 4.72733 17.3083 4.67383 16.8267 4.67383C13.2127 4.67383 10.2832 7.60337 10.2832 11.2173C10.2832 14.8312 13.2127 17.7608 16.8267 17.7608C17.3082 17.7608 17.777 17.7073 18.2289 17.6086C15.2891 16.9665 13.0876 14.3498 13.0876 11.2172Z" fill="#F0F0F0"/>
<path d="M21.5009 5.14136L21.965 6.56951H23.4667L22.2517 7.45227L22.7158 8.88043L21.5009 7.99784L20.286 8.88043L20.7501 7.45227L19.5352 6.56951H21.0368L21.5009 5.14136Z" fill="#F0F0F0"/>
<path d="M17.8575 7.94556L18.3215 9.37379H19.8232L18.6083 10.2565L19.0724 11.6846L17.8575 10.802L16.6424 11.6846L17.1066 10.2565L15.8916 9.37379H17.3933L17.8575 7.94556Z" fill="#F0F0F0"/>
<path d="M25.1435 7.94556L25.6077 9.37379H27.1093L25.8943 10.2565L26.3585 11.6846L25.1435 10.802L23.9286 11.6846L24.3927 10.2565L23.1777 9.37379H24.6794L25.1435 7.94556Z" fill="#F0F0F0"/>
<path d="M23.7411 12.1521L24.2052 13.5803H25.7069L24.492 14.463L24.956 15.8912L23.7411 15.0086L22.5262 15.8912L22.9903 14.463L21.7754 13.5803H23.2769L23.7411 12.1521Z" fill="#F0F0F0"/>
<path d="M19.2607 12.1521L19.7248 13.5803H21.2266L20.0116 14.463L20.4757 15.8912L19.2607 15.0086L18.0457 15.8912L18.5098 14.463L17.2949 13.5803H18.7966L19.2607 12.1521Z" fill="#F0F0F0"/>
</svg>
