<svg width="27" height="26" viewBox="0 0 27 26" fill="none" xmlns="http://www.w3.org/2000/svg">
<path d="M22.9724 3.3757C20.4327 1.19889 17.0687 0 13.5 0C9.9313 0 6.56727 1.19889 4.02762 3.3757C1.43039 5.60189 0 8.57886 0 11.7581C0 14.9373 1.43039 17.9142 4.02762 20.1404C4.49306 20.5394 4.98638 20.9051 5.50338 21.237C4.54872 22.6754 3.43257 23.9975 2.17742 25.1736C4.91548 24.947 7.51166 24.2215 9.87634 23.0899C11.0421 23.3707 12.2586 23.5161 13.5 23.5161C17.0687 23.5161 20.4327 22.3172 22.9724 20.1404C25.5696 17.9142 27 14.9373 27 11.7581C27 8.57886 25.5696 5.60189 22.9724 3.3757ZM7.40323 13.5C6.44115 13.5 5.66129 12.7201 5.66129 11.7581C5.66129 10.796 6.44115 10.0161 7.40323 10.0161C8.3653 10.0161 9.14516 10.796 9.14516 11.7581C9.14516 12.7201 8.3653 13.5 7.40323 13.5ZM13.5 13.5C12.5379 13.5 11.7581 12.7201 11.7581 11.7581C11.7581 10.796 12.5379 10.0161 13.5 10.0161C14.4621 10.0161 15.2419 10.796 15.2419 11.7581C15.2419 12.7201 14.4621 13.5 13.5 13.5ZM19.5968 13.5C18.6347 13.5 17.8548 12.7201 17.8548 11.7581C17.8548 10.796 18.6347 10.0161 19.5968 10.0161C20.5588 10.0161 21.3387 10.796 21.3387 11.7581C21.3387 12.7201 20.5588 13.5 19.5968 13.5Z" fill="#001534" fill-opacity="0.8"/>
</svg>
