<svg width="23" height="22" viewBox="0 0 23 22" fill="none" xmlns="http://www.w3.org/2000/svg">
<path d="M5.14788 22C4.89589 22 4.64566 21.9215 4.4321 21.7674C4.03428 21.4796 3.84845 20.985 3.95672 20.5077L5.43637 14.0021L0.418336 9.60965C0.049476 9.28825 -0.0914347 8.77926 0.0600049 8.31354C0.211444 7.84869 0.623472 7.51958 1.11131 7.47456L7.75078 6.87292L10.3758 0.741414C10.5694 0.290926 11.0102 0 11.4999 0C11.9897 0 12.4305 0.290926 12.6241 0.740363L15.2491 6.87292L21.8875 7.47456C22.3764 7.51853 22.7884 7.84869 22.9398 8.31354C23.0913 8.77839 22.9512 9.28825 22.5824 9.60965L17.5644 14.0012L19.044 20.5067C19.1524 20.985 18.9664 21.4796 18.5688 21.7665C18.172 22.0534 17.643 22.0755 17.2251 21.8248L11.4999 18.4099L5.7747 21.8268C5.58114 21.9415 5.36548 22 5.14788 22ZM11.4999 16.9388C11.7175 16.9388 11.933 16.9972 12.1267 17.1119L17.53 20.3375L16.1335 14.1972C16.0338 13.7602 16.1824 13.3039 16.5208 13.0083L21.2589 8.86071L14.9902 8.29252C14.5389 8.25136 14.1507 7.96814 13.9744 7.55303L11.4999 1.76675L9.02249 7.55391C8.84806 7.96621 8.4599 8.24943 8.00962 8.29059L1.74005 8.85878L6.47802 13.0064C6.8174 13.3029 6.96586 13.7583 6.86531 14.1963L5.46989 20.3364L10.8731 17.1119C11.0667 16.9972 11.2823 16.9388 11.4999 16.9388ZM7.70007 6.9915C7.70007 6.9915 7.70007 6.99255 7.69902 6.99342L7.70007 6.9915ZM15.2978 6.98869L15.2989 6.99062C15.2989 6.98957 15.2989 6.98957 15.2978 6.98869Z" fill="#001534"/>
</svg>
