<svg width="43" height="43" viewBox="0 0 43 43" fill="none" xmlns="http://www.w3.org/2000/svg">
<path d="M21.5 43C33.3741 43 43 33.3741 43 21.5C43 9.62588 33.3741 0 21.5 0C9.62588 0 0 9.62588 0 21.5C0 33.3741 9.62588 43 21.5 43Z" fill="#A99BD4"/>
<path d="M21.5 43C33.3741 43 43 33.3741 43 21.5C43 9.62588 33.3741 0 21.5 0C9.62588 0 0 9.62588 0 21.5C0 33.3741 9.62588 43 21.5 43Z" fill="#DB1B1B"/>
<path d="M24.3135 42.8228C23.3944 42.941 22.4687 43.0001 21.542 43C9.66828 43 0.0419922 33.3737 0.0419922 21.5C0.0419922 9.62629 9.66828 2.56844e-07 21.542 2.56844e-07C22.4687 -0.000142287 23.3944 0.0590478 24.3135 0.177207C13.7482 1.53691 5.58496 10.5644 5.58496 21.5C5.58496 32.4356 13.7482 41.4631 24.3135 42.8228Z" fill="#C61717"/>
<path d="M34.1814 17.8996H25.7435C25.5729 17.8996 25.4092 17.8318 25.2886 17.7112C25.168 17.5905 25.1002 17.4269 25.1002 17.2563V8.81837C25.1003 8.73393 25.0837 8.65029 25.0515 8.57224C25.0193 8.4942 24.972 8.42327 24.9123 8.36352C24.8526 8.30378 24.7818 8.25638 24.7038 8.22404C24.6258 8.1917 24.5421 8.17505 24.4577 8.17505H18.5418C18.4574 8.17505 18.3738 8.1917 18.2958 8.22404C18.2178 8.25638 18.1469 8.30378 18.0872 8.36352C18.0276 8.42327 17.9803 8.4942 17.948 8.57224C17.9158 8.65029 17.8992 8.73393 17.8994 8.81837V17.2563C17.8994 17.4269 17.8316 17.5905 17.7109 17.7112C17.5903 17.8318 17.4267 17.8996 17.256 17.8996H8.81813C8.73368 17.8995 8.65005 17.916 8.572 17.9483C8.49395 17.9805 8.42303 18.0278 8.36328 18.0875C8.30353 18.1472 8.25613 18.218 8.22379 18.296C8.19145 18.374 8.1748 18.4576 8.1748 18.5421V24.4579C8.17503 24.6284 8.2429 24.7918 8.36353 24.9123C8.48415 25.0328 8.64765 25.1004 8.81813 25.1004H17.256C17.4265 25.1004 17.59 25.1681 17.7106 25.2885C17.8313 25.409 17.8991 25.5724 17.8994 25.7429V34.1816C17.8992 34.2661 17.9158 34.3496 17.948 34.4276C17.9803 34.5056 18.0276 34.5765 18.0873 34.6362C18.147 34.6959 18.2178 34.7432 18.2958 34.7754C18.3738 34.8077 18.4574 34.8242 18.5418 34.8241H24.4577C24.5421 34.8242 24.6257 34.8077 24.7037 34.7754C24.7817 34.7432 24.8526 34.6959 24.9122 34.6362C24.9719 34.5765 25.0192 34.5056 25.0515 34.4276C25.0837 34.3496 25.1003 34.2661 25.1002 34.1816V25.7429C25.1004 25.5724 25.1683 25.409 25.2889 25.2885C25.4095 25.1681 25.573 25.1004 25.7435 25.1004H34.1814C34.3519 25.1004 34.5154 25.0328 34.636 24.9123C34.7566 24.7918 34.8245 24.6284 34.8247 24.4579V18.5421C34.8247 18.4576 34.8081 18.374 34.7757 18.296C34.7434 18.218 34.696 18.1472 34.6363 18.0875C34.5765 18.0278 34.5056 17.9805 34.4275 17.9483C34.3495 17.916 34.2658 17.8995 34.1814 17.8996Z" fill="white"/>
<path d="M37.419 13.3627C38.1741 13.3627 38.7863 12.7506 38.7863 11.9954C38.7863 11.2403 38.1741 10.6282 37.419 10.6282C36.6639 10.6282 36.0518 11.2403 36.0518 11.9954C36.0518 12.7506 36.6639 13.3627 37.419 13.3627Z" fill="#E03636"/>
<path d="M35.4058 10.9499C35.9406 10.9499 36.3742 10.5163 36.3742 9.98153C36.3742 9.44673 35.9406 9.01318 35.4058 9.01318C34.871 9.01318 34.4375 9.44673 34.4375 9.98153C34.4375 10.5163 34.871 10.9499 35.4058 10.9499Z" fill="#E03636"/>
</svg>
