<svg width="49" height="32" viewBox="0 0 49 32" fill="none" xmlns="http://www.w3.org/2000/svg">
<path d="M42.3781 13.6898C43.813 12.6814 44.7632 11.0042 44.7632 9.11357C44.7632 6.02078 42.2618 3.51939 39.169 3.51939C36.0762 3.51939 33.5748 6.02078 33.5748 9.11357C33.5748 11.0042 34.5152 12.6814 35.9598 13.6898C34.7285 14.1163 33.6039 14.7756 32.6537 15.6288C31.3449 14.5139 29.8033 13.6607 28.1163 13.1565C30.1621 11.9155 31.5388 9.65651 31.5388 7.08726C31.5388 3.17036 28.3684 0 24.4515 0C20.5346 0 17.3643 3.18006 17.3643 7.08726C17.3643 9.65651 18.7313 11.9155 20.7867 13.1565C19.1191 13.6607 17.597 14.5042 16.2978 15.5997C15.3476 14.7659 14.2424 14.1163 13.0305 13.6994C14.4654 12.6911 15.4155 11.0139 15.4155 9.12327C15.4155 6.03047 12.9141 3.52909 9.82133 3.52909C6.72853 3.52909 4.22715 6.03047 4.22715 9.12327C4.22715 11.0139 5.16759 12.6911 6.61219 13.6994C2.76316 15.0277 0 18.6828 0 22.9778V23.6177C0 23.6371 0.0193906 23.6565 0.0387812 23.6565H11.8961C11.8283 24.1898 11.7895 24.7424 11.7895 25.295V25.9543C11.7895 28.8047 14.097 31.1122 16.9474 31.1122H31.9751C34.8255 31.1122 37.133 28.8047 37.133 25.9543V25.295C37.133 24.7424 37.0942 24.1898 37.0263 23.6565H48.9612C48.9806 23.6565 49 23.6371 49 23.6177V22.9778C48.9806 18.6731 46.2271 15.018 42.3781 13.6898ZM35.126 9.10388C35.126 6.87396 36.9391 5.06094 39.169 5.06094C41.3989 5.06094 43.2119 6.87396 43.2119 9.10388C43.2119 11.3047 41.4377 13.0983 39.2465 13.1468C39.2174 13.1468 39.1981 13.1468 39.169 13.1468C39.1399 13.1468 39.1205 13.1468 39.0914 13.1468C36.8906 13.108 35.126 11.3144 35.126 9.10388ZM18.8961 7.08726C18.8961 4.03324 21.3781 1.55125 24.4321 1.55125C27.4861 1.55125 29.9681 4.03324 29.9681 7.08726C29.9681 10.0346 27.651 12.4488 24.7521 12.6136C24.6454 12.6136 24.5388 12.6136 24.4321 12.6136C24.3255 12.6136 24.2188 12.6136 24.1122 12.6136C21.2133 12.4488 18.8961 10.0346 18.8961 7.08726ZM5.74931 9.10388C5.74931 6.87396 7.56233 5.06094 9.79224 5.06094C12.0222 5.06094 13.8352 6.87396 13.8352 9.10388C13.8352 11.3047 12.0609 13.0983 9.86981 13.1468C9.84072 13.1468 9.82133 13.1468 9.79224 13.1468C9.76316 13.1468 9.74377 13.1468 9.71468 13.1468C7.52355 13.108 5.74931 11.3144 5.74931 9.10388ZM12.1676 22.0956H1.57064C2.00693 17.9654 5.49723 14.7271 9.73407 14.6981C9.75346 14.6981 9.77285 14.6981 9.79224 14.6981C9.81163 14.6981 9.83103 14.6981 9.85042 14.6981C11.867 14.7078 13.7091 15.4543 15.1343 16.6662C13.7382 18.1787 12.7008 20.0402 12.1676 22.0956ZM35.5623 25.9543C35.5623 27.9418 33.9432 29.5609 31.9557 29.5609H16.928C14.9404 29.5609 13.3213 27.9418 13.3213 25.9543V25.295C13.3213 19.2742 18.1302 14.349 24.1122 14.1745C24.2188 14.1842 24.3352 14.1842 24.4418 14.1842C24.5485 14.1842 24.6648 14.1842 24.7715 14.1745C30.7535 14.349 35.5623 19.2742 35.5623 25.295V25.9543ZM36.7161 22.0956C36.1828 20.0499 35.1648 18.2175 33.7784 16.705C35.2133 15.464 37.0748 14.7175 39.1108 14.6981C39.1302 14.6981 39.1496 14.6981 39.169 14.6981C39.1884 14.6981 39.2078 14.6981 39.2271 14.6981C43.464 14.7271 46.9543 17.9654 47.3906 22.0956H36.7161Z" fill="#001534"/>
</svg>
