<svg width="40" height="47" viewBox="0 0 40 47" fill="none" xmlns="http://www.w3.org/2000/svg">
<path d="M38.4882 31.0155H37.3458V22.1022C37.3458 21.9524 37.2966 21.8068 37.2057 21.6877L33.9198 17.3793C34.2394 16.9593 34.4295 16.4359 34.4295 15.8687C34.4295 14.4902 33.308 13.3686 31.9295 13.3686C30.551 13.3686 29.4294 14.4902 29.4294 15.8687C29.4294 17.2473 30.551 18.3687 31.9295 18.3687C32.2458 18.3687 32.5483 18.309 32.8272 18.2014L35.9785 22.3333V31.0156H32.7109V29.0337C32.7109 28.6562 32.4048 28.3501 32.0273 28.3501C31.6498 28.3501 31.3437 28.6562 31.3437 29.0337V31.0156H28.3781V25.6635C28.3781 25.286 28.072 24.9799 27.6945 24.9799C27.317 24.9799 27.0109 25.286 27.0109 25.6635V31.0156H22.8724L21.6919 24.0411L22.0238 23.5415C22.3177 23.7502 22.6089 23.8984 23.0363 23.7914C23.3467 23.7138 23.6068 23.505 23.7497 23.2186L25.4174 19.8763L29.2256 21.3511C29.3295 21.3959 31.3438 22.3001 31.3438 24.666V25.8434C31.3438 26.2209 31.6499 26.527 32.0274 26.527C32.4049 26.527 32.711 26.2209 32.711 25.8434V24.666C32.711 21.3439 29.8627 20.1348 29.7414 20.0849C29.7372 20.0831 29.7328 20.0813 29.7284 20.0797L23.2819 17.5831V16.2111C24.2923 15.4046 25.0007 14.2351 25.2051 12.9011C25.7086 12.8439 26.1757 12.6455 26.562 12.3133C27.1044 11.8468 27.4156 11.1681 27.4156 10.4512C27.4156 9.87383 27.2136 9.3213 26.8518 8.88453V6.9105C26.8518 3.10005 23.7516 0 19.9413 0C16.1309 0 13.0308 3.10005 13.0308 6.9105V8.93594C12.6651 9.36751 12.4672 9.8937 12.4672 10.4509C12.4672 11.1678 12.7783 11.8467 13.3208 12.3132C13.7081 12.6462 14.1766 12.8449 14.6819 12.9013C14.8888 14.2022 15.5934 15.4518 16.7108 16.2954V17.583L10.2713 20.0795C10.267 20.0812 10.2628 20.0829 10.2585 20.0846C10.1372 20.1345 7.28893 21.3437 7.28893 24.6657V31.0153H4.02136V22.333L7.17263 18.2011C7.45145 18.3087 7.75396 18.3684 8.07033 18.3684C9.44891 18.3684 10.5704 17.2469 10.5704 15.8684C10.5704 14.4899 9.44882 13.3684 8.07033 13.3684C6.69184 13.3684 5.57029 14.4899 5.57029 15.8684C5.57029 16.4356 5.76051 16.9591 6.07998 17.3791L2.79408 21.6874C2.7032 21.8066 2.65399 21.9522 2.65399 22.102V31.0152H1.51184C0.678125 31.0152 0 31.6933 0 32.527V36.0712C0 36.9043 0.677123 37.5819 1.50992 37.583V45.2428C1.50992 46.0278 2.14849 46.6664 2.93353 46.6664H18.4049C18.7824 46.6664 19.0885 46.3603 19.0885 45.9828C19.0885 45.6053 18.7824 45.2992 18.4049 45.2992H2.93344C2.90236 45.2992 2.87711 45.274 2.87711 45.2429V37.5832H37.1229V45.2429C37.1229 45.274 37.0976 45.2992 37.0666 45.2992H21.5951C21.2176 45.2992 20.9115 45.6053 20.9115 45.9828C20.9115 46.3603 21.2176 46.6664 21.5951 46.6664H37.0665C37.8515 46.6664 38.4901 46.0278 38.4901 45.2428V37.583C39.3229 37.5819 40 36.9042 40 36.0712V32.5272C40 31.6936 39.3219 31.0155 38.4882 31.0155ZM31.9297 17.0013C31.3051 17.0013 30.7969 16.4931 30.7969 15.8685C30.7969 15.2439 31.305 14.7357 31.9297 14.7357C32.5543 14.7357 33.0624 15.2439 33.0624 15.8685C33.0624 16.5006 32.541 17.0013 31.9297 17.0013ZM8.07033 14.7358C8.69495 14.7358 9.20309 15.244 9.20309 15.8686C9.20309 16.4932 8.69495 17.0013 8.07033 17.0013C7.45901 17.0013 6.93757 16.5007 6.93757 15.8686C6.93757 15.244 7.4458 14.7358 8.07033 14.7358ZM24.1368 19.3803L22.6688 22.3223C22.6641 22.3191 22.2253 22.0073 20.9862 21.1272C22.1629 19.6747 22.2202 19.6041 22.8159 18.8687L24.1368 19.3803ZM19.9982 22.1027L20.9087 22.7492L20.6062 23.2045H19.3903L19.0879 22.7493L19.9982 22.1027ZM18.0781 17.8046V17.0332C18.7043 17.2577 19.3807 17.3592 20.0076 17.3592C20.6736 17.3592 21.3419 17.225 21.9147 17.0012V17.809L19.9982 20.1747L18.0781 17.8046ZM19.6014 24.5717H20.3951L21.4857 31.0153H18.5107L19.6014 24.5717ZM26.0482 10.4509C26.0482 10.769 25.9106 11.0698 25.6705 11.2763C25.5522 11.378 25.4154 11.4526 25.2659 11.4982V9.4047C25.7362 9.54908 26.0482 9.97063 26.0482 10.4509ZM14.617 11.4983C14.4675 11.4527 14.3306 11.3782 14.2125 11.2766C13.9722 11.0701 13.8346 10.7692 13.8346 10.4509C13.8346 10.0973 14.0329 9.84831 14.1724 9.71669C14.1746 9.71469 14.177 9.71296 14.1793 9.71086C14.3059 9.59347 14.4569 9.50396 14.617 9.44399V11.4983ZM14.9721 7.56848C14.839 7.6918 14.7323 7.8627 14.6778 8.02083C14.5838 8.03496 14.4906 8.05429 14.3984 8.07844V6.9105H14.3981C14.3981 3.85392 16.8848 1.36728 19.9413 1.36728C22.9979 1.36728 25.4846 3.85401 25.4846 6.9105V8.04663C25.4124 8.03031 25.3391 8.01755 25.2651 8.00744C25.2581 7.76499 25.2003 7.61843 24.9731 7.34235C24.7621 7.08641 24.3818 6.69475 23.5087 5.75641C23.1449 5.36539 22.5485 5.28518 22.0918 5.58359C20.2261 6.8024 17.9362 7.42893 15.8073 7.27645C15.5021 7.2533 15.1974 7.35966 14.9721 7.56848ZM15.9842 12.1011V8.69139V8.65612C17.2705 8.71263 18.5873 8.5256 19.8381 8.13677C20.8228 7.8307 21.7768 7.39649 22.655 6.84615C22.9051 7.11448 23.1115 7.33442 23.2818 7.51598C23.2932 7.52819 23.304 7.53968 23.3152 7.55171C23.3763 7.61679 23.4347 7.67913 23.4891 7.73728C23.6758 7.93671 23.8199 8.09238 23.8984 8.18399V12.1011C23.8984 14.2493 22.1461 15.992 20.0074 15.992C17.6462 15.992 15.9842 14.1751 15.9842 12.1011ZM17.1778 18.8697L19.008 21.1289C18.2164 21.6911 17.4131 22.2618 17.3276 22.3225L15.8597 19.3803L17.1778 18.8697ZM8.65612 24.6658C8.65621 22.3033 10.6476 21.4056 10.7746 21.3508L14.5788 19.876L16.2465 23.2184V23.2185C16.434 23.5939 16.8152 23.824 17.2258 23.824C17.6022 23.824 17.8241 23.6465 17.9723 23.5412L18.3043 24.0408L17.1238 31.0153H12.9891V25.6632C12.9891 25.2857 12.683 24.9796 12.3055 24.9796C11.928 24.9796 11.6219 25.2857 11.6219 25.6632V31.0153H8.65621V24.6658H8.65612ZM38.6327 36.0714C38.6327 36.1512 38.5679 36.216 38.4882 36.216C37.5102 36.216 2.33853 36.216 1.51175 36.216C1.43199 36.216 1.36719 36.1511 1.36719 36.0714V32.5272C1.36719 32.4475 1.43199 32.3827 1.51175 32.3827C2.7218 32.3827 37.5747 32.3827 38.4882 32.3827C38.5679 32.3827 38.6327 32.4475 38.6327 32.5272V36.0714Z" fill="#001534"/>
</svg>
