<svg width="19" height="5" viewBox="0 0 19 5" fill="none" xmlns="http://www.w3.org/2000/svg">
<path d="M18.3044 0.945627C17.3769 0.0181346 15.8731 0.0181346 14.9456 0.945627C14.0181 1.87312 14.0181 3.37689 14.9456 4.30438C15.8731 5.23187 17.3769 5.23187 18.3044 4.30438C19.2319 3.37693 19.2319 1.87316 18.3044 0.945627Z" fill="#001534"/>
<path d="M11.1794 0.945627C10.2519 0.0181346 8.74812 0.0181346 7.82063 0.945627C6.89313 1.87312 6.89313 3.37689 7.82063 4.30438C8.74812 5.23187 10.2519 5.23187 11.1794 4.30438C12.1069 3.37693 12.1069 1.87316 11.1794 0.945627Z" fill="#001534"/>
<path d="M4.05438 0.945627C3.12689 0.0181346 1.62312 0.0181346 0.695626 0.945627C-0.231866 1.87312 -0.231866 3.37689 0.695626 4.30438C1.62312 5.23187 3.12689 5.23187 4.05438 4.30438C4.98187 3.37693 4.98187 1.87316 4.05438 0.945627Z" fill="#001534"/>
</svg>
