<svg width="20" height="20" viewBox="0 0 20 20" fill="none" xmlns="http://www.w3.org/2000/svg">
<path d="M9.99637 0C12.7568 0 15.2562 1.12203 17.0705 2.92833C18.8775 4.74237 20 7.24068 20 10C20 12.7593 18.8775 15.2576 17.0705 17.0717C15.2557 18.878 12.7568 20 9.99637 20C7.23591 20 4.73706 18.878 2.93002 17.0717C1.11523 15.2576 0 12.7598 0 10C0 7.24068 1.11474 4.74237 2.92954 2.92833C4.73706 1.12203 7.23591 0 9.99637 0ZM15.0948 9.45424C15.3947 9.45424 15.6331 9.70024 15.6331 10C15.6331 10.2998 15.3947 10.5458 15.0948 10.5458H10.0119H9.99637C9.79628 10.5458 9.61946 10.4305 9.52741 10.2692L9.51966 10.2615L9.51191 10.246V10.2383L9.50415 10.2228L9.4964 10.2073V10.1995L9.48865 10.184L9.4809 10.1763V10.1608L9.47315 10.1453V10.1375L9.4654 10.122V10.1065V10.0988V10.091L9.45765 10.0833V10.0678V10.0523V10.0387V10.031V10.0155V10V3.48959C9.45765 3.18983 9.696 2.95157 9.99588 2.95157C10.2958 2.95157 10.5419 3.18983 10.5419 3.48959V9.45424H15.0948ZM16.3016 3.69734C14.6869 2.08329 12.4569 1.09153 9.99637 1.09153C7.53579 1.09153 5.30582 2.08281 3.69111 3.69734C2.08415 5.31138 1.08422 7.54044 1.08422 10C1.08422 12.4596 2.08367 14.6886 3.69111 16.3032C5.30582 17.9172 7.53579 18.909 9.99637 18.909C12.4569 18.909 14.6869 17.9172 16.3016 16.3032C17.9163 14.6891 18.9163 12.46 18.9163 10C18.9163 7.54044 17.9168 5.31138 16.3016 3.69734Z" fill="#001534"/>
</svg>
