<svg width="28" height="20" viewBox="0 0 28 20" fill="none" xmlns="http://www.w3.org/2000/svg">
<g clip-path="url(#clip0)">
<path d="M1.40293 2.81488H23.2639C24.2729 2.81488 25.2819 2.84288 26.2839 2.81488H26.3259C26.6972 2.81488 27.0533 2.66738 27.3159 2.40483C27.5784 2.14228 27.7259 1.78619 27.7259 1.41489C27.7259 1.04358 27.5784 0.687486 27.3159 0.424935C27.0533 0.162384 26.6972 0.0148859 26.3259 0.0148859H4.46493C3.45593 0.0148859 2.44693 -0.0131141 1.44493 0.0148859H1.40293C1.03163 0.0148859 0.675534 0.162384 0.412983 0.424935C0.150432 0.687486 0.00292969 1.04358 0.00292969 1.41489C0.00292969 1.78619 0.150432 2.14228 0.412983 2.40483C0.675534 2.66738 1.03163 2.81488 1.40293 2.81488Z" fill="white"/>
<path d="M1.40293 11.354H18.0179C18.3892 11.354 18.7453 11.2065 19.0079 10.9439C19.2704 10.6814 19.4179 10.3253 19.4179 9.95396C19.4179 9.58266 19.2704 9.22656 19.0079 8.964C18.7453 8.70145 18.3892 8.55396 18.0179 8.55396H1.40293C1.03163 8.55396 0.675534 8.70145 0.412983 8.964C0.150432 9.22656 0.00292969 9.58266 0.00292969 9.95396C0.00292969 10.3253 0.150432 10.6814 0.412983 10.9439C0.675534 11.2065 1.03163 11.354 1.40293 11.354Z" fill="white"/>
<path d="M1.40293 19.6638H9.71293C10.0842 19.6638 10.4403 19.5163 10.7029 19.2537C10.9654 18.9912 11.1129 18.6351 11.1129 18.2638C11.1129 17.8925 10.9654 17.5364 10.7029 17.2738C10.4403 17.0113 10.0842 16.8638 9.71293 16.8638H1.40293C1.03163 16.8638 0.675534 17.0113 0.412983 17.2738C0.150432 17.5364 0.00292969 17.8925 0.00292969 18.2638C0.00292969 18.6351 0.150432 18.9912 0.412983 19.2537C0.675534 19.5163 1.03163 19.6638 1.40293 19.6638Z" fill="white"/>
</g>
<defs>
<clipPath id="clip0">
<rect width="27.729" height="19.667" fill="white"/>
</clipPath>
</defs>
</svg>
