<svg width="41" height="35" viewBox="0 0 41 35" fill="none" xmlns="http://www.w3.org/2000/svg">
<path d="M2.56217 0.166992H38.4375C39.8503 0.166992 41 1.31668 41 2.72951V26.6464C41 28.0592 39.8503 29.2089 38.4375 29.2089H23.9165V31.0488L33.4526 32.6376C33.9173 32.7145 34.2316 33.1552 34.1547 33.6199C34.0846 34.0385 33.7225 34.334 33.3125 34.334C33.2664 34.334 33.2203 34.3305 33.1725 34.322L22.994 32.6256H18.0074L7.82903 34.322C7.78123 34.3305 7.73334 34.3339 7.68721 34.3339C7.27553 34.3339 6.91333 34.0383 6.84671 33.6198C6.76815 33.1551 7.08414 32.7144 7.54884 32.6375L17.0831 31.0487V29.2089H2.56217C1.14934 29.2089 -0.000350952 28.0592 -0.000350952 26.6463V2.72951C-0.000350952 1.31668 1.14934 0.166992 2.56217 0.166992ZM18.7915 30.9173H22.2082V29.2089H18.7915V30.9173ZM1.70797 26.6463C1.70797 27.1178 2.09067 27.5005 2.56217 27.5005H38.4375C38.909 27.5005 39.2917 27.1178 39.2917 26.6463V2.72951C39.2917 2.25801 38.909 1.87531 38.4375 1.87531H2.56217C2.09067 1.87531 1.70797 2.25801 1.70797 2.72951V26.6463Z" fill="#001534"/>
<path d="M20.4997 18.9587C21.4427 18.9587 22.208 19.7241 22.208 20.6671C22.208 21.6101 21.4427 22.3755 20.4997 22.3755C19.5567 22.3755 18.7914 21.6101 18.7914 20.6671C18.7914 19.7241 19.5567 18.9587 20.4997 18.9587Z" fill="#001534"/>
<path d="M25.9357 14.3769C26.2688 14.7101 26.2688 15.2516 25.9357 15.5848C25.6026 15.9179 25.061 15.9179 24.7279 15.5848C22.3977 13.2545 18.6018 13.2545 16.2716 15.5848C16.1041 15.7504 15.8855 15.8342 15.6668 15.8342C15.4481 15.8342 15.2312 15.7522 15.0637 15.5848C14.7306 15.2516 14.7306 14.7101 15.0637 14.3769C18.0619 11.3805 22.9376 11.3805 25.9357 14.3769Z" fill="#001534"/>
<path d="M28.3517 11.9616C28.6848 12.2947 28.6848 12.8363 28.3517 13.1694C28.0186 13.5025 27.477 13.5025 27.1439 13.1694C23.4812 9.505 17.5207 9.505 13.8563 13.1694C13.6889 13.3351 13.4703 13.4189 13.2516 13.4189C13.0329 13.4189 12.8143 13.3352 12.6485 13.1694C12.3154 12.8363 12.3154 12.2947 12.6485 11.9616C16.9776 7.6326 24.0227 7.6326 28.3517 11.9616Z" fill="#001534"/>
<path d="M23.5197 16.7945C23.8528 17.1276 23.8528 17.6692 23.5197 18.0023C23.1866 18.3354 22.645 18.3354 22.3119 18.0023C21.3449 17.0354 19.6554 17.0354 18.6884 18.0023C18.521 18.168 18.3024 18.2518 18.0837 18.2518C17.865 18.2518 17.6464 18.1681 17.4806 18.0023C17.1475 17.6692 17.1475 17.1276 17.4806 16.7945C19.0916 15.1818 21.9087 15.1818 23.5197 16.7945Z" fill="#001534"/>
</svg>
