<svg width="31" height="30" viewBox="0 0 31 30" fill="none" xmlns="http://www.w3.org/2000/svg">
<path fill-rule="evenodd" clip-rule="evenodd" d="M15.7383 0C24.0256 0 30.7539 6.72129 30.7539 15C30.7539 23.2787 24.0256 30 15.7383 30C7.45095 30 0.722656 23.2787 0.722656 15C0.722656 6.72129 7.45095 0 15.7383 0ZM12.9904 22.9125C19.6499 22.9125 23.2911 17.4 23.2911 12.6225C23.2911 12.465 23.2911 12.3075 23.2836 12.1575C23.9894 11.6475 24.605 11.01 25.093 10.2825C24.4473 10.5675 23.7491 10.7625 23.0134 10.8525C23.7641 10.4025 24.3347 9.6975 24.605 8.85C23.9068 9.2625 23.1335 9.5625 22.3076 9.7275C21.6469 9.0225 20.7085 8.5875 19.6649 8.5875C17.6678 8.5875 16.0461 10.2075 16.0461 12.2025C16.0461 12.4875 16.0761 12.765 16.1437 13.0275C13.1331 12.8775 10.4678 11.4375 8.68094 9.2475C8.37312 9.78 8.19293 10.4025 8.19293 11.0625C8.19293 12.315 8.83109 13.425 9.80711 14.07C9.21399 14.055 8.65841 13.89 8.17041 13.62V13.665C8.17041 15.42 9.4167 16.875 11.0759 17.2125C10.7756 17.295 10.4528 17.34 10.1224 17.34C9.8897 17.34 9.66446 17.3175 9.43923 17.2725C9.8972 18.7125 11.2336 19.755 12.8177 19.785C11.579 20.7525 10.0173 21.33 8.32056 21.33C8.02776 21.33 7.74246 21.315 7.45716 21.2775C9.04131 22.3125 10.9483 22.9125 12.9904 22.9125Z" fill="#001534"/>
</svg>
