<svg width="43" height="43" viewBox="0 0 43 43" fill="none" xmlns="http://www.w3.org/2000/svg">
<g clip-path="url(#clip0)">
<path d="M21.501 42.9999C33.3747 42.9999 43.0001 33.3744 43.0001 21.5008C43.0001 9.62718 33.3747 0.00170898 21.501 0.00170898C9.62743 0.00170898 0.00195312 9.62718 0.00195312 21.5008C0.00195312 33.3744 9.62743 42.9999 21.501 42.9999Z" fill="white"/>
<path d="M41.7713 14.3315H28.5244C29.0999 18.9243 29.1032 23.9848 28.5356 28.5833H41.7995C42.5739 26.3649 42.9995 23.9825 42.9995 21.5002C42.9999 18.9854 42.5643 16.5738 41.7713 14.3315Z" fill="#EFECEC"/>
<path d="M28.5235 14.3316H41.7701C41.7681 14.3248 41.7661 14.3191 41.7633 14.3129C39.0119 6.55436 31.9338 0.846108 23.4297 0.0883789C26.721 1.89233 27.6823 7.60775 28.5235 14.3316Z" fill="#429945"/>
<path d="M23.4307 42.9107C31.9501 42.1517 39.038 36.4237 41.7788 28.6443C41.786 28.6236 41.7921 28.6032 41.7995 28.5833H28.5353C27.7005 35.3435 26.7351 41.0993 23.4307 42.9107Z" fill="#0B0B0B"/>
<path d="M0 21.5C0 23.9826 0.426387 26.3646 1.2 28.5831H29.6421C30.2104 23.9843 30.2063 18.9241 29.6316 14.3313H1.2286C0.435556 16.5736 0 18.9852 0 21.5Z" fill="#EFEFEF"/>
<path d="M1.23532 14.3128C1.23333 14.3189 1.23124 14.3247 1.22852 14.3315H29.6316C28.7897 7.60752 26.7216 1.89219 23.4308 0.0882368C22.7942 0.0318633 22.1506 1.03468e-09 21.4996 1.03468e-09C12.1467 -9.07776e-05 4.19316 5.97323 1.23532 14.3128Z" fill="#49A948"/>
<path d="M29.6423 28.5833H1.2002C1.20737 28.6033 1.21408 28.6236 1.22089 28.6443C4.16693 37.0052 12.1319 42.9997 21.4997 42.9997C22.1509 42.9997 22.7945 42.9678 23.431 42.9107C26.7358 41.0993 28.8075 35.3436 29.6423 28.5833Z" fill="#151515"/>
<path d="M0 21.4999C0 30.4494 5.47059 38.1202 13.2493 41.3564V1.64282C5.47059 4.87835 0 12.5491 0 21.4999Z" fill="#E73B36"/>
</g>
<defs>
<clipPath id="clip0">
<rect width="43" height="43" fill="white"/>
</clipPath>
</defs>
</svg>
