<svg width="43" height="43" viewBox="0 0 43 43" fill="none" xmlns="http://www.w3.org/2000/svg">
<g clip-path="url(#clip0)">
<path d="M21.5 43C33.3741 43 43 33.3741 43 21.5C43 9.62588 33.3741 0 21.5 0C9.62588 0 0 9.62588 0 21.5C0 33.3741 9.62588 43 21.5 43Z" fill="#F55B4B"/>
<path d="M43.0006 21.4999C43.0024 22.6145 42.9182 23.7275 42.7486 24.8291C42.2386 28.1069 40.9735 31.2212 39.0533 33.9263C38.9114 34.1253 38.7678 34.3218 38.62 34.5141C38.2 35.0651 37.7549 35.5947 37.2846 36.1031C34.2558 39.3754 30.2856 41.6263 25.9224 42.5447C25.3513 42.664 24.7721 42.7603 24.1847 42.8336C22.4055 43.0542 20.6058 43.0542 18.8265 42.8336C18.2397 42.7608 17.6605 42.6645 17.0889 42.5447C13.6594 41.8279 10.4583 40.2802 7.76662 38.0373C7.49675 37.8133 7.23332 37.5835 6.97632 37.3478C6.46794 36.8819 5.98279 36.3923 5.52087 35.8789C2.07292 32.0516 0.115011 27.1127 0.00401501 21.9625C-0.106981 16.8123 1.63632 11.7937 4.91619 7.82139C5.09843 7.59967 5.28656 7.38215 5.4772 7.16799C5.93744 6.654 6.42119 6.16298 6.92845 5.6949C9.77946 3.06086 13.2915 1.2494 17.0906 0.453439C17.6572 0.334741 18.2341 0.239558 18.8215 0.167892C20.6007 -0.0527087 22.4004 -0.0527087 24.1797 0.167892C24.767 0.240678 25.3462 0.33698 25.9173 0.456798C28.773 1.05327 31.4763 2.22828 33.8606 3.9094C34.1343 4.10088 34.4034 4.29964 34.6676 4.50568C35.2152 4.92897 35.7407 5.37828 36.244 5.85363C36.8803 6.45374 37.4796 7.09178 38.0388 7.76428C40.5204 10.7439 42.146 14.3417 42.7419 18.1733C42.9136 19.2739 43.0001 20.386 43.0006 21.4999Z" fill="#3E436D"/>
<path d="M24.1789 42.7538C24.2757 42.769 24.3723 42.7832 24.4686 42.7967C24.3717 42.8101 24.2752 42.8227 24.1789 42.8345C22.3996 43.0551 20.5999 43.0551 18.8207 42.8345C18.2339 42.7617 17.6547 42.6654 17.083 42.5456C13.6535 41.8288 10.4524 40.281 7.76076 38.0381C7.49089 37.8142 7.22746 37.5843 6.97047 37.3486C6.46208 36.8828 5.97693 36.3932 5.51502 35.8797C2.06706 32.0524 0.109151 27.1136 -0.00184437 21.9634C-0.11284 16.8132 1.63047 11.7945 4.91033 7.82223C5.09257 7.60051 5.2807 7.38299 5.47134 7.16883C5.93158 6.65484 6.41533 6.16382 6.92259 5.69574C9.7736 3.0617 13.2856 1.25024 17.0847 0.454278C17.6547 0.335021 18.2333 0.239558 18.8207 0.167892C20.5999 -0.0527087 22.3996 -0.0527087 24.1789 0.167892C24.2757 0.17965 24.3723 0.192247 24.4686 0.205685C24.3717 0.219122 24.2752 0.2334 24.1789 0.248517C23.7869 0.304506 23.4006 0.373933 23.0199 0.456798C21.5774 0.758086 20.1701 1.20842 18.8207 1.80055C18.2272 2.05586 17.648 2.34001 17.083 2.65299C16.3678 3.04606 15.6758 3.47986 15.0103 3.95223C14.257 4.48675 13.5389 5.06912 12.8603 5.69574C12.507 6.0216 12.1641 6.35978 11.8315 6.71027C11.6887 6.86033 11.5487 7.01318 11.4116 7.16883C11.2209 7.38299 11.0328 7.60051 10.8505 7.82223C10.5784 8.15145 10.3164 8.48738 10.0644 8.83004C9.64957 9.39777 9.26268 9.98566 8.90378 10.5937C8.75373 10.8501 8.60816 11.1094 8.46707 11.3714C7.33332 13.4927 6.56529 15.79 6.19529 18.1666C5.85375 20.3729 5.85375 22.6186 6.19529 24.8249C6.6155 27.5197 7.54679 30.1095 8.93906 32.4548C9.22405 32.9341 9.52639 33.4011 9.84609 33.8557C9.93007 33.9758 10.0141 34.0959 10.1039 34.2143C10.3111 34.4982 10.5261 34.7765 10.7489 35.0491C10.9774 35.3291 11.2128 35.6045 11.4552 35.8755C11.9171 36.3878 12.4023 36.8775 12.9107 37.3444C13.1688 37.5801 13.4322 37.81 13.701 38.0339C14.7528 38.9098 15.8862 39.6829 17.0855 40.3427C17.6494 40.6534 18.2286 40.9389 18.8232 41.1993C20.1726 41.7914 21.5799 42.2418 23.0224 42.543C23.4037 42.6237 23.7892 42.6939 24.1789 42.7538Z" fill="#343A5B"/>
<path d="M38.0381 7.76182L29.9537 15.8462L27.6307 18.1708L25.9183 19.8833L25.4622 20.3393L24.179 21.6209L20.9708 24.8291L18.8208 26.9791L18.6444 27.1538L17.0814 28.7168L7.75918 38.039C7.48931 37.8151 7.22588 37.5852 6.96889 37.3495C6.4605 36.8837 5.97535 36.394 5.51344 35.8806C4.93697 35.2403 4.39962 34.5658 3.9043 33.8608L10.6104 27.1546L17.0772 20.6879L17.4224 20.3435L18.8149 18.9502L19.5901 18.175L21.4377 16.3274L21.9139 15.8504L24.1722 13.592L25.9099 11.8544L33.8531 3.91113C34.1269 4.10262 34.3959 4.30138 34.6602 4.50742C35.2078 4.9307 35.7333 5.38002 36.2366 5.85537C36.875 6.45392 37.4766 7.09056 38.0381 7.76182Z" fill="white"/>
<path d="M39.0474 33.9295C38.9055 34.1286 38.7619 34.3251 38.6141 34.5174C38.1941 35.0684 37.749 35.598 37.2787 36.1064C36.6239 36.814 35.9224 37.477 35.1791 38.091L25.9165 28.8275L24.2427 27.1537L24.1788 27.0898L21.9196 24.829L21.4443 24.3553L18.8206 21.7316L17.4282 20.3392L17.083 19.994L15.2597 18.1707L12.9333 15.846L4.91113 7.82215C5.09338 7.60043 5.2815 7.38291 5.47215 7.16875C5.93238 6.65477 6.41613 6.16374 6.9234 5.69566C7.6009 5.06915 8.31792 4.48678 9.07004 3.95215L39.0474 33.9295Z" fill="white"/>
<path d="M16.6553 27.6653L6.97107 37.3487C6.46269 36.8828 5.97754 36.3932 5.51562 35.8798L13.7301 27.6653H16.6553Z" fill="#DB1B1B"/>
<path d="M36.2443 5.85112L26.2501 15.8453L25.9142 16.177L25.7345 16.3567H22.8135L23.3249 15.8453L24.1799 14.9911L34.6679 4.50317C35.2155 4.92646 35.7409 5.37577 36.2443 5.85112Z" fill="#DB1B1B"/>
<path d="M38.6139 34.5176C38.194 35.0685 37.7489 35.5982 37.2786 36.1066L28.8398 27.6653H31.7642L38.6139 34.5176Z" fill="#DB1B1B"/>
<path d="M17.5857 16.3576H14.6614L14.1499 15.8461L5.47266 7.16889C5.93289 6.6549 6.41664 6.16387 6.92391 5.6958L17.0743 15.8461L17.0835 15.8554L17.5857 16.3576Z" fill="#DB1B1B"/>
<path d="M42.7478 18.1708C42.626 17.3873 42.4605 16.6112 42.2522 15.8461H25.9164V0.454278C25.3454 0.335021 24.7661 0.239558 24.1788 0.167892C22.3996 -0.0527087 20.5999 -0.0527087 18.8206 0.167892C18.2338 0.240678 17.6546 0.33698 17.083 0.456798V15.8461H0.755566C0.547275 16.6112 0.381848 17.3873 0.260059 18.1708C-0.0814779 20.3771 -0.0814779 22.6228 0.260059 24.8291C0.381848 25.6126 0.547275 26.3887 0.755566 27.1538H17.083V42.5456C17.6541 42.6648 18.2333 42.7611 18.8206 42.8345C20.5999 43.0551 22.3996 43.0551 24.1788 42.8345C24.7661 42.7617 25.3454 42.6654 25.9164 42.5456V27.1538H42.248C42.4563 26.3887 42.6218 25.6126 42.7436 24.8291C43.0851 22.6228 43.0851 20.3771 42.7436 18.1708H42.7478Z" fill="white"/>
<path d="M10.1009 34.2187C10.3081 34.5026 10.5231 34.7808 10.7459 35.0535L7.76113 38.0383C7.49126 37.8143 7.22783 37.5845 6.97084 37.3488C6.46245 36.883 5.9773 36.3933 5.51539 35.8799C4.93893 35.2396 4.40157 34.5651 3.90625 33.8601L7.70822 30.0581C8.0664 30.8836 8.47651 31.6856 8.93607 32.4592C9.22106 32.9385 9.5234 33.4054 9.84311 33.8601C9.92793 33.9802 10.0136 34.0978 10.1009 34.2187Z" fill="#E0E0E0"/>
<path d="M11.8314 6.7102C11.6887 6.86025 11.5487 7.0131 11.4115 7.16875C11.2209 7.38291 11.0328 7.60043 10.8505 7.82215C10.5784 8.15137 10.3164 8.4873 10.0644 8.82996C9.64953 9.39769 9.26264 9.98559 8.90375 10.5936C8.7537 10.8501 8.60812 11.1093 8.46703 11.3713L4.91113 7.82215C5.09338 7.60043 5.2815 7.38291 5.47215 7.16875C5.93238 6.65477 6.41613 6.16374 6.9234 5.69566C7.6009 5.06915 8.31792 4.48678 9.07004 3.95215L11.8314 6.7102Z" fill="#E0E0E0"/>
<path d="M6.19271 18.1709C5.85118 20.3772 5.85118 22.6229 6.19271 24.8292C6.3145 25.6127 6.47993 26.3888 6.68822 27.1538H0.755566C0.547275 26.3888 0.381848 25.6127 0.260059 24.8292C-0.0814779 22.6229 -0.0814779 20.3772 0.260059 18.1709C0.381848 17.3874 0.547275 16.6113 0.755566 15.8462H6.68822C6.47993 16.6113 6.3145 17.3874 6.19271 18.1709Z" fill="#E0E0E0"/>
<path d="M18.8206 1.79635C18.2272 2.05446 17.6479 2.34001 17.083 2.65299V0.454278C17.6541 0.335021 18.2333 0.239558 18.8206 0.167892C20.5999 -0.0527087 22.3996 -0.0527087 24.1788 0.167892C24.2757 0.17965 24.3723 0.192247 24.4686 0.205685C24.3717 0.219122 24.2751 0.2334 24.1788 0.248517C23.7869 0.304506 23.4006 0.373933 23.0199 0.456798C21.5775 0.756733 20.1702 1.20566 18.8206 1.79635Z" fill="#E0E0E0"/>
<path d="M43 21.4999C43.0018 20.3854 42.9176 19.2724 42.748 18.1708H24.1875V0.167892C22.4082 -0.0527087 20.6086 -0.0527087 18.8293 0.167892V18.1708H0.256152C-0.0853841 20.3771 -0.0853841 22.6228 0.256152 24.8291H18.8209V42.832C20.6002 43.0526 22.3998 43.0526 24.1791 42.832V24.8291H42.748C42.9176 23.7275 43.0018 22.6145 43 21.4999Z" fill="#DB1B1B"/>
<path d="M10.101 34.2185L6.9701 37.3486C6.46171 36.8827 5.97656 36.3931 5.51465 35.8797L8.93533 32.459C9.22032 32.9383 9.52266 33.4052 9.84236 33.8598C9.92803 33.9799 10.0137 34.0975 10.101 34.2185Z" fill="#C11717"/>
<path d="M10.0624 8.8343C9.64752 9.40203 9.26063 9.98992 8.90174 10.598L5.47266 7.16889C5.93289 6.6549 6.41664 6.16387 6.92391 5.6958L10.0624 8.8343Z" fill="#C11717"/>
<path d="M6.19301 18.1707C5.85147 20.3769 5.85147 22.6226 6.19301 24.8289H0.256152C-0.0853841 22.6226 -0.0853841 20.3769 0.256152 18.1707H6.19301Z" fill="#C11717"/>
<path d="M24.1785 0.167892V0.251876C23.7866 0.307866 23.4003 0.377293 23.0195 0.460157C21.577 0.761446 20.1697 1.21178 18.8203 1.80391V0.167892C20.5996 -0.0527087 22.3993 -0.0527087 24.1785 0.167892Z" fill="#C11717"/>
<path d="M39.8389 22.8595C40.5941 22.8595 41.2062 22.2474 41.2062 21.4923C41.2062 20.7371 40.5941 20.125 39.8389 20.125C39.0838 20.125 38.4717 20.7371 38.4717 21.4923C38.4717 22.2474 39.0838 22.8595 39.8389 22.8595Z" fill="#E23737"/>
<path d="M36.9898 22.4606C37.5246 22.4606 37.9582 22.0271 37.9582 21.4923C37.9582 20.9575 37.5246 20.5239 36.9898 20.5239C36.455 20.5239 36.0215 20.9575 36.0215 21.4923C36.0215 22.0271 36.455 22.4606 36.9898 22.4606Z" fill="#E23737"/>
</g>
<defs>
<clipPath id="clip0">
<rect width="43" height="43" fill="white"/>
</clipPath>
</defs>
</svg>
