<svg width="43" height="43" viewBox="0 0 43 43" fill="none" xmlns="http://www.w3.org/2000/svg">
<path d="M42.9055 23.511H0.0976562V23.5116H42.9055V23.511Z" fill="#C42126"/>
<path d="M40.6731 11.7742H2.32617V11.7748H40.6731V11.7742Z" fill="#C42126"/>
<path d="M42.1971 15.6858H0.801758V15.6864H42.1971V15.6858Z" fill="#C42126"/>
<path d="M9.24062 39.1586H33.7596L33.7609 39.1572H9.23926L9.24062 39.1586Z" fill="#C42126"/>
<path d="M21.5003 0C21.078 0 20.659 0.0152509 20.2432 0.039035H22.7576C22.3414 0.0152509 21.9226 0 21.5003 0Z" fill="#C42126"/>
<path d="M42.9103 19.5984H0.0888672V19.599H42.9103V19.5984Z" fill="#C42126"/>
<path d="M27.8546 7.8623H38.121C36.9016 6.37779 35.4843 5.06367 33.9142 3.95117H26.2051C26.843 5.07347 27.3916 6.39776 27.8546 7.8623Z" fill="#E7E7E7"/>
<path d="M26.2044 3.95119H33.9135C30.7266 1.6927 26.9003 0.278356 22.7567 0.0390625H22.0947C24.045 0.284529 24.9408 1.72792 26.2044 3.95119Z" fill="#DC3027"/>
<path d="M42.1983 15.686C41.816 14.3227 41.3034 13.0147 40.6734 11.7749H28.8623C29.1016 13.0307 29.2904 14.3423 29.4302 15.686H42.1983Z" fill="#E7E7E7"/>
<path d="M28.1982 11.7743H40.6733C39.9624 10.376 39.1084 9.06392 38.1211 7.86255H27.2236C27.6079 9.0789 27.9342 10.391 28.1982 11.7743Z" fill="#DC3027"/>
<path d="M29.8828 23.51H42.9034C42.9652 22.8484 43.0001 22.1779 43.0001 21.5004C43.0001 20.8591 42.9665 20.226 42.9115 19.5986H29.8859C29.9283 20.8995 29.9276 22.2099 29.8828 23.51Z" fill="#E7E7E7"/>
<path d="M42.9117 19.5979C42.7938 18.2545 42.5518 16.9476 42.1984 15.6868H28.8818C29.0156 16.9676 29.1039 18.278 29.147 19.5979H42.9117Z" fill="#DC3027"/>
<path d="M28.6377 31.3339H40.6171C41.256 30.0955 41.7767 28.7864 42.1671 27.4221H29.2169C29.0743 28.7678 28.8807 30.0792 28.6377 31.3339Z" fill="#E7E7E7"/>
<path d="M42.167 27.4219C42.5279 26.1614 42.7784 24.8545 42.903 23.5107H29.4764C29.4305 24.8317 29.3396 26.1417 29.2031 27.4219H42.167Z" fill="#DC3027"/>
<path d="M33.7611 39.1572C35.3539 38.0492 36.7912 36.7337 38.03 35.2461H27.9425C27.471 36.7167 26.9112 38.0389 26.2617 39.1572H33.7611Z" fill="#E7E7E7"/>
<path d="M27.5625 35.2458H38.0295C39.0283 34.0457 39.8953 32.7336 40.6166 31.334H28.5494C28.2816 32.7183 27.9519 34.031 27.5625 35.2458Z" fill="#DC3027"/>
<path d="M20.7202 42.9847C20.6767 42.9833 20.6333 42.9813 20.5898 42.98C20.6333 42.9813 20.6768 42.9833 20.7202 42.9847Z" fill="#DC3027"/>
<path d="M21.5 43.0002C26.0581 43.0002 30.2815 41.5774 33.7598 39.1587H25.9787C24.5977 41.538 23.6865 43.0002 21.5 43.0002Z" fill="#DC3027"/>
<path d="M21.4998 42.9998C21.2387 42.9998 20.9793 42.9938 20.7207 42.9846C20.9821 42.9934 21.2417 42.9998 21.4998 42.9998Z" fill="#C42126"/>
<path d="M26.9166 3.95117H9.08607C7.51568 5.06367 6.09871 6.3777 4.87891 7.8623H28.5658C28.1028 6.39776 27.5545 5.07347 26.9166 3.95117Z" fill="#F3F4F5"/>
<path d="M9.08691 3.95119H26.9175C25.6537 1.72792 24.0462 0.284529 22.0959 0.0390625H20.2434C16.0998 0.278356 12.2735 1.6927 9.08691 3.95119Z" fill="#E73625"/>
<path d="M0.801758 15.686H30.108C29.9681 14.342 29.7794 13.0307 29.5401 11.7749H2.32667C1.69657 13.0148 1.18403 14.3227 0.801758 15.686Z" fill="#F3F4F5"/>
<path d="M4.87895 7.8623C3.89245 9.06367 3.03768 10.3757 2.32715 11.7741H29.5402C29.2764 10.391 28.9502 9.07902 28.5659 7.8623C28.5659 7.8623 4.87895 7.8623 4.87895 7.8623Z" fill="#E73625"/>
<path d="M0 21.5003C0 22.1779 0.0353131 22.8484 0.0967706 23.51H30.3708C30.4156 22.2098 30.4163 20.8997 30.3739 19.5989H0.0886005C0.0335883 20.226 0 20.8591 0 21.5003Z" fill="#F3F4F5"/>
<path d="M0.0888672 19.5979H30.3738C30.3307 18.2777 30.2421 16.9677 30.1086 15.6868H0.801756C0.448353 16.9479 0.206335 18.2545 0.0888672 19.5979Z" fill="#E73625"/>
<path d="M30.0979 27.4219H0.833008C1.22345 28.7866 1.74452 30.0952 2.38306 31.3336H29.5187C29.7618 30.0793 29.9549 28.7679 30.0979 27.4219Z" fill="#F3F4F5"/>
<path d="M0.832626 27.4219H30.0975C30.2336 26.1417 30.3249 24.8313 30.3707 23.5107H0.0966797C0.221229 24.8547 0.472142 26.1614 0.832626 27.4219Z" fill="#E73625"/>
<path d="M9.23959 39.1572H26.8516C27.501 38.0386 28.0611 36.7167 28.5323 35.2461H4.9707C6.20948 36.7337 7.64642 38.0492 9.23959 39.1572Z" fill="#F3F4F5"/>
<path d="M2.38379 31.3337C3.10521 32.7334 3.97215 34.0455 4.9709 35.2455H28.5325C28.9216 34.0309 29.2512 32.7181 29.519 31.3337H2.38379Z" fill="#E73625"/>
<path d="M20.5909 42.9797C20.6344 42.9811 20.6778 42.9831 20.7212 42.9845C20.98 42.9936 21.2393 42.9997 21.5003 42.9997C23.6869 42.9997 25.4698 41.5376 26.8511 39.1582H9.24121C12.4863 41.4152 16.3814 42.8043 20.5909 42.9797Z" fill="#E73625"/>
<path d="M21.0557 0.0112305C10.0381 0.235364 1.05823 8.74219 0.0917969 19.563H21.0561V0.0112305H21.0557Z" fill="#283991"/>
<path d="M4.30192 12.1814L4.62945 13.19H5.69066L4.83216 13.8136L5.16005 14.8229L4.30192 14.1989L3.44405 14.8229L3.77131 13.8136L2.91309 13.19H3.97429L4.30192 12.1814Z" fill="#EFEFEF"/>
<path d="M4.30192 15.7446L4.62945 16.7538H5.69066L4.83216 17.3775L5.16005 18.3868L4.30192 17.7627L3.44405 18.3868L3.77131 17.3775L2.91309 16.7538H3.97429L4.30192 15.7446Z" fill="#EFEFEF"/>
<path d="M7.86576 6.83521L8.19338 7.84413H9.25422L8.396 8.46814L8.72362 9.4767L7.86576 8.85341L7.00753 9.4767L7.33515 8.46814L6.47656 7.84413H7.53777L7.86576 6.83521Z" fill="#EFEFEF"/>
<path d="M7.86576 10.3989L8.19338 11.4078H9.25422L8.396 12.0311L8.72362 13.0404L7.86576 12.4171L7.00753 13.0404L7.33515 12.0311L6.47656 11.4078H7.53777L7.86576 10.3989Z" fill="#EFEFEF"/>
<path d="M7.86576 13.9631L8.19338 14.9724H9.25422L8.396 15.5953L8.72362 16.6046L7.86576 15.9807L7.00753 16.6046L7.33515 15.5953L6.47656 14.9724H7.53777L7.86576 13.9631Z" fill="#EFEFEF"/>
<path d="M1.59638 16.6046L1.26849 15.5953L2.12672 14.9721H1.06614L1.04236 14.8984C0.925889 15.2586 0.820676 15.6232 0.723633 15.9919L0.738611 15.9807L1.59638 16.6046Z" fill="#EFEFEF"/>
<path d="M3.44376 11.2592L4.30162 10.6353L5.15985 11.2592L4.83195 10.2499L5.69018 9.62599H4.62897L4.30135 8.61743L3.97373 9.62599H3.58265C3.51003 9.73601 3.43977 9.84667 3.36914 9.95833L3.77111 10.2499L3.44376 11.2592Z" fill="#EFEFEF"/>
<path d="M7.86579 5.28971L8.72365 5.913L8.39603 4.90444L9.25389 4.28052H8.64113C8.1207 4.6696 7.6186 5.08137 7.1362 5.51584L7.00684 5.913L7.86579 5.28971Z" fill="#EFEFEF"/>
<path d="M10.5713 4.13166L11.4295 3.50773L12.2874 4.13166L11.9598 3.12238L12.8176 2.49909H11.7568L11.7123 2.36328C11.3528 2.54693 10.997 2.73802 10.6494 2.94136L10.8985 3.12228L10.5713 4.13166Z" fill="#EFEFEF"/>
<path d="M11.4301 5.05371L11.7577 6.062H12.8186L11.9604 6.68592L12.288 7.69521L11.4301 7.07119L10.5719 7.69521L10.8995 6.68592L10.041 6.062H11.1021L11.4301 5.05371Z" fill="#EFEFEF"/>
<path d="M11.4301 8.61743L11.7577 9.62572H12.8186L11.9604 10.2496L12.288 11.2589L11.4301 10.6349L10.5719 11.2589L10.8995 10.2496L10.041 9.62572H11.1021L11.4301 8.61743Z" fill="#EFEFEF"/>
<path d="M11.4301 12.1814L11.7577 13.19H12.8186L11.9604 13.8136L12.288 14.8229L11.4301 14.1989L10.5719 14.8229L10.8995 13.8136L10.041 13.19H11.1021L11.4301 12.1814Z" fill="#EFEFEF"/>
<path d="M11.4301 15.7446L11.7577 16.7538H12.8186L11.9604 17.3775L12.288 18.3868L11.4301 17.7627L10.5719 18.3868L10.8995 17.3775L10.041 16.7538H11.1021L11.4301 15.7446Z" fill="#EFEFEF"/>
<path d="M14.9936 3.27148L15.3212 4.28041H16.3821L15.5242 4.90442L15.8515 5.91298L14.9936 5.28969L14.1351 5.91298L14.463 4.90442L13.6045 4.28041H14.6656L14.9936 3.27148Z" fill="#EFEFEF"/>
<path d="M14.9936 6.83521L15.3212 7.84413H16.3821L15.5242 8.46814L15.8515 9.4767L14.9936 8.85341L14.1351 9.4767L14.463 8.46814L13.6045 7.84413H14.6656L14.9936 6.83521Z" fill="#EFEFEF"/>
<path d="M14.9936 10.3989L15.3212 11.4078H16.3821L15.5242 12.0311L15.8515 13.0404L14.9936 12.4171L14.1351 13.0404L14.463 12.0311L13.6045 11.4078H14.6656L14.9936 10.3989Z" fill="#EFEFEF"/>
<path d="M14.9936 13.9631L15.3212 14.9724H16.3821L15.5242 15.5953L15.8515 16.6046L14.9936 15.9807L14.1351 16.6046L14.463 15.5953L13.6045 14.9724H14.6656L14.9936 13.9631Z" fill="#EFEFEF"/>
<path d="M18.5571 1.48999L18.8847 2.49891H19.9455L19.0873 3.1222L19.4149 4.13148L18.5571 3.50747L17.6986 4.13148L18.0265 3.1222L17.168 2.49891H18.2288L18.5571 1.48999Z" fill="#EFEFEF"/>
<path d="M18.5571 5.05371L18.8847 6.062H19.9455L19.0873 6.68592L19.4149 7.69521L18.5571 7.07119L17.6986 7.69521L18.0265 6.68592L17.168 6.062H18.2288L18.5571 5.05371Z" fill="#EFEFEF"/>
<path d="M18.5571 8.61743L18.8847 9.62572H19.9455L19.0873 10.2496L19.4149 11.2589L18.5571 10.6349L17.6986 11.2589L18.0265 10.2496L17.168 9.62572H18.2288L18.5571 8.61743Z" fill="#EFEFEF"/>
<path d="M18.5571 12.1814L18.8847 13.19H19.9455L19.0873 13.8136L19.4149 14.8229L18.5571 14.1989L17.6986 14.8229L18.0265 13.8136L17.168 13.19H18.2288L18.5571 12.1814Z" fill="#EFEFEF"/>
<path d="M18.5571 15.7446L18.8847 16.7538H19.9455L19.0873 17.3775L19.4149 18.3868L18.5571 17.7627L17.6986 18.3868L18.0265 17.3775L17.168 16.7538H18.2288L18.5571 15.7446Z" fill="#EFEFEF"/>
</svg>
