<svg width="18" height="22" viewBox="0 0 18 22" fill="none" xmlns="http://www.w3.org/2000/svg">
<path d="M17.9774 5.50513C17.9519 4.94247 17.9519 4.40539 17.9519 3.8683C17.9519 3.43352 17.6194 3.10103 17.1846 3.10103C13.9876 3.10103 11.558 2.18031 9.5375 0.210998C9.23059 -0.0703327 8.77023 -0.0703327 8.46333 0.210998C6.44286 2.18031 4.01318 3.10103 0.816242 3.10103C0.381458 3.10103 0.0489761 3.43352 0.0489761 3.8683C0.0489761 4.40539 0.048976 4.94247 0.0234005 5.50513C-0.0789017 10.876 -0.232355 18.2418 8.74466 21.3364L9.00041 21.3875L9.25617 21.3364C18.2076 18.2418 18.0797 10.9016 17.9774 5.50513ZM8.3866 12.9476C8.23315 13.0755 8.05412 13.1522 7.84952 13.1522H7.82394C7.61934 13.1522 7.41473 13.0499 7.28685 12.8965L4.90833 10.2622L6.05923 9.23916L7.92624 11.3108L12.0695 7.37215L13.1181 8.49747L8.3866 12.9476Z" fill="#01CCB1"/>
</svg>
