<svg width="54" height="37" viewBox="0 0 54 37" fill="none" xmlns="http://www.w3.org/2000/svg">
<path d="M44.5224 28.3299C44.4575 31.2573 42.6713 33.846 39.7555 34.525C39.0751 34.6828 38.3071 34.6255 37.6089 34.6255C34.7816 34.6255 31.9537 34.6255 29.1259 34.6255C22.3053 34.6255 15.4852 34.6255 8.66461 34.6255C8.1281 34.6255 7.59063 34.6313 7.05365 34.6173C4.06702 34.5408 1.89309 31.7938 1.58274 29.0054C1.32435 26.6843 1.5529 24.2279 1.5529 21.8986C1.5529 18.1772 1.5529 14.4558 1.5529 10.7349C1.5529 7.52695 1.40952 4.23911 4.5198 2.24947C6.31553 1.10092 8.86718 1.44303 10.9097 1.44303C14.3939 1.44303 17.8776 1.44303 21.3617 1.44303C27.1228 1.44303 32.8834 1.44303 38.6444 1.44303C42.1676 1.44303 44.5224 4.58171 44.5224 7.91381C44.5224 9.99921 44.5224 12.0841 44.5224 14.1695C44.5224 18.8903 44.5224 23.6106 44.5224 28.3299C44.5224 29.2614 45.9659 29.2614 45.9659 28.3299C45.9659 22.3509 45.9659 16.3718 45.9659 10.3933C45.9659 7.32005 45.9563 4.43976 43.626 2.04786C41.6705 0.0413809 39.1636 0 36.6009 0C29.5416 0 22.4819 0 15.4231 0C12.9129 0 10.4026 0 7.89281 0C4.08242 0 1.01832 2.42847 0.253263 6.21384C-0.214916 8.52875 0.109393 11.1718 0.109393 13.5079C0.109393 17.2692 0.109393 21.0315 0.109393 24.7928C0.109393 27.6312 -0.142259 30.4538 1.54039 32.9405C2.83234 34.8502 5.06401 36.069 7.37266 36.069C7.87452 36.069 8.37638 36.069 8.87825 36.069C15.7753 36.069 22.672 36.069 29.5695 36.069C32.3103 36.069 35.0515 36.069 37.7928 36.069C38.5867 36.069 39.3489 36.0589 40.1394 35.917C42.4938 35.4926 44.507 33.5809 45.3664 31.4007C45.7576 30.4085 45.9423 29.3942 45.9659 28.3299C45.9861 27.3988 44.5426 27.4007 44.5224 28.3299Z" fill="#7C7C7C"/>
<path d="M51.9613 6.72538C49.5997 8.02214 47.2386 9.31937 44.877 10.6152C44.6557 10.7369 44.5195 10.9895 44.5195 11.2388C44.5195 15.5837 44.5195 19.9297 44.5195 24.2742C44.5195 24.5244 44.6557 24.7755 44.877 24.8977C47.2381 26.2027 49.5992 27.5071 51.9613 28.8121C52.4367 29.0748 53.0473 28.7457 53.0473 28.1885C53.0473 21.2423 53.0473 14.2956 53.0473 7.34898C53.0473 6.41791 51.6038 6.41791 51.6038 7.34898C51.6038 14.2956 51.6038 21.2423 51.6038 28.1885C51.9656 27.9806 52.328 27.7732 52.6898 27.5654C50.3287 26.2609 47.9676 24.956 45.6055 23.651C45.7249 23.8589 45.8437 24.0663 45.963 24.2742C45.963 19.9297 45.963 15.5837 45.963 11.2388C45.8437 11.4466 45.7249 11.654 45.6055 11.8624C47.9671 10.5656 50.3282 9.26837 52.6898 7.97257C53.5059 7.52412 52.7779 6.27741 51.9613 6.72538Z" fill="#7C7C7C"/>
<path d="M15.3199 10.594C15.2453 12.5311 13.8057 13.9718 11.868 14.0464C9.93175 14.1209 8.48583 12.419 8.41558 10.594C8.341 8.65772 10.0424 7.21181 11.868 7.14107C13.8042 7.06649 15.2496 8.76887 15.3199 10.594C15.3555 11.5217 16.7995 11.5255 16.7634 10.594C16.658 7.85465 14.6078 5.80342 11.868 5.69756C9.1306 5.59219 7.07167 8.01296 6.97207 10.594C6.86669 13.3309 9.28698 15.3903 11.868 15.4899C14.6049 15.5952 16.6643 13.175 16.7634 10.594C16.7995 9.66241 15.3555 9.66626 15.3199 10.594Z" fill="#7C7C7C"/>
<path d="M27.7423 10.5939C27.6677 12.5316 26.2275 13.9717 24.2899 14.0463C22.3536 14.1209 20.9077 12.419 20.8375 10.5939C20.7629 8.65769 22.4643 7.21178 24.2899 7.14104C26.2261 7.06646 27.672 8.76884 27.7423 10.5939C27.7779 11.5216 29.2214 11.5255 29.1858 10.5939C29.0799 7.85414 27.0296 5.80339 24.2899 5.69753C21.552 5.59216 19.4931 8.01292 19.3939 10.5939C19.2886 13.3308 21.7089 15.3902 24.2899 15.4898C27.0268 15.5952 29.0862 13.1749 29.1858 10.5939C29.2214 9.66238 27.7779 9.66623 27.7423 10.5939Z" fill="#7C7C7C"/>
<path d="M37.9287 26.1613C37.9287 26.9552 37.2791 27.6048 36.4852 27.6048H9.13882C8.34489 27.6048 7.69531 26.9552 7.69531 26.1613V23.9156C7.69531 23.1217 8.34489 22.4721 9.13882 22.4721H36.4852C37.2791 22.4721 37.9287 23.1217 37.9287 23.9156V26.1613Z" stroke="#7C7C7C" stroke-width="3" stroke-miterlimit="10"/>
</svg>
