<svg width="66" height="51" viewBox="0 0 66 51" fill="none" xmlns="http://www.w3.org/2000/svg">
<rect x="0.5" y="0.5" width="65" height="50" rx="9.5" fill="white" stroke="#E5E5E5"/>
<path d="M27.2461 31.0787L29.4962 18.4219H33.012L30.8322 31.0787H27.2461Z" fill="#3C58BF"/>
<path d="M27.2461 31.0787L30.129 18.4219H33.012L30.8322 31.0787H27.2461Z" fill="#293688"/>
<path d="M43.5591 18.5625C42.8559 18.2813 41.7309 18 40.3245 18C36.8088 18 34.2774 19.7579 34.2774 22.2892C34.2774 24.1878 36.0353 25.1722 37.4416 25.805C38.8479 26.4379 39.2698 26.8598 39.2698 27.4223C39.2698 28.2661 38.1448 28.688 37.1603 28.688C35.754 28.688 34.9806 28.477 33.7852 27.9848L33.293 27.7739L32.8008 30.6568C33.6446 31.0084 35.1915 31.36 36.8088 31.36C40.5355 31.36 42.9965 29.6021 42.9965 26.9301C42.9965 25.4535 42.0824 24.3284 39.973 23.4143C38.7073 22.7815 37.9338 22.4299 37.9338 21.797C37.9338 21.2345 38.5667 20.672 39.973 20.672C41.1683 20.672 42.0121 20.8829 42.645 21.1642L42.9965 21.3048L43.5591 18.5625Z" fill="#3C58BF"/>
<path d="M43.5591 18.5625C42.8559 18.2813 41.7309 18 40.3245 18C36.8088 18 34.9102 19.7579 34.9102 22.2892C34.9102 24.1878 36.0353 25.1722 37.4416 25.805C38.8479 26.4379 39.2698 26.8598 39.2698 27.4223C39.2698 28.2661 38.1448 28.688 37.1603 28.688C35.754 28.688 34.9806 28.477 33.7852 27.9848L33.293 27.7739L32.8008 30.6568C33.6446 31.0084 35.1915 31.36 36.8088 31.36C40.5355 31.36 42.9965 29.6021 42.9965 26.9301C42.9965 25.4535 42.0824 24.3284 39.973 23.4143C38.7073 22.7815 37.9338 22.4299 37.9338 21.797C37.9338 21.2345 38.5667 20.672 39.973 20.672C41.1683 20.672 42.0121 20.8829 42.645 21.1642L42.9965 21.3048L43.5591 18.5625Z" fill="#293688"/>
<path d="M49.6019 18.4219C48.7581 18.4219 48.1252 18.4922 47.7737 19.336L42.5 31.0787H46.297L47.0002 28.9692H51.5004L51.9223 31.0787H55.2974L52.3442 18.4219H49.6019ZM47.9846 26.8597C48.1956 26.2269 49.3909 23.133 49.3909 23.133C49.3909 23.133 49.6722 22.3595 49.8831 21.8673L50.0941 23.0627C50.0941 23.0627 50.7972 26.2269 50.9379 26.9301H47.9846V26.8597Z" fill="#3C58BF"/>
<path d="M50.4457 18.4219C49.6019 18.4219 48.969 18.4922 48.6175 19.336L42.5 31.0787H46.297L47.0002 28.9692H51.5004L51.9223 31.0787H55.2974L52.3442 18.4219H50.4457ZM47.9846 26.8597C48.2659 26.1566 49.3909 23.133 49.3909 23.133C49.3909 23.133 49.6722 22.3595 49.8831 21.8673L50.0941 23.0627C50.0941 23.0627 50.7972 26.2269 50.9379 26.9301H47.9846V26.8597Z" fill="#293688"/>
<path d="M20.7737 27.2816L20.4221 25.4534C19.7893 23.344 17.7501 21.0235 15.5 19.8985L18.6642 31.149H22.4612L28.1568 18.4922H24.3598L20.7737 27.2816Z" fill="#3C58BF"/>
<path d="M20.7737 27.2816L20.4221 25.4534C19.7893 23.344 17.7501 21.0235 15.5 19.8985L18.6642 31.149H22.4612L28.1568 18.4922H25.0629L20.7737 27.2816Z" fill="#293688"/>
<path d="M11 18.4219L11.6328 18.5625C16.133 19.6172 19.2269 22.2892 20.4223 25.4534L19.1566 19.4766C18.9457 18.6328 18.3128 18.4219 17.5394 18.4219H11Z" fill="#FFBC00"/>
<path d="M11 18.4219C15.5002 19.4766 19.2269 22.2189 20.4223 25.3831L19.2269 20.3907C19.016 19.5469 18.3128 19.0547 17.5394 19.0547L11 18.4219Z" fill="#F7981D"/>
<path d="M11 18.4219C15.5002 19.4766 19.2269 22.2189 20.4223 25.3831L19.5785 22.6408C19.3676 21.797 19.0863 20.9532 18.1019 20.6017L11 18.4219Z" fill="#ED7C00"/>
<path d="M24.2894 26.8597L21.8987 24.469L20.7737 27.1409L20.4924 25.3831C19.8596 23.2736 17.8204 20.9532 15.5703 19.8281L18.7345 31.0786H22.5316L24.2894 26.8597Z" fill="#051244"/>
<path d="M30.8322 31.0787L27.8086 27.9849L27.2461 31.0787H30.8322Z" fill="#051244"/>
<path d="M38.9143 26.7192C39.1956 27.0005 39.3362 27.2114 39.2659 27.4927C39.2659 28.3365 38.1409 28.7584 37.1564 28.7584C35.7501 28.7584 34.9767 28.5474 33.7813 28.0552L33.2891 27.8443L32.7969 30.7272C33.6407 31.0788 35.1876 31.4304 36.8049 31.4304C39.055 31.4304 40.8832 30.7975 41.9379 29.6725L38.9143 26.7192Z" fill="#051244"/>
<path d="M42.9961 31.0785H46.3009L47.0041 28.9691H51.5043L51.9262 31.0785H55.3013L54.106 25.9455L49.887 21.8672L50.098 22.9922C50.098 22.9922 50.8011 26.1564 50.9418 26.8596H47.9885C48.2698 26.1564 49.3948 23.1329 49.3948 23.1329C49.3948 23.1329 49.6761 22.3594 49.887 21.8672" fill="#051244"/>
</svg>
