<svg width="64" height="20" viewBox="0 0 64 20" fill="none" xmlns="http://www.w3.org/2000/svg">
<path fill-rule="evenodd" clip-rule="evenodd" d="M45.4267 13.3911C45.4403 10.3356 42.8481 9.00667 40.7748 7.94667C39.3843 7.23111 38.2281 6.63778 38.2463 5.72444C38.2622 5.02889 38.9405 4.28889 40.4198 4.10222C42.1532 3.93924 43.8996 4.23637 45.4745 4.96222L46.3757 0.86C44.8424 0.29714 43.2185 0.00591042 41.5805 0C36.5144 0 32.9504 2.62889 32.9163 6.39333C32.8844 9.17778 35.4629 10.7333 37.4042 11.66C39.4025 12.6067 40.0716 13.2156 40.0647 14.0644C40.0647 15.3644 38.4694 15.9333 36.9969 15.9578C34.4957 15.9933 33.0141 15.3178 31.8375 14.7822L31.7328 14.7356L30.8065 18.9733C32.0036 19.5089 34.2158 19.9778 36.5053 20C41.8923 20 45.413 17.4022 45.4312 13.3822L45.4267 13.3911ZM24.1951 0.362222L15.8905 19.7089H10.4717L6.38425 4.26667C6.1339 3.31556 5.91997 2.96889 5.16439 2.56667C3.93542 1.91333 1.9008 1.30222 0.107422 0.922222L0.228043 0.344444H8.95142C9.51943 0.346411 10.0681 0.546247 10.4986 0.907996C10.9292 1.26974 11.2134 1.76966 11.3001 2.31778L13.4576 13.5L18.79 0.335556L24.1951 0.362222ZM63.5448 19.6889H58.8065L58.1874 16.8133H51.6125L50.5428 19.7044H45.1604L52.8505 1.77778C53.0258 1.35313 53.3274 0.989557 53.7165 0.734044C54.1056 0.478531 54.5642 0.342819 55.0331 0.344444H59.4073L63.5448 19.6889ZM53.0895 12.8356L55.7887 5.57333L57.3271 12.8533L53.0895 12.8356ZM27.288 19.6911L31.5257 0.344444H26.3936L22.1537 19.6889H27.288V19.6911Z" fill="#122D98"/>
</svg>
