<svg width="14" height="19" viewBox="0 0 14 19" fill="none" xmlns="http://www.w3.org/2000/svg">
<path d="M1.75 7.125H2.33333V4.75C2.33333 2.13031 4.42627 0 7 0C9.57373 0 11.6667 2.13031 11.6667 4.75V7.125H12.25C13.2144 7.125 14 7.92372 14 8.90625V17.2188C14 18.2013 13.2144 19 12.25 19H1.75C0.785563 19 0 18.2013 0 17.2188V8.90625C0 7.92372 0.785563 7.125 1.75 7.125ZM10.1111 4.75C10.1111 3.00354 8.71582 1.58338 7 1.58338C5.28418 1.58338 3.88894 3.00354 3.88894 4.75V7.125H10.1111V4.75Z" fill="white"/>
</svg>
