<svg width="29" height="36" viewBox="0 0 29 36" fill="none" xmlns="http://www.w3.org/2000/svg">
<path d="M19.1711 13.3531C18.9424 13.1245 18.6236 12.9934 18.2965 12.9934C17.9647 12.9934 17.6542 13.1211 17.422 13.3531L13.0914 17.6836L11.5959 16.188C11.3624 15.9551 11.0521 15.8269 10.7222 15.8269C10.3921 15.8269 10.0816 15.9553 9.84774 16.189C9.6141 16.4227 9.48535 16.7334 9.48535 17.0638C9.48535 17.3944 9.61419 17.7051 9.84764 17.9385L12.2176 20.3086C12.4492 20.5398 12.7596 20.667 13.0912 20.667C13.0913 20.667 13.0913 20.667 13.0913 20.667C13.4231 20.667 13.7333 20.5397 13.9661 20.3077L19.1713 15.1026C19.6534 14.6205 19.6535 13.8359 19.1711 13.3531Z" fill="#FFCA26"/>
<path d="M28.9411 7.30226C28.9215 7.07693 28.785 6.87842 28.5817 6.77956L14.7814 0.064867C14.6038 -0.0216223 14.3961 -0.0216223 14.2185 0.064867L0.418326 6.77946C0.214968 6.87842 0.0784057 7.07683 0.0589109 7.30216C0.0412964 7.50463 -0.354437 12.3292 1.17011 18.2219C2.06815 21.693 3.45099 24.8069 5.28013 27.4771C7.57428 30.826 10.5766 33.4781 14.2039 35.3598C14.2967 35.408 14.3984 35.4321 14.5 35.4321C14.6017 35.4321 14.7034 35.408 14.7962 35.3598C18.4234 33.4781 21.4259 30.8261 23.7201 27.4771C25.5492 24.8069 26.932 21.693 27.83 18.2219C29.3544 12.3292 28.9587 7.50473 28.9411 7.30226ZM14.4999 24.9079C9.98865 24.9079 6.3185 21.2377 6.3185 16.7264C6.3185 12.2151 9.98865 8.54497 14.4999 8.54497C19.0112 8.54497 22.6814 12.2151 22.6814 16.7264C22.6814 21.2377 19.0112 24.9079 14.4999 24.9079Z" fill="#FFCA26"/>
</svg>
