<svg width="49" height="27" viewBox="0 0 49 27" fill="none" xmlns="http://www.w3.org/2000/svg">
<path d="M37.0318 2.22999H32.1654C30.6189 0.849298 27.7053 0 24.4634 0C21.2216 0 18.308 0.849179 16.7615 2.22999H11.8951C5.33613 2.22999 0 7.566 0 14.1249C0 20.6838 5.33613 26.02 11.8951 26.02C18.4539 26.02 23.79 20.6838 23.79 14.1249C23.79 14.0381 23.7891 13.9513 23.7872 13.8642H25.1399C25.1379 13.9512 25.1371 14.0381 25.1371 14.1249C25.1371 20.6838 30.4734 26.02 37.0323 26.02C43.5912 26.02 48.9273 20.6838 48.9273 14.1249C48.9271 7.566 43.5907 2.22999 37.0318 2.22999ZM11.8951 21.1831C8.00336 21.1831 4.83708 18.0168 4.83708 14.1249C4.83708 10.2331 8.00324 7.06671 11.8951 7.06671C15.7869 7.06671 18.9532 10.2331 18.9532 14.1249C18.9532 18.0168 15.7869 21.1831 11.8951 21.1831ZM27.6599 6.83616H21.2654C20.5064 6.83616 19.8896 6.21777 19.8896 5.45881C19.8896 4.69996 20.5064 4.08146 21.2654 4.08146H27.6599C28.4202 4.08146 29.0373 4.69996 29.0373 5.45881C29.0373 6.21765 28.4202 6.83616 27.6599 6.83616ZM37.0318 21.1831C33.14 21.1831 29.9737 18.0168 29.9737 14.1249C29.9737 10.2331 33.14 7.06671 37.0318 7.06671C40.9233 7.06671 44.0898 10.2331 44.0898 14.1249C44.0898 18.0168 40.9236 21.1831 37.0318 21.1831Z" fill="#FFCA26"/>
</svg>
